<svg width="240" height="240" viewBox="0 0 240 240" fill="none" xmlns="http://www.w3.org/2000/svg">
<path d="M186.42 0H53.5802C23.9887 0 0 23.9887 0 53.5802V186.42C0 216.011 23.9887 240 53.5802 240H186.42C216.011 240 240 216.011 240 186.42V53.5802C240 23.9887 216.011 0 186.42 0Z" fill="#212261"/>
<path d="M58.4844 81.0236C58.4844 75.108 63.26 70.3125 69.151 70.3125H170.56C176.451 70.3125 181.227 75.108 181.227 81.0236V139.84C181.227 145.756 176.451 150.551 170.56 150.551H69.151C63.26 150.551 58.4844 145.756 58.4844 139.84V81.0236Z" fill="#F6F7FA" fill-opacity="0.12"/>
<path d="M161.362 86.3594H78.5243C76.5606 86.3594 74.9688 87.9579 74.9688 89.9297V91.0611C74.9688 93.0329 76.5606 94.6314 78.5243 94.6314H161.362C163.325 94.6314 164.917 93.0329 164.917 91.0611V89.9297C164.917 87.9579 163.325 86.3594 161.362 86.3594Z" fill="#FF7A00"/>
<path d="M134.19 116.141H78.5243C76.5606 116.141 74.9688 117.739 74.9688 119.711V120.842C74.9688 122.814 76.5606 124.413 78.5243 124.413H134.19C136.153 124.413 137.745 122.814 137.745 120.842V119.711C137.745 117.739 136.153 116.141 134.19 116.141Z" fill="#F6F7FA" fill-opacity="0.15"/>
<path d="M146.37 101.25H78.5243C76.5606 101.25 74.9688 102.849 74.9688 104.82V105.952C74.9688 107.924 76.5606 109.522 78.5243 109.522H146.37C148.334 109.522 149.926 107.924 149.926 105.952V104.82C149.926 102.849 148.334 101.25 146.37 101.25Z" fill="white"/>
<path d="M181.234 139.842C181.234 145.757 176.459 150.553 170.568 150.553H69.1589C63.2678 150.553 58.4922 145.757 58.4922 139.842V138.145H181.234V139.842Z" fill="#F6F7FA" fill-opacity="0.12"/>
<path d="M144.978 172.059H93.9045C92.0846 172.059 90.6094 173.54 90.6094 175.367C90.6094 177.195 92.0846 178.676 93.9045 178.676H144.978C146.798 178.676 148.274 177.195 148.274 175.367C148.274 173.54 146.798 172.059 144.978 172.059Z" fill="#F6F7FA" fill-opacity="0.12"/>
<path d="M108.725 154.688H130.967L134.262 167.923H105.43L108.725 154.688Z" fill="#F6F7FA" fill-opacity="0.12"/>
<mask id="mask0_15771_16041" style="mask-type:luminance" maskUnits="userSpaceOnUse" x="149" y="117" width="51" height="51">
<path d="M199.114 117.82H149.336V167.805H199.114V117.82Z" fill="white"/>
</mask>
<g mask="url(#mask0_15771_16041)">
<path d="M195.187 119.939C193.057 117.801 189.615 117.801 187.485 119.939L184.559 122.868L194.077 132.426L197.003 129.487C199.133 127.349 199.133 123.893 197.003 121.755L195.187 119.939ZM166.097 141.417C165.504 142.013 165.047 142.745 164.784 143.555L161.907 152.225C161.625 153.064 161.848 153.992 162.471 154.626C163.093 155.261 164.016 155.476 164.862 155.193L173.496 152.303C174.293 152.039 175.022 151.58 175.625 150.985L191.891 134.642L182.362 125.075L166.097 141.417ZM158.669 124.069C153.517 124.069 149.336 128.267 149.336 133.441V158.434C149.336 163.608 153.517 167.806 158.669 167.806H183.558C188.71 167.806 192.891 163.608 192.891 158.434V149.062C192.891 147.334 191.501 145.938 189.78 145.938C188.059 145.938 186.669 147.334 186.669 149.062V158.434C186.669 160.162 185.279 161.558 183.558 161.558H158.669C156.948 161.558 155.558 160.162 155.558 158.434V133.441C155.558 131.713 156.948 130.317 158.669 130.317H168.003C169.723 130.317 171.114 128.921 171.114 127.193C171.114 125.465 169.723 124.069 168.003 124.069H158.669Z" fill="white"/>
</g>
</svg>
