<svg width="290" height="290" viewBox="0 0 290 290" fill="none" xmlns="http://www.w3.org/2000/svg">
<rect width="290" height="290" rx="30" fill="#212261"/>
<rect x="59" y="88" width="173" height="125" rx="6" fill="#F6F7FA" fill-opacity="0.12"/>
<path d="M59 94C59 90.6863 61.6863 88 65 88H226C229.314 88 232 90.6863 232 94V111H59V94Z" fill="#F6F7FA" fill-opacity="0.12"/>
<rect x="81" y="125" width="20" height="13" fill="#F6F7FA" fill-opacity="0.12"/>
<rect x="135" y="125" width="20" height="13" fill="#F6F7FA" fill-opacity="0.12"/>
<rect x="108" y="125" width="20" height="13" fill="#F6F7FA" fill-opacity="0.12"/>
<rect x="162" y="125" width="20" height="13" fill="#F6F7FA" fill-opacity="0.12"/>
<rect x="189" y="125" width="20" height="13" fill="#F6F7FA" fill-opacity="0.12"/>
<rect x="81" y="144" width="20" height="13" fill="#F6F7FA" fill-opacity="0.12"/>
<rect x="135" y="144" width="20" height="13" fill="#FF6B00"/>
<rect x="108" y="144" width="20" height="13" fill="#F6F7FA" fill-opacity="0.12"/>
<rect x="162" y="144" width="20" height="13" fill="#F6F7FA" fill-opacity="0.12"/>
<rect x="189" y="144" width="20" height="13" fill="#F6F7FA" fill-opacity="0.12"/>
<rect x="81" y="163" width="20" height="13" fill="#F6F7FA" fill-opacity="0.12"/>
<rect x="135" y="163" width="20" height="13" fill="#F6F7FA" fill-opacity="0.12"/>
<rect x="108" y="163" width="20" height="13" fill="#F6F7FA" fill-opacity="0.12"/>
<rect x="162" y="163" width="20" height="13" fill="#F6F7FA" fill-opacity="0.12"/>
<rect x="189" y="163" width="20" height="13" fill="#F6F7FA" fill-opacity="0.12"/>
<rect x="81" y="182" width="20" height="13" fill="#F6F7FA" fill-opacity="0.12"/>
<rect x="135" y="182" width="20" height="13" fill="#F6F7FA" fill-opacity="0.12"/>
<rect x="108" y="182" width="20" height="13" fill="#F6F7FA" fill-opacity="0.12"/>
<rect x="162" y="182" width="20" height="13" fill="#F6F7FA" fill-opacity="0.12"/>
<rect x="189" y="182" width="20" height="13" fill="#F6F7FA" fill-opacity="0.12"/>
<circle cx="227.629" cy="191.372" r="19.0577" transform="rotate(10.8018 227.629 191.372)" stroke="white" stroke-width="4"/>
<rect x="81" y="74" width="13" height="28" rx="6.5" fill="#F6F7FA" fill-opacity="0.15"/>
<rect x="196" y="74" width="13" height="28" rx="6.5" fill="#F6F7FA" fill-opacity="0.15"/>
<path d="M220 186.5L229.172 196.5L248 176" stroke="#FF7A00" stroke-width="5" stroke-linecap="round"/>
</svg>
