<svg width="290" height="290" viewBox="0 0 290 290" fill="none" xmlns="http://www.w3.org/2000/svg">
<rect width="290" height="290" rx="30" fill="#212261"/>
<path d="M71 85C71 81.6863 73.6863 79 77 79H214C217.314 79 220 81.6863 220 85V170C220 173.314 217.314 176 214 176H77C73.6863 176 71 173.314 71 170V85Z" fill="#F6F7FA" fill-opacity="0.12"/>
<rect x="91" y="95" width="52" height="14" rx="2" fill="#F6F7FA" fill-opacity="0.15"/>
<rect x="91" y="114" width="52" height="15" rx="2" fill="#F6F7FA" fill-opacity="0.15"/>
<rect x="91" y="134" width="52" height="14" rx="2" fill="#F6F7FA" fill-opacity="0.15"/>
<rect x="148" y="95" width="52" height="14" rx="2" fill="#F6F7FA" fill-opacity="0.15"/>
<rect x="148" y="114" width="52" height="15" rx="2" fill="#F6F7FA" fill-opacity="0.15"/>
<rect x="148" y="134" width="52" height="14" rx="2" fill="#F6F7FA" fill-opacity="0.15"/>
<path d="M220 169.999C220 173.313 217.314 175.999 214 175.999L77 175.999C73.6863 175.999 71 173.313 71 169.999L71 159.999L220 159.999L220 169.999Z" fill="#F6F7FA" fill-opacity="0.12"/>
<rect x="111" y="202.999" width="70" height="8" rx="4" fill="#F6F7FA" fill-opacity="0.12"/>
<path d="M133 181.999H160L164 197.999H129L133 181.999Z" fill="#F6F7FA" fill-opacity="0.12"/>
<g clip-path="url(#clip0_4149_11048)">
<path d="M233.133 191.187C235.083 184.5 233.133 178.37 233.133 178.37H228.639C228.239 176.986 227.707 175.658 227.055 174.401L230.354 171.103C227.004 164.995 221.291 162.04 221.291 162.04L218.115 165.216C216.873 164.532 215.56 163.964 214.187 163.526V158.867C207.5 156.916 201.37 158.867 201.37 158.867V163.36C199.986 163.761 198.658 164.293 197.401 164.944L194.103 161.646C187.996 164.995 185.041 170.709 185.041 170.709L188.217 173.885C187.532 175.126 186.964 176.44 186.527 177.813H181.867C179.916 184.5 181.867 190.629 181.867 190.629H186.36C186.761 192.014 187.293 193.342 187.944 194.599L184.647 197.897C187.996 204.004 193.709 206.96 193.709 206.96L196.886 203.783C198.127 204.468 199.441 205.036 200.814 205.473V210.133C207.5 212.083 213.63 210.133 213.63 210.133V205.639C215.014 205.238 216.342 204.707 217.599 204.055L220.897 207.354C227.004 204.004 229.96 198.291 229.96 198.291L226.783 195.115C227.468 193.873 228.036 192.56 228.473 191.187H233.133ZM207.5 199.545C199.191 199.545 192.455 192.809 192.455 184.5C192.455 176.191 199.191 169.455 207.5 169.455C215.809 169.455 222.546 176.191 222.546 184.5C222.546 192.809 215.81 199.545 207.5 199.545Z" fill="white"/>
</g>
<g clip-path="url(#clip1_4149_11048)">
<path d="M236.897 164.042C234.58 165.115 232.59 166.983 231.361 169.515C229.358 173.642 229.914 178.398 232.396 181.874L220.549 206.28C219.273 208.908 220.296 212.11 222.833 213.431C225.371 214.753 228.462 213.693 229.738 211.065L241.586 186.66C245.76 186.65 249.778 184.276 251.781 180.15C253.886 175.814 253.171 170.78 250.358 167.27L246.425 175.374L238.257 171.12L242.19 163.016C240.361 162.915 238.547 163.278 236.897 164.042" fill="#FF6B00"/>
</g>
<defs>
<clipPath id="clip0_4149_11048">
<rect width="53" height="53" fill="white" transform="translate(181 158)"/>
</clipPath>
<clipPath id="clip1_4149_11048">
<rect width="33" height="51" fill="white" transform="translate(220 163)"/>
</clipPath>
</defs>
</svg>
