<svg width="240" height="240" viewBox="0 0 240 240" fill="none" xmlns="http://www.w3.org/2000/svg">
<path d="M186.42 0H53.5802C23.9887 0 0 23.9887 0 53.5802V186.42C0 216.011 23.9887 240 53.5802 240H186.42C216.011 240 240 216.011 240 186.42V53.5802C240 23.9887 216.011 0 186.42 0Z" fill="#212261"/>
<path d="M191.158 62H47.737C41.8459 62 37.0703 66.7405 37.0703 72.5882V168.345C37.0703 174.193 41.8459 178.933 47.737 178.933H191.158C197.049 178.933 201.825 174.193 201.825 168.345V72.5882C201.825 66.7405 197.049 62 191.158 62Z" fill="#F6F7FA" fill-opacity="0.12"/>
<path d="M180.972 82.4414H58.7509C56.7872 82.4414 55.1953 84.0216 55.1953 85.9708V91.1777C55.1953 93.127 56.7872 94.7071 58.7509 94.7071H180.972C182.936 94.7071 184.528 93.127 184.528 91.1777V85.9708C184.528 84.0216 182.936 82.4414 180.972 82.4414Z" fill="#F6F7FA" fill-opacity="0.15"/>
<path d="M180.972 100.434H58.7509C56.7872 100.434 55.1953 102.014 55.1953 103.963V108.352C55.1953 110.301 56.7872 111.882 58.7509 111.882H180.972C182.936 111.882 184.528 110.301 184.528 108.352V103.963C184.528 102.014 182.936 100.434 180.972 100.434Z" fill="#F6F7FA" fill-opacity="0.15"/>
<path d="M112.599 117.605H58.7509C56.7872 117.605 55.1953 119.186 55.1953 121.135V157.415C55.1953 159.364 56.7872 160.944 58.7509 160.944H112.599C114.563 160.944 116.155 159.364 116.155 157.415V121.135C116.155 119.186 114.563 117.605 112.599 117.605Z" fill="#F6F7FA" fill-opacity="0.15"/>
<path d="M180.969 117.605H124.649C122.686 117.605 121.094 119.186 121.094 121.135V157.415C121.094 159.364 122.686 160.944 124.649 160.944H180.969C182.932 160.944 184.524 159.364 184.524 157.415V121.135C184.524 119.186 182.932 117.605 180.969 117.605Z" fill="#F6F7FA" fill-opacity="0.15"/>
<path d="M148.022 124.965H132.891C130.928 124.965 129.336 126.545 129.336 128.494V134.519C129.336 136.468 130.928 138.048 132.891 138.048H148.022C149.986 138.048 151.578 136.468 151.578 134.519V128.494C151.578 126.545 149.986 124.965 148.022 124.965Z" fill="#414278"/>
<path d="M148.022 141.316H132.891C130.928 141.316 129.336 142.897 129.336 144.846V150.87C129.336 152.82 130.928 154.4 132.891 154.4H148.022C149.986 154.4 151.578 152.82 151.578 150.87V144.846C151.578 142.897 149.986 141.316 148.022 141.316Z" fill="#414278"/>
<path d="M173.554 141.316H158.423C156.459 141.316 154.867 142.897 154.867 144.846V150.87C154.867 152.82 156.459 154.4 158.423 154.4H173.554C175.517 154.4 177.109 152.82 177.109 150.87V144.846C177.109 142.897 175.517 141.316 173.554 141.316Z" fill="#414278"/>
<path d="M173.554 124.965H158.423C156.459 124.965 154.867 126.545 154.867 128.494V134.519C154.867 136.468 156.459 138.048 158.423 138.048H173.554C175.517 138.048 177.109 136.468 177.109 134.519V128.494C177.109 126.545 175.517 124.965 173.554 124.965Z" fill="#FF6B00"/>
<path d="M186.154 148.466C193.357 149.462 200.01 144.472 201.013 137.321C202.015 130.171 196.989 123.567 189.785 122.572C182.582 121.576 175.929 126.566 174.926 133.717C173.924 140.867 178.95 147.471 186.154 148.466Z" stroke="white" stroke-width="4"/>
<path d="M207.334 165.918C208.557 167.443 210.794 167.694 212.33 166.48C213.866 165.265 214.118 163.044 212.895 161.52L207.334 165.918ZM194.266 149.637L207.334 165.918L212.895 161.52L199.828 145.238L194.266 149.637Z" fill="white"/>
<path d="M201.039 160.338L208.684 154.586L217.156 165.683C218.756 167.779 218.342 170.765 216.232 172.353C214.12 173.941 211.112 173.53 209.512 171.435L201.039 160.338Z" fill="#FF6B00"/>
</svg>
