<svg width="240" height="240" viewBox="0 0 240 240" fill="none" xmlns="http://www.w3.org/2000/svg">
<path d="M186.42 0H53.5802C23.9887 0 0 23.9887 0 53.5802V186.42C0 216.011 23.9887 240 53.5802 240H186.42C216.011 240 240 216.011 240 186.42V53.5802C240 23.9887 216.011 0 186.42 0Z" fill="#212261"/>
<path d="M56.8906 76.444C56.8906 70.553 61.6663 65.7773 67.5573 65.7773H168.966C174.857 65.7773 179.632 70.553 179.632 76.444V135.017C179.632 140.908 174.857 145.683 168.966 145.683H67.5573C61.6663 145.683 56.8906 140.908 56.8906 135.017V76.444Z" fill="#F6F7FA" fill-opacity="0.12"/>
<path d="M159.768 81.7578H76.9306C74.9669 81.7578 73.375 83.3497 73.375 85.3134V86.44C73.375 88.4037 74.9669 89.9955 76.9306 89.9955H159.768C161.732 89.9955 163.323 88.4037 163.323 86.44V85.3134C163.323 83.3497 161.732 81.7578 159.768 81.7578Z" fill="#F6F7FA" fill-opacity="0.15"/>
<path d="M132.596 111.414H76.9306C74.9669 111.414 73.375 113.006 73.375 114.97V116.096C73.375 118.06 74.9669 119.652 76.9306 119.652H132.596C134.56 119.652 136.152 118.06 136.152 116.096V114.97C136.152 113.006 134.56 111.414 132.596 111.414Z" fill="#F6F7FA" fill-opacity="0.15"/>
<path d="M144.777 96.5859H76.9306C74.9669 96.5859 73.375 98.1778 73.375 100.141V101.268C73.375 103.232 74.9669 104.824 76.9306 104.824H144.777C146.74 104.824 148.332 103.232 148.332 101.268V100.141C148.332 98.1778 146.74 96.5859 144.777 96.5859Z" fill="#F6F7FA" fill-opacity="0.15"/>
<path d="M179.641 135.018C179.641 140.909 174.865 145.685 168.974 145.685H67.5651C61.6741 145.685 56.8984 140.909 56.8984 135.018V133.328H179.641V135.018Z" fill="#F6F7FA" fill-opacity="0.12"/>
<path d="M143.385 167.102H92.3107C90.4909 167.102 89.0156 168.577 89.0156 170.397C89.0156 172.216 90.4909 173.692 92.3107 173.692H143.385C145.205 173.692 146.68 172.216 146.68 170.397C146.68 168.577 145.205 167.102 143.385 167.102Z" fill="#F6F7FA" fill-opacity="0.12"/>
<path d="M107.127 149.801H129.369L132.664 162.981H103.832L107.127 149.801Z" fill="#F6F7FA" fill-opacity="0.12"/>
<path d="M65.3882 80.1562H55.3793C57.0474 88.1406 52.043 92.1326 52.043 92.1326C56.4913 92.1326 64.8321 90.992 65.3882 80.1562Z" fill="white"/>
<path d="M68.5104 55.0625H51.1398C44.2669 55.0625 38.6953 60.6341 38.6953 67.5069V73.4145C38.6953 80.2874 44.2669 85.8589 51.1398 85.8589H68.5104C75.3833 85.8589 80.9549 80.2874 80.9549 73.4145V67.5069C80.9549 60.6341 75.3833 55.0625 68.5104 55.0625Z" fill="white"/>
<path d="M67.6462 62.4727H47.7725C46.8626 62.4727 46.125 63.2103 46.125 64.1202C46.125 65.0301 46.8626 65.7677 47.7725 65.7677H67.6462C68.5561 65.7677 69.2937 65.0301 69.2937 64.1202C69.2937 63.2103 68.5561 62.4727 67.6462 62.4727Z" fill="#FF7A00"/>
<path d="M71.353 68.9609H47.7725C46.8626 68.9609 46.125 69.6986 46.125 70.6085C46.125 71.5184 46.8626 72.256 47.7725 72.256H71.353C72.2629 72.256 73.0006 71.5184 73.0006 70.6085C73.0006 69.6986 72.2629 68.9609 71.353 68.9609Z" fill="#FF7A00"/>
<path d="M63.0124 75.4492H47.7725C46.8626 75.4492 46.125 76.1869 46.125 77.0968C46.125 78.0067 46.8626 78.7443 47.7725 78.7443H63.0124C63.9223 78.7443 64.6599 78.0067 64.6599 77.0968C64.6599 76.1869 63.9223 75.4492 63.0124 75.4492Z" fill="#FF7A00"/>
<path d="M171.297 154.359H181.991C180.207 162.677 185.555 166.835 185.555 166.835C180.803 166.835 171.891 165.647 171.297 154.359Z" fill="#FF6B00"/>
<path d="M167.11 128H187.528C194.401 128 199.973 133.572 199.973 140.444V148.506C199.973 155.379 194.401 160.951 187.528 160.951H167.11C160.237 160.951 154.665 155.379 154.665 148.506V140.444C154.665 133.572 160.237 128 167.11 128Z" fill="#FF6B00"/>
<path d="M172.784 135.414H190.907C191.817 135.414 192.555 136.152 192.555 137.062C192.555 137.972 191.817 138.709 190.907 138.709H172.784C171.874 138.709 171.137 137.972 171.137 137.062C171.137 136.152 171.874 135.414 172.784 135.414Z" fill="white"/>
<path d="M162.902 135.414H167.02C167.93 135.414 168.668 136.152 168.668 137.062C168.668 137.972 167.93 138.709 167.02 138.709H162.902C161.992 138.709 161.254 137.972 161.254 137.062C161.254 136.152 161.992 135.414 162.902 135.414Z" fill="white"/>
<path d="M162.899 142.828H190.907C191.817 142.828 192.555 143.566 192.555 144.476C192.555 145.386 191.817 146.123 190.907 146.123H162.899C161.989 146.123 161.251 145.386 161.251 144.476C161.251 143.566 161.989 142.828 162.899 142.828Z" fill="white"/>
<path d="M162.899 150.242H190.907C191.817 150.242 192.555 150.98 192.555 151.89C192.555 152.8 191.817 153.537 190.907 153.537H162.899C161.989 153.537 161.251 152.8 161.251 151.89C161.251 150.98 161.989 150.242 162.899 150.242Z" fill="white"/>
</svg>
