<svg width="240" height="240" viewBox="0 0 240 240" fill="none" xmlns="http://www.w3.org/2000/svg">
<path d="M186.42 0H53.5802C23.9887 0 0 23.9887 0 53.5802V186.42C0 216.011 23.9887 240 53.5802 240H186.42C216.011 240 240 216.011 240 186.42V53.5802C240 23.9887 216.011 0 186.42 0Z" fill="#212261"/>
<path d="M58.6641 76.444C58.6641 70.553 63.4397 65.7773 69.3307 65.7773H170.74C176.631 65.7773 181.405 70.553 181.405 76.444V135.017C181.405 140.908 176.631 145.683 170.74 145.683H69.3307C63.4397 145.683 58.6641 140.908 58.6641 135.017V76.444Z" fill="#F6F7FA" fill-opacity="0.12"/>
<path d="M114.437 78.957H78.7118C76.7481 78.957 75.1562 80.5489 75.1562 82.5126V86.9343C75.1562 88.898 76.7481 90.4898 78.7118 90.4898H114.437C116.401 90.4898 117.993 88.898 117.993 86.9343V82.5126C117.993 80.5489 116.401 78.957 114.437 78.957Z" fill="#F6F7FA" fill-opacity="0.15"/>
<path d="M114.437 94.6094H78.7118C76.7481 94.6094 75.1562 96.2013 75.1562 98.1649V103.41C75.1562 105.374 76.7481 106.966 78.7118 106.966H114.437C116.401 106.966 117.993 105.374 117.993 103.41V98.1649C117.993 96.2013 116.401 94.6094 114.437 94.6094Z" fill="#F6F7FA" fill-opacity="0.15"/>
<path d="M114.437 111.086H78.7118C76.7481 111.086 75.1562 112.678 75.1562 114.641V119.063C75.1562 121.027 76.7481 122.619 78.7118 122.619H114.437C116.401 122.619 117.993 121.027 117.993 119.063V114.641C117.993 112.678 116.401 111.086 114.437 111.086Z" fill="#F6F7FA" fill-opacity="0.15"/>
<path d="M161.374 78.957H125.649C123.686 78.957 122.094 80.5489 122.094 82.5126V86.9343C122.094 88.898 123.686 90.4898 125.649 90.4898H161.374C163.338 90.4898 164.93 88.898 164.93 86.9343V82.5126C164.93 80.5489 163.338 78.957 161.374 78.957Z" fill="#F6F7FA" fill-opacity="0.15"/>
<path d="M161.374 94.6094H125.649C123.686 94.6094 122.094 96.2013 122.094 98.1649V103.41C122.094 105.374 123.686 106.966 125.649 106.966H161.374C163.338 106.966 164.93 105.374 164.93 103.41V98.1649C164.93 96.2013 163.338 94.6094 161.374 94.6094Z" fill="#F6F7FA" fill-opacity="0.15"/>
<path d="M161.374 111.086H125.649C123.686 111.086 122.094 112.678 122.094 114.641V119.063C122.094 121.027 123.686 122.619 125.649 122.619H161.374C163.338 122.619 164.93 121.027 164.93 119.063V114.641C164.93 112.678 163.338 111.086 161.374 111.086Z" fill="#F6F7FA" fill-opacity="0.15"/>
<path d="M181.414 135.018C181.414 140.909 176.638 145.684 170.747 145.684H69.3385C63.4475 145.684 58.6719 140.909 58.6719 135.018V132.504H181.414V135.018Z" fill="#F6F7FA" fill-opacity="0.12"/>
<path d="M145.994 167.926H94.9201C93.1003 167.926 91.625 169.401 91.625 171.221C91.625 173.041 93.1003 174.516 94.9201 174.516H145.994C147.814 174.516 149.289 173.041 149.289 171.221C149.289 169.401 147.814 167.926 145.994 167.926Z" fill="#F6F7FA" fill-opacity="0.12"/>
<path d="M109.74 150.625H131.982L135.277 163.805H106.445L109.74 150.625Z" fill="#F6F7FA" fill-opacity="0.12"/>
<mask id="mask0_15771_16073" style="mask-type:luminance" maskUnits="userSpaceOnUse" x="144" y="113" width="63" height="46">
<path d="M206.222 113.777H144V158.222H206.222V113.777Z" fill="white"/>
</mask>
<g mask="url(#mask0_15771_16073)">
<path d="M154.889 113.777C152.313 113.777 150.222 115.644 150.222 117.944V122.111H145.556C144.7 122.111 144 122.736 144 123.5C144 124.263 144.7 124.888 145.556 124.888H150.222H170.444C171.3 124.888 172 125.514 172 126.277C172 127.041 171.3 127.666 170.444 127.666H150.222H148.667C147.811 127.666 147.111 128.291 147.111 129.055C147.111 129.819 147.811 130.444 148.667 130.444H150.222H167.333C168.189 130.444 168.889 131.069 168.889 131.833C168.889 132.597 168.189 133.222 167.333 133.222H150.222H145.556C144.7 133.222 144 133.847 144 134.611C144 135.375 144.7 136 145.556 136H150.222H164.222C165.078 136 165.778 136.625 165.778 137.388C165.778 138.152 165.078 138.777 164.222 138.777H150.222V149.888C150.222 154.489 154.403 158.222 159.556 158.222C164.708 158.222 168.889 154.489 168.889 149.888H181.333C181.333 154.489 185.515 158.222 190.667 158.222C195.819 158.222 200 154.489 200 149.888H203.111C204.832 149.888 206.222 148.647 206.222 147.111C206.222 145.574 204.832 144.333 203.111 144.333V138.777V136V134.376C203.111 132.901 202.46 131.486 201.292 130.444L193.778 123.734C192.612 122.692 191.026 122.111 189.374 122.111H184.444V117.944C184.444 115.644 182.354 113.777 179.778 113.777H154.889ZM196.889 134.376V136H184.444V127.666H189.374L196.889 134.376ZM159.556 145.722C160.793 145.722 161.98 146.161 162.855 146.942C163.73 147.724 164.222 148.783 164.222 149.888C164.222 150.994 163.73 152.053 162.855 152.835C161.98 153.616 160.793 154.055 159.556 154.055C158.318 154.055 157.131 153.616 156.256 152.835C155.381 152.053 154.889 150.994 154.889 149.888C154.889 148.783 155.381 147.724 156.256 146.942C157.131 146.161 158.318 145.722 159.556 145.722ZM186 149.888C186 148.783 186.492 147.724 187.367 146.942C188.242 146.161 189.429 145.722 190.667 145.722C191.904 145.722 193.092 146.161 193.966 146.942C194.841 147.724 195.333 148.783 195.333 149.888C195.333 150.994 194.841 152.053 193.966 152.835C193.092 153.616 191.904 154.055 190.667 154.055C189.429 154.055 188.242 153.616 187.367 152.835C186.492 152.053 186 150.994 186 149.888Z" fill="#FF7A00"/>
</g>
<path d="M51.0127 58.8575C51.7604 58.519 52.6401 58.6404 53.2646 59.17L56.8182 62.1737L60.372 59.17C61.1636 58.5016 62.3336 58.5016 63.1164 59.17L66.6701 62.1737L70.2239 59.17C71.0156 58.5016 72.1853 58.5016 72.9683 59.17L76.522 62.1737L80.0756 59.17C80.7002 58.6404 81.5798 58.519 82.3276 58.8575C83.0753 59.1961 83.559 59.9339 83.559 60.7499V101.03C83.559 101.846 83.0753 102.584 82.3276 102.923C81.5798 103.261 80.7002 103.14 80.0756 102.61L76.522 99.6066L72.9683 102.61C72.1766 103.279 71.0067 103.279 70.2239 102.61L66.6701 99.6066L63.1164 102.61C62.3247 103.279 61.1549 103.279 60.372 102.61L56.8182 99.6066L53.2646 102.61C52.6401 103.14 51.7604 103.261 51.0127 102.923C50.265 102.584 49.7812 101.846 49.7812 101.03V60.7499C49.7812 59.9339 50.265 59.1961 51.0127 58.8575ZM58.2257 71.1673C57.4517 71.1673 56.8182 71.7924 56.8182 72.5563C56.8182 73.3202 57.4517 73.9453 58.2257 73.9453H75.1146C75.8886 73.9453 76.522 73.3202 76.522 72.5563C76.522 71.7924 75.8886 71.1673 75.1146 71.1673H58.2257ZM56.8182 89.2241C56.8182 89.988 57.4517 90.613 58.2257 90.613H75.1146C75.8886 90.613 76.522 89.988 76.522 89.2241C76.522 88.4601 75.8886 87.8351 75.1146 87.8351H58.2257C57.4517 87.8351 56.8182 88.4601 56.8182 89.2241ZM58.2257 79.5012C57.4517 79.5012 56.8182 80.1263 56.8182 80.8902C56.8182 81.6541 57.4517 82.2792 58.2257 82.2792H75.1146C75.8886 82.2792 76.522 81.6541 76.522 80.8902C76.522 80.1263 75.8886 79.5012 75.1146 79.5012H58.2257Z" fill="white"/>
</svg>
