<?xml version="1.0" encoding="UTF-8"?>
<svg id="Layer_2" data-name="Layer 2" xmlns="http://www.w3.org/2000/svg" viewBox="0 0 335.27 67.04">
  <defs>
    <style>
      .cls-1 {
        fill: #222;
      }

      .cls-2, .cls-3, .cls-4, .cls-5 {
        fill: #ff7c24;
      }

      .cls-3 {
        opacity: .5;
      }

      .cls-4 {
        opacity: .8;
      }

      .cls-6 {
        fill: #707070;
      }

      .cls-5 {
        opacity: .3;
      }
    </style>
  </defs>
  <g id="Layer_1-2" data-name="Layer 1">
    <g>
      <g>
        <path class="cls-6" d="m156.46,57.23c.46-.46,1.01-.81,1.64-1.06s1.31-.37,2.04-.37,1.35.11,1.95.34,1.16.6,1.65,1.11l.82-.82c-.53-.59-1.19-1.04-1.97-1.33-.78-.3-1.61-.44-2.49-.44s-1.76.15-2.54.46-1.45.74-2.03,1.3c-.57.56-1.02,1.21-1.34,1.97-.32.75-.48,1.58-.48,2.47s.16,1.72.48,2.47c.32.75.76,1.41,1.33,1.97.57.56,1.24.99,2.02,1.3.78.31,1.62.46,2.54.46s1.73-.15,2.51-.45c.78-.3,1.43-.75,1.97-1.34l-.82-.82c-.5.51-1.05.88-1.65,1.12-.6.23-1.25.35-1.95.35-.73,0-1.41-.12-2.04-.37s-1.17-.6-1.64-1.06c-.46-.46-.83-.99-1.09-1.6s-.39-1.28-.39-2.01.13-1.4.39-2.01.62-1.14,1.09-1.6Z"/>
        <path class="cls-6" d="m171.61,57.71c-.72,0-1.4.11-2.05.32-.65.21-1.21.52-1.67.91l.56.92c.37-.33.82-.59,1.36-.78.53-.2,1.1-.3,1.69-.3.86,0,1.51.21,1.94.63.44.42.65,1.02.65,1.79v.56h-2.91c-.87,0-1.56.12-2.08.36s-.89.55-1.11.94c-.23.39-.34.82-.34,1.3,0,.52.13.98.4,1.38.27.4.65.71,1.16.94.5.23,1.1.34,1.78.34.87,0,1.59-.18,2.17-.54.42-.26.75-.59.98-.99v1.44h1.18v-5.68c0-1.2-.32-2.09-.97-2.67-.64-.59-1.56-.88-2.74-.88Zm2.47,6.48c-.23.6-.6,1.07-1.11,1.38-.5.32-1.11.48-1.8.48-.73,0-1.3-.16-1.71-.47-.41-.31-.61-.73-.61-1.25,0-.46.17-.85.51-1.17.34-.31.95-.47,1.84-.47h2.87v1.5Z"/>
        <rect class="cls-6" x="180.17" y="54.01" width="1.24" height="12.92"/>
        <path class="cls-6" d="m186.98,54.01c-.26,0-.47.08-.64.25-.17.17-.26.38-.26.62s.09.45.26.63c.17.17.39.26.64.26s.48-.09.65-.26c.17-.17.25-.39.25-.64s-.09-.45-.26-.61c-.17-.16-.39-.24-.64-.24Z"/>
        <rect class="cls-6" x="186.36" y="57.79" width="1.24" height="9.14"/>
        <path class="cls-6" d="m199.6,58.29c-.69-.39-1.47-.58-2.34-.58-.79,0-1.5.18-2.14.54-.54.31-.99.74-1.34,1.29v-5.52h-1.24v12.92h1.18v-1.83c.36.58.81,1.04,1.38,1.37.64.37,1.36.55,2.16.55.87,0,1.65-.2,2.34-.59.69-.39,1.23-.94,1.63-1.65s.59-1.51.59-2.43-.2-1.74-.59-2.44c-.39-.7-.94-1.24-1.63-1.63Zm.53,5.94c-.3.54-.71.96-1.22,1.25s-1.09.44-1.74.44-1.23-.15-1.75-.44-.92-.71-1.22-1.25c-.3-.54-.44-1.16-.44-1.87s.15-1.35.44-1.88.7-.95,1.22-1.25,1.1-.44,1.75-.44,1.23.15,1.74.44.92.71,1.22,1.25c.3.53.45,1.16.45,1.88s-.15,1.33-.45,1.87Z"/>
        <path class="cls-6" d="m207.02,59.58v-1.79h-1.18v9.14h1.24v-4.67c0-1.08.27-1.91.82-2.5.55-.59,1.3-.88,2.26-.88.05,0,.09,0,.14,0,.05,0,.09,0,.14,0v-1.2c-.89,0-1.64.18-2.25.55-.52.32-.91.76-1.17,1.33Z"/>
        <path class="cls-6" d="m216.71,57.71c-.72,0-1.4.11-2.05.32-.65.21-1.21.52-1.67.91l.56.92c.37-.33.82-.59,1.36-.78.53-.2,1.1-.3,1.69-.3.86,0,1.51.21,1.94.63.44.42.65,1.02.65,1.79v.56h-2.91c-.87,0-1.56.12-2.08.36s-.89.55-1.11.94c-.23.39-.34.82-.34,1.3,0,.52.13.98.4,1.38.27.4.65.71,1.16.94.5.23,1.1.34,1.78.34.87,0,1.59-.18,2.17-.54.42-.26.75-.59.98-.99v1.44h1.18v-5.68c0-1.2-.32-2.09-.97-2.67-.64-.59-1.56-.88-2.74-.88Zm2.47,6.48c-.23.6-.6,1.07-1.11,1.38-.5.32-1.11.48-1.8.48-.73,0-1.3-.16-1.71-.47-.41-.31-.61-.73-.61-1.25,0-.46.17-.85.51-1.17.34-.31.95-.47,1.84-.47h2.87v1.5Z"/>
        <path class="cls-6" d="m228.3,65.96c-.51,0-.9-.14-1.18-.43s-.41-.7-.41-1.24v-5.47h2.79v-1.03h-2.79v-2.02h-1.24v2.02h-1.64v1.03h1.64v5.54c0,.85.23,1.5.7,1.97.46.46,1.13.7,1.98.7.36,0,.71-.05,1.05-.16.34-.1.64-.27.88-.49l-.44-.89c-.36.31-.81.47-1.36.47Z"/>
        <path class="cls-6" d="m234.47,54.01c-.26,0-.47.08-.64.25-.17.17-.26.38-.26.62s.09.45.26.63c.17.17.39.26.64.26s.48-.09.65-.26c.17-.17.25-.39.25-.64s-.09-.45-.26-.61c-.17-.16-.39-.24-.64-.24Z"/>
        <rect class="cls-6" x="233.84" y="57.79" width="1.24" height="9.14"/>
        <path class="cls-6" d="m246.16,58.3c-.7-.39-1.51-.59-2.41-.59s-1.69.2-2.39.59c-.7.39-1.25.94-1.65,1.64-.41.7-.61,1.5-.61,2.42s.2,1.71.61,2.41c.41.7.96,1.25,1.66,1.65.7.4,1.49.6,2.38.6s1.69-.2,2.4-.6,1.26-.95,1.66-1.65c.4-.7.6-1.51.6-2.41s-.2-1.72-.6-2.42c-.4-.7-.95-1.24-1.65-1.64Zm.56,5.93c-.3.54-.7.96-1.21,1.25-.51.3-1.1.44-1.76.44s-1.21-.15-1.72-.44-.92-.71-1.22-1.25c-.3-.54-.45-1.16-.45-1.87s.15-1.35.45-1.88.71-.95,1.22-1.25,1.09-.44,1.74-.44,1.23.15,1.74.44c.51.3.91.71,1.21,1.25s.44,1.16.44,1.88-.15,1.33-.44,1.87Z"/>
        <path class="cls-6" d="m259.06,58.13c-.56-.28-1.22-.43-1.96-.43-.88,0-1.64.19-2.28.57-.52.31-.91.71-1.2,1.2v-1.68h-1.18v9.14h1.24v-4.81c0-.7.13-1.29.39-1.79.26-.49.63-.87,1.11-1.13.48-.26,1.05-.39,1.7-.39.87,0,1.55.25,2.03.74.48.49.72,1.22.72,2.19v5.19h1.24v-5.31c0-.88-.16-1.61-.48-2.19-.32-.58-.76-1.01-1.32-1.3Z"/>
        <polygon class="cls-6" points="281.51 65.3 277.91 54.75 276.73 54.75 273.09 65.25 269.57 54.75 268.25 54.75 272.36 66.93 273.7 66.93 277.28 56.56 280.85 66.93 282.21 66.93 286.32 54.75 285.08 54.75 281.51 65.3"/>
        <rect class="cls-6" x="289.85" y="57.79" width="1.24" height="9.14"/>
        <path class="cls-6" d="m290.48,54.01c-.26,0-.47.08-.64.25-.17.17-.26.38-.26.62s.09.45.26.63c.17.17.39.26.64.26s.48-.09.65-.26c.17-.17.25-.39.25-.64s-.09-.45-.26-.61c-.17-.16-.39-.24-.64-.24Z"/>
        <polygon class="cls-6" points="302.37 58.59 302.37 57.79 295.15 57.79 295.15 58.82 300.81 58.82 295.04 66.12 295.04 66.93 302.5 66.93 302.5 65.91 296.63 65.91 302.37 58.59"/>
        <path class="cls-6" d="m309.64,57.71c-.72,0-1.4.11-2.05.32-.65.21-1.21.52-1.67.91l.56.92c.37-.33.82-.59,1.36-.78.53-.2,1.1-.3,1.69-.3.86,0,1.51.21,1.94.63.44.42.65,1.02.65,1.79v.56h-2.91c-.87,0-1.56.12-2.08.36s-.89.55-1.11.94c-.23.39-.34.82-.34,1.3,0,.52.13.98.4,1.38.27.4.65.71,1.16.94.5.23,1.1.34,1.78.34.87,0,1.59-.18,2.17-.54.42-.26.75-.59.98-.99v1.44h1.18v-5.68c0-1.2-.32-2.09-.97-2.67-.64-.59-1.56-.88-2.74-.88Zm2.47,6.48c-.23.6-.6,1.07-1.11,1.38-.5.32-1.11.48-1.8.48-.73,0-1.3-.16-1.71-.47-.41-.31-.61-.73-.61-1.25,0-.46.17-.85.51-1.17.34-.31.95-.47,1.84-.47h2.87v1.5Z"/>
        <path class="cls-6" d="m319.39,59.58v-1.79h-1.18v9.14h1.24v-4.67c0-1.08.27-1.91.82-2.5.55-.59,1.3-.88,2.26-.88.05,0,.09,0,.14,0,.05,0,.09,0,.14,0v-1.2c-.89,0-1.64.18-2.25.55-.52.32-.91.76-1.17,1.33Z"/>
        <path class="cls-6" d="m333.58,54.01v5.52c-.35-.55-.79-.98-1.33-1.29-.63-.36-1.35-.54-2.15-.54-.87,0-1.65.19-2.34.58-.69.39-1.23.93-1.63,1.63-.4.7-.59,1.51-.59,2.44s.2,1.73.59,2.43c.39.7.94,1.25,1.63,1.65.69.39,1.47.59,2.34.59.81,0,1.53-.18,2.17-.55.56-.32,1.01-.78,1.37-1.37v1.83h1.18v-12.92h-1.24Zm-.43,10.21c-.3.54-.7.96-1.22,1.25-.52.3-1.1.44-1.75.44s-1.21-.15-1.72-.44-.92-.71-1.22-1.25c-.3-.54-.45-1.16-.45-1.87s.15-1.35.45-1.88.71-.95,1.22-1.25,1.09-.44,1.72-.44,1.23.15,1.75.44c.52.3.92.71,1.22,1.25s.44,1.16.44,1.88-.15,1.33-.44,1.87Z"/>
      </g>
      <g>
        <path class="cls-1" d="m164.46,14.26c1.11-1.15,2.45-2.03,4.01-2.64,1.57-.61,3.28-.91,5.16-.91,2.17,0,4.14.46,5.91,1.37,1.76.91,3.38,2.24,4.86,3.98l8.22-7.44c-2.22-2.78-4.99-4.92-8.32-6.39-3.33-1.48-7.1-2.22-11.32-2.22-3.61,0-6.95.58-10.02,1.73-3.07,1.15-5.72,2.8-7.96,4.93-2.24,2.13-3.99,4.64-5.25,7.54-1.26,2.89-1.89,6.08-1.89,9.56s.63,6.67,1.89,9.56c1.26,2.89,3.01,5.41,5.25,7.54,2.24,2.13,4.89,3.78,7.96,4.93,3.07,1.15,6.41,1.73,10.02,1.73,4.22,0,7.99-.75,11.32-2.25,3.33-1.5,6.1-3.62,8.32-6.36l-8.22-7.44c-1.48,1.74-3.1,3.07-4.86,3.98-1.76.91-3.73,1.37-5.91,1.37-1.87,0-3.59-.3-5.16-.91-1.57-.61-2.9-1.49-4.01-2.64-1.11-1.15-1.98-2.53-2.61-4.14-.63-1.61-.95-3.39-.95-5.35s.31-3.74.95-5.35c.63-1.61,1.5-2.99,2.61-4.14Z"/>
        <polygon class="cls-1" points="247.99 30.34 238.76 .91 226.88 .91 217.21 30.07 208.02 .91 194.71 .91 209.52 46.59 223.36 46.59 232.49 18.77 241.24 46.59 255.07 46.59 269.89 .91 257.55 .91 247.99 30.34"/>
        <rect class="cls-1" x="274.52" y=".91" width="12.92" height="45.68"/>
        <polygon class="cls-1" points="311.26 36.35 334.29 9 334.29 .91 294.94 .91 294.94 11.16 317.39 11.16 294.36 38.5 294.36 46.59 335.27 46.59 335.27 36.35 311.26 36.35"/>
      </g>
      <g>
        <rect class="cls-4" x="130.82" y=".44" width="6.43" height="21.04" rx="3.22" ry="3.22"/>
        <rect class="cls-4" x="130.82" y=".44" width="6.43" height="21.04" rx="3.22" ry="3.22" transform="translate(145 -123.08) rotate(90)"/>
      </g>
      <path class="cls-2" d="m70.78,55.87l-5.78,5.78c-3.64,3.64-9.55,3.64-13.19,0L0,9.84l5.78-5.78c3.64-3.64,9.55-3.64,13.19,0l51.8,51.8Z"/>
      <path class="cls-4" d="m56.18-6.71h12.91c2.7,0,4.89,2.19,4.89,4.89v75.38h-12.91c-2.7,0-4.89-2.19-4.89-4.89V-6.71h0Z" transform="translate(-4.58 55.81) rotate(-45)"/>
      <path class="cls-3" d="m78.65-2.7h12.61c2.7,0,4.89,2.19,4.89,4.89v53.56h-12.61c-2.7,0-4.89-2.19-4.89-4.89V-2.7h0Z" transform="translate(6.84 69.57) rotate(-45)"/>
      <path class="cls-5" d="m128.76,26.5l-8.59,8.59c-2.09,2.09-5.69,1.88-8.04-.48l-24.29-24.29,8.59-8.59c2.09-2.09,5.69-1.88,8.04.48l24.29,24.29Z"/>
    </g>
  </g>
</svg>