<svg width="165" height="82" viewBox="0 0 165 82" fill="none" xmlns="http://www.w3.org/2000/svg">
<rect width="165" height="82" rx="10" fill="white"/>
<g clip-path="url(#clip0_15795_8992)">
<path d="M137.998 56.3723C137.643 56.4799 135.708 56.9976 133.652 56.9976C129.064 56.9976 126.622 55.0791 126.622 50.9954V26.4336H129.193C131.874 26.4336 132.748 27.9606 132.748 30.0832V31.9478H138V33.3913C138 35.4453 136.545 36.6086 134.377 36.6086H132.748V49.9434C132.748 51.4036 133.253 52.4444 135.37 52.4444C136.627 52.4444 137.797 52.0938 137.996 52.0362C137.996 52.5316 137.996 56.376 137.996 56.376M122.071 35.9314C123.37 35.9314 124.718 36.3117 124.875 36.3563V31.9497C124.657 31.9089 122.145 31.3782 119.756 31.3782C115.712 31.3782 112.856 33.0091 112.856 37.2951V56.4131H118.981V38.477C118.981 36.8943 120.013 35.9332 122.071 35.9332V35.9314ZM86.8975 38.3081C86.8975 35.8479 85.4772 31.3968 77.2877 31.3968C73.0894 31.3968 71.4052 32.4803 70.8052 32.8755C70.1824 32.5323 68.2285 31.3968 64.3189 31.3968C56.7521 31.3968 54.7109 35.0779 54.7109 38.13V56.4113H60.8877V38.5271C60.8877 37.4936 61.4859 35.9277 64.317 35.9277C66.5196 35.9277 67.7158 37.0149 67.7158 38.5271V56.4113H73.8945V38.5271C73.8945 37.0205 75.0661 35.9277 77.2896 35.9277C79.7124 35.9277 80.7207 37.1392 80.7207 38.5271V52.3127C80.7207 55.016 82.3309 56.5393 84.8867 56.5393H86.8975V38.3063V38.3081ZM99.9574 31.3819C107.687 31.3819 110.486 34.961 110.486 39.7201V47.4608C110.486 52.9009 106.917 57.0013 99.5245 57.0013C92.1325 57.0013 88.5912 53.7562 88.5912 49.3812C88.5912 45.893 91.016 43.5942 96.2889 42.1767C97.0561 41.9707 99.6213 41.223 100.789 40.8872C103.449 40.1283 104.306 39.5346 104.306 38.412C104.306 37.2264 102.827 35.9314 99.8169 35.9314C96.2187 35.9314 95.087 38.1022 95.068 39.6682H89.4571C89.4571 34.8256 92.4116 31.3801 99.9593 31.3801L99.9574 31.3819ZM99.0346 52.45C101.412 52.45 104.317 50.9842 104.317 47.253V44.3196C104.317 44.3196 99.6403 45.6277 98.3283 46.0192C95.9927 46.7112 94.8705 47.8727 94.8705 49.396C94.8705 50.9193 96.156 52.45 99.0346 52.45Z" fill="#4E5059"/>
<path d="M39.2492 56.987C30.7235 56.987 27 51.8828 27 45.4297V38.4609C27 29.4937 33.1198 26 40.2973 26C48.9672 26 52.7553 30.6107 52.7553 35.2176C52.7553 41.9453 45.7127 43.5966 42.6024 44.4761C41.7062 44.7303 38.4061 45.6895 37.6637 45.901C34.7585 46.7211 33.9249 47.6414 33.9249 48.6841C33.9249 50.4653 35.518 52.009 39.2454 52.009C42.4885 52.009 44.8582 50.931 45.2551 47.621H52.0376C51.3388 52.8588 48.1165 56.987 39.2454 56.987M40.0087 30.9892C36.2396 30.9892 33.773 33.4531 33.773 37.65V42.0566C33.773 42.0566 38.8713 40.602 41.0017 39.9712C42.7847 39.4424 45.9766 38.3365 45.9766 35.5887C45.9766 33.1934 43.9886 30.991 40.0087 30.991V30.9892Z" fill="#F8B62D"/>
</g>
<defs>
<clipPath id="clip0_15795_8992">
<rect width="111" height="31" fill="white" transform="translate(27 26)"/>
</clipPath>
</defs>
</svg>
