<svg width="165" height="82" viewBox="0 0 165 82" fill="none" xmlns="http://www.w3.org/2000/svg">
<rect width="165" height="82" rx="10" fill="#363636"/>
<g clip-path="url(#clip0_15586_9040)">
<path d="M29.4786 48.8201V34.0759C29.4786 33.8877 29.3823 33.7748 29.1896 33.7371C29.14 33.7284 29.0904 33.7227 29.0291 33.7227H25.1729C25.0298 33.7227 24.9218 33.7458 24.8372 33.7922L24.805 33.8124C24.7467 33.853 24.7029 33.9051 24.6679 33.9717C24.6562 33.9919 24.6474 34.0151 24.6387 34.0383C24.6124 34.1078 24.4693 34.5566 24.2358 35.2834C23.8563 36.4532 23.3951 37.9183 22.8463 39.6846C22.4289 41.031 21.9618 42.5512 21.4451 44.2451C21.3867 44.4333 21.3283 44.6244 21.27 44.8184H21.1999C19.571 39.4095 17.9217 34.2931 17.8341 34.0383C17.7611 33.8298 17.6123 33.7256 17.3028 33.7256H13.4495C13.1489 33.7256 13 33.8443 13 34.0817V53.4037C13 53.6325 13.1489 53.7454 13.4495 53.7454H17.2795C17.3729 53.7454 17.4517 53.7338 17.5159 53.7107C17.5626 53.6962 17.6006 53.673 17.6327 53.647C17.6823 53.6035 17.7115 53.5456 17.7232 53.4732C17.7261 53.4501 17.729 53.4298 17.729 53.4037V52.9665C17.7641 51.4463 17.7787 50.1433 17.7787 49.0633V47.7777H17.8487C17.8487 47.8703 18.3216 49.5816 19.2674 52.9115C19.3696 53.4674 19.5856 53.7454 19.9155 53.7454H20.1928H22.6595C22.8609 53.7454 23.0214 53.6383 23.1382 53.4298C23.2112 53.2995 23.2667 53.1258 23.3075 52.9115C23.4622 52.3729 23.5965 51.8923 23.7191 51.4608C24.049 50.3113 24.3409 49.2515 24.589 48.2844C24.627 48.1309 24.6678 47.9804 24.7058 47.8327H24.7613V53.3082C24.7613 53.6006 24.9101 53.7454 25.2108 53.7454H29.0349C29.102 53.7454 29.1604 53.7367 29.213 53.7222C29.3677 53.6788 29.4582 53.5717 29.4786 53.3979L29.4845 53.4037V53.3082V48.8259L29.4786 48.8201Z" fill="white"/>
<path d="M132.546 34.1686C132.546 34.1223 132.535 34.0846 132.517 34.0499C132.514 34.0412 132.511 34.0354 132.508 34.0267C132.508 34.0209 132.505 34.0151 132.502 34.0093L132.491 33.9949C132.491 33.9949 132.488 33.9949 132.485 33.992C132.476 33.9833 132.464 33.9775 132.456 33.9688C132.424 33.9427 132.389 33.9225 132.342 33.908C132.313 33.8993 132.278 33.8964 132.24 33.8935C132.219 33.8935 132.202 33.8906 132.178 33.8906H124.863C124.632 33.8906 124.516 34.0412 124.516 34.3423V53.5341C124.516 53.8294 124.632 53.9742 124.863 53.9742H127.931C128.013 53.9742 128.08 53.9539 128.132 53.9192L128.15 53.9047C128.2 53.8642 128.235 53.8062 128.255 53.7281C128.27 53.673 128.278 53.6064 128.278 53.5341L128.311 45.7624H131.574C131.694 45.7624 131.784 45.7392 131.846 45.6929C131.846 45.6929 131.849 45.69 131.851 45.6871C131.907 45.6408 131.936 45.5771 131.939 45.4902C131.939 45.4844 131.939 45.4815 131.939 45.4757V42.3891C131.939 42.3891 131.939 42.3833 131.939 42.3804C131.939 42.3254 131.924 42.279 131.901 42.2385C131.901 42.2327 131.898 42.2269 131.892 42.224L131.881 42.2095C131.881 42.2095 131.878 42.2095 131.875 42.2067C131.84 42.169 131.796 42.1401 131.732 42.1256C131.703 42.1169 131.668 42.114 131.63 42.1111C131.609 42.1111 131.589 42.1082 131.568 42.1082H128.305V37.6085H132.17C132.292 37.6085 132.383 37.5854 132.444 37.5361C132.444 37.5361 132.447 37.5332 132.45 37.5303C132.505 37.484 132.535 37.4174 132.537 37.3305C132.537 37.3248 132.537 37.3219 132.537 37.3161V34.186C132.537 34.186 132.537 34.1802 132.537 34.1773L132.546 34.1686Z" fill="white"/>
<path d="M123.612 34.1686C123.612 34.1223 123.6 34.0846 123.582 34.0499C123.58 34.0412 123.577 34.0354 123.574 34.0267C123.574 34.0209 123.571 34.0151 123.568 34.0093L123.556 33.9949C123.556 33.9949 123.553 33.9949 123.55 33.992C123.542 33.9833 123.53 33.9775 123.521 33.9688C123.489 33.9427 123.454 33.9225 123.407 33.908C123.378 33.8993 123.343 33.8964 123.305 33.8935C123.285 33.8935 123.267 33.8906 123.244 33.8906H115.928C115.698 33.8906 115.578 34.0412 115.578 34.3423V53.5341C115.578 53.8294 115.695 53.9742 115.928 53.9742H118.996C119.078 53.9742 119.145 53.9539 119.198 53.9192L119.215 53.9047C119.265 53.8642 119.3 53.8062 119.32 53.7281C119.335 53.673 119.344 53.6064 119.344 53.5341L119.376 45.7624H122.64C122.759 45.7624 122.85 45.7392 122.911 45.6929C122.911 45.6929 122.914 45.69 122.917 45.6871C122.972 45.6408 123.002 45.5771 123.004 45.4902C123.004 45.4844 123.004 45.4815 123.004 45.4757V42.3891C123.004 42.3891 123.004 42.3833 123.004 42.3804C123.004 42.3254 122.99 42.279 122.966 42.2385C122.964 42.2327 122.964 42.2269 122.958 42.224L122.946 42.2095C122.946 42.2095 122.943 42.2095 122.94 42.2067C122.905 42.169 122.861 42.1401 122.8 42.1256C122.771 42.1169 122.736 42.114 122.698 42.1111C122.678 42.1111 122.657 42.1082 122.637 42.1082H119.373V37.6085H123.238C123.361 37.6085 123.451 37.5854 123.512 37.5361C123.512 37.5361 123.515 37.5332 123.518 37.5303C123.574 37.484 123.603 37.4174 123.606 37.3305C123.606 37.3248 123.606 37.3219 123.606 37.3161V34.186C123.606 34.186 123.606 34.1802 123.606 34.1773L123.612 34.1686Z" fill="white"/>
<path d="M141.414 34.1686C141.414 34.1425 141.409 34.1223 141.406 34.102C141.406 34.0962 141.4 34.0904 141.4 34.0846C141.397 34.073 141.391 34.0615 141.388 34.0499C141.385 34.0412 141.382 34.0354 141.379 34.0267C141.379 34.0209 141.376 34.0151 141.373 34.0093L141.362 33.9949C141.362 33.9949 141.359 33.9949 141.356 33.992C141.347 33.9833 141.336 33.9775 141.327 33.9688C141.318 33.963 141.309 33.9572 141.301 33.9514C141.274 33.9341 141.248 33.9196 141.21 33.908C141.181 33.8993 141.146 33.8964 141.108 33.8935C141.087 33.8935 141.07 33.8906 141.047 33.8906H133.719C133.489 33.8906 133.375 34.0412 133.375 34.3423V53.5341C133.375 53.8294 133.492 53.9742 133.719 53.9742H141.044C141.099 53.9742 141.149 53.9684 141.192 53.9568C141.195 53.9568 141.201 53.9568 141.207 53.9568C141.216 53.9568 141.222 53.951 141.23 53.9481C141.236 53.9481 141.245 53.9423 141.251 53.9394C141.263 53.9336 141.277 53.9279 141.286 53.9221C141.295 53.9163 141.306 53.9105 141.315 53.9047C141.315 53.9047 141.318 53.9018 141.321 53.8989C141.33 53.8931 141.336 53.8844 141.341 53.8786C141.347 53.8728 141.35 53.8699 141.356 53.8642C141.356 53.8642 141.356 53.8642 141.356 53.8613C141.376 53.8352 141.388 53.8062 141.397 53.7715C141.403 53.7483 141.406 53.7281 141.406 53.702C141.406 53.6962 141.406 53.6933 141.406 53.6875V50.5574C141.406 50.5574 141.406 50.5516 141.406 50.5487C141.406 50.5227 141.4 50.5024 141.397 50.4821V50.4735C141.397 50.4735 141.391 50.459 141.391 50.4532C141.388 50.4416 141.382 50.4329 141.376 50.4242C141.376 50.4184 141.371 50.4127 141.368 50.4069C141.368 50.4011 141.365 50.3953 141.359 50.3924V50.3866C141.359 50.3866 141.356 50.3866 141.353 50.3866C141.353 50.3866 141.353 50.3866 141.353 50.3837H141.35C141.35 50.3837 141.35 50.3779 141.347 50.3779C141.347 50.3779 141.344 50.375 141.341 50.3721C141.327 50.3605 141.312 50.3461 141.292 50.3345C141.292 50.3345 141.289 50.3316 141.286 50.3287C141.277 50.3229 141.265 50.32 141.254 50.3142C141.254 50.3142 141.248 50.3142 141.245 50.3113C141.239 50.3113 141.23 50.3055 141.225 50.3026C141.216 50.2997 141.21 50.2968 141.201 50.2939C141.198 50.2939 141.192 50.2939 141.187 50.2939C141.143 50.2824 141.096 50.2766 141.041 50.2766H141.038H137.167C137.17 49.932 137.173 45.774 137.173 45.774H140.436C140.436 45.774 140.439 45.774 140.442 45.774H140.498C140.536 45.774 140.568 45.7653 140.6 45.7595C140.632 45.7508 140.658 45.7363 140.682 45.7219C140.69 45.7161 140.702 45.7132 140.711 45.7045C140.711 45.7045 140.714 45.7016 140.717 45.6987C140.734 45.6842 140.749 45.6668 140.763 45.6466C140.772 45.635 140.775 45.6176 140.781 45.6031C140.781 45.6031 140.784 45.5973 140.787 45.5973C140.787 45.5945 140.787 45.5887 140.79 45.5858C140.79 45.58 140.795 45.5771 140.795 45.5713C140.801 45.551 140.804 45.5279 140.804 45.5047C140.804 45.4989 140.804 45.496 140.804 45.4902V42.4036C140.804 42.4036 140.804 42.3978 140.804 42.3949C140.804 42.3717 140.798 42.3514 140.795 42.3341V42.3283C140.795 42.3283 140.79 42.3196 140.79 42.3138C140.79 42.3109 140.79 42.3051 140.787 42.3022C140.781 42.2877 140.775 42.2704 140.766 42.2588C140.766 42.253 140.763 42.2472 140.76 42.2443L140.749 42.2298C140.749 42.2298 140.746 42.2298 140.743 42.2269C140.734 42.2153 140.723 42.2095 140.711 42.2009C140.682 42.1777 140.647 42.1574 140.603 42.1458C140.574 42.1372 140.539 42.1343 140.501 42.1314C140.48 42.1314 140.46 42.1285 140.439 42.1285H137.176V37.6288H141.041C141.146 37.6288 141.228 37.6085 141.286 37.5738C141.295 37.568 141.306 37.5622 141.315 37.5564C141.315 37.5564 141.318 37.5535 141.321 37.5506C141.33 37.5448 141.336 37.5361 141.341 37.5303C141.347 37.5245 141.35 37.5216 141.356 37.5159C141.356 37.5159 141.356 37.5159 141.356 37.513C141.376 37.4869 141.388 37.4579 141.397 37.4232C141.403 37.4 141.406 37.3798 141.406 37.3537C141.406 37.3479 141.406 37.345 141.406 37.3392V34.2091C141.406 34.2091 141.406 34.2033 141.406 34.2004L141.414 34.1686Z" fill="white"/>
<path d="M151 34.1686C151 34.1425 150.994 34.1223 150.992 34.102C150.992 34.0962 150.986 34.0904 150.986 34.0846C150.983 34.073 150.977 34.0615 150.974 34.0499C150.971 34.0412 150.968 34.0354 150.965 34.0267C150.965 34.0209 150.962 34.0151 150.959 34.0093L150.948 33.9949C150.948 33.9949 150.945 33.9949 150.942 33.992C150.933 33.9833 150.921 33.9775 150.913 33.9688C150.904 33.963 150.895 33.9572 150.886 33.9514C150.86 33.9341 150.834 33.9196 150.796 33.908C150.767 33.8993 150.732 33.8964 150.694 33.8935C150.673 33.8935 150.656 33.8906 150.632 33.8906H143.305C143.075 33.8906 142.961 34.0412 142.961 34.3423V53.5341C142.961 53.8294 143.078 53.9742 143.305 53.9742H150.63C150.685 53.9742 150.735 53.9684 150.778 53.9568C150.781 53.9568 150.787 53.9568 150.793 53.9568C150.802 53.9568 150.808 53.951 150.816 53.9481C150.822 53.9481 150.831 53.9423 150.837 53.9394C150.848 53.9336 150.863 53.9279 150.872 53.9221C150.881 53.9163 150.892 53.9105 150.901 53.9047C150.901 53.9047 150.904 53.9018 150.907 53.8989C150.916 53.8931 150.921 53.8844 150.927 53.8786C150.933 53.8728 150.939 53.8699 150.942 53.8642C150.942 53.8642 150.942 53.8642 150.942 53.8613C150.962 53.8352 150.974 53.8062 150.983 53.7715C150.989 53.7483 150.992 53.7281 150.992 53.702C150.992 53.6962 150.992 53.6933 150.992 53.6875V50.5574C150.992 50.5574 150.992 50.5516 150.992 50.5487C150.992 50.5227 150.986 50.5024 150.983 50.4821V50.4735C150.983 50.4735 150.977 50.459 150.977 50.4532C150.974 50.4416 150.968 50.4329 150.962 50.4242C150.962 50.4184 150.956 50.4127 150.954 50.4069C150.954 50.4011 150.951 50.3953 150.945 50.3924V50.3866C150.945 50.3866 150.942 50.3866 150.939 50.3866C150.939 50.3866 150.939 50.3866 150.939 50.3837H150.936C150.936 50.3837 150.936 50.3779 150.933 50.3779C150.933 50.3779 150.93 50.375 150.927 50.3721C150.913 50.3605 150.898 50.3461 150.878 50.3345C150.878 50.3345 150.875 50.3316 150.872 50.3287C150.863 50.3229 150.851 50.32 150.84 50.3142C150.84 50.3142 150.834 50.3142 150.831 50.3113C150.825 50.3113 150.816 50.3055 150.811 50.3026C150.802 50.2997 150.796 50.2968 150.787 50.2939C150.784 50.2939 150.778 50.2939 150.773 50.2939C150.732 50.2824 150.682 50.2766 150.627 50.2766H146.756C146.759 49.932 146.762 45.774 146.762 45.774H150.025C150.025 45.774 150.028 45.774 150.031 45.774H150.087C150.125 45.774 150.157 45.7653 150.189 45.7595C150.221 45.7508 150.247 45.7363 150.27 45.7219C150.279 45.7161 150.291 45.7132 150.3 45.7045C150.3 45.7045 150.303 45.7016 150.306 45.6987C150.323 45.6842 150.338 45.6668 150.352 45.6466C150.361 45.635 150.364 45.6176 150.37 45.6031C150.37 45.6031 150.373 45.5973 150.376 45.5973C150.376 45.5945 150.376 45.5887 150.378 45.5858C150.378 45.58 150.384 45.5771 150.384 45.5713C150.39 45.551 150.393 45.5279 150.393 45.5047C150.393 45.4989 150.393 45.496 150.393 45.4902V42.4036C150.393 42.4036 150.393 42.3978 150.393 42.3949C150.393 42.3717 150.387 42.3514 150.384 42.3341V42.3283C150.384 42.3283 150.378 42.3196 150.378 42.3138C150.378 42.3109 150.379 42.3051 150.376 42.3022C150.37 42.2877 150.364 42.2704 150.355 42.2588C150.355 42.253 150.352 42.2472 150.349 42.2443L150.338 42.2298C150.338 42.2298 150.335 42.2298 150.332 42.2269C150.323 42.2153 150.311 42.2095 150.3 42.2009C150.27 42.1777 150.235 42.1574 150.192 42.1458C150.162 42.1372 150.127 42.1343 150.09 42.1314C150.069 42.1314 150.049 42.1285 150.028 42.1285H146.765V37.6288H150.63C150.735 37.6288 150.816 37.6085 150.875 37.5738C150.884 37.568 150.895 37.5622 150.904 37.5564C150.904 37.5564 150.907 37.5535 150.91 37.5506C150.919 37.5448 150.924 37.5361 150.93 37.5303C150.936 37.5245 150.942 37.5216 150.945 37.5159C150.945 37.5159 150.945 37.5159 150.945 37.513C150.965 37.4869 150.977 37.4579 150.986 37.4232C150.992 37.4 150.994 37.3798 150.994 37.3537C150.994 37.3479 150.994 37.345 150.994 37.3392V34.2091C150.994 34.2091 150.994 34.2033 150.994 34.2004L151 34.1686Z" fill="white"/>
<path d="M113.609 49.2745V37.9964C113.609 36.8005 113.478 35.9608 113.209 35.4801C112.587 34.0266 111.256 33.2969 109.219 33.2969C108.562 33.2969 107.992 33.3635 107.517 33.5025C105.724 34.1047 104.828 35.4048 104.828 37.4057V49.8681C104.828 50.398 104.913 50.9105 105.079 51.4057C105.666 53.1198 106.962 53.974 108.97 53.974H109.265C110.465 53.974 111.367 53.7453 111.965 53.2849C113.063 52.6681 113.612 51.3304 113.612 49.2745H113.609ZM110.118 49.0834C110.118 50.0361 109.87 50.5138 109.37 50.5138H109.122C108.588 50.5138 108.319 50.1664 108.319 49.4714V37.8053C108.319 37.148 108.62 36.786 109.219 36.7194C109.82 36.7194 110.118 37.2117 110.118 38.2019V49.0834Z" fill="white"/>
<path d="M81.1484 41.2002L77.8964 33.6949L72.7383 32.1719L74.4547 45.0774L77.6074 45.2134C77.6074 45.2134 77.4031 42.0602 77.263 39.7322C78.2613 41.9646 79.572 45.2019 79.572 45.2019H82.7218C82.7218 45.2019 84.0296 41.9878 85.0279 39.7727C84.8644 42.0862 84.6368 45.2106 84.6368 45.2106L87.6639 45.0542L88.8374 36.9582L83.6618 35.4062L81.1513 41.1973L81.1484 41.2002Z" fill="#FFDC00"/>
<path d="M77.7857 49.1849C77.8294 49.8914 77.8499 50.2534 77.8937 51.0091C78.3637 51.0873 78.6059 51.1133 79.0584 51.1394C79.0788 51.6953 79.0905 51.7156 79.111 52.3034C78.4191 52.2484 78.0425 52.1876 77.3274 52.0023C77.0938 51.9415 76.9654 51.7793 76.9479 51.5361C76.8253 49.9841 76.7698 49.5497 76.6589 48.2149C76.6414 48.0035 76.7581 47.9195 77.0121 47.9514C78.6089 48.1483 79.327 48.1164 80.8975 48.1164V46.0403L76.005 45.7537C74.8315 45.661 74.3673 45.9824 74.487 46.8366L75.173 51.8285C75.3131 52.8941 75.789 53.8381 76.7756 54.2637C78.4483 54.9818 79.2744 55.005 80.9646 54.9992C80.9646 52.315 80.9675 51.4492 80.9734 49.3152C79.6773 49.3152 79.1139 49.3413 77.7857 49.1849Z" fill="#FFDC00"/>
<path d="M81.5088 47.5367C81.4854 49.6765 81.4767 50.5162 81.4533 53.1338C81.4416 54.3268 81.9379 55.0043 82.9363 54.8798C84.3988 54.6974 85.1752 54.4223 86.5327 53.5189L86.7925 51.1561C85.8496 51.7352 85.2833 51.9669 84.0485 52.1812C83.8208 52.2217 83.7098 52.1059 83.7244 51.854C83.7974 50.2498 83.8324 49.7865 83.9054 48.3909C83.9171 48.1708 84.0485 48.0579 84.2937 48.0376C85.619 47.89 86.5268 47.7915 87.2566 47.5077C87.3529 46.7867 87.4989 45.7617 87.4989 45.7617L83.307 46.0368C82.1393 46.0339 81.5234 46.5204 81.5117 47.5367H81.5088Z" fill="#FFDC00"/>
<path d="M89.7413 33.5529L88.9532 33.3184C88.9765 33.2808 88.994 33.2402 89.0057 33.1939L89.2159 32.4266C89.2889 32.1573 89.1312 31.8822 88.8597 31.8098L75.7703 27.0177C75.5017 26.9453 75.2244 27.1016 75.1485 27.3709L74.6843 29.0706L73.4174 28.6942C73.1343 28.6102 72.8365 28.7695 72.7548 29.0503L71.9141 30.9296L89.7676 36.24L90.0975 34.2102C90.1821 33.9294 90.0216 33.6369 89.7384 33.5529H89.7413Z" fill="#FFDC00"/>
<path d="M98.9031 33.2969C98.2843 33.2969 97.7004 33.3635 97.1604 33.5025C95.3972 34.125 94.5156 35.4077 94.5156 37.3506V49.9202C94.5156 50.5775 94.647 51.2204 94.9155 51.8429C95.5811 53.2617 96.8597 53.9711 98.7542 53.9711H99.0024C101.863 53.9711 103.296 52.4394 103.296 49.3701V46.7699C103.296 46.6801 103.282 46.6077 103.258 46.5527C103.25 46.5324 103.238 46.5122 103.226 46.4948C103.226 46.4948 103.223 46.4919 103.221 46.489C103.206 46.4716 103.188 46.4572 103.168 46.4456C103.13 46.4224 103.086 46.4079 103.034 46.405C103.028 46.405 103.025 46.405 103.019 46.405C103.013 46.405 103.01 46.405 103.005 46.405H99.846C99.846 46.405 99.8402 46.405 99.8343 46.405C99.8314 46.405 99.8256 46.405 99.8227 46.405C99.7789 46.405 99.7438 46.4166 99.7088 46.434C99.703 46.4369 99.6942 46.4398 99.6884 46.4427C99.6825 46.4427 99.6767 46.4456 99.6738 46.4514L99.6592 46.463C99.6592 46.463 99.6592 46.4659 99.6563 46.4687C99.6446 46.4803 99.6358 46.4948 99.6241 46.5064C99.6008 46.5353 99.5833 46.5672 99.5716 46.6106C99.5658 46.6396 99.5599 46.6714 99.557 46.7033C99.557 46.7062 99.557 46.7091 99.557 46.712C99.557 46.7322 99.5541 46.7525 99.5541 46.7757V48.4377H99.5599V49.0342C99.5599 49.8594 99.3556 50.2706 98.9527 50.2706H98.8535C98.4594 50.2706 98.258 49.9724 98.258 49.3788V37.9066C98.258 37.3101 98.4419 37.0148 98.8126 37.0148H98.9527C99.3556 37.0148 99.5599 37.4288 99.5599 38.2512V38.839H99.5541V40.501C99.5541 40.5242 99.557 40.5416 99.5599 40.5589C99.5658 40.6197 99.5745 40.6776 99.595 40.7182C99.6037 40.7384 99.6154 40.7587 99.6271 40.7761C99.6271 40.7761 99.63 40.779 99.6329 40.7819C99.6475 40.7993 99.665 40.8137 99.6855 40.8253C99.7234 40.8485 99.7672 40.863 99.8197 40.8659C99.8256 40.8659 99.8285 40.8659 99.8343 40.8659C99.8402 40.8659 99.8431 40.8659 99.8489 40.8659H103.007C103.007 40.8659 103.013 40.8659 103.019 40.8659C103.022 40.8659 103.028 40.8659 103.031 40.8659C103.075 40.8659 103.11 40.8543 103.145 40.8369C103.15 40.8369 103.153 40.834 103.159 40.8311C103.159 40.8311 103.162 40.8311 103.165 40.8311C103.171 40.8311 103.177 40.8282 103.183 40.8224L103.197 40.8108C103.197 40.8108 103.197 40.8079 103.2 40.805C103.2 40.805 103.206 40.7993 103.209 40.7964C103.218 40.7877 103.226 40.7761 103.232 40.7674C103.256 40.7384 103.273 40.7066 103.285 40.6632C103.291 40.6371 103.296 40.6024 103.299 40.5705C103.299 40.5676 103.299 40.5647 103.299 40.5618C103.299 40.5415 103.302 40.5213 103.302 40.4981V37.9037C103.302 34.8373 101.837 33.3027 98.9119 33.3027L98.9031 33.2969Z" fill="white"/>
<path d="M55.4455 38.1536V37.8235C55.4455 36.9027 55.3142 36.1615 55.0514 35.6055C54.237 33.8972 52.6198 33.043 50.2056 33.043H49.3766C48.6643 33.043 47.844 33.1762 46.9187 33.4397C45.065 34.0477 44.1367 35.6084 44.1367 38.1218V49.1162C44.1367 50.4452 44.3119 51.4008 44.6563 51.977C45.4708 53.5203 47.1697 54.2934 49.7561 54.2934H49.9546C53.6152 54.2934 55.4455 52.7009 55.4455 49.5158V42.1205C55.4455 41.886 55.2966 41.7673 54.996 41.7673H49.7561C49.4554 41.7673 49.3065 41.9149 49.3065 42.2161V45.0769C49.3065 45.3259 49.3912 45.4736 49.5605 45.517H50.6698V49.5592C50.6698 50.2165 50.4071 50.5466 49.8845 50.5466H49.7035C49.1781 50.5466 48.9154 50.1528 48.9154 49.3681V38.0291C48.9154 37.2097 49.1547 36.7956 49.6335 36.7956H49.9575C50.4333 36.7956 50.6727 37.1228 50.6727 37.7801V38.1536V40.2732C50.6727 40.2732 50.6727 40.2732 50.6727 40.2761C50.6727 40.279 50.6727 40.2819 50.6727 40.2876C50.6727 40.3079 50.6756 40.3282 50.6785 40.3484C50.6844 40.4266 50.6961 40.499 50.7223 40.554C50.734 40.5801 50.7486 40.6062 50.7632 40.6264C50.7632 40.6293 50.7661 40.6322 50.769 40.6351C50.7865 40.6583 50.8099 40.6756 50.8362 40.693C50.877 40.7191 50.9296 40.7365 50.988 40.7422C50.9938 40.7422 50.9996 40.7422 51.0055 40.7451C51.0113 40.7451 51.0172 40.7451 51.023 40.7451C51.0288 40.7451 51.0347 40.7451 51.0434 40.7451H55.0748C55.0748 40.7451 55.0835 40.7451 55.0894 40.7451C55.0952 40.7451 55.0981 40.7451 55.104 40.7451C55.1127 40.7451 55.1186 40.7451 55.1273 40.7422C55.1711 40.7365 55.212 40.7278 55.2499 40.7104C55.2558 40.7075 55.2616 40.7046 55.2674 40.7017H55.2733C55.2762 40.7017 55.2791 40.6988 55.285 40.6959C55.2879 40.6959 55.2908 40.6959 55.2937 40.6901H55.2966L55.3112 40.6756C55.3112 40.6756 55.3142 40.6699 55.3171 40.6699C55.32 40.667 55.3229 40.6612 55.3258 40.6583C55.3375 40.6467 55.3463 40.6351 55.3579 40.6206C55.3871 40.583 55.4105 40.5425 55.4251 40.4874C55.4338 40.4527 55.4397 40.4122 55.4426 40.3687C55.4426 40.3658 55.4426 40.3629 55.4426 40.3571C55.4426 40.3427 55.4426 40.3282 55.4426 40.3166C55.4426 40.305 55.4426 40.2905 55.4426 40.279V38.1594L55.4455 38.1536Z" fill="white"/>
<path d="M42.2056 33.9987C42.2056 33.9727 42.1998 33.9524 42.1969 33.9321C42.1969 33.9264 42.191 33.9206 42.191 33.9148C42.191 33.909 42.1881 33.9032 42.1852 33.9003C42.1852 33.8945 42.1823 33.8887 42.1794 33.8829C42.1764 33.8742 42.1735 33.8684 42.1706 33.8598C42.1706 33.854 42.1677 33.8482 42.1648 33.8453L42.1531 33.8308C42.1531 33.8308 42.1502 33.8308 42.1472 33.8279C42.1385 33.8192 42.1268 33.8134 42.1181 33.8047C42.1093 33.799 42.1005 33.7932 42.0918 33.7874C42.0684 33.7729 42.0451 33.7584 42.0159 33.7497C42.01 33.7497 42.0071 33.7468 42.0042 33.7439C41.975 33.7352 41.94 33.7324 41.902 33.7295C41.8816 33.7295 41.8641 33.7266 41.8407 33.7266H34.5166H32.2542C31.9536 33.7266 31.8047 33.8771 31.8047 34.1783V53.3063C31.8047 53.5987 31.9506 53.7435 32.2542 53.7435H41.8407C41.8904 53.7435 41.9341 53.7377 41.9721 53.729C41.9779 53.729 41.9838 53.729 41.9896 53.7262C41.9925 53.7262 41.9984 53.7262 42.0042 53.7262C42.013 53.7262 42.0188 53.7204 42.0276 53.7175C42.0334 53.7175 42.0422 53.7117 42.048 53.7088C42.0597 53.703 42.0743 53.6972 42.083 53.6914C42.0918 53.6856 42.1035 53.6798 42.1122 53.674C42.1122 53.674 42.1151 53.6711 42.1181 53.6682C42.1268 53.6624 42.1326 53.6538 42.1385 53.648C42.1443 53.6422 42.1502 53.6393 42.1531 53.6335C42.1531 53.6335 42.1531 53.6335 42.1531 53.6306C42.156 53.6248 42.1589 53.619 42.1618 53.6132C42.1764 53.5901 42.1852 53.5669 42.194 53.5408C42.1998 53.5206 42.2027 53.4974 42.2027 53.4713C42.2027 53.4656 42.2027 53.4627 42.2027 53.4569V50.3384C42.2027 50.3384 42.2027 50.3326 42.2027 50.3268C42.2027 50.3007 42.1969 50.2804 42.194 50.2602V50.2515C42.194 50.2515 42.1881 50.237 42.1881 50.2312C42.1881 50.2254 42.1823 50.2196 42.1794 50.2138C42.1794 50.2109 42.1764 50.2081 42.1735 50.2023C42.1735 50.1965 42.1677 50.1907 42.1648 50.1849C42.1648 50.1791 42.1618 50.1733 42.1589 50.1675V50.1617C42.1589 50.1617 42.156 50.1617 42.1531 50.1617C42.1531 50.1617 42.1531 50.1617 42.1531 50.1588H42.1502C42.1502 50.1588 42.1502 50.153 42.1472 50.153C42.1472 50.153 42.1443 50.1501 42.1414 50.1472C42.1268 50.1357 42.1122 50.1212 42.0918 50.1096C42.0918 50.1096 42.0889 50.1067 42.0859 50.1038C42.0772 50.098 42.0655 50.0951 42.0538 50.0893C42.0538 50.0893 42.048 50.0893 42.0451 50.0864C42.0392 50.0864 42.0305 50.0806 42.0246 50.0778C42.0188 50.0778 42.0159 50.0749 42.01 50.072C42.0071 50.072 42.0042 50.072 42.0013 50.0691C41.9984 50.0691 41.9925 50.0691 41.9867 50.0691C41.9517 50.0604 41.9108 50.0546 41.867 50.0546C41.8582 50.0546 41.8495 50.0546 41.8407 50.0546H36.7205V45.5665H37.8152H41.0788C41.0788 45.5665 41.0818 45.5665 41.0847 45.5665H41.1401C41.1577 45.5665 41.1722 45.5607 41.1868 45.5607C41.2044 45.5607 41.2248 45.5578 41.2394 45.552C41.2715 45.5433 41.2978 45.5288 41.3211 45.5144C41.3299 45.5086 41.3416 45.5057 41.3474 45.497C41.3474 45.497 41.3503 45.4941 41.3532 45.4912C41.3707 45.4767 41.3853 45.4593 41.3999 45.4391C41.4087 45.4275 41.4116 45.4101 41.4175 45.3956C41.4175 45.3956 41.4204 45.3899 41.4233 45.3899C41.4233 45.387 41.4233 45.3812 41.4262 45.3783C41.4262 45.3725 41.4321 45.3696 41.4321 45.3638C41.4379 45.3435 41.4408 45.3204 41.4408 45.2972C41.4408 45.2914 41.4408 45.2885 41.4408 45.2827V42.2076C41.4408 42.2076 41.4408 42.2018 41.4408 42.199C41.4408 42.1758 41.435 42.1555 41.4321 42.1381V42.1324C41.4321 42.1324 41.4262 42.1237 41.4262 42.1179C41.4262 42.115 41.4262 42.1092 41.4233 42.1063C41.4175 42.0918 41.4116 42.0744 41.4029 42.0629C41.4029 42.0571 41.3999 42.0513 41.397 42.0484L41.3853 42.0339C41.3853 42.0339 41.3824 42.0339 41.3795 42.031C41.3708 42.0223 41.3591 42.0136 41.3474 42.0049C41.3182 41.9818 41.2832 41.9615 41.2365 41.9499C41.2073 41.9412 41.1722 41.9384 41.1372 41.9355C41.1226 41.9355 41.1109 41.9355 41.0963 41.9355H36.7176V37.4445H37.9729H41.8378C41.8378 37.4445 41.8407 37.4445 41.8437 37.4445C41.8904 37.4445 41.9341 37.4387 41.9721 37.4329C42.0159 37.4242 42.0538 37.4097 42.083 37.3923C42.0918 37.3865 42.1035 37.3808 42.1122 37.375C42.1122 37.375 42.1151 37.3721 42.1181 37.3692C42.1268 37.3634 42.1326 37.3547 42.1385 37.3489C42.1443 37.3431 42.1502 37.3402 42.1531 37.3344C42.1531 37.3344 42.1531 37.3344 42.1531 37.3315C42.1735 37.3055 42.1852 37.2765 42.194 37.2418C42.1998 37.2186 42.2027 37.1983 42.2027 37.1723C42.2027 37.1665 42.2027 37.1636 42.2027 37.1578V34.0393C42.2027 34.0393 42.2027 34.0335 42.2027 34.0306L42.2056 33.9987Z" fill="white"/>
<path d="M69.9954 53.34C69.3386 49.0257 68.2469 43.1129 66.7289 35.599C66.5654 34.8259 66.4282 34.2931 66.326 34.0006C66.3056 33.9456 66.2677 33.8732 66.1947 33.8182C66.1246 33.7632 66.0254 33.7227 65.8794 33.7227H64.1659C62.6975 33.7227 60.8818 33.7227 60.7038 33.7227C60.4031 33.7227 60.2951 33.8935 60.2571 34.0006C60.152 34.2931 60.0178 34.8259 59.8543 35.599C58.3334 43.1129 57.2446 49.0257 56.5878 53.34C56.5819 53.3748 56.5469 53.5196 56.5965 53.6122C56.6461 53.7049 56.7804 53.7425 56.8096 53.7425H61.0103C61.238 53.7425 61.3752 53.5948 61.4248 53.4066C61.5649 52.8883 61.7255 51.6519 61.9999 49.7003H64.4695C64.4695 49.7003 64.9482 53.0447 65.0737 53.3922C65.1584 53.6238 65.2576 53.7425 65.4386 53.7425H69.7765C69.8057 53.7425 69.94 53.7049 69.9896 53.6122C70.0392 53.5196 70.0042 53.3748 69.9983 53.34H69.9954ZM62.3005 46.2488L63.2113 40.7733H63.2697L64.1834 46.2488H62.3035H62.3005Z" fill="white"/>
</g>
<defs>
<clipPath id="clip0_15586_9040">
<rect width="138" height="28" fill="white" transform="translate(13 27)"/>
</clipPath>
</defs>
</svg>
