<svg width="165" height="82" viewBox="0 0 165 82" fill="none" xmlns="http://www.w3.org/2000/svg">
<rect width="165" height="82" rx="10" fill="#00DE5A"/>
<g clip-path="url(#clip0_15586_9015)">
<path d="M67.4979 44.7305C69.5551 36.1377 64.2711 27.5008 55.6956 25.4395C47.1202 23.3781 38.5008 28.6729 36.4436 37.2656C34.3864 45.8584 39.6705 54.4953 48.2459 56.5566C56.8213 58.618 65.4407 53.3232 67.4979 44.7305Z" fill="black"/>
<path d="M83.2157 31.927C81.2067 31.927 79.3825 32.7214 77.9997 34.0077V32.27H74.7656V52.5758H77.9997V45.9862C79.3825 47.2771 81.2067 48.0669 83.2157 48.0669C87.5218 48.0669 91.0171 44.4517 91.0171 39.9924C91.0171 35.5332 87.5263 31.918 83.2157 31.918V31.927ZM82.7607 45.1422C80.1302 45.1422 77.9997 42.8404 77.9997 40.0015C77.9997 37.1625 80.1302 34.8607 82.7607 34.8607C85.3912 34.8607 87.5218 37.1625 87.5218 40.0015C87.5218 42.8404 85.3912 45.1422 82.7607 45.1422Z" fill="black"/>
<path d="M105.244 32.2733V33.7176C103.907 32.5983 102.204 31.9258 100.348 31.9258C96.0422 31.9258 92.5469 35.541 92.5469 40.0003C92.5469 44.4595 96.0377 48.0747 100.348 48.0747C102.204 48.0747 103.907 47.4022 105.244 46.2829V47.7723H108.717V32.2733H105.244ZM100.803 45.1455C98.1727 45.1455 96.0422 42.8437 96.0422 40.0048C96.0422 37.1658 98.1727 34.864 100.803 34.864C103.434 34.864 105.564 37.1658 105.564 40.0048C105.564 42.8437 103.434 45.1455 100.803 45.1455Z" fill="black"/>
<path d="M124.287 32.2734L119.89 42.0404L114.963 32.2734H111.242L118.057 46.1205L115.138 52.6153H118.854L128.003 32.2734H124.287Z" fill="black"/>
<path d="M54.6929 33.4766V41.5962L49.049 33.4766H44.5312V48.5242H49.2382V40.4091L54.828 48.5242H59.4044V33.4766H54.6929Z" fill="#00DE5A"/>
</g>
<defs>
<clipPath id="clip0_15586_9015">
<rect width="92" height="32" fill="white" transform="translate(36 25)"/>
</clipPath>
</defs>
</svg>
