<svg width="165" height="82" viewBox="0 0 165 82" fill="none" xmlns="http://www.w3.org/2000/svg">
<rect width="165" height="82" rx="10" fill="white"/>
<g clip-path="url(#clip0_15795_8992)">
<path d="M144.995 58.2901C144.592 58.4116 142.396 58.996 140.061 58.996C134.854 58.996 132.082 56.83 132.082 52.2193V24.4883H135.001C138.044 24.4883 139.035 26.2123 139.035 28.6088V30.714H144.997V32.3438C144.997 34.6627 143.346 35.9762 140.885 35.9762H139.035V51.0316C139.035 52.6802 139.609 53.8554 142.012 53.8554C143.439 53.8554 144.767 53.4594 144.993 53.3945C144.993 53.9538 144.993 58.2942 144.993 58.2942M126.916 35.2116C128.39 35.2116 129.92 35.641 130.099 35.6913V30.7161C129.851 30.6701 127 30.0709 124.288 30.0709C119.697 30.0709 116.456 31.9123 116.456 36.7513V58.3361H123.409V38.0857C123.409 36.2988 124.579 35.2137 126.916 35.2137V35.2116ZM86.9892 37.895C86.9892 35.1173 85.377 30.0919 76.0808 30.0919C71.3152 30.0919 69.4033 31.3153 68.7222 31.7614C68.0153 31.3739 65.7974 30.0919 61.3594 30.0919C52.7702 30.0919 50.4531 34.248 50.4531 37.6939V58.334H57.4646V38.1422C57.4646 36.9754 58.1436 35.2074 61.3573 35.2074C63.8575 35.2074 65.2154 36.435 65.2154 38.1422V58.334H72.2291V38.1422C72.2291 36.4412 73.5589 35.2074 76.0829 35.2074C78.8332 35.2074 79.9777 36.5753 79.9777 38.1422V53.7066C79.9777 56.7588 81.8055 58.4786 84.7066 58.4786H86.9892V37.8929V37.895ZM101.814 30.0751C110.589 30.0751 113.766 34.116 113.766 39.4892V48.2287C113.766 54.3707 109.714 59.0002 101.323 59.0002C92.9316 59.0002 88.9118 55.3364 88.9118 50.3968C88.9118 46.4586 91.6643 43.8631 97.6498 42.2627C98.5206 42.0302 101.432 41.186 102.758 40.8068C105.778 39.95 106.75 39.2797 106.75 38.0123C106.75 36.6738 105.071 35.2116 101.655 35.2116C97.57 35.2116 96.2854 37.6625 96.2639 39.4305H89.8947C89.8947 33.9631 93.2485 30.073 101.816 30.073L101.814 30.0751ZM100.766 53.8616C103.465 53.8616 106.763 52.2067 106.763 47.9941V44.6822C106.763 44.6822 101.454 46.159 99.9647 46.601C97.3135 47.3824 96.0397 48.6938 96.0397 50.4136C96.0397 52.1334 97.4989 53.8616 100.766 53.8616Z" fill="#4E5059"/>
<path d="M32.9044 58.9853C23.2267 58.9853 19 53.2225 19 45.9368V38.0687C19 27.9445 25.9468 24 34.0942 24C43.9357 24 48.2358 29.2056 48.2358 34.407C48.2358 42.0028 40.2414 43.8671 36.7109 44.8601C35.6935 45.1471 31.9474 46.2301 31.1047 46.4689C27.8069 47.3948 26.8607 48.4338 26.8607 49.6111C26.8607 51.6221 28.6691 53.365 32.9001 53.365C36.5815 53.365 39.2715 52.1479 39.722 48.4108H47.421C46.6278 54.3244 42.9701 58.9853 32.9001 58.9853M33.7666 29.6329C29.4881 29.6329 26.6883 32.4148 26.6883 37.1533V42.1284C26.6883 42.1284 32.4755 40.4861 34.8939 39.7739C36.9178 39.1769 40.541 37.9284 40.541 34.826C40.541 32.1216 38.2843 29.635 33.7666 29.635V29.6329Z" fill="#F8B62D"/>
</g>
<defs>
<clipPath id="clip0_15795_8992">
<rect width="126" height="35" fill="white" transform="translate(19 24)"/>
</clipPath>
</defs>
</svg>
