<svg width="165" height="82" viewBox="0 0 165 82" fill="none" xmlns="http://www.w3.org/2000/svg">
<rect width="165" height="82" rx="10" fill="#DB1807"/>
<g clip-path="url(#clip0_15795_8993)">
<path d="M81.1605 38.6046L81.2137 38.244L81.2624 37.8878L81.3155 37.5183L81.3775 37.1487L81.4395 36.7658L81.5015 36.3785L81.5591 35.9866L81.63 35.5993L81.7053 35.1986L81.7761 34.789L81.847 34.3882L81.9267 33.9786L81.9976 33.5557L82.0906 33.1371L82.1747 32.7142L82.2633 32.2956L82.3563 31.8638L82.4493 31.4319L82.5379 31.0045L82.6397 30.5726L82.746 30.1318L82.8479 29.6999L82.9586 29.2591L83.0693 28.8272L83.1845 28.3865L83.2952 27.9457L83.4192 27.5049L83.5388 27.0641L83.6628 26.6322L83.7957 26.1915L83.9197 25.7596L84.0614 25.3188L84.1943 24.8914L84.336 24.4595L84.4688 24.0276L84.6239 23.6091L84.7656 23.1772L84.9162 22.7542L85.0712 22.3357L85.2217 21.9261L85.3856 21.5165L85.5495 21.1024L85.7133 20.7061L85.8861 20.3054L86.0588 19.9136L86.2359 19.5263L86.4087 19.1345L86.5903 18.7649L86.7763 18.3865L86.9579 18.0258L87.1527 17.6563L87.3476 17.309L87.538 16.9617L87.7329 16.6233L87.9366 16.2939L88.1403 15.9644L88.3574 15.6483L88.5611 15.3411L88.7648 15.0427L88.9907 14.7444L89.2033 14.4684L89.4291 14.1879L89.6639 13.9252L89.8853 13.667L90.12 13.4221L90.3548 13.1861L90.6028 12.9679L90.8464 12.7542L91.09 12.5494L91.3335 12.3535L91.5904 12.1799L91.8473 12.0062L92.113 11.8504L92.3655 11.7079L92.6312 11.5744L92.9058 11.463L93.1715 11.3473L93.4461 11.2582L93.734 11.1736L94.0086 11.1113L94.2964 11.0623L94.5887 11.0223L94.8766 11H95.1733H95.3549L95.5276 11.0089L95.7137 11.0312L95.8864 11.0534L96.0591 11.0801L96.2451 11.1247L96.4178 11.1736L96.5994 11.2271L96.7854 11.285L96.9582 11.3473L97.1397 11.4185L97.3169 11.5031L97.4985 11.5833L97.6845 11.6768L97.8572 11.7792L98.0388 11.8816L98.2248 11.9929L98.4064 12.1175L98.5791 12.2422L98.7651 12.3758L98.9467 12.5094L99.1194 12.6518L99.3054 12.8032L99.487 12.959L99.6642 13.1238L99.8458 13.2885L100.032 13.4622L100.213 13.6447L100.386 13.8317L100.572 14.0142L100.754 14.2191L100.926 14.415L101.112 14.6331L101.285 14.8379L101.467 15.0606L101.653 15.2876L101.825 15.5147L102.007 15.7507L102.184 15.9866L102.357 16.2315L102.538 16.4898L102.711 16.7435L102.897 17.0018L103.07 17.2689L103.243 17.545L103.415 17.821L103.593 18.0971L103.774 18.3865L103.947 18.6714L104.12 18.9697L104.297 19.268L104.469 19.5752L104.642 19.8825L104.806 20.1897L104.979 20.5191L105.151 20.8397L105.324 21.1647L105.488 21.4942L105.661 21.8326L105.825 22.171L105.997 22.5094L106.161 22.8566L106.325 23.2173L106.489 23.5646L106.653 23.9252L106.817 24.2947L106.981 24.6643L107.14 25.0338L107.304 25.4034L107.468 25.7818L107.632 26.1736L107.782 26.5521L107.946 26.9394L108.101 27.3313L108.252 27.732L108.407 28.1327L108.571 28.5289L108.721 28.943L108.867 29.3526L109.018 29.7622L109.173 30.1808L109.323 30.6037L109.47 31.0223L109.62 31.4452L109.762 31.8771L109.908 32.3045L110.05 32.7364L110.192 33.1772L110.333 33.6091L110.479 34.0588L110.612 34.4996L110.754 34.9403L110.887 35.3945L111.02 35.8442L111.153 36.3072L111.285 36.7569L111.418 37.2199L111.551 37.683L111.684 38.1416L111.804 38.6046L111.928 39.0766L112.06 39.5485L112.18 40.0205L112.304 40.4924L112.415 40.9644L112.539 41.4452L112.663 41.9172L112.774 42.3891L112.884 42.87L112.999 43.3642L113.11 43.8451L113.225 44.3304L113.327 44.8201L113.438 45.3143L113.54 45.8041L113.642 46.2983L113.743 46.7925L113.845 47.2823L113.947 47.7854L114.04 48.2796L114.133 48.7783L114.222 49.2814L114.315 49.7756L114.408 50.2787L114.496 50.7818L114.58 51.285L114.66 51.7881L114.744 52.3001L114.824 52.8032L114.908 53.3063L114.979 53.8183L115.059 54.3215L115.13 54.8335L115.201 55.3366L115.263 55.8486L115.333 56.3517L115.395 56.8638L115.457 57.3669L115.519 57.8789L115.581 58.3909L115.643 58.894L115.692 59.4061L115.745 59.9225L115.794 60.4212L115.847 60.9377L115.887 61.4497L115.927 61.9528L115.967 62.4648L116.011 62.9679L116.051 63.48L116.082 63.9831L116.108 64.4862L116.139 64.9982L116.17 65.5013L116.201 66.0045L116.224 66.5076L116.241 67.0107L116.263 67.5094L116.272 68.0125L116.286 68.5156L116.303 69.0098V69.5129L116.317 70.016V70.5058L116.325 71H116.241H116.038H115.723H115.294H114.784H114.204H113.571H112.884H112.193H111.489H110.785H110.112H109.47H108.885H108.376H107.959H107.632H107.428H107.357V70.3856L107.344 69.7578V69.1434L107.335 68.5289L107.326 67.9101L107.317 67.2956L107.304 66.6901L107.286 66.0757L107.264 65.4613L107.242 64.8557L107.224 64.2502L107.202 63.6447L107.171 63.0392L107.153 62.4337L107.122 61.8281L107.091 61.2315L107.051 60.6394L107.02 60.0427L106.981 59.4506L106.95 58.854L106.905 58.2573L106.857 57.6741L106.817 57.0908L106.772 56.5031L106.724 55.9199L106.671 55.3366L106.622 54.7622L106.569 54.1879L106.52 53.6135L106.458 53.0392L106.405 52.4737L106.347 51.9083L106.285 51.3428L106.223 50.7818L106.161 50.2253L106.09 49.6732L106.028 49.1211L105.958 48.5646L105.887 48.0214L105.816 47.4782L105.745 46.935L105.674 46.4007L105.599 45.8664L105.519 45.3321L105.448 44.7979L105.364 44.2769L105.284 43.756L105.205 43.2395L105.12 42.7186L105.041 42.2155L104.957 41.7124L104.868 41.2093L104.784 40.7061L104.691 40.203L104.611 39.7133L104.518 39.2191L104.425 38.7382L104.337 38.2573L104.244 37.772L104.142 37.3001L104.049 36.8281L103.956 36.3695L103.854 35.9065L103.765 35.4435L103.663 34.9938L103.562 34.5441L103.46 34.1033L103.358 33.6581L103.256 33.2173L103.15 32.7898L103.048 32.358L102.946 31.935L102.835 31.5165L102.733 31.1069L102.631 30.6972L102.521 30.2965L102.406 29.8958L102.304 29.4951L102.193 29.1167L102.082 28.7248L101.967 28.3464L101.865 27.9768L101.755 27.6073L101.644 27.2378L101.529 26.8816L101.418 26.5298L101.303 26.1825L101.183 25.8442L101.068 25.5058L100.957 25.1763L100.847 24.8468L100.723 24.5307L100.612 24.2102L100.497 23.9029L100.377 23.5957L100.262 23.3108L100.151 23.0125L100.032 22.7231L99.9166 22.447L99.7926 22.1799L99.6819 21.9127L99.5623 21.6456L99.4472 21.3918L99.3232 21.1469L99.2036 20.911L99.0884 20.675L98.9688 20.439L98.8581 20.2208L98.7341 20.0071L98.619 19.7934L98.4994 19.5842L98.3887 19.3927L98.2647 19.2057L98.1539 19.0232L98.0299 18.8495L97.9192 18.6714L97.7952 18.52L97.6845 18.3642L97.5605 18.2128L97.4498 18.0659L97.3257 17.9368L97.215 17.8121L97.0999 17.6874L96.9803 17.5761L96.8651 17.4737L96.7544 17.3802L96.6437 17.2867L96.5197 17.2066L96.409 17.1354L96.2938 17.0641L96.1831 17.0107L96.0724 16.9484L95.9572 16.9083L95.8465 16.8771L95.7358 16.8459L95.6295 16.8281L95.5188 16.8148L95.4081 16.8059L95.2841 16.8148L95.1733 16.8281L95.0493 16.837L94.9253 16.8593L94.8146 16.886L94.695 16.9172L94.571 16.9617L94.4559 17.0107L94.3363 17.0641L94.2256 17.122L94.1016 17.1843L93.9908 17.2556L93.8668 17.3313L93.7561 17.4203L93.6321 17.5049L93.517 17.6073L93.4062 17.6963L93.2955 17.8121L93.1715 17.9234L93.0608 18.0481L92.9501 18.1683L92.8349 18.3019L92.7242 18.4354L92.6135 18.5913L92.4983 18.7337L92.3876 18.8985L92.2724 19.0543L92.1706 19.228L92.0599 19.4016L91.9491 19.5842L91.8473 19.7711L91.7321 19.9671L91.6303 20.1585L91.5195 20.3678L91.4177 20.5815L91.307 20.7952L91.2051 21.0223L91.0988 21.2493L90.9969 21.4853L90.8951 21.7302L90.7932 21.9751L90.6914 22.2244L90.5895 22.4871L90.4876 22.7542L90.3858 23.0214L90.2928 23.2974L90.1909 23.5868L90.089 23.8718L90.0005 24.1701L89.9075 24.4684L89.8056 24.7756L89.7126 25.0962L89.6196 25.4123L89.531 25.7418L89.438 26.0712L89.345 26.4096L89.252 26.748L89.1634 27.0953L89.0793 27.4559L88.9907 27.8121L88.8977 28.1817L88.8135 28.5512L88.7338 28.9297L88.6541 29.3215L88.5699 29.7088L88.4902 30.1006L88.4061 30.5102L88.3264 30.9199L88.2555 31.3295L88.1713 31.7525L88.0916 32.171L88.0208 32.6118L87.9366 33.0436L87.8658 33.4978L87.7949 33.9386L87.724 34.3972L87.6532 34.8602L87.5823 35.3232L87.5115 35.7952L87.4362 36.276L87.3786 36.7569L87.3033 37.2511L87.2457 37.7542L87.1837 38.2573L87.1129 38.7605L87.0509 39.2725L86.9977 39.7934L86.9357 40.3188L86.8781 40.8486L86.8161 41.3829L86.763 41.9261L86.7143 42.4737L86.6523 43.0258L86.5991 43.5779L86.5504 44.1434L86.4972 44.7177L86.4574 45.301L86.4087 45.8753L86.3644 46.472L86.3157 47.0686L86.2758 47.6607L86.2359 48.2663L86.1917 48.8851L86.1518 49.4996L86.1119 50.1229L86.0809 50.7596L86.0411 51.3874L86.0101 52.033L85.9791 52.6785L85.9481 53.333L85.9171 53.992L85.8861 54.6465L85.8684 55.3232L85.8374 55.9911L85.8152 56.6812L85.7931 57.3669L85.7753 58.0525L85.7532 58.7516L85.7355 59.4595L85.7133 60.1674L85.7045 60.8842L85.6823 61.6011L85.6735 62.3313L85.6646 63.0614L85.6513 63.7961V64.5352L85.6425 65.2876V66.0445V66.8059L85.6336 67.5628H85.5583H85.3546H85.0402H84.6106H84.1012H83.5211H82.8878H82.2146H81.5104H80.8062H80.1109H79.4377H78.7955H78.2153H77.7016H77.2853H76.9575H76.7538H76.683V66.8059V66.0445L76.6741 65.2876V64.5352L76.6608 63.7961L76.652 63.0614L76.6431 62.3313L76.6342 61.6011L76.621 60.8842L76.6032 60.1674L76.59 59.4595L76.5722 58.7516L76.5501 58.0525L76.5279 57.3669L76.5102 56.6812L76.4792 55.9911L76.4571 55.3232L76.4261 54.6465L76.4084 53.992L76.3774 53.333L76.3464 52.6785L76.3154 52.033L76.2755 51.3874L76.2445 50.7596L76.2046 50.1229L76.1736 49.4996L76.1338 48.8851L76.0895 48.2663L76.0496 47.6607L76.0009 47.0686L75.9566 46.472L75.9168 45.8753L75.8681 45.301L75.8149 44.7177L75.775 44.1434L75.7219 43.5779L75.6643 43.0258L75.6112 42.4737L75.5625 41.9261L75.5093 41.3829L75.4473 40.8486L75.3853 40.3188L75.3277 39.7934L75.2746 39.2725L75.2126 38.7605L75.1417 38.2573L75.0797 37.7542L75.0177 37.2511L74.9469 36.7569L74.8893 36.276L74.814 35.7952L74.7431 35.3232L74.6811 34.8602L74.6103 34.3972L74.5305 33.9386L74.4597 33.4978L74.3888 33.0436L74.318 32.6118L74.2338 32.171L74.163 31.7525L74.0832 31.3295L73.9991 30.9199L73.9194 30.5102L73.8352 30.1095L73.7555 29.7088L73.6713 29.3215L73.5916 28.9297L73.4986 28.5512L73.4189 28.1817L73.3348 27.8121L73.2462 27.4559L73.1532 27.0953L73.069 26.748L72.9804 26.4096L72.8874 26.0712L72.7944 25.7418L72.7014 25.4123L72.6129 25.0962L72.511 24.7756L72.418 24.4684L72.325 24.1701L72.2231 23.8718L72.1301 23.5868L72.0283 23.2974L71.9264 23.0214L71.8378 22.7542L71.736 22.4871L71.6341 22.2244L71.5322 21.9751L71.4259 21.7302L71.3241 21.4853L71.2222 21.2493L71.1115 21.0223L71.0096 20.7952L70.9078 20.5815L70.797 20.3678L70.6952 20.1585L70.58 19.9671L70.4782 19.7711L70.3674 19.5842L70.2656 19.4016L70.1549 19.228L70.0397 19.0543L69.929 18.8985L69.8138 18.7337L69.7031 18.5913L69.5924 18.4488L69.4772 18.3019L69.3665 18.1683L69.2558 18.0481L69.1407 17.9234L69.0299 17.8121L68.9059 17.6963L68.7952 17.6073L68.6845 17.5049L68.5605 17.4203L68.4498 17.3313L68.3257 17.2556L68.215 17.1843L68.091 17.122L67.9803 17.0641L67.8563 17.0107L67.7456 16.9617L67.6216 16.9172L67.4976 16.886L67.378 16.8593L67.2628 16.837L67.1432 16.8281L67.0192 16.8148L66.8997 16.8059L66.7934 16.8148L66.6827 16.8281L66.5719 16.8459L66.4568 16.8771L66.3461 16.9083L66.2353 16.9484L66.1202 17.0107L66.0095 17.0641L65.8987 17.1354L65.7836 17.2066L65.6729 17.2867L65.5622 17.3802L65.447 17.4737L65.3274 17.5761L65.2123 17.6874L65.1016 17.8121L64.9775 17.9368L64.8668 18.0659L64.7561 18.2128L64.6321 18.3553L64.5214 18.52L64.3974 18.6714L64.2867 18.8495L64.1626 19.0232L64.0519 19.2057L63.9279 19.3927L63.8172 19.5842L63.6932 19.7934L63.5825 20.0071L63.4585 20.2208L63.3477 20.439L63.2237 20.675L63.113 20.911L62.989 21.1469L62.865 21.3918L62.7543 21.6456L62.6303 21.9127L62.5195 22.1799L62.3955 22.447L62.2848 22.7231L62.1741 23.0125L62.0501 23.3108L61.9394 23.6091L61.8154 23.9029L61.7046 24.2102L61.5895 24.5307L61.4699 24.8468L61.3548 25.1763L61.244 25.5058L61.1333 25.8442L61.0182 26.1825L60.9075 26.5298L60.7967 26.8816L60.6816 27.2378L60.5709 27.6073L60.4601 27.9768L60.345 28.3464L60.2343 28.7248L60.1235 29.1167L60.0217 29.504L59.9065 29.8958L59.7958 30.2965L59.694 30.6972L59.5832 31.1069L59.4814 31.5165L59.3795 31.935L59.2644 32.358L59.1625 32.7898L59.0606 33.2173L58.9588 33.6581L58.8569 34.1033L58.755 34.5441L58.662 34.9938L58.5602 35.4435L58.4583 35.9065L58.3653 36.3695L58.2634 36.8281L58.1749 37.3001L58.0819 37.7854L57.9889 38.2573L57.8958 38.7382L57.8073 39.228L57.7143 39.7133L57.6213 40.2164L57.5415 40.7061L57.4485 41.2093L57.3688 41.7124L57.2758 42.2155L57.1917 42.7275L57.1119 43.2395L57.0322 43.756L56.9481 44.2769L56.8772 44.7979L56.7975 45.3321L56.7222 45.8664L56.6425 46.4007L56.5716 46.935L56.5008 47.4782L56.4299 48.0214L56.3679 48.5646L56.297 49.1211L56.2262 49.6732L56.1642 50.2253L56.1022 50.7818L56.0402 51.3428L55.9782 51.9083L55.9162 52.4737L55.8586 53.0481L55.8054 53.6135L55.7567 54.1879L55.7036 54.7622L55.6549 55.3455L55.6017 55.9199L55.553 56.5031L55.5087 57.0908L55.46 57.6741L55.4201 58.2573L55.3758 58.854L55.336 59.4506L55.305 60.0427L55.2651 60.6394L55.2341 61.2315L55.2031 61.837L55.1721 62.4337L55.1411 63.0392L55.1234 63.6447L55.0924 64.2502L55.0703 64.8557L55.0525 65.4702L55.0392 66.0757L55.0215 66.6901L55.0082 67.2956L54.9994 67.9101L54.9905 68.5289L54.9772 69.1434L54.9684 69.7578V70.3856V71H54.8975H54.6938H54.3661H53.9498H53.4272H52.847H52.2137H51.5405H50.8363H50.1321H49.4279H48.7547H48.1214H47.5412H47.0319H46.6023H46.2746H46.0709H46V70.5058L46.0089 70.0027V69.5129L46.0221 69.0098L46.031 68.5156L46.0531 68.0125L46.062 67.5094L46.0797 67.0107L46.1019 66.5076L46.124 66.0045L46.155 65.4924L46.1816 64.9893L46.2126 64.4862L46.2436 63.9742L46.2746 63.4711L46.3144 62.9679L46.3587 62.4559L46.3986 61.9395L46.4385 61.4408L46.4783 60.9243L46.5315 60.4212L46.5802 59.9092L46.6333 59.3972L46.6953 58.894L46.744 58.382L46.806 57.87L46.8681 57.3669L46.9301 56.8549L46.9876 56.3384L47.0629 55.8397L47.1205 55.3232L47.1958 54.8246L47.2666 54.3081L47.3464 53.805L47.4172 53.293L47.5014 52.7899L47.5811 52.2867L47.6652 51.7747L47.745 51.2716L47.8247 50.7685L47.9177 50.2698L48.0107 49.7667L48.1037 49.2725L48.1923 48.7694L48.2853 48.2663L48.3783 47.7765L48.4801 47.2734L48.582 46.7792L48.6839 46.2894L48.7857 45.7952L48.8876 45.301L48.9983 44.8112L49.1002 44.317L49.2153 43.8362L49.3261 43.3419L49.4368 42.8611L49.5519 42.3802L49.6626 41.9083L49.7867 41.4363L49.8974 40.9555L50.0214 40.4835L50.141 40.0116L50.265 39.5396L50.389 39.0677L50.5218 38.5957L50.6414 38.1327L50.7743 37.6696L50.8983 37.211L51.0312 36.748L51.164 36.2983L51.2969 35.8353L51.4386 35.3856L51.5715 34.9314L51.7043 34.4907L51.8461 34.0499L51.9878 33.6002L52.1339 33.1683L52.2757 32.7275L52.4174 32.2956L52.5591 31.8638L52.7053 31.4319L52.847 31.0134L53.002 30.5948L53.1526 30.1719L53.2943 29.7533L53.4493 29.3393L53.5999 28.9297L53.7549 28.52L53.9099 28.1193L54.0605 27.7186L54.2243 27.3313L54.3794 26.9305L54.5299 26.5387L54.6938 26.1603L54.8577 25.7729L55.0082 25.4034L55.1721 25.0249L55.336 24.6554L55.4998 24.2858L55.6637 23.9252L55.8276 23.5557L55.9914 23.2084L56.1509 22.8566L56.328 22.5094L56.4919 22.1621L56.6646 21.8237L56.8241 21.4853L57.0012 21.1558L57.1651 20.8264L57.3378 20.5102L57.5105 20.1897L57.6833 19.8736L57.856 19.5663L58.0287 19.268L58.2059 18.9608L58.3786 18.6714L58.5513 18.3731L58.724 18.0882L58.8968 17.8121L59.0695 17.5361L59.2466 17.2689L59.4282 17.0018L59.6009 16.7346L59.7737 16.4764L59.9597 16.2315L60.1324 15.9866L60.3184 15.7507L60.4911 15.5147L60.6727 15.2787L60.8454 15.0516L61.0315 14.8379L61.2042 14.6198L61.3858 14.415L61.5718 14.2102L61.7445 14.0142L61.9305 13.8317L62.1121 13.6358L62.2848 13.4622L62.4708 13.2885L62.6524 13.1238L62.8251 12.959L63.0111 12.8032L63.1927 12.6518L63.3787 12.5094L63.5515 12.3758L63.733 12.2422L63.9191 12.1175L64.1006 11.9929L64.2734 11.8816L64.4594 11.7792L64.641 11.6768L64.8137 11.5833L64.9997 11.5031L65.1813 11.4185L65.3584 11.3473L65.54 11.276L65.726 11.2271L65.8987 11.1647L66.0803 11.1247L66.2531 11.0801L66.4391 11.0534L66.6118 11.0312L66.7934 11.0089L66.9705 11H67.1432H67.44L67.7323 11.0223L68.0202 11.0623L68.308 11.1113L68.5915 11.1736L68.8661 11.2582L69.1407 11.3473L69.4197 11.463L69.6854 11.5744L69.9467 11.7079L70.2124 11.8504L70.4693 12.0062L70.7217 12.1799L70.9786 12.3535L71.2355 12.5494L71.4791 12.7542L71.7138 12.9679L71.9574 13.195L72.1921 13.4221L72.4268 13.667L72.6616 13.9252L72.8874 14.1879L73.1133 14.4684L73.3259 14.7444L73.5518 15.0427L73.7644 15.3411L73.9681 15.6483L74.1851 15.9644L74.3888 16.2939L74.5925 16.6233L74.7874 16.9617L74.9779 17.309L75.1727 17.6563L75.3676 18.0258L75.5492 18.3865L75.7352 18.7649L75.9168 19.1345L76.0895 19.5263L76.2666 19.9136L76.4394 20.3054L76.6121 20.7061L76.776 21.1024L76.9398 21.5165L77.0993 21.9261L77.2543 22.3357L77.4093 22.7542L77.5599 23.1772L77.7016 23.6091L77.8566 24.0276L77.9895 24.4595L78.1312 24.8914L78.264 25.3188L78.4058 25.7596L78.5298 26.1915L78.6626 26.6322L78.7867 27.0641L78.9062 27.5049L79.0302 27.9457L79.141 28.3865L79.2561 28.8183L79.3668 29.2591L79.4775 29.6999L79.5794 30.1318L79.6813 30.5726L79.7831 31.0045L79.8761 31.4319L79.978 31.8638L80.071 32.2956L80.1507 32.7142L80.2437 33.1371L80.3235 33.5557L80.4076 33.9697L80.4785 34.3882L80.5626 34.789L80.6335 35.1986L80.7043 35.5993L80.7663 35.9866L80.8372 36.3785L80.8992 36.7658L80.9568 37.1487L81.0099 37.5183L81.0719 37.8878L81.1206 38.244L81.1605 38.6046Z" fill="#F6B600"/>
<path d="M112.43 50.4297H115.029V59.0272H112.43V50.4297Z" fill="white"/>
<path d="M124.589 50.4297H126.356L125.754 52.7716H124.465L124.589 50.4297Z" fill="white"/>
<path d="M129.409 51.7031L129.918 51.712L130.419 51.7655L130.897 51.8456L131.336 51.9614L131.734 52.135L132.08 52.3487L132.368 52.6248L132.58 52.9631L132.713 53.3772L132.766 53.8492H132.376H131.531H130.685H130.295L130.193 53.3639L129.879 53.0789L129.378 52.9943L129.019 53.0477L128.714 53.2525L128.581 53.6711L128.661 53.9916L128.887 54.2187L129.223 54.3612L129.653 54.4547L130.14 54.5348L130.663 54.615L131.181 54.7396L131.681 54.9355L132.12 55.1715L132.487 55.4787L132.766 55.8394L132.939 56.2579L133.001 56.7387L132.97 57.1617L132.877 57.5402L132.722 57.8875L132.509 58.1858L132.235 58.4618L131.907 58.6889L131.517 58.8759L131.079 59.0273L130.57 59.1386L130.02 59.2009L129.409 59.2232L128.776 59.2009L128.213 59.1386L127.722 59.0362L127.305 58.8848L126.947 58.6978L126.654 58.4752L126.415 58.1947L126.234 57.8875L126.11 57.5491L126.039 57.1617L126.008 56.7387H126.406H127.266H128.12H128.51L128.63 57.2641L128.949 57.5936L129.418 57.7049L129.927 57.6337L130.233 57.3977L130.335 57.0148L130.233 56.6675L129.967 56.4226L129.569 56.2356L129.099 56.1154L128.581 55.9997L128.058 55.8972L127.589 55.777L127.195 55.6034L126.827 55.3452L126.539 54.9845L126.344 54.5259L126.274 53.9382L126.296 53.6533L126.367 53.355L126.491 53.0477L126.672 52.7583L126.916 52.4734L127.243 52.2285L127.651 52.0103L128.143 51.8456L128.723 51.7343L129.409 51.7031Z" fill="white"/>
<path d="M76.1896 56.4211L76.0479 56.8708L75.8663 57.2804L75.6316 57.6722L75.3659 58.0195L75.0603 58.3267L74.7104 58.5938L74.3428 58.8209L73.9353 58.9945L73.5057 59.1281L73.0584 59.2127L72.589 59.2305L72.1417 59.2127L71.7121 59.137L71.3046 59.0168L70.9282 58.861L70.5606 58.6562L70.2328 58.4113L69.9272 58.1352L69.6527 57.8147L69.4179 57.4674L69.2231 57.0889L69.0681 56.6793L68.9485 56.2341L68.8732 55.7755L68.8555 55.2813L68.8732 54.7915L68.9352 54.3285L69.0503 53.8877L69.1921 53.4781L69.3736 53.0952L69.5995 52.7479L69.8652 52.4318L70.1531 52.1513L70.4853 51.9064L70.844 51.7016L71.2338 51.5502L71.6589 51.4255L72.1107 51.3543L72.589 51.332L73.0983 51.3543L73.5677 51.4344L74.0062 51.568L74.4137 51.7417L74.7945 51.9687L75.1311 52.2359L75.4279 52.5431L75.6803 52.8904L75.8973 53.2822L76.07 53.7007L76.2029 54.1548H75.8265H74.9894H74.1524H73.7715L73.5279 53.6829L73.1426 53.3623L72.589 53.2421L72.1195 53.3222L71.7652 53.5671L71.5083 53.9189L71.3445 54.3507L71.2648 54.8227L71.2338 55.2813L71.2648 55.7443L71.3445 56.2163L71.5083 56.6481L71.7652 56.9954L72.1195 57.2403L72.589 57.3249L73.1426 57.2002L73.519 56.8841L73.7715 56.4211H74.1524H74.9761H75.8132H76.1896Z" fill="white"/>
<path d="M58.2625 50.4297H61.3671L62.7224 55.5098L64.0687 50.4297H67.1822L68.5374 59.232H65.9775L65.2955 54.094L63.896 59.232H61.5399L60.1403 54.094L59.4672 59.232H56.8984L58.2625 50.4297Z" fill="white"/>
<path d="M98.0804 54.8093V55.0765V55.6018V56.2786V57.0266V57.7657V58.4113V58.8521V59.0257H95.5117V51.519H98.0804V51.6615V51.9465V52.1023L98.4702 51.8262L98.8776 51.6081L99.3559 51.4567L99.9406 51.3632L100.654 51.332L101.185 51.3721L101.672 51.4968L102.111 51.6927L102.5 51.9465L102.815 52.2448L103.063 52.5831L103.213 52.9438L103.267 53.3222V53.4335V53.7452V54.2172V54.8004V55.4683V56.1762V56.8841V57.5475V58.1352V58.6072V58.9144V59.0257H100.685V58.8432V58.3801V57.7123V56.9554V56.194V55.5395V55.0676V54.8939L100.574 54.4086L100.286 54.0079L99.8874 53.7452L99.4002 53.6428L98.6828 53.8565L98.2576 54.3285L98.0804 54.8093Z" fill="white"/>
<path d="M120.997 52.2552V50.4297H123.601V59.0272H120.997V58.6087L120.598 58.907L120.005 59.143L119.088 59.2365L118.783 59.2276L118.468 59.1786L118.132 59.1073L117.795 58.996L117.467 58.8402L117.14 58.6354L116.834 58.3772L116.559 58.061L116.316 57.6915L116.112 57.2507L115.957 56.7476L115.864 56.1732L115.824 55.5187L115.855 54.9043L115.935 54.3522L116.077 53.8714L116.249 53.4395L116.475 53.0699L116.719 52.7538L117.002 52.4867L117.299 52.2596L117.613 52.0726L117.941 51.939L118.278 51.8366L118.606 51.7654L118.933 51.7253L119.248 51.7164L120.116 51.8188L120.678 52.0325L120.993 52.2685L120.997 52.2552ZM118.304 55.5054L118.366 56.151L118.548 56.6853L118.845 57.086L119.243 57.3442L119.744 57.4243L120.244 57.3531L120.674 57.1082L121.002 56.7075V54.4502L120.758 54.0005L120.328 53.7022L119.748 53.5909L119.248 53.671L118.849 53.9159L118.552 54.3166L118.371 54.8509L118.309 55.5054H118.304Z" fill="white"/>
<path d="M86.8945 55.2846L86.9167 54.8216L86.9698 54.3897L87.0717 53.9801L87.2046 53.5927L87.3773 53.2232L87.581 52.8848L87.8157 52.5776L88.0903 52.3016L88.3959 52.0567L88.7104 51.843L89.0779 51.6693L89.4633 51.5268L89.8796 51.4244L90.3269 51.3621L90.7963 51.3398L91.2658 51.3621L91.7042 51.4244L92.1338 51.5268L92.5236 51.6693L92.8823 51.843L93.2189 52.0567L93.5245 52.3016L93.7902 52.5776L94.0338 52.8848L94.2375 53.2232L94.4014 53.5838L94.5431 53.9845L94.6361 54.3942L94.6981 54.826L94.7203 55.2891L94.6981 55.7521L94.6361 56.184L94.5431 56.6025L94.4103 56.9943L94.2375 57.355L94.0338 57.6934L93.7902 58.0006L93.5245 58.2766L93.2189 58.5215L92.8823 58.7352L92.5236 58.9089L92.1338 59.0513L91.7042 59.1537L91.2658 59.2161L90.7963 59.2383L90.3269 59.2161L89.8796 59.1537L89.4633 59.0513L89.0779 58.9089L88.7104 58.7352L88.3959 58.5215L88.0903 58.2766L87.8157 58.0006L87.581 57.6934L87.3773 57.355L87.2046 56.9943L87.0717 56.6025L86.9698 56.184L86.9167 55.7521L86.8945 55.2891V55.2846ZM92.2933 55.2846L92.2623 54.8216L92.1693 54.3496L91.9877 53.9178L91.7131 53.5705L91.3278 53.3256L90.8052 53.2455L90.2826 53.3256L89.8929 53.5705L89.6183 53.9178L89.4367 54.3496L89.3437 54.8216L89.3127 55.2846L89.3437 55.7477L89.4367 56.2196L89.6183 56.6515L89.8929 56.9988L90.2826 57.2437L90.8052 57.3238L91.3278 57.2437L91.7131 56.9988L91.9877 56.6515L92.1693 56.2196L92.2623 55.7477L92.2933 55.2846Z" fill="white"/>
<path d="M77.0977 50.4302H81.5575L82.0491 50.4391L82.5097 50.5015L82.9481 50.5816L83.3777 50.7063L83.7763 50.8621L84.1439 51.0491L84.4894 51.2628L84.8038 51.4988L85.1006 51.7748L85.3663 52.0732L85.5922 52.3893L85.7959 52.7366L85.9598 53.115L86.0926 53.5157L86.1856 53.9253L86.2476 54.3661L86.2698 54.8292L86.2476 55.2922L86.1856 55.733L86.0926 56.1426L85.9598 56.5433L85.7959 56.9129L85.5922 57.2735L85.3663 57.5896L85.1006 57.8879L84.8038 58.164L84.4894 58.4L84.1439 58.6137L83.7763 58.7962L83.3777 58.952L82.9481 59.0767L82.5097 59.1569L82.0491 59.2058L81.5575 59.2281H77.0977V50.4258V50.4302ZM80.0473 57.1488H81.3936L81.7834 57.1177L82.1731 57.0064L82.5318 56.8016L82.8596 56.4943L83.1164 56.0758L83.2803 55.5237L83.3423 54.8381L83.2803 54.1524L83.1164 53.6003L82.8596 53.1818L82.5318 52.8746L82.1731 52.6698L81.7834 52.5585L81.3936 52.5273H80.0473V57.1622V57.1488Z" fill="white"/>
<path d="M107.899 51.332L108.439 51.3543L108.957 51.4166L109.449 51.519L109.887 51.6615L110.286 51.8574L110.632 52.0934L110.928 52.3828L111.154 52.7123L111.309 53.0907L111.389 53.5092V59.0302H108.789V58.2822L108.399 58.5894L107.992 58.8565L107.545 59.0613L107.013 59.186L106.389 59.235L105.897 59.186L105.45 59.0524L105.051 58.8387L104.692 58.5627L104.396 58.2154L104.183 57.8369L104.041 57.4051L103.988 56.9554L104.01 56.6481L104.064 56.3409L104.165 56.0337L104.307 55.7354L104.502 55.4505L104.759 55.1922L105.064 54.9563L105.454 54.7514L105.915 54.5867L106.455 54.462L107.066 54.3819L107.779 54.3507L108.391 54.2572L108.696 54.0124L108.789 53.674L108.634 53.2955L108.275 53.0595L107.837 52.9794L107.398 53.0417L107.053 53.2555L106.911 53.6339H104.471L104.493 53.3267L104.555 53.0284L104.666 52.7301L104.83 52.454L105.042 52.1958L105.33 51.9598L105.689 51.755L106.119 51.5814L106.628 51.4567L107.221 51.3766L107.903 51.3454L107.899 51.332ZM107.757 55.5573L107.195 55.6686L106.765 55.9758L106.601 56.5012L106.681 56.8708L106.956 57.1379L107.447 57.2403L108.027 57.129L108.506 56.7684L108.78 56.1628V55.4861L108.506 55.5484L108.138 55.5707L107.748 55.5618L107.757 55.5573Z" fill="white"/>
<path d="M120.295 65.1425H121.898L122.58 65.276L123.041 65.6233L123.214 66.1264L123.09 66.5895L122.762 66.8967L122.315 67.0392V67.0481L122.877 67.3953L123.134 67.8985L123.196 68.553H122.483L122.39 67.845L122.093 67.4443L121.513 67.3108H120.933V68.553H120.3V65.138L120.295 65.1425ZM120.928 66.772H121.673L122.142 66.7008L122.417 66.5049L122.496 66.1754L122.425 65.9172L122.2 65.7435L121.77 65.6812H120.924V66.7676L120.928 66.772ZM121.602 63.9492L122.08 63.9893L122.527 64.1006L122.944 64.2742L123.32 64.5102L123.666 64.8085L123.953 65.1469L124.197 65.5254L124.37 65.9572L124.48 66.4069L124.52 66.8789L124.48 67.3597L124.37 67.8094L124.197 68.2279L123.953 68.6153L123.666 68.9537L123.32 69.252L122.944 69.488L122.527 69.6616L122.08 69.7729L121.602 69.813L121.132 69.7729L120.685 69.6616L120.269 69.488L119.879 69.252L119.542 68.9537L119.246 68.6153L119.011 68.2279L118.838 67.8094L118.727 67.3597L118.688 66.8789L118.727 66.4069L118.838 65.9572L119.011 65.5254L119.246 65.1469L119.542 64.8085L119.879 64.5102L120.269 64.2742L120.685 64.1006L121.132 63.9893L121.602 63.9492ZM121.602 69.5102L122.071 69.4701L122.51 69.3455L122.917 69.1496L123.285 68.8913L123.599 68.5752L123.856 68.2146L124.051 67.805L124.175 67.3553L124.215 66.8833L124.175 66.4114L124.051 65.9706L123.856 65.561L123.599 65.2003L123.285 64.8842L122.917 64.626L122.51 64.4301L122.071 64.3054L121.602 64.2653L121.132 64.3054L120.694 64.4301L120.295 64.626L119.928 64.8842L119.613 65.2003L119.356 65.561L119.161 65.9706L119.037 66.4114L118.998 66.8833L119.037 67.3553L119.161 67.805L119.356 68.2146L119.613 68.5752L119.928 68.8913L120.295 69.1496L120.694 69.3455L121.132 69.4701L121.602 69.5102Z" fill="#F6B600"/>
</g>
<defs>
<clipPath id="clip0_15795_8993">
<rect width="87" height="60" fill="white" transform="translate(46 11)"/>
</clipPath>
</defs>
</svg>
