<svg width="165" height="82" viewBox="0 0 165 82" fill="none" xmlns="http://www.w3.org/2000/svg">
<rect width="165" height="82" rx="10" fill="white"/>
<g clip-path="url(#clip0_15841_16054)">
<path d="M115 41.5C115 59.4493 100.449 74 82.5 74C64.5508 74 50 59.4496 50 41.5C50 23.5509 64.5508 9 82.5 9C100.449 9 115 23.5509 115 41.5Z" fill="white"/>
<path d="M82.2295 20.5537C83.3736 21.2098 84.5872 22.0541 85.511 22.9489L85.1481 23.3117C83.3251 23.1189 81.405 23.3595 79.6769 23.3861C79.4842 23.1926 79.0959 22.9017 79.4575 22.6587L82.2295 20.5537ZM114.464 43.0835C114.488 43.9022 114.565 44.6052 114.244 45.443C110.914 46.3854 108.726 42.8772 105.495 43.4063L105.86 45.2248C108.85 45.3226 110.717 48.1748 113.806 48.0522C113.367 48.9241 114.001 51.2213 112.057 50.303C110.039 49.8206 108.58 48.0522 106.369 48.0522C106.102 48.5396 106.271 49.2143 106.225 49.7909C108.557 50.155 110.235 52.1165 112.567 52.4787C112.348 53.2761 112.13 54.1689 111.473 54.6552C109.576 54.1959 108.094 52.5006 106.074 52.5491L105.715 54.2189C107.634 54.268 108.875 55.9576 110.6 56.4648C110.647 57.1691 110.014 57.7985 109.65 58.4272C108.118 57.9695 106.95 56.6606 105.201 56.7572C105.176 56.1013 105.568 55.3565 105.42 54.6552C103.455 55.2367 102.137 53.42 100.68 52.3302C100.638 48.7639 96.8648 46.4243 96.6655 43.0835C96.6273 42.4174 96.7293 41.7063 97.0344 40.9422C98.2746 38.0891 97.885 34.385 96.525 31.725C96.1118 31.025 95.3796 30.4724 94.6972 30.0609C95.6956 32.1659 96.9122 34.653 96.305 37.2404C96.2346 39.2385 95.0497 41.1574 95.0361 43.0835C95.0315 43.7702 95.1788 44.4569 95.5758 45.1504C97.157 47.9835 100.001 50.6652 98.9319 54.2182C98.6378 55.3096 97.762 56.1535 97.5435 57.2641C99.3932 58.7882 101.142 60.5056 103.596 60.6024C104.471 60.0467 103.985 57.5826 105.784 58.7191L108.411 60.0263C108.219 60.7259 107.631 61.3528 107.097 61.8346C106.101 61.3519 105.129 60.7735 103.886 60.8206C103.52 61.2074 103.204 61.6415 103.232 62.1965C104.107 62.3398 104.909 62.7069 105.639 63.2156C105.3 63.9424 104.639 64.3978 104.032 64.9543L101.994 64.2296C101.654 64.7139 100.947 65.2228 101.195 65.7543C101.655 65.9502 102.165 66.215 102.503 66.5543C101.604 67.5215 100.464 68.1437 99.3671 68.8002C98.4223 65.7278 95.3093 63.5737 95.5765 60.0206L95.4318 59.8769C94.7001 60.6954 94.9446 62.0043 94.9918 63.0665C95.8675 65.2919 97.9565 67.0109 98.2733 69.4513C97.9075 70.0793 97.0829 70.2045 96.4503 70.4704C96.5237 66.0704 89.8154 62.7332 94.1173 58.2826C95.552 56.1032 97.9558 54.0235 97.1041 51.023C96.2296 48.1261 93.1367 46.3311 93.164 43.0835L93.1688 42.8302C93.8732 39.4435 96.0133 35.8398 94.2626 32.2369C93.7747 30.7878 92.6846 29.1411 91.2018 28.5354C93.4124 31.0528 94.2888 35.1602 93.0241 38.5476C92.3867 39.895 91.5092 41.5002 91.4212 43.0841H91.4159C91.3689 43.9113 91.5387 44.7339 92.0752 45.5139C93.7537 48.2235 96.669 51.1998 94.992 54.7309C93.0962 57.5591 89.7904 60.4361 91.6366 64.1613C92.9734 66.3861 95.0414 68.6061 94.4835 71.3411L92.2958 72.0659C93.7544 66.9645 86.607 63.9672 89.599 58.8641C91.4463 56.1315 94.7501 53.5676 92.8799 49.9409C91.7618 47.6937 89.4515 46.3637 89.5245 43.5554L89.6041 43.0839C90.3568 39.1011 93.4 35.3311 91.2721 31.075C90.713 29.8182 89.5955 28.5369 88.3553 27.8109L88.2803 27.8854C90.7611 30.2795 91.5158 34.2187 90.1783 37.3852C89.5542 39.243 88.1846 41.0937 87.9063 43.0846C87.7739 44.0232 87.8855 44.9961 88.4307 46.0209C90.0105 48.5098 92.7809 51.15 91.0521 54.3678C89.2315 57.0256 86.1921 59.6117 87.4061 63.068C88.7434 66.0919 91.5357 68.9726 90.028 72.7222L87.7706 73.2293C89.5687 69.5752 86.8725 65.9493 85.2931 62.7802C83.3718 58.2335 89.4212 56.0563 89.5182 51.8993C89.4952 49.2163 86.6282 47.6928 86.0223 45.2263C84.7814 44.1848 83.4953 45.6404 82.0118 45.3702C80.9167 45.5891 79.2346 43.8704 78.5808 45.7335C77.8023 48.4648 74.2555 50.4728 75.8143 53.7124C77.2976 56.5913 80.8671 58.6965 79.6747 62.4222C78.6071 65.9022 75.0804 69.2156 77.2676 73.2293C76.3691 72.9398 74.6912 73.4941 74.7155 72.0661C73.3306 67.2054 79.2364 64.3737 77.4123 59.5156C76.5634 56.54 72.6956 54.8961 73.5471 51.3172C74.1766 48.3711 77.4995 46.3115 77.0334 43.0843C76.9956 42.8141 76.9287 42.5376 76.8332 42.2493C75.593 38.7669 73.0627 35.2837 74.5708 31.2193C74.9849 30.0585 75.8119 29.0672 76.5387 28.0295C74.1321 29.3109 72.918 32.0202 72.9679 34.7765C72.863 37.7739 75.0885 40.3415 75.4051 43.0843C75.5296 44.1913 75.3474 45.3248 74.5708 46.5272C72.9921 48.6585 70.9274 50.9056 71.874 53.7119C72.774 56.5426 76.3226 58.2574 76.1039 61.5476C76.0798 65.4395 71.5342 67.8628 72.8225 72.2154L70.5601 71.4852C69.6618 67.6174 73.7934 65.6385 73.8408 62.0598C74.4255 57.9443 69.1497 56.4174 69.4663 52.4056C69.4436 49.3576 72.1404 47.4272 73.3314 44.8632C73.5357 44.2393 73.6037 43.6498 73.5764 43.0846C73.4304 40.2498 70.863 38.0335 71.2891 34.8463C71.4324 32.5006 72.2345 30.4445 73.7665 28.6804C71.6529 29.5252 70.7797 31.9459 70.1959 33.9776C69.1827 37.2354 71.6013 40.1659 71.8439 43.0848C71.9514 44.3737 71.6347 45.6552 70.4157 46.9654C68.6646 49.0185 66.8888 51.6089 68.1531 54.3682C69.4918 57.4128 73.6979 59.7826 71.8736 63.58C70.8783 65.9745 68.495 67.7872 68.5929 70.6156C67.9614 70.3495 67.3063 70.0843 66.7697 69.6019C66.7697 65.9993 71.9208 63.7491 69.4665 59.9524C69.2491 60.7015 69.2023 61.7196 69.0321 62.5659C68.1804 64.7676 66.358 66.53 65.6761 68.8061C64.5357 68.3682 63.3433 67.4482 62.3948 66.4811L63.7086 65.6811C63.5627 65.1965 63.1744 64.7859 62.8348 64.3748C61.9816 64.2554 61.4213 64.8124 60.7179 65.0306C60.1103 64.4976 59.5238 64.0137 59.0394 63.3609C59.4755 62.125 62.8833 63.1469 61.1569 61.115C59.9914 60.39 58.8215 61.4256 57.8009 61.9091L56.4173 60.1704C57.6084 59.4456 58.7964 58.4276 60.2779 58.7195C60.643 59.3737 60.6683 60.3356 61.3717 60.6772C63.8758 60.6287 65.6501 58.7443 67.5696 57.2687C66.2317 55.288 65.1427 52.5537 66.3312 50.1585C67.2834 47.7582 69.7645 45.7367 69.8771 43.0832C69.9024 42.4793 69.8078 41.8439 69.5423 41.16C68.2304 37.798 67.7674 33.2543 70.2715 30.2787C68.91 30.6426 68.1072 32.3309 67.6446 33.6128C66.1393 36.8956 68.0432 39.9369 68.1089 43.083C68.1179 43.6489 68.0718 44.2161 67.9339 44.7874C66.6451 47.3748 64.5571 49.645 64.218 52.6224C62.7348 53.5637 61.517 55.2098 59.4036 54.6543C59.3293 55.21 59.4995 56.0569 59.6934 56.6863C58.0174 56.6163 56.8746 57.8452 55.4635 58.4256C54.7119 58.1856 54.5163 57.2189 54.2252 56.5424C55.8769 55.9874 57.0684 54.34 58.9649 54.3661C59.1847 53.7585 58.8416 53.2017 58.7448 52.6219C56.3858 51.5802 52.6465 57.7715 52.3321 52.4037C54.6893 52.2585 56.1957 50.0815 58.5303 49.8645L58.6 48.1259C55.9506 47.8595 54.2462 50.5693 51.5979 50.3022L51.0138 47.9819C54.0773 48.1724 55.9025 45.4411 58.82 45.2941C59.2076 44.7869 59.2544 44.0372 59.3291 43.3365C56.1446 42.9237 53.9593 46.4348 50.5795 45.3685C50.5795 45.3685 50.463 43.9072 50.3998 43.0832H50.4044C50.3815 42.7611 50.3596 42.5365 50.3596 42.5365C53.3735 43.7 56.0216 41.5463 58.6 40.4346C59.2557 40.2393 60.2783 40.5778 60.5724 39.853C60.5468 39.2967 61.5666 38.6463 60.7177 38.258C56.9483 37.7491 54.4442 42.2724 50.579 40.2156L50.2891 39.6341C51.0932 28.7048 57.2887 18.1382 67.5696 12.9385C71.7335 10.5711 76.9064 9.36433 82.1233 9.32151C88.4191 9.26955 94.7807 10.9126 99.5131 14.2454C104.109 17.05 108.505 21.6719 110.89 26.3639C113.172 30.4748 114.222 35.0876 114.536 39.9985C110.548 42.9959 107.873 37.1746 103.813 38.4774C104.032 39.1074 104.153 39.7591 104.617 40.2911C108.216 40.2659 110.694 44.0146 114.46 42.5372L114.464 43.0835ZM68.6622 29.623C66.1338 27.978 62.9284 29.5269 60.572 30.4228C60.3533 28.2211 59.4545 26.2152 57.5806 24.7643C57.3988 24.6743 57.1475 24.485 56.9212 24.4711C56.7857 24.4626 56.6568 24.5169 56.5567 24.6893C57.406 29.8878 54.0094 33.5152 51.6023 37.4587C52.4038 38.1104 53.6914 38.013 54.6636 37.8215C57.2153 36.8063 59.6459 35.0393 62.6843 35.645C63.5828 34.1215 65.0924 32.6459 66.3303 31.4367C67.0865 30.7856 68.1255 30.3722 68.6622 29.623ZM76.3934 32.8878C76.3449 33.2009 76.4176 33.7589 76.9027 33.5432C77.6574 32.5035 78.9936 33.3261 79.8196 33.3993V33.1067C79.3664 32.3987 78.434 32.043 77.4872 32.0785C77.2687 32.0861 77.0467 32.1178 76.833 32.1672C76.5162 32.2372 76.2957 32.5256 76.3934 32.8878ZM88.2793 29.7724C87.6006 28.2726 86.0448 27.6656 84.633 27.303C83.941 27.2182 83.2228 27.1609 82.5105 27.1541C82.377 27.1528 82.2437 27.1511 82.1108 27.1541C80.1183 27.1941 78.2144 27.703 77.0513 29.3348C76.8844 29.7954 76.1504 30.4424 76.8319 30.8552C78.3634 30.7578 80.111 30.5667 81.1319 31.8743C81.1319 33.0363 81.886 34.5822 80.6226 35.1385C79.5757 34.1741 78.3359 35.5489 77.1968 34.775C76.6613 34.4602 76.3224 34.8276 76.103 35.2869C75.7864 38.285 77.3642 41.5937 80.1834 43.2617C81.3259 43.6717 82.8618 44.0617 84.0542 43.48C86.9223 42.1513 88.1103 39.1061 88.6444 36.3004C88.5727 35.7665 88.5983 34.7261 87.8453 34.7009C86.9951 35.2359 85.7551 34.9198 84.8539 34.7009C84.3212 34.8719 84.2968 35.6474 83.6904 35.7943L83.3209 35.5011C83.0045 34.173 82.8094 32.2861 84.0503 31.3672C85.4369 30.8109 87.0655 30.5678 88.4995 31.0043C88.7672 30.5452 88.354 30.1837 88.2793 29.7724ZM86.8159 32.1569C86.7196 32.1593 86.6258 32.1641 86.531 32.1672C86.0216 32.5052 84.5373 32.2622 85.0731 33.3993C85.9974 32.6719 87.2857 33.1817 88.2093 33.5432C88.5509 33.3745 88.4768 33.0359 88.4993 32.7439C88.2028 32.195 87.4942 32.1435 86.8159 32.1569ZM97.3991 21.9322C95.5999 21.8372 94.0933 22.8532 92.4401 23.313C92.2961 21.9135 93.3648 20.4354 93.6086 19.0304C90.9356 19.2015 88.8185 20.8022 86.6072 22.0809C86.0955 20.8506 85.5822 19.6141 85.074 18.3793L87.9908 15.6217L88.0656 15.2585L84.1257 15.0402C83.447 13.8572 83.1795 12.4322 82.3774 11.3439C81.721 12.5772 81.2801 13.8824 80.6243 15.1146L76.689 15.3335V15.6217L79.6758 18.3048C79.3107 19.6839 78.9713 21.1824 78.0728 22.2248C76.3228 21.1819 74.5977 20.0469 72.679 19.3228C72.2173 19.1745 71.5591 18.9335 71.1459 19.2485C71.7527 20.5789 72.6025 22.01 72.4596 23.4622C71.657 23.3152 71.0262 22.8032 70.2721 22.588C69.3704 22.3432 68.3003 21.865 67.4254 22.1559C68.8842 24.1861 70.0748 26.3109 70.4867 28.7541C75.326 26.4304 80.9696 25.1524 86.8277 26.1454C89.5737 26.5802 92.0987 27.693 94.5541 28.6098C94.65 26.0478 96.2786 23.9891 97.3991 21.9322ZM105.709 35.8635C108.187 36.5159 110.672 39.2013 113.295 37.4589C111.011 33.6869 107.61 30.2037 108.556 25.2711C108.655 24.9343 108.436 24.5935 108.121 24.5456C106.639 25.1482 105.491 26.6011 104.905 28.0291C104.664 28.8737 104.521 29.7715 104.181 30.5676C102.405 29.6482 100.511 28.7576 98.3476 28.9728C97.5675 29.0695 96.4492 29.1204 96.3052 29.9172C98.7601 31.2224 100.779 33.4006 102.283 35.7202C103.331 35.5502 104.615 35.6954 105.709 35.8635ZM79.7494 39.2724L79.8193 39.7095C80.7692 40.3391 81.0613 41.4061 82.3763 41.3091C83.5425 41.378 84.4174 40.2911 84.9984 39.4211C83.4203 39.2043 81.5001 39.5398 79.7494 39.2724ZM81.0626 37.3148C81.1101 37.5085 80.9422 37.7987 81.2073 37.8965C81.9852 37.7285 83.3943 38.3082 83.8287 37.3893C83.5254 37.0513 83.0303 36.8978 82.5107 36.8978C81.9913 36.8978 81.4522 37.0485 81.0626 37.3148Z" fill="#007042"/>
<path opacity="0.99" d="M79.75 36.4766H85.0798V38.655H79.75V36.4766Z" fill="white"/>
<path d="M80.7321 37.6411C81.4208 37.8032 81.5913 38.0463 82.1356 38.1141C82.7142 38.1039 82.6307 37.9869 83.64 37.6404C83.7062 37.6172 83.7973 37.4717 83.6844 37.3602C83.0577 36.7413 82.6246 37.1835 82.2317 37.1952C81.7106 37.2009 81.2218 36.7513 80.7127 37.3356C80.6259 37.4543 80.5807 37.5709 80.7321 37.6411Z" fill="#007042"/>
<path d="M105.911 73.3869V70.2841H104.797V69.6523H107.78V70.2841H106.669V73.3869H105.911Z" fill="#007042"/>
<path d="M108.258 73.3871V69.6523H109.392L110.073 72.2L110.747 69.6523H111.883V73.3871H111.179V70.4473L110.434 73.3871H109.704L108.962 70.4473V73.3871H108.258Z" fill="#007042"/>
</g>
<defs>
<clipPath id="clip0_15841_16054">
<rect width="65" height="65" fill="white" transform="translate(50 9)"/>
</clipPath>
</defs>
</svg>
