<svg width="165" height="82" viewBox="0 0 165 82" fill="none" xmlns="http://www.w3.org/2000/svg">
<rect width="165" height="82" rx="10" fill="white"/>
<path d="M82.4984 75.8542C69.1134 75.8542 61.7097 74.748 56.8897 72.0113C53.3469 70.0022 51.1406 66.9749 51.1406 64.1214V26.2438C51.1406 21.9927 54.2471 17.1308 59.2125 13.5785C63.3362 10.6377 70.7393 7.14453 82.4984 7.14453C102.968 7.14453 113.857 18.237 113.857 26.2438V64.0911C113.857 66.9736 111.65 70.0015 108.078 72.0105C103.288 74.748 95.8841 75.8542 82.4984 75.8542Z" fill="#F5EBDC"/>
<path d="M106.43 69.0217C101.76 71.6649 93.7477 72.4207 82.6653 72.4207C71.5831 72.4207 63.571 71.6649 58.9017 69.0217C56.0979 67.4386 54.6797 65.2804 54.6797 63.7329C54.6797 62.8522 55.1471 62.3477 56.1877 62.3477H109.142C110.183 62.3477 110.651 62.852 110.651 63.7329C110.651 65.2804 109.232 67.4384 106.43 69.0217H106.43ZM109.142 28.0109H56.1878C55.1464 28.0109 54.6798 27.4716 54.6798 26.5007C54.6798 20.7442 63.3195 10.582 82.6653 10.582C101.832 10.582 110.651 20.7442 110.651 26.5007C110.651 27.4716 110.184 28.0109 109.142 28.0109Z" fill="#FF8732"/>
<path d="M65.9593 51.754C65.7976 51.5026 65.7804 51.3404 65.7804 51.2689C65.7804 51.0711 65.888 50.9276 66.1031 50.7296C66.6062 50.261 67.8463 49.0922 68.5286 48.0312C69.0493 47.2219 69.2644 46.4846 69.2644 45.8737C69.2644 44.3088 67.8462 43.0848 66.3004 43.0848C65.3124 43.0848 64.3785 43.6427 63.7502 44.6679C62.906 46.0345 61.8997 47.6176 61.2537 48.2477C61.0919 48.4099 61.0022 48.4457 60.8768 48.4457C60.6609 48.4457 60.5713 48.3014 60.5713 48.0679V46.2696C60.5713 44.5071 59.5298 43.0855 57.6435 43.0855C55.7395 43.0855 54.7151 44.5064 54.7151 46.2696V57.3497C54.7151 59.1121 55.7387 60.5344 57.6435 60.5344C59.5298 60.5344 60.5713 59.1135 60.5713 57.3497V54.7965C60.5713 54.5801 60.6609 54.4186 60.8768 54.4186C61.1646 54.4186 61.2364 54.7067 61.3085 54.8503C61.7215 55.8397 62.9239 57.9436 64.0387 59.1852C64.7929 60.0126 65.7269 60.5347 66.715 60.5347C68.3854 60.5347 69.7872 59.0773 69.7872 57.5121C69.7872 56.5411 69.3733 55.8216 68.5834 54.9588C67.577 53.8594 66.3909 52.4201 65.9593 51.7548V51.754ZM88.3601 42.0591C91.1801 42.0591 92.9587 40.2603 92.9587 37.6342C92.9587 35.9618 91.9516 34.8102 89.9407 34.8102H89.3665C88.3059 34.8102 87.4796 35.3146 87.4796 36.4476C87.4796 37.4549 88.36 37.9406 89.0246 37.9406C89.3658 37.9406 89.5823 38.0485 89.5823 38.3007C89.5823 38.6236 89.2055 38.84 88.7737 38.84C87.4261 38.84 86.5101 37.8862 86.5101 36.1054C86.5101 34.1272 87.7682 33.4085 88.7377 33.4085C89.923 33.4085 90.1209 34.0201 90.9473 34.0201C91.8995 34.0201 92.5464 33.2285 92.5464 32.4013C92.5464 31.7897 92.2764 31.3225 91.8634 30.9982C91.1091 30.4403 90.0497 30.0273 88.4691 30.0273C85.684 30.0273 82.9721 31.8619 82.9721 36.1068C82.9708 40.1703 85.6834 42.0591 88.3601 42.0591ZM56.7803 41.9512H59.314C61.7031 41.9512 63.1577 40.3504 63.1577 38.3536C63.1577 36.7526 62.2053 36.0154 61.9902 35.8354C61.9011 35.7632 61.8114 35.6918 61.8114 35.6196C61.8114 35.5303 61.8648 35.4939 61.9553 35.386C62.2958 34.9902 62.6371 34.3609 62.6371 33.4429C62.6371 31.2854 61.1818 30.1332 58.9187 30.1332H56.781C55.3621 30.1332 54.6797 30.9618 54.6797 32.0763V40.0081C54.6797 41.124 55.3621 41.9512 56.7803 41.9512ZM57.841 33.2278C57.841 32.9942 57.985 32.8135 58.2897 32.8135H58.5234C59.2955 32.8135 59.5298 33.3529 59.5298 33.8215C59.5298 34.253 59.2968 34.8645 58.5234 34.8645H58.2904C57.9848 34.8645 57.8408 34.6852 57.8408 34.4509L57.841 33.2278ZM57.841 37.437C57.841 37.2034 57.985 37.0227 58.2897 37.0227H58.6132C59.4758 37.0227 59.7266 37.5978 59.7266 38.12C59.7266 38.5886 59.4751 39.2537 58.6132 39.2537H58.2905C57.985 39.2537 57.841 39.0737 57.841 38.8394V37.437ZM103.682 42.0405C104.832 42.0405 105.46 41.1769 105.46 40.0981V38.1914C105.46 37.9577 105.568 37.8499 105.748 37.8499C105.963 37.8499 106.034 37.9757 106.07 38.1914C106.232 39.1087 106.663 40.3496 107.148 40.9797C107.759 41.7898 108.333 42.042 108.908 42.042C109.842 42.042 110.651 41.304 110.651 40.386C110.651 39.7745 110.399 39.3244 110.076 38.9115C109.465 38.1385 109.088 37.6351 108.855 37.0055C108.801 36.8612 108.837 36.7348 108.999 36.6096C109.556 36.1781 110.203 35.2244 110.203 33.7142C110.203 31.4296 108.316 30.1344 106.034 30.1344H104.005C102.586 30.1344 101.904 30.961 101.904 32.0768V40.0994C101.904 41.1781 102.533 42.0404 103.683 42.0404L103.682 42.0405ZM105.263 33.5343C105.263 33.3007 105.407 33.1193 105.712 33.1193H105.963C106.718 33.1193 106.951 33.6593 106.951 34.1273C106.951 34.5773 106.718 35.1703 105.963 35.1703H105.712C105.406 35.1703 105.263 34.9916 105.263 34.7566V33.5336V33.5343ZM74.1509 43.0842C72.1393 43.0842 71.0429 44.5945 71.0429 46.4833V57.1326C71.0429 59.0221 72.1393 60.5324 74.1509 60.5324C76.1624 60.5324 77.258 59.0216 77.258 57.1326V46.4833C77.258 44.5957 76.1632 43.0842 74.1509 43.0842ZM106.088 50.0095H105.208C103.628 50.0095 102.406 50.7467 102.406 52.3649C102.406 53.8401 103.736 54.5416 104.723 54.5416C105.208 54.5416 105.55 54.6859 105.55 55.0631C105.55 55.5303 104.975 55.8361 104.364 55.8361C102.334 55.8361 100.951 54.4509 100.951 51.8784C100.951 49.0187 102.837 47.9757 104.292 47.9757C106.07 47.9757 106.357 48.8758 107.597 48.8758C109.033 48.8758 110.004 47.7062 110.004 46.519C110.004 45.6382 109.608 44.9543 108.98 44.4866C107.884 43.6765 106.232 43.0826 103.896 43.0826C99.7113 43.0826 95.6333 45.7266 95.6333 51.8784C95.6333 57.7598 99.7099 60.5125 103.734 60.5125C107.955 60.5125 110.632 57.9043 110.632 54.0908C110.633 51.6819 109.125 50.0095 106.088 50.0095ZM99.2985 41.9512C100.306 41.9512 101.096 41.3576 101.096 40.2783C101.096 39.2166 100.305 38.623 99.2992 38.623H97.6824C97.3775 38.623 97.2335 38.4437 97.2335 38.2094V37.8672C97.2335 37.6336 97.3775 37.4536 97.683 37.4536H98.9225C99.7852 37.4536 100.468 36.9321 100.468 36.0141C100.468 35.0975 99.7851 34.5754 98.9225 34.5754H97.6826C97.3776 34.5754 97.2337 34.3953 97.2337 34.161V33.8731C97.2337 33.6395 97.3776 33.4595 97.6833 33.4595H99.2994C100.305 33.4595 101.096 32.8659 101.096 31.7871C101.096 30.7249 100.305 30.1312 99.2994 30.1312H95.9046C94.4865 30.1312 93.8033 30.9585 93.8033 32.0743V40.0063C93.8033 41.1213 94.4858 41.9493 95.9046 41.9493H99.2994V41.9515H99.2986M68.4388 42.0405C71.3486 42.0405 72.8936 40.2953 72.8936 38.1021V32.0399C72.8936 30.9611 72.2654 30.0967 71.1151 30.0967C69.9654 30.0967 69.3371 30.9611 69.3371 32.0399V37.9035C69.3371 38.3343 69.0857 38.838 68.4389 38.838C67.7921 38.838 67.5756 38.3343 67.5756 37.9035V32.0399C67.5756 30.9611 66.9295 30.0967 65.7793 30.0967C64.6297 30.0967 64.0013 30.9611 64.0013 32.0399V38.1014C64.0021 40.2961 65.5293 42.04 68.439 42.04L68.4388 42.0405ZM81.0489 42.0405C81.983 42.0405 82.7921 41.3033 82.7921 40.3853C82.7921 39.7738 82.5406 39.3238 82.2172 38.9108C81.6965 38.2272 81.2292 37.6335 80.9963 37.0048C80.9422 36.8605 80.9779 36.7341 81.1403 36.6084C81.6973 36.1775 82.3441 35.2239 82.3441 33.7129C82.3441 31.4283 80.4572 30.1332 78.1757 30.1332H76.1449C74.7266 30.1332 74.0435 30.9604 74.0435 32.0763V40.0988C74.0435 41.1775 74.6726 42.042 75.8222 42.042C76.9719 42.042 77.6008 41.1775 77.6008 40.0988V38.1928C77.6008 37.9592 77.7083 37.8506 77.8879 37.8506C78.1037 37.8506 78.175 37.9764 78.2106 38.1928C78.3724 39.1094 78.8031 40.3503 79.2883 40.981C79.8993 41.7891 80.4734 42.0405 81.0489 42.0405ZM78.1028 35.1696H77.8507C77.5451 35.1696 77.4019 34.9902 77.4019 34.7559V33.5336C77.4019 33.3 77.5458 33.1193 77.8507 33.1193H78.1021C78.8572 33.1193 79.0901 33.6593 79.0901 34.1273C79.0901 34.5759 78.8572 35.1696 78.1021 35.1696H78.1028ZM91.3768 43.0842C89.5271 43.0842 88.5211 44.4687 88.5211 46.214V50.0988C88.5211 50.4217 88.4129 50.5667 88.2156 50.5667C88.0717 50.5667 87.9641 50.4774 87.8387 50.2252L85.3421 45.3695C84.3897 43.5164 83.4017 43.085 82.2706 43.085C80.3843 43.085 79.3422 44.5053 79.3422 46.2869V57.4035C79.3422 59.1486 80.348 60.5333 82.1979 60.5333C84.0485 60.5333 85.0536 59.148 85.0536 57.4035V53.5185C85.0536 53.1957 85.1619 53.0499 85.3593 53.0499C85.5032 53.0499 85.6114 53.1399 85.7361 53.3921L88.2327 58.2485C89.1851 60.1016 90.2088 60.5331 91.3049 60.5331C93.1912 60.5331 94.2333 59.112 94.2333 57.3312V46.2147C94.2333 44.4694 93.2273 43.0849 91.3768 43.0849V43.0842Z" fill="#D62300"/>
</svg>
