<svg width="165" height="82" viewBox="0 0 165 82" fill="none" xmlns="http://www.w3.org/2000/svg">
<rect width="165" height="82" rx="10" fill="white"/>
<path d="M70.3803 48.4035C70.6975 48.4035 70.9801 48.3218 71.2253 48.1625C71.4839 47.9871 71.6758 47.7287 71.7904 47.3939L72.6341 44.9624C72.693 44.7939 72.6982 44.6112 72.649 44.4396C72.5998 44.2681 72.4986 44.1162 72.3596 44.005C71.8238 43.5739 71.1174 43.3543 70.2563 43.3543C69.2874 43.3543 68.3557 43.6435 67.488 44.2192C67.2572 44.3702 67.0352 44.5343 66.8229 44.7106C66.7736 44.4751 66.6643 44.2564 66.5057 44.076C66.2245 43.7586 65.798 43.6046 65.2035 43.6046H63.3042C63.1027 43.6049 62.9078 43.6762 62.7533 43.8062C62.5989 43.9361 62.4948 44.1164 62.4592 44.3156L60.0854 57.7977C60.0653 57.9223 60.0724 58.0499 60.1062 58.1715C60.1401 58.2932 60.1998 58.406 60.2813 58.5021C60.3628 58.5982 60.4642 58.6754 60.5783 58.7284C60.6924 58.7813 60.8167 58.8087 60.9424 58.8086H64.1892C64.6064 58.8086 64.9649 58.506 65.0356 58.0949L66.463 49.8764C66.8282 49.3287 67.2214 48.911 67.632 48.6284C68.0345 48.354 68.4743 48.2201 68.9728 48.2201C69.358 48.2201 69.5486 48.2576 69.6259 48.2803C69.8705 48.356 70.1244 48.3975 70.3803 48.4035Z" fill="#D61D3D"/>
<path d="M74.3039 54.2512C74.0771 53.9786 73.7925 53.7604 73.4709 53.6125C72.8151 53.3072 72.0034 53.3099 71.2864 53.5951C70.9531 53.7294 70.6424 53.9146 70.3654 54.1441C69.794 54.6229 69.4085 55.2884 69.2764 56.024C69.2079 56.3903 69.2161 56.767 69.3004 57.13C69.3822 57.4786 69.5442 57.8031 69.7733 58.0775C70.0025 58.3518 70.2924 58.5685 70.6199 58.71C70.9604 58.8586 71.3283 58.9334 71.6995 58.9295C72.4372 58.9196 73.1486 58.6527 73.7122 58.1744C73.9801 57.9467 74.2133 57.6723 74.4012 57.3603C74.6012 57.0336 74.7344 56.6774 74.8011 56.3012C74.8691 55.9195 74.8571 55.546 74.7691 55.1925C74.6859 54.8478 74.527 54.5262 74.3039 54.2512Z" fill="#D61D3D"/>
<path d="M96.0326 42.3822C95.8544 41.504 95.4326 40.6944 94.8157 40.047C94.2146 39.4137 93.4015 38.9196 92.4019 38.5768C91.4449 38.2501 90.2747 38.0854 88.9205 38.0854H82.3136C82.1116 38.0858 81.9161 38.1574 81.7614 38.2879C81.6067 38.4183 81.5025 38.5993 81.4672 38.7991L78.1417 57.7963C78.1202 57.9204 78.1259 58.0477 78.1584 58.1694C78.191 58.291 78.2497 58.404 78.3303 58.5004C78.4109 58.5969 78.5116 58.6744 78.6252 58.7277C78.7389 58.7809 78.8627 58.8085 78.9881 58.8086H82.4988C82.9147 58.8086 83.2719 58.5073 83.3425 58.0936L84.3981 52.1205H86.7613C88.0728 52.1205 89.2697 51.9531 90.3173 51.621C91.3783 51.2863 92.3153 50.8056 93.1003 50.191C93.8851 49.5832 94.5432 48.8261 95.0369 47.963C95.5248 47.1154 95.8633 46.1688 96.0406 45.1538C96.2152 44.163 96.2125 43.2324 96.0326 42.3822ZM86.0802 42.5442H88.4447C88.9911 42.5442 89.4523 42.6044 89.8135 42.7276C90.1254 42.8347 90.3653 42.978 90.5279 43.1561C90.6903 43.3372 90.7993 43.5602 90.8425 43.8001C90.9051 44.1001 90.8998 44.4562 90.8318 44.8539C90.762 45.27 90.6265 45.6723 90.4306 46.0456C90.2597 46.3708 90.0253 46.6582 89.7415 46.8905C89.4378 47.137 89.0885 47.3208 88.7139 47.4314C88.2378 47.5756 87.7423 47.6447 87.2451 47.6363H85.1858L86.0802 42.5442Z" fill="#D61D3D"/>
<path d="M98.9296 41.5782C99.1591 41.8557 99.4467 42.0788 99.772 42.2316C100.107 42.391 100.477 42.4727 100.874 42.4727C101.262 42.4727 101.645 42.399 102.01 42.2531C102.698 41.974 103.283 41.4869 103.684 40.8592C103.897 40.5245 104.038 40.1629 104.106 39.7787C104.177 39.3743 104.162 38.982 104.064 38.6178C103.969 38.2636 103.8 37.9343 103.567 37.6524C103.333 37.377 103.042 37.1567 102.714 37.007C102.06 36.7004 101.223 36.6856 100.477 36.9909C99.7858 37.2724 99.2044 37.7719 98.8203 38.4143C98.6173 38.7477 98.4785 39.1165 98.4111 39.5015C98.3409 39.8784 98.355 40.2662 98.4525 40.6369C98.5471 40.9904 98.7084 41.3091 98.9296 41.5782Z" fill="#D61D3D"/>
<path d="M102.66 43.9126C102.579 43.8161 102.479 43.7386 102.365 43.6854C102.252 43.6322 102.128 43.6046 102.003 43.6046H98.7878C98.586 43.6039 98.3905 43.6748 98.2358 43.8049C98.0812 43.9351 97.9773 44.116 97.9427 44.3156L95.5636 57.7937C95.5421 57.918 95.5477 58.0456 95.5799 58.1677C95.6121 58.2897 95.6702 58.4033 95.7502 58.5006C95.8313 58.5973 95.9326 58.675 96.0468 58.7282C96.161 58.7814 96.2854 58.8088 96.4113 58.8086H99.6354C100.054 58.8086 100.411 58.5073 100.482 58.0949L102.849 44.6156C102.871 44.4916 102.865 44.3644 102.832 44.2429C102.8 44.1214 102.741 44.0086 102.66 43.9126Z" fill="#D61D3D"/>
<path d="M116.294 46.8945C116.458 46.6032 116.572 46.2857 116.631 45.9559L116.867 44.6169C116.888 44.4928 116.883 44.3655 116.85 44.2439C116.818 44.1223 116.759 44.0093 116.678 43.9128C116.598 43.8164 116.497 43.7388 116.383 43.6856C116.27 43.6323 116.146 43.6047 116.02 43.6046H105.845C105.644 43.6049 105.449 43.6761 105.294 43.8061C105.139 43.936 105.035 44.1163 104.999 44.3156L104.983 44.4174C104.978 44.4354 104.974 44.4538 104.971 44.4723L104.562 46.8008C104.54 46.9249 104.545 47.0524 104.578 47.1742C104.61 47.296 104.669 47.4092 104.749 47.5058C104.83 47.6024 104.931 47.6799 105.045 47.733C105.159 47.7861 105.283 47.8134 105.408 47.813H109.919L103.354 54.8707C103.122 55.1038 102.926 55.3711 102.773 55.6634C102.641 55.9072 102.546 56.17 102.492 56.4426L102.255 57.7977C102.233 57.9217 102.239 58.0488 102.272 58.1703C102.305 58.2917 102.363 58.4046 102.444 58.5009C102.525 58.5971 102.625 58.6746 102.739 58.7277C102.852 58.7809 102.976 58.8085 103.101 58.8086H113.824C114.242 58.8086 114.598 58.5087 114.669 58.0949L115.109 55.6004C115.131 55.4762 115.126 55.3485 115.093 55.2265C115.061 55.1045 115.002 54.9912 114.921 54.8948C114.841 54.7977 114.74 54.7196 114.626 54.6662C114.512 54.6127 114.388 54.5852 114.262 54.5855H109.274L115.779 47.6055C115.966 47.4073 116.138 47.169 116.294 46.8945Z" fill="#D61D3D"/>
<path d="M130.536 44.6156C130.558 44.4916 130.552 44.3644 130.519 44.2429C130.486 44.1214 130.427 44.0086 130.346 43.9126C130.266 43.8156 130.166 43.7376 130.052 43.6841C129.939 43.6307 129.815 43.6031 129.689 43.6033H119.514C119.313 43.6036 119.118 43.6749 118.964 43.8048C118.809 43.9348 118.705 44.1151 118.669 44.3143L118.652 44.4174C118.647 44.4354 118.643 44.4537 118.64 44.4723L118.232 46.7994C118.21 46.9233 118.215 47.0505 118.248 47.1721C118.28 47.2936 118.339 47.4064 118.42 47.5024C118.5 47.5993 118.601 47.6773 118.714 47.7307C118.828 47.7842 118.952 47.8118 119.077 47.8117H123.586L117.023 54.8694C116.792 55.1032 116.596 55.3703 116.442 55.662C116.311 55.9062 116.216 56.1689 116.162 56.4413L115.924 57.7937C115.901 57.918 115.907 58.0457 115.939 58.1677C115.971 58.2898 116.03 58.4032 116.111 58.5C116.191 58.5969 116.292 58.6747 116.406 58.728C116.52 58.7813 116.644 58.8088 116.77 58.8086H127.494C127.91 58.8086 128.267 58.5073 128.341 58.0936L128.778 55.5991C128.8 55.4749 128.795 55.3472 128.763 55.2251C128.731 55.1031 128.673 54.9896 128.592 54.8927C128.511 54.7959 128.41 54.718 128.296 54.6647C128.183 54.6114 128.058 54.5839 127.933 54.5842H122.944L129.451 47.6041C129.636 47.406 129.808 47.1676 129.961 46.8931C130.129 46.5932 130.243 46.2786 130.3 45.9545L130.536 44.6156Z" fill="#D61D3D"/>
<path d="M143.128 45.1378C142.681 44.553 142.094 44.0907 141.422 43.7935C140.744 43.4882 139.942 43.3302 139.039 43.3302C136.671 43.3302 134.489 44.1095 132.55 45.6453C132.405 45.7599 132.3 45.9184 132.252 46.0973C132.203 46.2762 132.213 46.4661 132.28 46.6388L132.69 47.6792C132.81 47.9804 132.995 48.2388 133.245 48.4464C133.535 48.6861 133.908 48.8146 134.326 48.8146C134.722 48.8146 135.106 48.7209 135.467 48.5374C135.715 48.4089 135.982 48.2683 136.27 48.1143C136.507 47.9858 136.791 47.868 137.112 47.7582C137.393 47.6671 137.754 47.6202 138.184 47.6202C138.821 47.6202 138.969 47.8345 139.017 47.9041C139.094 48.0112 139.251 48.3647 139.091 49.2806L139.075 49.3716C137.788 49.4078 136.653 49.5443 135.692 49.7827C134.544 50.0652 133.577 50.4281 132.822 50.8672C132.028 51.3278 131.411 51.8607 130.989 52.4579C130.582 53.0088 130.304 53.6451 130.177 54.3191C130.049 55.0408 130.056 55.6982 130.197 56.2686C130.344 56.8725 130.617 57.3867 131.01 57.8058C131.416 58.2265 131.919 58.541 132.474 58.7216C133.012 58.901 133.62 58.9961 134.277 58.9961C134.809 58.9961 135.311 58.9506 135.77 58.8622C136.23 58.7738 136.681 58.6373 137.111 58.4565C137.53 58.2784 137.948 58.0615 138.353 57.8058C138.372 57.795 138.389 57.7817 138.407 57.7723C138.514 58.0912 138.733 58.3604 139.022 58.5301C139.315 58.7029 139.683 58.7859 140.147 58.7859H141.578C141.996 58.7859 142.351 58.4859 142.425 58.0749L143.939 49.5604C144.088 48.7691 144.1 47.9579 143.976 47.1623C143.859 46.429 143.568 45.7347 143.128 45.1378ZM136.434 54.9631C136.184 55.0142 135.93 55.0389 135.675 55.0368C135.35 55.0368 135.11 54.9792 134.983 54.8721C134.983 54.8721 134.93 54.769 134.986 54.4476C135.015 54.2972 135.083 54.1572 135.183 54.0419C135.266 53.9455 135.438 53.7942 135.802 53.6322C136.155 53.4755 136.628 53.3416 137.212 53.2345C137.562 53.1716 137.968 53.1274 138.421 53.098L138.262 54.0031C138.103 54.1351 137.937 54.2589 137.765 54.374C137.554 54.519 137.331 54.6444 137.097 54.7489C136.884 54.8433 136.662 54.9151 136.434 54.9631Z" fill="#D61D3D"/>
<path d="M147.859 43.0648C148.268 42.963 148.527 42.5935 148.527 42.1208C148.527 41.4567 148.074 41.051 147.355 41.051H146.289V44.6367H146.913V43.1853H147.266L148.031 44.618L148.058 44.6367H148.768L148.74 44.5711L147.859 43.0648ZM147.259 42.6068H146.913V41.6348H147.241C147.669 41.6348 147.892 41.7017 147.892 42.0887C147.892 42.4743 147.735 42.6068 147.259 42.6068Z" fill="#D61D3D"/>
<path d="M147.393 40.2679C146.707 40.2735 146.05 40.5511 145.566 41.0402C145.082 41.5294 144.81 42.1906 144.809 42.8802C144.809 44.3116 145.984 45.4805 147.393 45.4805C148.83 45.4805 150.001 44.3116 150.001 42.8802C149.999 42.1866 149.724 41.5222 149.235 41.0325C148.746 40.5428 148.083 40.2679 147.393 40.2679ZM147.393 45.1979C146.116 45.1979 145.086 44.1562 145.086 42.8802C145.086 41.5935 146.116 40.5397 147.393 40.5397C148.01 40.5415 148.601 40.7887 149.037 41.2274C149.473 41.6661 149.718 42.2604 149.719 42.8802C149.716 43.4972 149.469 44.0877 149.033 44.5222C148.597 44.9567 148.007 45.1997 147.393 45.1979Z" fill="#D61D3D"/>
<path d="M60.7568 38.3947C60.6757 38.2983 60.5747 38.2208 60.4607 38.1676C60.3468 38.1144 60.2227 38.0868 60.097 38.0868H57.4167C57.2474 38.0868 57.0994 38.0908 56.9688 38.1015C56.7827 38.1145 56.5992 38.1532 56.4237 38.2167C56.217 38.2914 56.0268 38.406 55.8639 38.5541C55.7139 38.6922 55.5798 38.8467 55.464 39.0147L48.0187 49.5376L47.9134 49.6902L44.1455 39.2236C44.0655 38.9986 43.9602 38.8058 43.8323 38.6505C43.6827 38.4641 43.4888 38.3186 43.2685 38.2274C43.0908 38.1566 42.9033 38.1142 42.7127 38.1015C42.557 38.0905 42.4009 38.0856 42.2448 38.0868H39.6031C39.4014 38.0867 39.2062 38.1579 39.0514 38.2879C38.8967 38.4179 38.7924 38.5983 38.7568 38.7978L35.4073 57.7937C35.3857 57.9181 35.3915 58.0457 35.4242 58.1677C35.4569 58.2896 35.5158 58.4029 35.5967 58.4996C35.6776 58.5963 35.7785 58.6741 35.8925 58.7274C36.0064 58.7808 36.1306 58.8085 36.2563 58.8086H39.3645C39.7817 58.8086 40.1389 58.5073 40.2109 58.0949L42.0516 47.5666L44.7879 55.1626C44.9345 55.5737 45.1744 55.9004 45.4997 56.1387C45.8502 56.3902 46.2726 56.5204 46.7032 56.5096H47.1857C47.6189 56.5096 48.0214 56.4025 48.3866 56.1882C48.7251 55.9927 49.0197 55.7183 49.2663 55.3701L54.5564 47.8773L52.8117 57.7963C52.7907 57.9208 52.7971 58.0483 52.8302 58.17C52.8634 58.2917 52.9226 58.4047 53.0036 58.501C53.0847 58.5974 53.1858 58.6749 53.2997 58.728C53.4136 58.7811 53.5377 58.8086 53.6634 58.8086H56.7742C57.1901 58.8086 57.5473 58.5073 57.6192 58.0949L60.9474 39.0977C60.9685 38.9736 60.9624 38.8465 60.9295 38.725C60.8966 38.6036 60.8376 38.4909 60.7568 38.3947Z" fill="#D61D3D"/>
<path d="M55.3386 28.4137C55.5187 28.3119 55.7313 28.2851 55.9308 28.3389C56.1304 28.3927 56.301 28.5229 56.4062 28.7015C56.4562 28.7894 56.4884 28.8864 56.5011 28.9868C56.5137 29.0872 56.5065 29.1892 56.4799 29.2868C56.4533 29.3844 56.4078 29.4758 56.3459 29.5557C56.2841 29.6357 56.2072 29.7026 56.1196 29.7526C53.226 31.3326 50.7163 31.1545 48.5797 30.9456C48.1252 30.9001 47.6867 30.8425 47.2655 30.7876C45.1663 30.5132 35.1459 28.8274 35.1233 28.822C26.4837 27.396 24.0206 27.7361 22.076 28.249C18.3014 29.2425 16.3354 31.0059 15.3531 32.3101C14.1416 33.9181 13.7164 35.7833 14.1882 37.4276C14.668 39.0973 16.0622 40.5246 18.0135 41.3454C19.6209 42.0202 22.3639 42.6067 26.3118 41.5677C29.0988 40.8326 31.7885 39.1147 34.6141 37.7971C37.1132 36.6309 38.3608 36.0605 41.1957 35.2812C38.594 34.8394 34.974 34.2556 33.1147 34.0628C31.142 33.8525 26.1545 33.1884 23.5875 35.4673C23.4405 35.6086 23.2439 35.6856 23.0406 35.6816C22.8373 35.6776 22.6438 35.5929 22.5025 35.4459C22.3603 35.2988 22.2816 35.1014 22.2833 34.8963C22.2851 34.6913 22.3672 34.4953 22.5118 34.3506C25.2202 31.9499 29.8332 31.9994 33.3306 32.5457C35.6511 32.9112 46.3818 34.6506 46.4045 34.6532C53.5499 35.8329 55.4399 35.32 57.1086 34.8675L57.4432 34.7791C60.1435 34.0681 62.2787 32.8912 63.6196 31.3688C64.8111 30.0164 65.251 28.5047 64.8511 27.1162C64.4326 25.6567 63.2117 24.4075 61.503 23.6911C60.0902 23.0966 57.6791 22.5825 54.2057 23.497C51.6026 24.1799 44.5718 28.0053 42.3713 28.5998C43.8401 28.8368 46.3752 29.13 47.4814 29.2746C49.8059 29.5772 52.4037 30.0164 55.3386 28.4137Z" fill="#FDB713"/>
</svg>
