<svg width="80" height="80" viewBox="0 0 80 80" fill="none" xmlns="http://www.w3.org/2000/svg">
    <g clip-path="url(#iuyp67poda)" stroke="#1F2085" stroke-linecap="round" stroke-linejoin="round">
        <path d="M68.825 68.025c-.322.361-.696.742-1.122 1.113M67.703 69.139a12.335 12.335 0 0 1-2.306 1.628l-1.642-1.628M63.755 69.138l-.218-.216c-.156.082-.322.144-.488.216M63.049 69.139c-.572.257-1.153.494-1.766.67v2.524s-3.47 1.093-7.252 0v-2.617c-.498-.155-.986-.36-1.454-.577M47.965 69.139C49.097 70.087 50 70.55 50 70.55l1.423-1.411M54.343 44.583v-1.04s3.47-1.093 7.251 0v2.617c.78.247 1.517.566 2.224.948l1.797-1.783s3.23 1.659 5.132 5.09l-1.87 1.855c.363.711.665 1.453.893 2.226h2.545s1.101 3.442 0 7.193h-2.638c-.25.773-.572 1.505-.956 2.205l1.797 1.783s-.56 1.072-1.704 2.35M54.343 44.582v1.484c-.779.227-1.537.526-2.244.886l-1.87-1.855c-3.46 1.886-5.132 5.09-5.132 5.09l1.798 1.784c-.385.7-.707 1.432-.956 2.205H43.3c-1.101 3.75 0 7.193 0 7.193h2.545c.229.773.53 1.525.894 2.226l-1.87 1.855c.893 1.617 2.088 2.833 3.096 3.678M52.567 69.139c-.26-.124-.52-.237-.77-.371l-.373.37"/>
        <path d="M66.31 57.495a8.449 8.449 0 0 0-4.664-7.1M61.646 50.405a8.533 8.533 0 0 0-3.833-.907c-4.706 0-8.519 3.782-8.519 8.45 0 4.668 3.813 8.45 8.519 8.45 4.706 0 8.519-3.782 8.519-8.45 0-.144-.01-.299-.021-.443M38.563 38.318c8.296 0 15.022-6.672 15.022-14.901 0-8.23-6.726-14.901-15.022-14.901s-15.022 6.671-15.022 14.9c0 8.23 6.726 14.902 15.022 14.902zM63.049 69.139h.706"/>
        <path d="M54.343 44.583a28.389 28.389 0 0 0-13.869-3.597h-3.573c-15.614 0-28.382 12.675-28.382 28.153h39.446"/>
    </g>
    <defs>
        <clipPath id="iuyp67poda">
            <path fill="#fff" transform="translate(8 8)" d="M0 0h65.333v65.333H0z"/>
        </clipPath>
    </defs>
</svg>
