<svg width="996" height="340" viewBox="0 0 996 340" fill="none" xmlns="http://www.w3.org/2000/svg">
    <circle cx="874" cy="170" r="102" fill="#162A94"/>
    <circle cx="874" cy="170" r="112" stroke="#1F2085" stroke-opacity=".1" stroke-width="20"/>
    <path d="M815.231 161.416c.6-3.648.6-6.336.6-8.472v-1.8h-11.376v2.52h8.256c0 1.968-.072 4.344-.576 7.488l3.096.264zm-4.824-3.936h-3.12v6.528c-1.392.024-2.736.024-3.96.024l.288 2.592c3.84-.024 8.784-.12 13.272-.888l-.168-2.28c-2.016.24-4.176.384-6.312.456v-6.432zm13.464.36h-2.976v-8.904h-3.168v22.104h3.168v-10.56h2.976v-2.64zm14.374-6.936h-4.92v-2.064h-3.192v2.064h-4.896v2.496h13.008v-2.496zm-8.904 7.248c0-1.104.96-1.656 2.4-1.656 1.416 0 2.4.552 2.4 1.656 0 1.128-.984 1.68-2.4 1.68-1.44 0-2.4-.552-2.4-1.68zm7.824 0c0-2.4-2.232-4.056-5.424-4.056-3.168 0-5.424 1.656-5.424 4.056 0 2.424 2.256 4.08 5.424 4.08 3.192 0 5.424-1.656 5.424-4.08zm-9.264 8.112h11.568v4.824h3.168v-7.368h-14.736v2.544zm17.664-11.616h-2.928v-5.664h-3.168v13.824h3.168v-5.544h2.928v-2.616zm14.71 4.392c-3.408-1.152-4.944-3.816-4.992-6.336h4.296v-2.52h-11.88v2.52h4.344c-.048 2.736-1.656 5.544-5.208 6.744l1.608 2.496c2.568-.84 4.296-2.616 5.28-4.776.936 1.968 2.592 3.552 5.016 4.344l1.536-2.472zm-9.912 6.576h11.904v5.472h3.168v-7.992h-15.072v2.52zm11.904-16.632v5.256h-3.264v2.544h3.264v5.328h3.168v-13.128h-3.168zm10.75 17.496c-.144.56-.328 1.168-.552 1.824-.224.64-.464 1.28-.72 1.92-.256.656-.52 1.28-.792 1.872h-2.568c.16-.64.312-1.312.456-2.016.144-.688.28-1.368.408-2.04.128-.672.232-1.28.312-1.824h3.288l.168.264zm21.046-15.576h-4.944v-2.112h-3.192v2.112h-4.92v2.472h13.032l.024-2.472zm-8.928 6.984c0-1.056.984-1.608 2.4-1.608s2.4.552 2.4 1.608-.984 1.608-2.4 1.608-2.4-.552-2.4-1.608zm7.824 0c0-2.352-2.232-3.912-5.424-3.912s-5.424 1.56-5.424 3.912c0 2.328 2.232 3.912 5.424 3.912s5.424-1.584 5.424-3.912zm2.328 10.464h-8.088v-1.56h8.088v1.56zm0-3.936h-8.088v-1.68h-3.144v8.064h14.376v-8.064h-3.144v1.68zm6.072-10.152h-2.928v-5.28h-3.168v12.936h3.168v-5.064h2.928v-2.592zm5.806 5.112h7.176v-8.544h-10.44v2.52h7.2v3.528h-7.176v9.096h1.992c4.008 0 7.248-.144 10.848-.768l-.336-2.568c-3.12.528-5.904.696-9.264.72v-3.984zm10.8-10.44v22.176h3.168v-22.176h-3.168zm19.822 10.104c-3.408-1.152-4.944-3.816-4.992-6.336h4.296v-2.52h-11.88v2.52h4.344c-.048 2.736-1.656 5.544-5.208 6.744l1.608 2.496c2.568-.84 4.296-2.616 5.28-4.776.936 1.968 2.592 3.552 5.016 4.344l1.536-2.472zm-9.912 6.576h11.904v5.472h3.168v-7.992h-15.072v2.52zm11.904-16.632v5.256h-3.264v2.544h3.264v5.328h3.168v-13.128h-3.168zM829.703 183.24v2.52h7.368c-.456 4.896-2.904 8.352-8.544 11.064l1.656 2.496c7.848-3.792 10.128-9.312 10.128-16.08h-10.608zm13.992-2.304v22.104h3.192v-22.104h-3.192zm8.518 9.984c4.128-.456 6.84-2.16 7.968-4.416 1.176 2.256 3.864 3.96 7.968 4.416l1.152-2.472c-4.32-.48-6.504-2.256-6.864-4.032h5.952v-2.52h-16.368v2.52h5.928c-.384 1.752-2.592 3.552-6.864 4.032l1.128 2.472zm3.456 5.4h-3.168v6.36h15.48v-2.52h-12.312v-3.84zm-5.496-4.344v2.496h8.712v3.744h3.168v-3.744h8.16v-2.496h-20.04zm42.928.216h3.168V180.96h-3.168v3.24h-4.032v2.52h4.032v5.472zm-2.112-2.688c-3.456-1.056-4.968-3.624-4.968-6.24v-1.584h-3.192v1.584c0 2.808-1.536 5.52-5.208 6.624l1.632 2.472c2.52-.792 4.248-2.424 5.232-4.488.936 1.848 2.568 3.312 4.896 4.056l1.608-2.424zm-6.144 10.848v-1.296h11.424v-5.928h-14.568v2.424h11.448v1.224h-11.424v6.024h15.168v-2.448h-12.048zm26.662-14.064v2.568h3.312v5.256h3.168V180.96h-3.168v5.328h-3.312zm1.32 4.752c-3.36-1.104-4.896-3.696-4.992-6.216h4.296v-2.544h-11.88v2.544h4.344c-.096 2.76-1.704 5.568-5.208 6.792l1.608 2.496c2.568-.864 4.32-2.664 5.28-4.896.96 1.944 2.616 3.504 5.016 4.296l1.536-2.472zm-2.304 9.648c-2.904 0-4.416-.6-4.416-1.848 0-1.248 1.512-1.848 4.416-1.848 2.88 0 4.392.6 4.392 1.848 0 1.248-1.512 1.848-4.392 1.848zm0-6.096c-4.704 0-7.584 1.56-7.584 4.248s2.88 4.248 7.584 4.248c4.68 0 7.56-1.56 7.56-4.248s-2.88-4.248-7.56-4.248z" fill="#fff"/>
    <circle cx="418" cy="90" r="89" fill="#fff" fill-opacity=".3" stroke="#D9D9D9" stroke-width="2"/>
    <path d="M383.964 85.74v2.14h2.76v4.38h2.64V81.3h-2.64v4.44h-2.76zm1.1 3.96c-2.8-.92-4.08-3.08-4.16-5.18h3.58V82.4h-9.9v2.12h3.62c-.08 2.3-1.42 4.64-4.34 5.66l1.34 2.08c2.14-.72 3.6-2.22 4.4-4.08.8 1.62 2.18 2.92 4.18 3.58l1.28-2.06zm-1.92 8.04c-2.42 0-3.68-.5-3.68-1.54s1.26-1.54 3.68-1.54c2.4 0 3.66.5 3.66 1.54s-1.26 1.54-3.66 1.54zm0-5.08c-3.92 0-6.32 1.3-6.32 3.54s2.4 3.54 6.32 3.54c3.9 0 6.3-1.3 6.3-3.54s-2.4-3.54-6.3-3.54zm24.198-11.36h-2.64v9.28h2.64V81.3zm-8 6.64h-3.76v-3.66h3.76v3.66zm2.58-5.72h-8.94v7.8h8.94v-7.8zm-4.22 15.32v-1.16h9.64V91.4h-12.26v2.02h9.66v1.08h-9.64v5.08h12.72v-2.04h-10.12zm22.459-11.8v2.14h2.76v4.38h2.64V81.3h-2.64v4.44h-2.76zm1.1 3.96c-2.8-.92-4.08-3.08-4.16-5.18h3.58V82.4h-9.9v2.12h3.62c-.08 2.3-1.42 4.64-4.34 5.66l1.34 2.08c2.14-.72 3.6-2.22 4.4-4.08.8 1.62 2.18 2.92 4.18 3.58l1.28-2.06zm-1.92 8.04c-2.42 0-3.68-.5-3.68-1.54s1.26-1.54 3.68-1.54c2.4 0 3.66.5 3.66 1.54s-1.26 1.54-3.66 1.54zm0-5.08c-3.92 0-6.32 1.3-6.32 3.54s2.4 3.54 6.32 3.54c3.9 0 6.3-1.3 6.3-3.54s-2.4-3.54-6.3-3.54zm19.618-10h-3.9v-1.52h-2.64v1.52h-3.92v1.88h10.46v-1.88zm-7.22 5.06c0-.68.76-1.02 2-1.02s1.98.34 1.98 1.02c0 .68-.74 1.04-1.98 1.04s-2-.36-2-1.04zm7.68 3.26c-1.4.16-2.86.28-4.36.34v-.94c1.96-.3 3.16-1.26 3.16-2.66 0-1.68-1.76-2.72-4.48-2.72-2.72 0-4.5 1.04-4.5 2.72 0 1.4 1.22 2.36 3.18 2.66v1.04c-1.56.04-3.06.04-4.38.04l.28 2.02c3.24 0 7.44-.04 11.3-.72l-.2-1.78zm-9.04 5.64h9.84v3.12h2.64v-5.16h-12.48v2.04zm14.8-10.04h-2.32V81.3h-2.64v12.56h2.64v-5.12h2.32v-2.16zm10.819 8.9v-3.84h5.26v-2.12h-10.3v-4.84h10.16v-2.12h-12.82v9.08h5.06v3.84h-7v2.16h16.68v-2.16h-7.04z" fill="#222"/>
    <circle cx="578" cy="90" r="89" fill="#fff" fill-opacity=".3" stroke="#D9D9D9" stroke-width="2"/>
    <path d="M554.782 87.16c0-1.5 1.04-2.4 2.42-2.4 1.36 0 2.42.9 2.42 2.4s-1.06 2.4-2.42 2.4c-1.38 0-2.42-.9-2.42-2.4zm7.4 0c0-2.72-2.18-4.68-4.98-4.68-2.82 0-5 1.96-5 4.68 0 2.7 2.18 4.68 5 4.68 2.8 0 4.98-1.98 4.98-4.68zm-4.86 6.16h-2.64v6.08h12.54v-2.1h-9.9v-3.98zm9.24-6.74V81.3h-2.64v13.4h2.64v-5.96h2.44v-2.16h-2.44zm13.599-.84v2.14h2.76v4.38h2.64V81.3h-2.64v4.44h-2.76zm1.1 3.96c-2.8-.92-4.08-3.08-4.16-5.18h3.58V82.4h-9.9v2.12h3.62c-.08 2.3-1.42 4.64-4.34 5.66l1.34 2.08c2.14-.72 3.6-2.22 4.4-4.08.8 1.62 2.18 2.92 4.18 3.58l1.28-2.06zm-1.92 8.04c-2.42 0-3.68-.5-3.68-1.54s1.26-1.54 3.68-1.54c2.4 0 3.66.5 3.66 1.54s-1.26 1.54-3.66 1.54zm0-5.08c-3.92 0-6.32 1.3-6.32 3.54s2.4 3.54 6.32 3.54c3.9 0 6.3-1.3 6.3-3.54s-2.4-3.54-6.3-3.54zm21.678-.56h2.64V81.3h-2.64v3.36h-3.36v2.14h3.36v5.3zm-1.68-2.66c-2.92-.94-4.12-3.18-4.12-5.66v-1.52h-2.68v1.64c0 2.54-1.3 5.04-4.44 6.04l1.38 2.12c2.18-.74 3.64-2.22 4.46-4.1.78 1.64 2.08 2.9 4.02 3.56l1.38-2.08zm-1.9 8.26c-2.42 0-3.68-.5-3.68-1.54 0-1.06 1.26-1.56 3.68-1.56 2.4 0 3.66.5 3.66 1.56 0 1.04-1.26 1.54-3.66 1.54zm0-5.14c-3.92 0-6.32 1.32-6.32 3.6 0 2.24 2.4 3.56 6.32 3.56 3.9 0 6.3-1.32 6.3-3.56 0-2.28-2.4-3.6-6.3-3.6z" fill="#222"/>
    <circle cx="578" cy="250" r="89" fill="#fff" fill-opacity=".3" stroke="#D9D9D9" stroke-width="2"/>
    <path d="M560.315 226.8h-3.9v-1.58h-2.64v1.58h-3.92v1.88h10.46v-1.88zm-7.22 5.22c0-.72.76-1.1 2-1.1s1.98.38 1.98 1.1c0 .7-.74 1.08-1.98 1.08s-2-.38-2-1.08zm7.68 3.26c-1.4.2-2.86.32-4.36.42v-.94c1.94-.3 3.16-1.3 3.16-2.74 0-1.78-1.78-2.86-4.48-2.86-2.72 0-4.5 1.08-4.5 2.86 0 1.44 1.22 2.44 3.18 2.74v1.06c-1.58.06-3.08.06-4.38.06l.28 2.02c3.14-.02 7.48-.1 11.3-.82l-.2-1.8zm-6.18 3.5h-2.64v4.62h12.88v-2.1h-10.24v-2.52zm9.62-7.46v-6.04h-2.64v14.4h2.64v-6.2h2.32v-2.16h-2.32zm16.258-1v1.7h-4.06v2.12h4.06v1.76h2.64v-10.6h-2.64v2.92h-3.3c.08-.54.12-1.1.12-1.68h-8.44v2.12h5.56c-.34 2.5-2.36 4.48-6.56 5.6l1.02 2.08c4.06-1.14 6.64-3.12 7.78-6.02h3.82zm-3.44 11.26c-2.28 0-3.62-.58-3.62-1.7s1.34-1.7 3.62-1.7c2.26 0 3.6.58 3.6 1.7s-1.34 1.7-3.6 1.7zm0-5.44c-3.76 0-6.22 1.44-6.22 3.74 0 2.3 2.46 3.74 6.22 3.74 3.74 0 6.2-1.44 6.2-3.74 0-2.3-2.46-3.74-6.2-3.74zm28.954-10.82h-2.64v10.44h2.64v-10.44zm-8 6.82h-3.76v-3.66h3.76v3.66zm2.58-5.74h-8.94v7.8h8.94v-7.8zm5.72 12.3v-1.96h-5.14v-1.5h-2.68v1.5h-5.16v1.96h5.1c-.28 1.28-2.12 2.68-5.8 3l.82 1.96c3.1-.26 5.26-1.34 6.38-2.76 1.12 1.4 3.26 2.5 6.32 2.76l.84-1.96c-3.64-.3-5.48-1.78-5.76-3h5.08zm-56.494 20.02h-2.66v2.68c0 3.42-1.4 6.94-4.5 8.4l1.58 2.14c2.08-1.02 3.46-2.96 4.26-5.3.76 2.2 2.06 3.98 3.98 4.96l1.6-2.08c-2.96-1.46-4.26-4.8-4.26-8.12v-2.68zm10.32 5.66h-2.68v-7.08h-2.64v18.42h2.64v-9.14h2.68v-2.2zm9.279 9.36c-2.46 0-3.72-.42-3.72-1.36 0-.94 1.26-1.34 3.72-1.34s3.72.4 3.72 1.34c0 .94-1.26 1.36-3.72 1.36zm0-4.7c-3.98 0-6.38 1.2-6.38 3.34 0 2.14 2.4 3.36 6.38 3.36s6.4-1.22 6.4-3.36c0-2.14-2.42-3.34-6.4-3.34zm-1.9-4.54c.6.08 1.24.12 1.94.12.68 0 1.32-.04 1.9-.1v1.52h-3.84v-1.54zm1.94-4.92c2.52 0 3.96.5 3.96 1.54 0 1-1.44 1.52-3.96 1.52-2.5 0-3.94-.52-3.94-1.52 0-1.04 1.44-1.54 3.94-1.54zm4.54 6.46v-2.2c1.36-.6 2.14-1.52 2.14-2.72 0-2.2-2.6-3.54-6.68-3.54-4.06 0-6.66 1.34-6.66 3.54 0 1.18.76 2.1 2.08 2.7v2.22h-3.74v2.08h16.64v-2.08h-3.78zm20.538-8.74h-2.66v13.54h2.66V257.3zm-8.02 8.58h-3.74v-2.62h3.74v2.62zm2.6-7.26h-2.6v2.62h-3.74v-2.62h-2.62v9.36h8.96v-9.36zm-4.24 14.68v-3.78h-2.66v5.88h12.74v-2.1h-10.08zm22.098-1.82v-3.84h5.26v-2.12h-10.3v-4.84h10.16v-2.12h-12.82v9.08h5.06v3.84h-7v2.16h16.68v-2.16h-7.04z" fill="#222"/>
    <circle cx="418" cy="250" r="89" fill="#fff" fill-opacity=".3" stroke="#D9D9D9" stroke-width="2"/>
    <path d="M389.793 242.72h-2.66v2.68c0 3.42-1.4 6.94-4.5 8.4l1.58 2.14c2.08-1.02 3.46-2.96 4.26-5.3.76 2.2 2.06 3.98 3.98 4.96l1.6-2.08c-2.96-1.46-4.26-4.8-4.26-8.12v-2.68zm10.32 5.66h-2.68v-7.08h-2.64v18.42h2.64v-9.14h2.68v-2.2zm9.279 9.36c-2.46 0-3.72-.42-3.72-1.36 0-.94 1.26-1.34 3.72-1.34s3.72.4 3.72 1.34c0 .94-1.26 1.36-3.72 1.36zm0-4.7c-3.98 0-6.38 1.2-6.38 3.34 0 2.14 2.4 3.36 6.38 3.36s6.4-1.22 6.4-3.36c0-2.14-2.42-3.34-6.4-3.34zm-1.9-4.54c.6.08 1.24.12 1.94.12.68 0 1.32-.04 1.9-.1v1.52h-3.84v-1.54zm1.94-4.92c2.52 0 3.96.5 3.96 1.54 0 1-1.44 1.52-3.96 1.52-2.5 0-3.94-.52-3.94-1.52 0-1.04 1.44-1.54 3.94-1.54zm4.54 6.46v-2.2c1.36-.6 2.14-1.52 2.14-2.72 0-2.2-2.6-3.54-6.68-3.54-4.06 0-6.66 1.34-6.66 3.54 0 1.18.76 2.1 2.08 2.7v2.22h-3.74v2.08h16.64v-2.08h-3.78zm7.078 5.74h10.16v3.96h2.64v-6.06h-12.8v2.1zm2.8-11.7h7.3v2.38h-7.3v-2.38zm4.98 6.18v-1.72h4.92v-6.52h-12.5v6.52h4.94v1.72h-6.98v2.1h16.64v-2.1h-7.02zm19.578-.56c-2.84-.96-4.12-3.18-4.16-5.28h3.58v-2.1h-9.9v2.1h3.62c-.04 2.28-1.38 4.62-4.34 5.62l1.34 2.08c2.14-.7 3.58-2.18 4.4-3.98.78 1.64 2.16 2.96 4.18 3.62l1.28-2.06zm-8.26 5.48h9.92v4.56h2.64v-6.66h-12.56v2.1zm9.92-13.86v4.38h-2.72v2.12h2.72v4.44h2.64v-10.94h-2.64z" fill="#222"/>
    <circle cx="753.5" cy="170.5" r="7.5" fill="#162A94"/>
    <path d="M618 170h128" stroke="#D9D9D9" stroke-width="2" stroke-dasharray="4 4"/>
    <circle cx="242.5" cy="170.5" r="7.5" fill="#162A94"/>
    <path d="M253 170h124" stroke="#D9D9D9" stroke-width="2" stroke-dasharray="4 4"/>
    <circle cx="122" cy="170" r="102" fill="#555"/>
    <circle cx="122" cy="170" r="112" stroke="#555" stroke-opacity=".1" stroke-width="20"/>
    <path d="M86.505 163.216c.744-4.464.744-7.512.744-10.224v-2.136H71v2.52h13.08c0 2.544-.024 5.52-.744 9.528l3.168.312zm-4.68 2.64v-6.984h-3.096v6.984h-2.352v-6.984h-3.12v6.984h-4.2v2.544h20.016v-2.544h-7.248zm20.95-11.568v2.568h3.312v5.256h3.168V148.96h-3.168v5.328h-3.312zm1.32 4.752c-3.36-1.104-4.896-3.696-4.992-6.216h4.296v-2.544h-11.88v2.544h4.344c-.096 2.76-1.704 5.568-5.208 6.792l1.608 2.496c2.568-.864 4.32-2.664 5.28-4.896.96 1.944 2.616 3.504 5.016 4.296l1.536-2.472zm-2.304 9.648c-2.904 0-4.416-.6-4.416-1.848 0-1.248 1.512-1.848 4.416-1.848 2.88 0 4.392.6 4.392 1.848 0 1.248-1.512 1.848-4.392 1.848zm0-6.096c-4.704 0-7.584 1.56-7.584 4.248s2.88 4.248 7.584 4.248c4.68 0 7.56-1.56 7.56-4.248s-2.88-4.248-7.56-4.248zm12.814-2.688c3.864-.528 6.576-2.184 7.896-4.44 1.32 2.256 4.032 3.912 7.896 4.44l1.128-2.472c-4.488-.552-6.816-2.712-7.128-4.824h6.264v-2.52h-16.392v2.52h6.36c-.312 2.112-2.664 4.272-7.176 4.824l1.152 2.472zm17.88 1.272h-19.968v2.52h8.328v7.416h3.168v-7.416h8.472v-2.52zm2.95-9.936v2.52h7.368c-.456 4.896-2.904 8.352-8.544 11.064l1.656 2.496c7.848-3.792 10.128-9.312 10.128-16.08h-10.608zm13.992-2.304v22.104h3.192v-22.104h-3.192zm13.606 1.488c-3.456 0-6.072 2.28-6.072 5.448 0 3.192 2.616 5.448 6.072 5.448s6.096-2.256 6.096-5.448c0-3.168-2.64-5.448-6.096-5.448zm0 2.712c1.704 0 3 1.008 3 2.736 0 1.728-1.296 2.736-3 2.736s-3-1.008-3-2.736c0-1.728 1.296-2.736 3-2.736zm8.16-4.2v22.176h3.168v-22.176h-3.168zm-14.76 17.688c3.816 0 9-.048 13.752-1.008l-.192-2.28c-4.656.696-10.08.72-13.968.72l.408 2.568zm-39.487 25.568h3.168V180.96h-3.168v3.24h-4.032v2.52h4.032v5.472zm-2.112-2.688c-3.456-1.056-4.968-3.624-4.968-6.24v-1.584h-3.192v1.584c0 2.808-1.536 5.52-5.208 6.624l1.632 2.472c2.52-.792 4.248-2.424 5.232-4.488.936 1.848 2.568 3.312 4.896 4.056l1.608-2.424zm-6.144 10.848v-1.296h11.424v-5.928h-14.568v2.424h11.448v1.224H105.57v6.024h15.168v-2.448H108.69zm26.662-14.064v2.568h3.312v5.256h3.168V180.96h-3.168v5.328h-3.312zm1.32 4.752c-3.36-1.104-4.896-3.696-4.992-6.216h4.296v-2.544h-11.88v2.544h4.344c-.096 2.76-1.704 5.568-5.208 6.792l1.608 2.496c2.568-.864 4.32-2.664 5.28-4.896.96 1.944 2.616 3.504 5.016 4.296l1.536-2.472zm-2.304 9.648c-2.904 0-4.416-.6-4.416-1.848 0-1.248 1.512-1.848 4.416-1.848 2.88 0 4.392.6 4.392 1.848 0 1.248-1.512 1.848-4.392 1.848zm0-6.096c-4.704 0-7.584 1.56-7.584 4.248s2.88 4.248 7.584 4.248c4.68 0 7.56-1.56 7.56-4.248s-2.88-4.248-7.56-4.248z" fill="#fff"/>
</svg>
