<svg width="80" height="80" viewBox="0 0 80 80" fill="none" xmlns="http://www.w3.org/2000/svg">
    <g clip-path="url(#ik7lxafaha)" stroke="#1F2085" stroke-linecap="round" stroke-linejoin="round">
        <path d="M63.052 55.879H35.35v10.25H52.69"/>
        <path d="M63.052 55.879h9.775v10.25H52.69M43.027 56.185v4.13M46.582 59.46v-3.275M50.148 60.314v-4.129M57.268 60.314v-4.129M60.834 56.185v2.878M60.834 59.063v.396M64.4 56.185v4.13M53.713 56.185v3.275"/>
        <path d="M65.25 51.384a29.423 29.423 0 0 0 2.006-10.719c0-16.291-13.148-29.491-29.375-29.491S8.506 24.374 8.506 40.665c0 16.292 13.148 29.492 29.375 29.492A29.135 29.135 0 0 0 52.69 66.13"/>
        <path d="M17.906 61.96c2.31 1.974 8.833-2.989 6.807-8.074s3.039-7.118 5.065-6.101c2.026 1.017 4.052-1.017 5.064-2.034 1.013-1.017 2.026-5.085-2.026-7.119-4.051-2.034-4.051-5.085-4.051-6.102 0-1.017 2.026-2.034 2.026-4.067 0-2.034-1.013-7.12-6.078-4.068-5.064 3.05-12.155 2.034-12.155 2.034M51.221 14.734s-3.21 7.627-6.25 8.644c-3.038 1.017-2.025 6.102 1.014 6.102 3.038 0 5.064-2.034 7.09 1.017 2.026 3.05 5.064 4.068 7.09 1.017 2.026-3.05 4.67-2.095 4.67-2.095M35.855 52.91v-3.05M72.32 51.385v-1.526M72.32 52.91v-1.525M65.25 51.385h7.07M65.25 51.385H35.916"/>
    </g>
    <defs>
        <clipPath id="ik7lxafaha">
            <path fill="#fff" transform="translate(8 10.666)" d="M0 0h65.333v60H0z"/>
        </clipPath>
    </defs>
</svg>
