<svg width="80" height="80" viewBox="0 0 80 80" fill="none" xmlns="http://www.w3.org/2000/svg">
    <g clip-path="url(#0pj3t0pf1a)" stroke="#1F2085" stroke-linecap="round" stroke-linejoin="round">
        <path d="M58.773 48.925V10.398a.559.559 0 0 0-.556-.562H22.29M22.29 9.836h-.388c-2.257 2.138-5.955 5.872-8.072 8.15M58.773 66.32v3.283a.558.558 0 0 1-.556.562h-43.83a.559.559 0 0 1-.557-.562V17.986"/>
        <path d="M58.773 48.924c4.185.642 7.406 4.286 7.406 8.693s-3.21 8.05-7.406 8.693M58.773 48.925a8.196 8.196 0 0 0-1.322-.11c-4.821 0-8.728 3.945-8.728 8.813s3.907 8.814 8.728 8.814c.447 0 .885-.05 1.322-.11"/>
        <path d="m53.007 56.885 3.231 3.423 2.535-2.41M61.895 54.928l-3.122 2.971M22.29 9.836v8.15h-8.46M22.817 23.719h27.496M22.817 30.654h27.496M37.619 37.602H22.817"/>
    </g>
    <defs>
        <clipPath id="0pj3t0pf1a">
            <path fill="#fff" transform="translate(13.333 9.334)" d="M0 0h53.333v61.333H0z"/>
        </clipPath>
    </defs>
</svg>
