<svg width="270" height="45" viewBox="0 0 270 45" fill="none" xmlns="http://www.w3.org/2000/svg">
<path d="M92.43 7.32H102.924V9.228H92.43V7.32ZM90.72 18.768H105.786V20.694H90.72V18.768ZM101.97 7.32H104.328V8.778C104.328 10.794 104.346 13.152 103.572 16.77L101.214 16.518C101.97 13.134 101.97 10.704 101.97 8.778V7.32ZM102.402 11.334V13.134L92.232 13.692L91.908 11.658L102.402 11.334ZM96.066 14.772H98.46V19.47H96.066V14.772ZM118.763 5.916H121.157V22.638H118.763V5.916ZM108.179 16.806H109.655C112.607 16.806 114.965 16.698 117.611 16.248L117.845 18.174C115.145 18.66 112.697 18.75 109.655 18.75H108.179V16.806ZM108.161 7.338H116.027V13.782H110.609V17.526H108.179V11.892H113.579V9.246H108.161V7.338ZM128.301 7.086C130.839 7.086 132.675 9.39 132.675 13.026C132.675 16.698 130.839 19.002 128.301 19.002C125.763 19.002 123.927 16.698 123.927 13.026C123.927 9.39 125.763 7.086 128.301 7.086ZM128.301 9.264C127.059 9.264 126.231 10.578 126.231 13.026C126.231 15.51 127.059 16.842 128.301 16.842C129.543 16.842 130.389 15.51 130.389 13.026C130.389 10.578 129.543 9.264 128.301 9.264ZM134.493 5.934H136.905V22.602H134.493V5.934ZM136.365 12.216H139.317V14.196H136.365V12.216ZM151.844 5.952H154.256V17.922H151.844V5.952ZM143.15 20.406H154.67V22.314H143.15V20.406ZM143.15 16.716H145.544V21.18H143.15V16.716ZM145.184 6.996C147.74 6.996 149.702 8.76 149.702 11.226C149.702 13.674 147.74 15.456 145.184 15.456C142.628 15.456 140.648 13.674 140.648 11.226C140.648 8.76 142.628 6.996 145.184 6.996ZM145.184 9.066C143.942 9.066 142.988 9.858 142.988 11.226C142.988 12.576 143.942 13.368 145.184 13.368C146.408 13.368 147.362 12.576 147.362 11.226C147.362 9.858 146.408 9.066 145.184 9.066ZM163.146 6.888H165.234V8.094C165.234 11.712 162.66 14.916 158.34 15.762L157.314 13.782C161.076 13.134 163.146 10.488 163.146 8.094V6.888ZM163.632 6.888H165.702V8.094C165.702 10.542 167.754 13.134 171.534 13.782L170.508 15.762C166.188 14.916 163.632 11.766 163.632 8.094V6.888ZM156.972 18.624H172.056V20.568H156.972V18.624ZM175.295 14.52H187.013V16.392H175.295V14.52ZM173.531 18.75H188.615V20.694H173.531V18.75ZM175.295 7.14H186.869V9.066H177.725V15.042H175.295V7.14ZM176.987 10.812H186.491V12.666H176.987V10.812ZM191.8 6.456H203.428V11.424H194.266V13.962H191.836V9.642H200.998V8.364H191.8V6.456ZM191.836 12.792H203.842V14.682H191.836V12.792ZM190.072 15.906H205.174V17.832H190.072V15.906ZM196.39 16.608H198.784V22.638H196.39V16.608ZM207.314 7.266H215.198V15.33H207.314V7.266ZM212.84 9.156H209.672V13.44H212.84V9.156ZM218.186 5.952H220.58V18.084H218.186V5.952ZM214.55 10.326H218.798V12.234H214.55V10.326ZM209.582 20.406H220.958V22.314H209.582V20.406ZM209.582 16.932H211.976V21.396H209.582V16.932ZM224.971 14.52H236.689V16.392H224.971V14.52ZM223.207 18.75H238.291V20.694H223.207V18.75ZM224.971 7.14H236.545V9.066H227.401V15.042H224.971V7.14ZM226.663 10.812H236.167V12.666H226.663V10.812ZM243.239 24.636C241.529 21.864 240.539 18.93 240.539 15.33C240.539 11.748 241.529 8.796 243.239 6.024L244.877 6.726C243.365 9.354 242.681 12.396 242.681 15.33C242.681 18.282 243.365 21.324 244.877 23.952L243.239 24.636ZM252.724 7.788H254.794V8.274C254.794 11.208 252.4 13.602 248.17 14.178L247.288 12.306C250.96 11.856 252.724 9.984 252.724 8.274V7.788ZM253.408 7.788H255.478V8.274C255.478 9.984 257.242 11.856 260.914 12.306L260.05 14.178C255.802 13.602 253.408 11.208 253.408 8.274V7.788ZM252.85 16.5H255.226V22.62H252.85V16.5ZM246.568 15.132H261.634V17.04H246.568V15.132ZM247.9 6.78H260.266V8.67H247.9V6.78ZM264.963 24.636L263.307 23.952C264.819 21.324 265.521 18.282 265.521 15.33C265.521 12.396 264.819 9.354 263.307 6.726L264.963 6.024C266.655 8.796 267.645 11.748 267.645 15.33C267.645 18.93 266.655 21.864 264.963 24.636Z" fill="#D0D0D0"/>
<path d="M92.67 37.39L92.625 36.04L98.985 29.5H100.26L95.625 34.36L94.995 35.035L92.67 37.39ZM91.71 40V29.5H92.82V40H91.71ZM99.255 40L94.725 34.78L95.475 33.97L100.575 40H99.255ZM104.318 40.075C103.558 40.075 102.873 39.905 102.263 39.565C101.663 39.215 101.188 38.74 100.838 38.14C100.488 37.53 100.313 36.835 100.313 36.055C100.313 35.265 100.488 34.57 100.838 33.97C101.188 33.37 101.663 32.9 102.263 32.56C102.863 32.22 103.548 32.05 104.318 32.05C105.098 32.05 105.788 32.22 106.388 32.56C106.998 32.9 107.473 33.37 107.813 33.97C108.163 34.57 108.338 35.265 108.338 36.055C108.338 36.835 108.163 37.53 107.813 38.14C107.473 38.74 106.998 39.215 106.388 39.565C105.778 39.905 105.088 40.075 104.318 40.075ZM104.318 39.13C104.888 39.13 105.393 39.005 105.833 38.755C106.273 38.495 106.618 38.135 106.868 37.675C107.128 37.205 107.258 36.665 107.258 36.055C107.258 35.435 107.128 34.895 106.868 34.435C106.618 33.975 106.273 33.62 105.833 33.37C105.393 33.11 104.893 32.98 104.333 32.98C103.773 32.98 103.273 33.11 102.833 33.37C102.393 33.62 102.043 33.975 101.783 34.435C101.523 34.895 101.393 35.435 101.393 36.055C101.393 36.665 101.523 37.205 101.783 37.675C102.043 38.135 102.393 38.495 102.833 38.755C103.273 39.005 103.768 39.13 104.318 39.13ZM109.837 40V32.125H110.857V34.27L110.752 33.895C110.972 33.295 111.342 32.84 111.862 32.53C112.382 32.21 113.027 32.05 113.797 32.05V33.085C113.757 33.085 113.717 33.085 113.677 33.085C113.637 33.075 113.597 33.07 113.557 33.07C112.727 33.07 112.077 33.325 111.607 33.835C111.137 34.335 110.902 35.05 110.902 35.98V40H109.837ZM118.337 40.075C117.517 40.075 116.797 39.905 116.177 39.565C115.557 39.215 115.072 38.74 114.722 38.14C114.372 37.53 114.197 36.835 114.197 36.055C114.197 35.275 114.362 34.585 114.692 33.985C115.032 33.385 115.492 32.915 116.072 32.575C116.662 32.225 117.322 32.05 118.052 32.05C118.792 32.05 119.447 32.22 120.017 32.56C120.597 32.89 121.052 33.36 121.382 33.97C121.712 34.57 121.877 35.265 121.877 36.055C121.877 36.105 121.872 36.16 121.862 36.22C121.862 36.27 121.862 36.325 121.862 36.385H115.007V35.59H121.292L120.872 35.905C120.872 35.335 120.747 34.83 120.497 34.39C120.257 33.94 119.927 33.59 119.507 33.34C119.087 33.09 118.602 32.965 118.052 32.965C117.512 32.965 117.027 33.09 116.597 33.34C116.167 33.59 115.832 33.94 115.592 34.39C115.352 34.84 115.232 35.355 115.232 35.935V36.1C115.232 36.7 115.362 37.23 115.622 37.69C115.892 38.14 116.262 38.495 116.732 38.755C117.212 39.005 117.757 39.13 118.367 39.13C118.847 39.13 119.292 39.045 119.702 38.875C120.122 38.705 120.482 38.445 120.782 38.095L121.382 38.785C121.032 39.205 120.592 39.525 120.062 39.745C119.542 39.965 118.967 40.075 118.337 40.075ZM128.085 40V38.26L128.04 37.975V35.065C128.04 34.395 127.85 33.88 127.47 33.52C127.1 33.16 126.545 32.98 125.805 32.98C125.295 32.98 124.81 33.065 124.35 33.235C123.89 33.405 123.5 33.63 123.18 33.91L122.7 33.115C123.1 32.775 123.58 32.515 124.14 32.335C124.7 32.145 125.29 32.05 125.91 32.05C126.93 32.05 127.715 32.305 128.265 32.815C128.825 33.315 129.105 34.08 129.105 35.11V40H128.085ZM125.37 40.075C124.78 40.075 124.265 39.98 123.825 39.79C123.395 39.59 123.065 39.32 122.835 38.98C122.605 38.63 122.49 38.23 122.49 37.78C122.49 37.37 122.585 37 122.775 36.67C122.975 36.33 123.295 36.06 123.735 35.86C124.185 35.65 124.785 35.545 125.535 35.545H128.25V36.34H125.565C124.805 36.34 124.275 36.475 123.975 36.745C123.685 37.015 123.54 37.35 123.54 37.75C123.54 38.2 123.715 38.56 124.065 38.83C124.415 39.1 124.905 39.235 125.535 39.235C126.135 39.235 126.65 39.1 127.08 38.83C127.52 38.55 127.84 38.15 128.04 37.63L128.28 38.365C128.08 38.885 127.73 39.3 127.23 39.61C126.74 39.92 126.12 40.075 125.37 40.075ZM134.799 40V29.5H135.909V40H134.799ZM142.445 32.05C143.085 32.05 143.645 32.175 144.125 32.425C144.615 32.665 144.995 33.035 145.265 33.535C145.545 34.035 145.685 34.665 145.685 35.425V40H144.62V35.53C144.62 34.7 144.41 34.075 143.99 33.655C143.58 33.225 143 33.01 142.25 33.01C141.69 33.01 141.2 33.125 140.78 33.355C140.37 33.575 140.05 33.9 139.82 34.33C139.6 34.75 139.49 35.26 139.49 35.86V40H138.425V32.125H139.445V34.285L139.28 33.88C139.53 33.31 139.93 32.865 140.48 32.545C141.03 32.215 141.685 32.05 142.445 32.05ZM150.002 40.075C149.352 40.075 148.737 39.985 148.157 39.805C147.577 39.615 147.122 39.38 146.792 39.1L147.272 38.26C147.592 38.5 148.002 38.71 148.502 38.89C149.002 39.06 149.527 39.145 150.077 39.145C150.827 39.145 151.367 39.03 151.697 38.8C152.027 38.56 152.192 38.245 152.192 37.855C152.192 37.565 152.097 37.34 151.907 37.18C151.727 37.01 151.487 36.885 151.187 36.805C150.887 36.715 150.552 36.64 150.182 36.58C149.812 36.52 149.442 36.45 149.072 36.37C148.712 36.29 148.382 36.175 148.082 36.025C147.782 35.865 147.537 35.65 147.347 35.38C147.167 35.11 147.077 34.75 147.077 34.3C147.077 33.87 147.197 33.485 147.437 33.145C147.677 32.805 148.027 32.54 148.487 32.35C148.957 32.15 149.527 32.05 150.197 32.05C150.707 32.05 151.217 32.12 151.727 32.26C152.237 32.39 152.657 32.565 152.987 32.785L152.522 33.64C152.172 33.4 151.797 33.23 151.397 33.13C150.997 33.02 150.597 32.965 150.197 32.965C149.487 32.965 148.962 33.09 148.622 33.34C148.292 33.58 148.127 33.89 148.127 34.27C148.127 34.57 148.217 34.805 148.397 34.975C148.587 35.145 148.832 35.28 149.132 35.38C149.442 35.47 149.777 35.545 150.137 35.605C150.507 35.665 150.872 35.74 151.232 35.83C151.602 35.91 151.937 36.025 152.237 36.175C152.547 36.315 152.792 36.52 152.972 36.79C153.162 37.05 153.257 37.395 153.257 37.825C153.257 38.285 153.127 38.685 152.867 39.025C152.617 39.355 152.247 39.615 151.757 39.805C151.277 39.985 150.692 40.075 150.002 40.075ZM157.026 40.075C156.286 40.075 155.716 39.875 155.316 39.475C154.916 39.075 154.716 38.51 154.716 37.78V30.385H155.781V37.72C155.781 38.18 155.896 38.535 156.126 38.785C156.366 39.035 156.706 39.16 157.146 39.16C157.616 39.16 158.006 39.025 158.316 38.755L158.691 39.52C158.481 39.71 158.226 39.85 157.926 39.94C157.636 40.03 157.336 40.075 157.026 40.075ZM153.306 33.01V32.125H158.181V33.01H153.306ZM159.955 40V32.125H160.975V34.27L160.87 33.895C161.09 33.295 161.46 32.84 161.98 32.53C162.5 32.21 163.145 32.05 163.915 32.05V33.085C163.875 33.085 163.835 33.085 163.795 33.085C163.755 33.075 163.715 33.07 163.675 33.07C162.845 33.07 162.195 33.325 161.725 33.835C161.255 34.335 161.02 35.05 161.02 35.98V40H159.955ZM168.555 40.075C167.885 40.075 167.3 39.95 166.8 39.7C166.3 39.45 165.91 39.075 165.63 38.575C165.36 38.075 165.225 37.45 165.225 36.7V32.125H166.29V36.58C166.29 37.42 166.495 38.055 166.905 38.485C167.325 38.905 167.91 39.115 168.66 39.115C169.21 39.115 169.685 39.005 170.085 38.785C170.495 38.555 170.805 38.225 171.015 37.795C171.235 37.365 171.345 36.85 171.345 36.25V32.125H172.41V40H171.39V37.84L171.555 38.23C171.305 38.81 170.915 39.265 170.385 39.595C169.865 39.915 169.255 40.075 168.555 40.075ZM184.543 32.05C185.183 32.05 185.738 32.175 186.208 32.425C186.688 32.665 187.058 33.035 187.318 33.535C187.588 34.035 187.723 34.665 187.723 35.425V40H186.658V35.53C186.658 34.7 186.458 34.075 186.058 33.655C185.668 33.225 185.113 33.01 184.393 33.01C183.853 33.01 183.383 33.125 182.983 33.355C182.593 33.575 182.288 33.9 182.068 34.33C181.858 34.75 181.753 35.26 181.753 35.86V40H180.688V35.53C180.688 34.7 180.488 34.075 180.088 33.655C179.688 33.225 179.128 33.01 178.408 33.01C177.878 33.01 177.413 33.125 177.013 33.355C176.613 33.575 176.303 33.9 176.083 34.33C175.873 34.75 175.768 35.26 175.768 35.86V40H174.703V32.125H175.723V34.255L175.558 33.88C175.798 33.31 176.183 32.865 176.713 32.545C177.253 32.215 177.888 32.05 178.618 32.05C179.388 32.05 180.043 32.245 180.583 32.635C181.123 33.015 181.473 33.59 181.633 34.36L181.213 34.195C181.443 33.555 181.848 33.04 182.428 32.65C183.018 32.25 183.723 32.05 184.543 32.05ZM193.282 40.075C192.462 40.075 191.742 39.905 191.122 39.565C190.502 39.215 190.017 38.74 189.667 38.14C189.317 37.53 189.142 36.835 189.142 36.055C189.142 35.275 189.307 34.585 189.637 33.985C189.977 33.385 190.437 32.915 191.017 32.575C191.607 32.225 192.267 32.05 192.997 32.05C193.737 32.05 194.392 32.22 194.962 32.56C195.542 32.89 195.997 33.36 196.327 33.97C196.657 34.57 196.822 35.265 196.822 36.055C196.822 36.105 196.817 36.16 196.807 36.22C196.807 36.27 196.807 36.325 196.807 36.385H189.952V35.59H196.237L195.817 35.905C195.817 35.335 195.692 34.83 195.442 34.39C195.202 33.94 194.872 33.59 194.452 33.34C194.032 33.09 193.547 32.965 192.997 32.965C192.457 32.965 191.972 33.09 191.542 33.34C191.112 33.59 190.777 33.94 190.537 34.39C190.297 34.84 190.177 35.355 190.177 35.935V36.1C190.177 36.7 190.307 37.23 190.567 37.69C190.837 38.14 191.207 38.495 191.677 38.755C192.157 39.005 192.702 39.13 193.312 39.13C193.792 39.13 194.237 39.045 194.647 38.875C195.067 38.705 195.427 38.445 195.727 38.095L196.327 38.785C195.977 39.205 195.537 39.525 195.007 39.745C194.487 39.965 193.912 40.075 193.282 40.075ZM202.334 32.05C202.974 32.05 203.534 32.175 204.014 32.425C204.504 32.665 204.884 33.035 205.154 33.535C205.434 34.035 205.574 34.665 205.574 35.425V40H204.509V35.53C204.509 34.7 204.299 34.075 203.879 33.655C203.469 33.225 202.889 33.01 202.139 33.01C201.579 33.01 201.089 33.125 200.669 33.355C200.259 33.575 199.939 33.9 199.709 34.33C199.489 34.75 199.379 35.26 199.379 35.86V40H198.314V32.125H199.334V34.285L199.169 33.88C199.419 33.31 199.819 32.865 200.369 32.545C200.919 32.215 201.574 32.05 202.334 32.05ZM210.266 40.075C209.526 40.075 208.956 39.875 208.556 39.475C208.156 39.075 207.956 38.51 207.956 37.78V30.385H209.021V37.72C209.021 38.18 209.136 38.535 209.366 38.785C209.606 39.035 209.946 39.16 210.386 39.16C210.856 39.16 211.246 39.025 211.556 38.755L211.931 39.52C211.721 39.71 211.466 39.85 211.166 39.94C210.876 40.03 210.576 40.075 210.266 40.075ZM206.546 33.01V32.125H211.421V33.01H206.546ZM215.31 40.075C214.66 40.075 214.045 39.985 213.465 39.805C212.885 39.615 212.43 39.38 212.1 39.1L212.58 38.26C212.9 38.5 213.31 38.71 213.81 38.89C214.31 39.06 214.835 39.145 215.385 39.145C216.135 39.145 216.675 39.03 217.005 38.8C217.335 38.56 217.5 38.245 217.5 37.855C217.5 37.565 217.405 37.34 217.215 37.18C217.035 37.01 216.795 36.885 216.495 36.805C216.195 36.715 215.86 36.64 215.49 36.58C215.12 36.52 214.75 36.45 214.38 36.37C214.02 36.29 213.69 36.175 213.39 36.025C213.09 35.865 212.845 35.65 212.655 35.38C212.475 35.11 212.385 34.75 212.385 34.3C212.385 33.87 212.505 33.485 212.745 33.145C212.985 32.805 213.335 32.54 213.795 32.35C214.265 32.15 214.835 32.05 215.505 32.05C216.015 32.05 216.525 32.12 217.035 32.26C217.545 32.39 217.965 32.565 218.295 32.785L217.83 33.64C217.48 33.4 217.105 33.23 216.705 33.13C216.305 33.02 215.905 32.965 215.505 32.965C214.795 32.965 214.27 33.09 213.93 33.34C213.6 33.58 213.435 33.89 213.435 34.27C213.435 34.57 213.525 34.805 213.705 34.975C213.895 35.145 214.14 35.28 214.44 35.38C214.75 35.47 215.085 35.545 215.445 35.605C215.815 35.665 216.18 35.74 216.54 35.83C216.91 35.91 217.245 36.025 217.545 36.175C217.855 36.315 218.1 36.52 218.28 36.79C218.47 37.05 218.565 37.395 218.565 37.825C218.565 38.285 218.435 38.685 218.175 39.025C217.925 39.355 217.555 39.615 217.065 39.805C216.585 39.985 216 40.075 215.31 40.075ZM226.365 40.075C225.585 40.075 224.885 39.905 224.265 39.565C223.655 39.215 223.175 38.74 222.825 38.14C222.475 37.53 222.3 36.835 222.3 36.055C222.3 35.265 222.475 34.57 222.825 33.97C223.175 33.37 223.655 32.9 224.265 32.56C224.885 32.22 225.585 32.05 226.365 32.05C227.035 32.05 227.64 32.18 228.18 32.44C228.72 32.7 229.145 33.09 229.455 33.61L228.66 34.15C228.39 33.75 228.055 33.455 227.655 33.265C227.255 33.075 226.82 32.98 226.35 32.98C225.79 32.98 225.285 33.11 224.835 33.37C224.385 33.62 224.03 33.975 223.77 34.435C223.51 34.895 223.38 35.435 223.38 36.055C223.38 36.675 223.51 37.215 223.77 37.675C224.03 38.135 224.385 38.495 224.835 38.755C225.285 39.005 225.79 39.13 226.35 39.13C226.82 39.13 227.255 39.035 227.655 38.845C228.055 38.655 228.39 38.365 228.66 37.975L229.455 38.515C229.145 39.025 228.72 39.415 228.18 39.685C227.64 39.945 227.035 40.075 226.365 40.075ZM233.95 40.075C233.19 40.075 232.505 39.905 231.895 39.565C231.295 39.215 230.82 38.74 230.47 38.14C230.12 37.53 229.945 36.835 229.945 36.055C229.945 35.265 230.12 34.57 230.47 33.97C230.82 33.37 231.295 32.9 231.895 32.56C232.495 32.22 233.18 32.05 233.95 32.05C234.73 32.05 235.42 32.22 236.02 32.56C236.63 32.9 237.105 33.37 237.445 33.97C237.795 34.57 237.97 35.265 237.97 36.055C237.97 36.835 237.795 37.53 237.445 38.14C237.105 38.74 236.63 39.215 236.02 39.565C235.41 39.905 234.72 40.075 233.95 40.075ZM233.95 39.13C234.52 39.13 235.025 39.005 235.465 38.755C235.905 38.495 236.25 38.135 236.5 37.675C236.76 37.205 236.89 36.665 236.89 36.055C236.89 35.435 236.76 34.895 236.5 34.435C236.25 33.975 235.905 33.62 235.465 33.37C235.025 33.11 234.525 32.98 233.965 32.98C233.405 32.98 232.905 33.11 232.465 33.37C232.025 33.62 231.675 33.975 231.415 34.435C231.155 34.895 231.025 35.435 231.025 36.055C231.025 36.665 231.155 37.205 231.415 37.675C231.675 38.135 232.025 38.495 232.465 38.755C232.905 39.005 233.4 39.13 233.95 39.13ZM239.355 40.075C239.135 40.075 238.945 39.995 238.785 39.835C238.635 39.675 238.56 39.48 238.56 39.25C238.56 39.01 238.635 38.815 238.785 38.665C238.945 38.515 239.135 38.44 239.355 38.44C239.575 38.44 239.76 38.515 239.91 38.665C240.07 38.815 240.15 39.01 240.15 39.25C240.15 39.48 240.07 39.675 239.91 39.835C239.76 39.995 239.575 40.075 239.355 40.075ZM241.108 42.19L241.768 39.415L241.888 40.06C241.658 40.06 241.463 39.985 241.303 39.835C241.153 39.685 241.078 39.49 241.078 39.25C241.078 39.01 241.153 38.815 241.303 38.665C241.463 38.515 241.653 38.44 241.873 38.44C242.103 38.44 242.288 38.52 242.428 38.68C242.578 38.84 242.653 39.03 242.653 39.25C242.653 39.33 242.648 39.41 242.638 39.49C242.628 39.57 242.608 39.66 242.578 39.76C242.548 39.86 242.508 39.98 242.458 40.12L241.828 42.19H241.108ZM244.482 40V29.5H245.592V39.04H251.472V40H244.482ZM254.832 40.075C254.092 40.075 253.522 39.875 253.122 39.475C252.722 39.075 252.522 38.51 252.522 37.78V30.385H253.587V37.72C253.587 38.18 253.702 38.535 253.932 38.785C254.172 39.035 254.512 39.16 254.952 39.16C255.422 39.16 255.812 39.025 256.122 38.755L256.497 39.52C256.287 39.71 256.032 39.85 255.732 39.94C255.442 40.03 255.142 40.075 254.832 40.075ZM251.112 33.01V32.125H255.987V33.01H251.112ZM260.617 40.075C259.867 40.075 259.192 39.905 258.592 39.565C258.002 39.225 257.537 38.755 257.197 38.155C256.857 37.545 256.687 36.845 256.687 36.055C256.687 35.255 256.857 34.555 257.197 33.955C257.537 33.355 258.002 32.89 258.592 32.56C259.192 32.22 259.867 32.05 260.617 32.05C261.307 32.05 261.922 32.205 262.462 32.515C263.012 32.825 263.447 33.28 263.767 33.88C264.097 34.47 264.262 35.195 264.262 36.055C264.262 36.905 264.102 37.63 263.782 38.23C263.462 38.83 263.027 39.29 262.477 39.61C261.937 39.92 261.317 40.075 260.617 40.075ZM260.692 39.13C261.252 39.13 261.752 39.005 262.192 38.755C262.642 38.495 262.992 38.135 263.242 37.675C263.502 37.205 263.632 36.665 263.632 36.055C263.632 35.435 263.502 34.895 263.242 34.435C262.992 33.975 262.642 33.62 262.192 33.37C261.752 33.11 261.252 32.98 260.692 32.98C260.142 32.98 259.647 33.11 259.207 33.37C258.767 33.62 258.417 33.975 258.157 34.435C257.897 34.895 257.767 35.435 257.767 36.055C257.767 36.665 257.897 37.205 258.157 37.675C258.417 38.135 258.767 38.495 259.207 38.755C259.647 39.005 260.142 39.13 260.692 39.13ZM263.662 40V37.63L263.767 36.04L263.617 34.45V28.87H264.682V40H263.662ZM267.078 40.075C266.858 40.075 266.668 39.995 266.508 39.835C266.358 39.675 266.283 39.48 266.283 39.25C266.283 39.01 266.358 38.815 266.508 38.665C266.668 38.515 266.858 38.44 267.078 38.44C267.298 38.44 267.483 38.515 267.633 38.665C267.793 38.815 267.873 39.01 267.873 39.25C267.873 39.48 267.793 39.675 267.633 39.835C267.483 39.995 267.298 40.075 267.078 40.075Z" fill="#D0D0D0"/>
<path d="M40 45C62.0914 45 80 34.9264 80 22.5C80 10.0736 62.0914 0 40 0C17.9086 0 0 10.0736 0 22.5C0 34.9264 17.9086 45 40 45Z" fill="#D0D0D0"/>
<path d="M12.0749 12.0269H22.197V14.9942H21.5285C20.8848 14.9942 20.4878 15.0308 20.3389 15.1023C20.1016 15.215 19.9294 15.3739 19.8255 15.5788C19.7215 15.7837 19.6688 16.1682 19.6688 16.7337V22.4445L26.1336 16.2396C26.4205 15.9632 26.5942 15.7758 26.6532 15.6789C26.7121 15.582 26.7431 15.4978 26.7431 15.4247C26.7431 15.2818 26.6858 15.1737 26.5725 15.1023C26.4578 15.0308 26.1693 14.9942 25.7039 14.9942H24.8726V12.0269H34.2518V14.9942H33.94C33.5042 14.9942 33.2017 15.0181 33.0327 15.0641C32.8636 15.1102 32.6588 15.2103 32.4153 15.3644C32.1718 15.5185 31.8585 15.7694 31.4707 16.1173L26.4593 20.6049L32.437 28.959C32.952 29.6771 33.3289 30.1028 33.5662 30.2362C33.8826 30.4205 34.3386 30.5126 34.9342 30.5126H35.336V33.48H24.871V30.5126H25.2867C26.0498 30.5126 26.5136 30.4761 26.6765 30.4046C26.8393 30.3331 26.9215 30.241 26.9215 30.1282C26.9215 30.0043 26.768 29.712 26.4609 29.2513L22.8128 23.871L19.6688 26.6859V28.8447C19.6688 29.3752 19.7184 29.7422 19.8177 29.9471C19.917 30.152 20.0581 30.2966 20.2412 30.384C20.4242 30.4713 20.7933 30.5142 21.3486 30.5142H22.1955V33.4816H12.0733V30.5142H12.8364C13.4243 30.5142 13.8183 30.465 14.0168 30.3681C14.2169 30.2712 14.3611 30.1139 14.4511 29.8995C14.5302 29.7247 14.5705 29.3053 14.5705 28.6382V16.9211C14.5705 16.2857 14.5255 15.86 14.4356 15.6439C14.3456 15.4295 14.2014 15.2675 14.0013 15.1594C13.8027 15.0514 13.4429 14.9974 12.9249 14.9974H12.0718V12.03L12.0749 12.0269Z" fill="#313131"/>
<path d="M36.3348 12.0269H46.4569V14.9942H45.5356C45.0005 14.9942 44.6469 15.0435 44.4732 15.1404C44.2994 15.2373 44.1707 15.3914 44.0869 15.6011C44.0032 15.8107 43.9613 16.2142 43.9613 16.8083V28.6795C43.9613 29.3244 43.9954 29.7406 44.0652 29.9249C44.135 30.1091 44.2529 30.2426 44.422 30.3252C44.6298 30.4475 44.9416 30.5095 45.3588 30.5095H46.4585V33.4768H36.3364V30.5095H37.1584C37.7463 30.5095 38.1309 30.465 38.3093 30.3792C38.4892 30.2918 38.621 30.1536 38.7048 29.9646C38.7901 29.7755 38.832 29.3991 38.832 28.8335V16.9164C38.832 16.2508 38.7901 15.8123 38.7048 15.6011C38.6195 15.3914 38.4784 15.2293 38.2783 15.1166C38.1387 15.034 37.799 14.9942 37.2608 14.9942H36.3333V12.0269H36.3348Z" fill="#313131"/>
<path d="M64.609 12.0267H66.7184L68.7534 19.7311L65.9879 20.5619C65.0666 18.7272 64.1995 17.4246 63.3868 16.6557C62.2576 15.5994 61.0338 15.072 59.7154 15.072C58.7538 15.072 57.8542 15.3484 57.0182 15.9028C56.1806 16.4572 55.5167 17.2721 55.0266 18.3475C54.5365 19.4245 54.2914 20.6843 54.2914 22.1298C54.2914 24.3347 54.8529 26.2298 55.979 27.82C57.1035 29.4085 58.577 30.2028 60.401 30.2028C61.5596 30.2028 62.6748 29.8596 63.7451 29.1734C65.0821 28.3219 66.2376 27.1798 67.2085 25.7437L69.5119 27.5118C68.0166 29.6245 66.6502 31.0939 65.4124 31.9247C63.5015 33.2067 61.372 33.8469 59.0252 33.8469C57.074 33.8469 55.3089 33.3623 53.7299 32.3933C52.151 31.4243 50.89 30.0693 49.95 28.3267C49.0101 26.5841 48.5386 24.6826 48.5386 22.6223C48.5386 20.5619 48.9961 18.7034 49.9128 17.0179C50.8295 15.3309 52.0765 14.0172 53.6555 13.0736C55.2345 12.13 56.9949 11.6582 58.9353 11.6582C60.8756 11.6582 62.633 12.0887 64.1189 12.9497L64.609 12.0267Z" fill="#313131"/>
</svg>
