<svg width="270" height="45" viewBox="0 0 270 45" fill="none" xmlns="http://www.w3.org/2000/svg">
<path d="M92.43 7.32H102.924V9.228H92.43V7.32ZM90.72 18.768H105.786V20.694H90.72V18.768ZM101.97 7.32H104.328V8.778C104.328 10.794 104.346 13.152 103.572 16.77L101.214 16.518C101.97 13.134 101.97 10.704 101.97 8.778V7.32ZM102.402 11.334V13.134L92.232 13.692L91.908 11.658L102.402 11.334ZM96.066 14.772H98.46V19.47H96.066V14.772ZM118.763 5.916H121.157V22.638H118.763V5.916ZM108.179 16.806H109.655C112.607 16.806 114.965 16.698 117.611 16.248L117.845 18.174C115.145 18.66 112.697 18.75 109.655 18.75H108.179V16.806ZM108.161 7.338H116.027V13.782H110.609V17.526H108.179V11.892H113.579V9.246H108.161V7.338ZM128.301 7.086C130.839 7.086 132.675 9.39 132.675 13.026C132.675 16.698 130.839 19.002 128.301 19.002C125.763 19.002 123.927 16.698 123.927 13.026C123.927 9.39 125.763 7.086 128.301 7.086ZM128.301 9.264C127.059 9.264 126.231 10.578 126.231 13.026C126.231 15.51 127.059 16.842 128.301 16.842C129.543 16.842 130.389 15.51 130.389 13.026C130.389 10.578 129.543 9.264 128.301 9.264ZM134.493 5.934H136.905V22.602H134.493V5.934ZM136.365 12.216H139.317V14.196H136.365V12.216ZM151.844 5.952H154.256V17.922H151.844V5.952ZM143.15 20.406H154.67V22.314H143.15V20.406ZM143.15 16.716H145.544V21.18H143.15V16.716ZM145.184 6.996C147.74 6.996 149.702 8.76 149.702 11.226C149.702 13.674 147.74 15.456 145.184 15.456C142.628 15.456 140.648 13.674 140.648 11.226C140.648 8.76 142.628 6.996 145.184 6.996ZM145.184 9.066C143.942 9.066 142.988 9.858 142.988 11.226C142.988 12.576 143.942 13.368 145.184 13.368C146.408 13.368 147.362 12.576 147.362 11.226C147.362 9.858 146.408 9.066 145.184 9.066ZM163.146 6.888H165.234V8.094C165.234 11.712 162.66 14.916 158.34 15.762L157.314 13.782C161.076 13.134 163.146 10.488 163.146 8.094V6.888ZM163.632 6.888H165.702V8.094C165.702 10.542 167.754 13.134 171.534 13.782L170.508 15.762C166.188 14.916 163.632 11.766 163.632 8.094V6.888ZM156.972 18.624H172.056V20.568H156.972V18.624ZM175.295 14.52H187.013V16.392H175.295V14.52ZM173.531 18.75H188.615V20.694H173.531V18.75ZM175.295 7.14H186.869V9.066H177.725V15.042H175.295V7.14ZM176.987 10.812H186.491V12.666H176.987V10.812ZM191.8 6.456H203.428V11.424H194.266V13.962H191.836V9.642H200.998V8.364H191.8V6.456ZM191.836 12.792H203.842V14.682H191.836V12.792ZM190.072 15.906H205.174V17.832H190.072V15.906ZM196.39 16.608H198.784V22.638H196.39V16.608ZM207.314 7.266H215.198V15.33H207.314V7.266ZM212.84 9.156H209.672V13.44H212.84V9.156ZM218.186 5.952H220.58V18.084H218.186V5.952ZM214.55 10.326H218.798V12.234H214.55V10.326ZM209.582 20.406H220.958V22.314H209.582V20.406ZM209.582 16.932H211.976V21.396H209.582V16.932ZM224.971 14.52H236.689V16.392H224.971V14.52ZM223.207 18.75H238.291V20.694H223.207V18.75ZM224.971 7.14H236.545V9.066H227.401V15.042H224.971V7.14ZM226.663 10.812H236.167V12.666H226.663V10.812ZM243.239 24.636C241.529 21.864 240.539 18.93 240.539 15.33C240.539 11.748 241.529 8.796 243.239 6.024L244.877 6.726C243.365 9.354 242.681 12.396 242.681 15.33C242.681 18.282 243.365 21.324 244.877 23.952L243.239 24.636ZM252.724 7.788H254.794V8.274C254.794 11.208 252.4 13.602 248.17 14.178L247.288 12.306C250.96 11.856 252.724 9.984 252.724 8.274V7.788ZM253.408 7.788H255.478V8.274C255.478 9.984 257.242 11.856 260.914 12.306L260.05 14.178C255.802 13.602 253.408 11.208 253.408 8.274V7.788ZM252.85 16.5H255.226V22.62H252.85V16.5ZM246.568 15.132H261.634V17.04H246.568V15.132ZM247.9 6.78H260.266V8.67H247.9V6.78ZM264.963 24.636L263.307 23.952C264.819 21.324 265.521 18.282 265.521 15.33C265.521 12.396 264.819 9.354 263.307 6.726L264.963 6.024C266.655 8.796 267.645 11.748 267.645 15.33C267.645 18.93 266.655 21.864 264.963 24.636Z" fill="white"/>
<path d="M92.67 37.39L92.625 36.04L98.985 29.5H100.26L95.625 34.36L94.995 35.035L92.67 37.39ZM91.71 40V29.5H92.82V40H91.71ZM99.255 40L94.725 34.78L95.475 33.97L100.575 40H99.255ZM104.363 40.075C103.603 40.075 102.918 39.905 102.308 39.565C101.708 39.215 101.233 38.74 100.883 38.14C100.533 37.53 100.358 36.835 100.358 36.055C100.358 35.265 100.533 34.57 100.883 33.97C101.233 33.37 101.708 32.9 102.308 32.56C102.908 32.22 103.593 32.05 104.363 32.05C105.143 32.05 105.833 32.22 106.433 32.56C107.043 32.9 107.518 33.37 107.858 33.97C108.208 34.57 108.383 35.265 108.383 36.055C108.383 36.835 108.208 37.53 107.858 38.14C107.518 38.74 107.043 39.215 106.433 39.565C105.823 39.905 105.133 40.075 104.363 40.075ZM104.363 39.13C104.933 39.13 105.438 39.005 105.878 38.755C106.318 38.495 106.663 38.135 106.913 37.675C107.173 37.205 107.303 36.665 107.303 36.055C107.303 35.435 107.173 34.895 106.913 34.435C106.663 33.975 106.318 33.62 105.878 33.37C105.438 33.11 104.938 32.98 104.378 32.98C103.818 32.98 103.318 33.11 102.878 33.37C102.438 33.62 102.088 33.975 101.828 34.435C101.568 34.895 101.438 35.435 101.438 36.055C101.438 36.665 101.568 37.205 101.828 37.675C102.088 38.135 102.438 38.495 102.878 38.755C103.318 39.005 103.813 39.13 104.363 39.13ZM109.927 40V32.125H110.947V34.27L110.842 33.895C111.062 33.295 111.432 32.84 111.952 32.53C112.472 32.21 113.117 32.05 113.887 32.05V33.085C113.847 33.085 113.807 33.085 113.767 33.085C113.727 33.075 113.687 33.07 113.647 33.07C112.817 33.07 112.167 33.325 111.697 33.835C111.227 34.335 110.992 35.05 110.992 35.98V40H109.927ZM118.472 40.075C117.652 40.075 116.932 39.905 116.312 39.565C115.692 39.215 115.207 38.74 114.857 38.14C114.507 37.53 114.332 36.835 114.332 36.055C114.332 35.275 114.497 34.585 114.827 33.985C115.167 33.385 115.627 32.915 116.207 32.575C116.797 32.225 117.457 32.05 118.187 32.05C118.927 32.05 119.582 32.22 120.152 32.56C120.732 32.89 121.187 33.36 121.517 33.97C121.847 34.57 122.012 35.265 122.012 36.055C122.012 36.105 122.007 36.16 121.997 36.22C121.997 36.27 121.997 36.325 121.997 36.385H115.142V35.59H121.427L121.007 35.905C121.007 35.335 120.882 34.83 120.632 34.39C120.392 33.94 120.062 33.59 119.642 33.34C119.222 33.09 118.737 32.965 118.187 32.965C117.647 32.965 117.162 33.09 116.732 33.34C116.302 33.59 115.967 33.94 115.727 34.39C115.487 34.84 115.367 35.355 115.367 35.935V36.1C115.367 36.7 115.497 37.23 115.757 37.69C116.027 38.14 116.397 38.495 116.867 38.755C117.347 39.005 117.892 39.13 118.502 39.13C118.982 39.13 119.427 39.045 119.837 38.875C120.257 38.705 120.617 38.445 120.917 38.095L121.517 38.785C121.167 39.205 120.727 39.525 120.197 39.745C119.677 39.965 119.102 40.075 118.472 40.075ZM128.265 40V38.26L128.22 37.975V35.065C128.22 34.395 128.03 33.88 127.65 33.52C127.28 33.16 126.725 32.98 125.985 32.98C125.475 32.98 124.99 33.065 124.53 33.235C124.07 33.405 123.68 33.63 123.36 33.91L122.88 33.115C123.28 32.775 123.76 32.515 124.32 32.335C124.88 32.145 125.47 32.05 126.09 32.05C127.11 32.05 127.895 32.305 128.445 32.815C129.005 33.315 129.285 34.08 129.285 35.11V40H128.265ZM125.55 40.075C124.96 40.075 124.445 39.98 124.005 39.79C123.575 39.59 123.245 39.32 123.015 38.98C122.785 38.63 122.67 38.23 122.67 37.78C122.67 37.37 122.765 37 122.955 36.67C123.155 36.33 123.475 36.06 123.915 35.86C124.365 35.65 124.965 35.545 125.715 35.545H128.43V36.34H125.745C124.985 36.34 124.455 36.475 124.155 36.745C123.865 37.015 123.72 37.35 123.72 37.75C123.72 38.2 123.895 38.56 124.245 38.83C124.595 39.1 125.085 39.235 125.715 39.235C126.315 39.235 126.83 39.1 127.26 38.83C127.7 38.55 128.02 38.15 128.22 37.63L128.46 38.365C128.26 38.885 127.91 39.3 127.41 39.61C126.92 39.92 126.3 40.075 125.55 40.075ZM135.069 40V29.5H136.179V40H135.069ZM142.76 32.05C143.4 32.05 143.96 32.175 144.44 32.425C144.93 32.665 145.31 33.035 145.58 33.535C145.86 34.035 146 34.665 146 35.425V40H144.935V35.53C144.935 34.7 144.725 34.075 144.305 33.655C143.895 33.225 143.315 33.01 142.565 33.01C142.005 33.01 141.515 33.125 141.095 33.355C140.685 33.575 140.365 33.9 140.135 34.33C139.915 34.75 139.805 35.26 139.805 35.86V40H138.74V32.125H139.76V34.285L139.595 33.88C139.845 33.31 140.245 32.865 140.795 32.545C141.345 32.215 142 32.05 142.76 32.05ZM150.362 40.075C149.712 40.075 149.097 39.985 148.517 39.805C147.937 39.615 147.482 39.38 147.152 39.1L147.632 38.26C147.952 38.5 148.362 38.71 148.862 38.89C149.362 39.06 149.887 39.145 150.437 39.145C151.187 39.145 151.727 39.03 152.057 38.8C152.387 38.56 152.552 38.245 152.552 37.855C152.552 37.565 152.457 37.34 152.267 37.18C152.087 37.01 151.847 36.885 151.547 36.805C151.247 36.715 150.912 36.64 150.542 36.58C150.172 36.52 149.802 36.45 149.432 36.37C149.072 36.29 148.742 36.175 148.442 36.025C148.142 35.865 147.897 35.65 147.707 35.38C147.527 35.11 147.437 34.75 147.437 34.3C147.437 33.87 147.557 33.485 147.797 33.145C148.037 32.805 148.387 32.54 148.847 32.35C149.317 32.15 149.887 32.05 150.557 32.05C151.067 32.05 151.577 32.12 152.087 32.26C152.597 32.39 153.017 32.565 153.347 32.785L152.882 33.64C152.532 33.4 152.157 33.23 151.757 33.13C151.357 33.02 150.957 32.965 150.557 32.965C149.847 32.965 149.322 33.09 148.982 33.34C148.652 33.58 148.487 33.89 148.487 34.27C148.487 34.57 148.577 34.805 148.757 34.975C148.947 35.145 149.192 35.28 149.492 35.38C149.802 35.47 150.137 35.545 150.497 35.605C150.867 35.665 151.232 35.74 151.592 35.83C151.962 35.91 152.297 36.025 152.597 36.175C152.907 36.315 153.152 36.52 153.332 36.79C153.522 37.05 153.617 37.395 153.617 37.825C153.617 38.285 153.487 38.685 153.227 39.025C152.977 39.355 152.607 39.615 152.117 39.805C151.637 39.985 151.052 40.075 150.362 40.075ZM157.431 40.075C156.691 40.075 156.121 39.875 155.721 39.475C155.321 39.075 155.121 38.51 155.121 37.78V30.385H156.186V37.72C156.186 38.18 156.301 38.535 156.531 38.785C156.771 39.035 157.111 39.16 157.551 39.16C158.021 39.16 158.411 39.025 158.721 38.755L159.096 39.52C158.886 39.71 158.631 39.85 158.331 39.94C158.041 40.03 157.741 40.075 157.431 40.075ZM153.711 33.01V32.125H158.586V33.01H153.711ZM160.405 40V32.125H161.425V34.27L161.32 33.895C161.54 33.295 161.91 32.84 162.43 32.53C162.95 32.21 163.595 32.05 164.365 32.05V33.085C164.325 33.085 164.285 33.085 164.245 33.085C164.205 33.075 164.165 33.07 164.125 33.07C163.295 33.07 162.645 33.325 162.175 33.835C161.705 34.335 161.47 35.05 161.47 35.98V40H160.405ZM169.05 40.075C168.38 40.075 167.795 39.95 167.295 39.7C166.795 39.45 166.405 39.075 166.125 38.575C165.855 38.075 165.72 37.45 165.72 36.7V32.125H166.785V36.58C166.785 37.42 166.99 38.055 167.4 38.485C167.82 38.905 168.405 39.115 169.155 39.115C169.705 39.115 170.18 39.005 170.58 38.785C170.99 38.555 171.3 38.225 171.51 37.795C171.73 37.365 171.84 36.85 171.84 36.25V32.125H172.905V40H171.885V37.84L172.05 38.23C171.8 38.81 171.41 39.265 170.88 39.595C170.36 39.915 169.75 40.075 169.05 40.075ZM185.083 32.05C185.723 32.05 186.278 32.175 186.748 32.425C187.228 32.665 187.598 33.035 187.858 33.535C188.128 34.035 188.263 34.665 188.263 35.425V40H187.198V35.53C187.198 34.7 186.998 34.075 186.598 33.655C186.208 33.225 185.653 33.01 184.933 33.01C184.393 33.01 183.923 33.125 183.523 33.355C183.133 33.575 182.828 33.9 182.608 34.33C182.398 34.75 182.293 35.26 182.293 35.86V40H181.228V35.53C181.228 34.7 181.028 34.075 180.628 33.655C180.228 33.225 179.668 33.01 178.948 33.01C178.418 33.01 177.953 33.125 177.553 33.355C177.153 33.575 176.843 33.9 176.623 34.33C176.413 34.75 176.308 35.26 176.308 35.86V40H175.243V32.125H176.263V34.255L176.098 33.88C176.338 33.31 176.723 32.865 177.253 32.545C177.793 32.215 178.428 32.05 179.158 32.05C179.928 32.05 180.583 32.245 181.123 32.635C181.663 33.015 182.013 33.59 182.173 34.36L181.753 34.195C181.983 33.555 182.388 33.04 182.968 32.65C183.558 32.25 184.263 32.05 185.083 32.05ZM193.867 40.075C193.047 40.075 192.327 39.905 191.707 39.565C191.087 39.215 190.602 38.74 190.252 38.14C189.902 37.53 189.727 36.835 189.727 36.055C189.727 35.275 189.892 34.585 190.222 33.985C190.562 33.385 191.022 32.915 191.602 32.575C192.192 32.225 192.852 32.05 193.582 32.05C194.322 32.05 194.977 32.22 195.547 32.56C196.127 32.89 196.582 33.36 196.912 33.97C197.242 34.57 197.407 35.265 197.407 36.055C197.407 36.105 197.402 36.16 197.392 36.22C197.392 36.27 197.392 36.325 197.392 36.385H190.537V35.59H196.822L196.402 35.905C196.402 35.335 196.277 34.83 196.027 34.39C195.787 33.94 195.457 33.59 195.037 33.34C194.617 33.09 194.132 32.965 193.582 32.965C193.042 32.965 192.557 33.09 192.127 33.34C191.697 33.59 191.362 33.94 191.122 34.39C190.882 34.84 190.762 35.355 190.762 35.935V36.1C190.762 36.7 190.892 37.23 191.152 37.69C191.422 38.14 191.792 38.495 192.262 38.755C192.742 39.005 193.287 39.13 193.897 39.13C194.377 39.13 194.822 39.045 195.232 38.875C195.652 38.705 196.012 38.445 196.312 38.095L196.912 38.785C196.562 39.205 196.122 39.525 195.592 39.745C195.072 39.965 194.497 40.075 193.867 40.075ZM202.964 32.05C203.604 32.05 204.164 32.175 204.644 32.425C205.134 32.665 205.514 33.035 205.784 33.535C206.064 34.035 206.204 34.665 206.204 35.425V40H205.139V35.53C205.139 34.7 204.929 34.075 204.509 33.655C204.099 33.225 203.519 33.01 202.769 33.01C202.209 33.01 201.719 33.125 201.299 33.355C200.889 33.575 200.569 33.9 200.339 34.33C200.119 34.75 200.009 35.26 200.009 35.86V40H198.944V32.125H199.964V34.285L199.799 33.88C200.049 33.31 200.449 32.865 200.999 32.545C201.549 32.215 202.204 32.05 202.964 32.05ZM210.941 40.075C210.201 40.075 209.631 39.875 209.231 39.475C208.831 39.075 208.631 38.51 208.631 37.78V30.385H209.696V37.72C209.696 38.18 209.811 38.535 210.041 38.785C210.281 39.035 210.621 39.16 211.061 39.16C211.531 39.16 211.921 39.025 212.231 38.755L212.606 39.52C212.396 39.71 212.141 39.85 211.841 39.94C211.551 40.03 211.251 40.075 210.941 40.075ZM207.221 33.01V32.125H212.096V33.01H207.221ZM216.03 40.075C215.38 40.075 214.765 39.985 214.185 39.805C213.605 39.615 213.15 39.38 212.82 39.1L213.3 38.26C213.62 38.5 214.03 38.71 214.53 38.89C215.03 39.06 215.555 39.145 216.105 39.145C216.855 39.145 217.395 39.03 217.725 38.8C218.055 38.56 218.22 38.245 218.22 37.855C218.22 37.565 218.125 37.34 217.935 37.18C217.755 37.01 217.515 36.885 217.215 36.805C216.915 36.715 216.58 36.64 216.21 36.58C215.84 36.52 215.47 36.45 215.1 36.37C214.74 36.29 214.41 36.175 214.11 36.025C213.81 35.865 213.565 35.65 213.375 35.38C213.195 35.11 213.105 34.75 213.105 34.3C213.105 33.87 213.225 33.485 213.465 33.145C213.705 32.805 214.055 32.54 214.515 32.35C214.985 32.15 215.555 32.05 216.225 32.05C216.735 32.05 217.245 32.12 217.755 32.26C218.265 32.39 218.685 32.565 219.015 32.785L218.55 33.64C218.2 33.4 217.825 33.23 217.425 33.13C217.025 33.02 216.625 32.965 216.225 32.965C215.515 32.965 214.99 33.09 214.65 33.34C214.32 33.58 214.155 33.89 214.155 34.27C214.155 34.57 214.245 34.805 214.425 34.975C214.615 35.145 214.86 35.28 215.16 35.38C215.47 35.47 215.805 35.545 216.165 35.605C216.535 35.665 216.9 35.74 217.26 35.83C217.63 35.91 217.965 36.025 218.265 36.175C218.575 36.315 218.82 36.52 219 36.79C219.19 37.05 219.285 37.395 219.285 37.825C219.285 38.285 219.155 38.685 218.895 39.025C218.645 39.355 218.275 39.615 217.785 39.805C217.305 39.985 216.72 40.075 216.03 40.075ZM227.175 40.075C226.395 40.075 225.695 39.905 225.075 39.565C224.465 39.215 223.985 38.74 223.635 38.14C223.285 37.53 223.11 36.835 223.11 36.055C223.11 35.265 223.285 34.57 223.635 33.97C223.985 33.37 224.465 32.9 225.075 32.56C225.695 32.22 226.395 32.05 227.175 32.05C227.845 32.05 228.45 32.18 228.99 32.44C229.53 32.7 229.955 33.09 230.265 33.61L229.47 34.15C229.2 33.75 228.865 33.455 228.465 33.265C228.065 33.075 227.63 32.98 227.16 32.98C226.6 32.98 226.095 33.11 225.645 33.37C225.195 33.62 224.84 33.975 224.58 34.435C224.32 34.895 224.19 35.435 224.19 36.055C224.19 36.675 224.32 37.215 224.58 37.675C224.84 38.135 225.195 38.495 225.645 38.755C226.095 39.005 226.6 39.13 227.16 39.13C227.63 39.13 228.065 39.035 228.465 38.845C228.865 38.655 229.2 38.365 229.47 37.975L230.265 38.515C229.955 39.025 229.53 39.415 228.99 39.685C228.45 39.945 227.845 40.075 227.175 40.075ZM234.805 40.075C234.045 40.075 233.36 39.905 232.75 39.565C232.15 39.215 231.675 38.74 231.325 38.14C230.975 37.53 230.8 36.835 230.8 36.055C230.8 35.265 230.975 34.57 231.325 33.97C231.675 33.37 232.15 32.9 232.75 32.56C233.35 32.22 234.035 32.05 234.805 32.05C235.585 32.05 236.275 32.22 236.875 32.56C237.485 32.9 237.96 33.37 238.3 33.97C238.65 34.57 238.825 35.265 238.825 36.055C238.825 36.835 238.65 37.53 238.3 38.14C237.96 38.74 237.485 39.215 236.875 39.565C236.265 39.905 235.575 40.075 234.805 40.075ZM234.805 39.13C235.375 39.13 235.88 39.005 236.32 38.755C236.76 38.495 237.105 38.135 237.355 37.675C237.615 37.205 237.745 36.665 237.745 36.055C237.745 35.435 237.615 34.895 237.355 34.435C237.105 33.975 236.76 33.62 236.32 33.37C235.88 33.11 235.38 32.98 234.82 32.98C234.26 32.98 233.76 33.11 233.32 33.37C232.88 33.62 232.53 33.975 232.27 34.435C232.01 34.895 231.88 35.435 231.88 36.055C231.88 36.665 232.01 37.205 232.27 37.675C232.53 38.135 232.88 38.495 233.32 38.755C233.76 39.005 234.255 39.13 234.805 39.13ZM240.255 40.075C240.035 40.075 239.845 39.995 239.685 39.835C239.535 39.675 239.46 39.48 239.46 39.25C239.46 39.01 239.535 38.815 239.685 38.665C239.845 38.515 240.035 38.44 240.255 38.44C240.475 38.44 240.66 38.515 240.81 38.665C240.97 38.815 241.05 39.01 241.05 39.25C241.05 39.48 240.97 39.675 240.81 39.835C240.66 39.995 240.475 40.075 240.255 40.075ZM242.053 42.19L242.713 39.415L242.833 40.06C242.603 40.06 242.408 39.985 242.248 39.835C242.098 39.685 242.023 39.49 242.023 39.25C242.023 39.01 242.098 38.815 242.248 38.665C242.408 38.515 242.598 38.44 242.818 38.44C243.048 38.44 243.233 38.52 243.373 38.68C243.523 38.84 243.598 39.03 243.598 39.25C243.598 39.33 243.593 39.41 243.583 39.49C243.573 39.57 243.553 39.66 243.523 39.76C243.493 39.86 243.453 39.98 243.403 40.12L242.773 42.19H242.053ZM245.472 40V29.5H246.582V39.04H252.462V40H245.472ZM255.867 40.075C255.127 40.075 254.557 39.875 254.157 39.475C253.757 39.075 253.557 38.51 253.557 37.78V30.385H254.622V37.72C254.622 38.18 254.737 38.535 254.967 38.785C255.207 39.035 255.547 39.16 255.987 39.16C256.457 39.16 256.847 39.025 257.157 38.755L257.532 39.52C257.322 39.71 257.067 39.85 256.767 39.94C256.477 40.03 256.177 40.075 255.867 40.075ZM252.147 33.01V32.125H257.022V33.01H252.147ZM261.697 40.075C260.947 40.075 260.272 39.905 259.672 39.565C259.082 39.225 258.617 38.755 258.277 38.155C257.937 37.545 257.767 36.845 257.767 36.055C257.767 35.255 257.937 34.555 258.277 33.955C258.617 33.355 259.082 32.89 259.672 32.56C260.272 32.22 260.947 32.05 261.697 32.05C262.387 32.05 263.002 32.205 263.542 32.515C264.092 32.825 264.527 33.28 264.847 33.88C265.177 34.47 265.342 35.195 265.342 36.055C265.342 36.905 265.182 37.63 264.862 38.23C264.542 38.83 264.107 39.29 263.557 39.61C263.017 39.92 262.397 40.075 261.697 40.075ZM261.772 39.13C262.332 39.13 262.832 39.005 263.272 38.755C263.722 38.495 264.072 38.135 264.322 37.675C264.582 37.205 264.712 36.665 264.712 36.055C264.712 35.435 264.582 34.895 264.322 34.435C264.072 33.975 263.722 33.62 263.272 33.37C262.832 33.11 262.332 32.98 261.772 32.98C261.222 32.98 260.727 33.11 260.287 33.37C259.847 33.62 259.497 33.975 259.237 34.435C258.977 34.895 258.847 35.435 258.847 36.055C258.847 36.665 258.977 37.205 259.237 37.675C259.497 38.135 259.847 38.495 260.287 38.755C260.727 39.005 261.222 39.13 261.772 39.13ZM264.742 40V37.63L264.847 36.04L264.697 34.45V28.87H265.762V40H264.742ZM268.203 40.075C267.983 40.075 267.793 39.995 267.633 39.835C267.483 39.675 267.408 39.48 267.408 39.25C267.408 39.01 267.483 38.815 267.633 38.665C267.793 38.515 267.983 38.44 268.203 38.44C268.423 38.44 268.608 38.515 268.758 38.665C268.918 38.815 268.998 39.01 268.998 39.25C268.998 39.48 268.918 39.675 268.758 39.835C268.608 39.995 268.423 40.075 268.203 40.075Z" fill="white"/>
<path d="M40 45C62.0914 45 80 34.9264 80 22.5C80 10.0736 62.0914 0 40 0C17.9086 0 0 10.0736 0 22.5C0 34.9264 17.9086 45 40 45Z" fill="#282973"/>
<path d="M12.0754 12.0269H22.1975V14.9942H21.529C20.8853 14.9942 20.4883 15.0308 20.3394 15.1023C20.102 15.215 19.9299 15.3739 19.826 15.5788C19.722 15.7837 19.6693 16.1682 19.6693 16.7337V22.4445L26.1341 16.2396C26.421 15.9632 26.5947 15.7758 26.6537 15.6789C26.7126 15.582 26.7436 15.4978 26.7436 15.4247C26.7436 15.2818 26.6862 15.1737 26.573 15.1023C26.4582 15.0308 26.1697 14.9942 25.7044 14.9942H24.8731V12.0269H34.2523V14.9942H33.9405C33.5047 14.9942 33.2022 15.0181 33.0331 15.0641C32.8641 15.1102 32.6593 15.2103 32.4158 15.3644C32.1723 15.5185 31.859 15.7694 31.4712 16.1173L26.4598 20.6049L32.4375 28.959C32.9525 29.6771 33.3294 30.1028 33.5667 30.2362C33.8831 30.4205 34.3391 30.5126 34.9347 30.5126H35.3364V33.48H24.8715V30.5126H25.2872C26.0503 30.5126 26.5141 30.4761 26.6769 30.4046C26.8398 30.3331 26.922 30.241 26.922 30.1282C26.922 30.0043 26.7685 29.712 26.4613 29.2513L22.8133 23.871L19.6693 26.6859V28.8447C19.6693 29.3752 19.7189 29.7422 19.8182 29.9471C19.9175 30.152 20.0586 30.2966 20.2416 30.384C20.4247 30.4713 20.7938 30.5142 21.3491 30.5142H22.196V33.4816H12.0738V30.5142H12.8369C13.4248 30.5142 13.8187 30.465 14.0173 30.3681C14.2174 30.2712 14.3616 30.1139 14.4516 29.8995C14.5307 29.7247 14.571 29.3053 14.571 28.6382V16.9211C14.571 16.2857 14.526 15.86 14.4361 15.6439C14.3461 15.4295 14.2019 15.2675 14.0018 15.1594C13.8032 15.0514 13.4434 14.9974 12.9253 14.9974H12.0723V12.03L12.0754 12.0269Z" fill="white"/>
<path d="M36.3346 12.0269H46.4567V14.9942H45.5354C45.0003 14.9942 44.6466 15.0435 44.4729 15.1404C44.2992 15.2373 44.1705 15.3914 44.0867 15.6011C44.0029 15.8107 43.9611 16.2142 43.9611 16.8083V28.6795C43.9611 29.3244 43.9952 29.7406 44.065 29.9249C44.1348 30.1091 44.2527 30.2426 44.4217 30.3252C44.6296 30.4475 44.9413 30.5095 45.3586 30.5095H46.4583V33.4768H36.3361V30.5095H37.1582C37.746 30.5095 38.1307 30.465 38.309 30.3792C38.489 30.2918 38.6208 30.1536 38.7046 29.9646C38.7899 29.7755 38.8317 29.3991 38.8317 28.8335V16.9164C38.8317 16.2508 38.7899 15.8123 38.7046 15.6011C38.6193 15.3914 38.4781 15.2293 38.278 15.1166C38.1384 15.034 37.7987 14.9942 37.2605 14.9942H36.333V12.0269H36.3346Z" fill="white"/>
<path d="M64.6085 12.0267H66.7179L68.7529 19.7311L65.9874 20.5619C65.0661 18.7272 64.199 17.4246 63.3863 16.6557C62.2571 15.5994 61.0333 15.072 59.7149 15.072C58.7533 15.072 57.8537 15.3484 57.0177 15.9028C56.1801 16.4572 55.5163 17.2721 55.0261 18.3475C54.536 19.4245 54.2909 20.6843 54.2909 22.1298C54.2909 24.3347 54.8524 26.2298 55.9785 27.82C57.103 29.4085 58.5765 30.2028 60.4005 30.2028C61.5591 30.2028 62.6743 29.8596 63.7446 29.1734C65.0816 28.3219 66.2371 27.1798 67.2081 25.7437L69.5114 27.5118C68.0162 29.6245 66.6497 31.0939 65.4119 31.9247C63.5011 33.2067 61.3715 33.8469 59.0247 33.8469C57.0735 33.8469 55.3084 33.3623 53.7294 32.3933C52.1505 31.4243 50.8895 30.0693 49.9495 28.3267C49.0096 26.5841 48.5381 24.6826 48.5381 22.6223C48.5381 20.5619 48.9956 18.7034 49.9123 17.0179C50.829 15.3309 52.076 14.0172 53.655 13.0736C55.234 12.13 56.9944 11.6582 58.9348 11.6582C60.8751 11.6582 62.6325 12.0887 64.1184 12.9497L64.6085 12.0267Z" fill="white"/>
</svg>
