<svg width="60" height="60" viewBox="0 0 60 60" fill="none" xmlns="http://www.w3.org/2000/svg">
    <g clip-path="url(#vr3m4pskra)" stroke="#1F2085" stroke-linecap="round" stroke-linejoin="round">
        <path d="M50.851 38.602V.866a.55.55 0 0 0-.55-.55H14.73M14.73.316h-.386c-2.227 2.092-5.897 5.751-7.991 7.982M50.851 55.64v3.217a.55.55 0 0 1-.55.55H6.903a.55.55 0 0 1-.55-.55V8.3M50.851 38.602c4.15.632 7.327 4.196 7.327 8.519 0 4.322-3.183 7.887-7.327 8.519"/>
        <path d="M50.851 38.602a8.93 8.93 0 0 0-1.31-.108c-4.77 0-8.636 3.861-8.636 8.627 0 4.765 3.866 8.626 8.636 8.626.45 0 .88-.044 1.31-.107"/>
        <path d="m45.144 46.4 3.202 3.356 2.505-2.363M53.945 44.486l-3.094 2.907M14.73.316v7.982H6.353M15.255 13.91h27.22M15.255 20.71h27.22M29.915 27.51h-14.66"/>
    </g>
    <defs>
        <clipPath id="vr3m4pskra">
            <path fill="#fff" d="M0 0h60v60H0z"/>
        </clipPath>
    </defs>
</svg>
