<svg width="60" height="60" viewBox="0 0 60 60" fill="none" xmlns="http://www.w3.org/2000/svg">
    <g clip-path="url(#git7wgueda)" stroke="#1F2085" stroke-linecap="round" stroke-linejoin="round">
        <path d="M57.874 37.312c2.132-7.308 0-14.015 0-14.015h-4.91a23.526 23.526 0 0 0-1.733-4.34l3.606-3.607c-3.663-6.675-9.908-9.908-9.908-9.908l-3.474 3.474a24.227 24.227 0 0 0-4.296-1.848V1.975c-7.308-2.132-14.014 0-14.014 0v4.91a23.531 23.531 0 0 0-4.34 1.733l-3.607-3.606C8.523 8.675 5.289 14.92 5.289 14.92l3.474 3.474a24.223 24.223 0 0 0-1.847 4.296H1.829c-2.133 7.308 0 14.015 0 14.015h4.91a23.533 23.533 0 0 0 1.733 4.34L4.866 44.65c3.663 6.675 9.908 9.909 9.908 9.909l3.473-3.474a24.23 24.23 0 0 0 4.297 1.848v5.093c7.307 2.132 14.014 0 14.014 0v-4.91a23.526 23.526 0 0 0 4.34-1.734l3.607 3.607c6.675-3.663 9.908-9.908 9.908-9.908l-3.473-3.474a24.23 24.23 0 0 0 1.847-4.296h5.093-.006z"/>
        <path d="M29.851 46.448c9.086 0 16.45-7.365 16.45-16.45 0-9.086-7.364-16.451-16.45-16.451-9.085 0-16.45 7.365-16.45 16.45 0 9.086 7.365 16.45 16.45 16.45z"/>
        <path d="m21.474 28.63 6.093 6.396 10.661-10.053"/>
    </g>
    <defs>
        <clipPath id="git7wgueda">
            <path fill="#fff" d="M0 0h60v60H0z"/>
        </clipPath>
    </defs>
</svg>
