<svg width="60" height="60" viewBox="0 0 60 60" fill="none" xmlns="http://www.w3.org/2000/svg">
    <g clip-path="url(#b59711pqra)" stroke="#1F2085" stroke-miterlimit="10">
        <path d="M13.034.576h34.122a5.189 5.189 0 0 1 5.188 5.183v53.92H7.846V5.766A5.189 5.189 0 0 1 13.034.582V.576z"/>
        <path d="M28.396 10.72h-7.89v7.668h7.89v-7.667zM28.396 21.586h-7.89v7.667h7.89v-7.667zM28.396 32.453h-7.89v7.668h7.89v-7.668zM39.488 10.72h-7.89v7.668h7.89v-7.667zM39.488 21.586h-7.89v7.667h7.89v-7.667zM39.488 32.453h-7.89v7.668h7.89v-7.668zM23 48.697h13.995a2.422 2.422 0 0 1 2.423 2.421v8.559H20.57v-8.559a2.422 2.422 0 0 1 2.423-2.42h.006z"/>
    </g>
    <defs>
        <clipPath id="b59711pqra">
            <path fill="#fff" d="M0 0h60v60H0z"/>
        </clipPath>
    </defs>
</svg>
