<svg width="60" height="60" viewBox="0 0 60 60" fill="none" xmlns="http://www.w3.org/2000/svg">
    <g clip-path="url(#odl2v8e5ha)" stroke="#1F2085" stroke-miterlimit="10">
        <path d="M29.794 30.085c8.097 0 14.66-6.563 14.66-14.66 0-8.096-6.563-14.66-14.66-14.66-8.096 0-14.66 6.564-14.66 14.66 0 8.097 6.564 14.66 14.66 14.66zM28.054 32.002h4.005c15.224 0 27.58 12.357 27.58 27.58H.474c0-15.223 12.357-27.58 27.58-27.58z"/>
        <path d="M26.656 32.18h6.283l2.613 20.006-5.758 4.866-5.757-4.866 2.62-20.006z"/>
    </g>
    <defs>
        <clipPath id="odl2v8e5ha">
            <path fill="#fff" d="M0 0h60v60H0z"/>
        </clipPath>
    </defs>
</svg>
