<svg width="60" height="60" viewBox="0 0 60 60" fill="none" xmlns="http://www.w3.org/2000/svg">
    <g clip-path="url(#lou8nq8hpa)" stroke="#1F2085" stroke-miterlimit="10">
        <path d="M52.831 9.105H7.371C3.587 9.105.52 12.161.52 15.93V52.86c0 3.769 3.068 6.824 6.852 6.824h45.46c3.785 0 6.853-3.055 6.853-6.824V15.93c0-3.77-3.068-6.825-6.853-6.825z"/>
        <path d="M44.809 38.537V30.68h-7.675v7.857h7.675zM33.939 38.537V30.68h-7.675v7.857h7.675zM23.062 38.537V30.68h-7.674v7.857h7.674zM44.815 49.584v-7.857H37.14v7.857h7.675zM33.939 49.584v-7.857h-7.675v7.857h7.675zM23.062 49.584v-7.857h-7.674v7.857h7.674zM.519 22.666h59.165M15.558 2.59v13.03M44.878 2.59v13.03"/>
    </g>
    <defs>
        <clipPath id="lou8nq8hpa">
            <path fill="#fff" d="M0 0h60v60H0z"/>
        </clipPath>
    </defs>
</svg>
