<svg width="60" height="60" viewBox="0 0 60 60" fill="none" xmlns="http://www.w3.org/2000/svg">
    <g clip-path="url(#8w8j88lwza)" stroke="#1F2085" stroke-linecap="round" stroke-linejoin="round">
        <path d="M44.08 36.693V7.798a.419.419 0 0 0-.418-.422H16.717"/>
        <path d="M16.718 7.376h-.29a166.359 166.359 0 0 0-6.055 6.113M44.08 49.74v2.462a.419.419 0 0 1-.417.421H10.79a.419.419 0 0 1-.418-.421V13.489M44.08 36.693c3.139.482 5.555 3.215 5.555 6.52 0 3.305-2.409 6.038-5.555 6.52"/>
        <path d="M44.08 36.693a6.15 6.15 0 0 0-.99-.083c-3.617 0-6.547 2.96-6.547 6.61 0 3.652 2.93 6.61 6.546 6.61.336 0 .664-.037.992-.082"/>
        <path d="m39.756 42.663 2.423 2.567 1.901-1.806M46.421 41.195l-2.34 2.229M16.718 7.376v6.113h-6.345M17.113 17.788h20.623M17.113 22.991h20.623M28.215 28.2H17.113"/>
    </g>
    <defs>
        <clipPath id="8w8j88lwza">
            <path fill="#fff" transform="translate(10 7)" d="M0 0h40v46H0z"/>
        </clipPath>
    </defs>
</svg>
