<svg width="60" height="60" viewBox="0 0 60 60" fill="none" xmlns="http://www.w3.org/2000/svg">
    <g clip-path="url(#s79zkz4uoa)" stroke="#1F2085" stroke-linecap="round" stroke-linejoin="round">
        <path d="M53.016 33.331c.53-4.672-.64-8.395-.64-8.395h-4.043a19.383 19.383 0 0 0-1.428-3.603l2.975-3c-3.018-5.55-8.163-8.23-8.163-8.23l-2.863 2.887c-1.12-.62-2.3-1.138-3.538-1.534V7.215c-6.026-1.776-11.548 0-11.548 0v4.077a19.026 19.026 0 0 0-3.572 1.44l-2.975-3c-5.495 3.05-8.153 8.24-8.153 8.24l2.863 2.887a19.972 19.972 0 0 0-1.521 3.568H6.203c-1.76 6.077 0 11.645 0 11.645h4.043a19.373 19.373 0 0 0 1.428 3.603l-2.975 3c3.017 5.55 8.163 8.23 8.163 8.23l2.863-2.887c1.12.62 2.299 1.138 3.538 1.534v4.232c6.026 1.776 11.547 0 11.547 0v-4.077a19.02 19.02 0 0 0 3.573-1.439l2.974 3c2.317-1.276 4.12-2.94 5.445-4.43"/>
        <path d="M41.808 35.732c2.863-6.97-.42-14.962-7.332-17.85-6.912-2.887-14.837.423-17.7 7.394-2.863 6.97.42 14.962 7.332 17.85 6.912 2.887 14.836-.423 17.7-7.394zM46.803 46.82v-6.533M46.804 39.864v-3.06H43.65l5.958-8.127 3.41 4.654"/>
        <path d="M46.803 46.82v7.31h5.607V36.804h3.162l-2.556-3.474M46.803 39.864v.423"/>
    </g>
    <defs>
        <clipPath id="s79zkz4uoa">
            <path fill="#fff" transform="translate(5 6)" d="M0 0h51v49H0z"/>
        </clipPath>
    </defs>
</svg>
