<svg width="60" height="60" viewBox="0 0 60 60" fill="none" xmlns="http://www.w3.org/2000/svg">
    <g clip-path="url(#j3h6wty7wa)" stroke="#1F2085" stroke-linecap="round" stroke-linejoin="round">
        <path d="M26.926 28.006c6.224 0 11.268-5.063 11.268-11.308S33.15 5.391 26.926 5.391c-6.223 0-11.268 5.062-11.268 11.307s5.045 11.308 11.268 11.308zM35.732 51.395H49.65c0-4.144-1.184-8.015-3.218-11.292M42.962 35.865a21.174 21.174 0 0 0-14.611-5.834h-2.68c-11.705 0-21.282 9.619-21.282 21.364h24.414M42.963 35.865l.958-1.025a6.04 6.04 0 0 1 1.34-6.177 5.998 5.998 0 0 1 3.609-1.799c.943-.11 1.909 0 2.813.329l-3.195 3.331 3.46 3.355 3.195-3.332c.88 2.15.483 4.716-1.232 6.49a5.987 5.987 0 0 1-6.101 1.573l-1.395 1.493M46.424 40.103l-6.865 7.359M42.964 35.865l-7.372 7.89"/>
        <path d="M28.805 51.395c.093-.508.327-.993.709-1.384l6.063-6.264M28.805 51.395a2.716 2.716 0 0 0 .779 2.456 2.7 2.7 0 0 0 3.826-.07l2.315-2.386M35.732 51.395l3.827-3.933"/>
    </g>
    <defs>
        <clipPath id="j3h6wty7wa">
            <path fill="#fff" transform="translate(4 5)" d="M0 0h52v50H0z"/>
        </clipPath>
    </defs>
</svg>
