<svg width="60" height="60" viewBox="0 0 60 60" fill="none" xmlns="http://www.w3.org/2000/svg">
    <g clip-path="url(#8r85o0czqa)" stroke="#1F2085" stroke-linecap="round" stroke-linejoin="round">
        <path d="M47.29 41.91H26.511v7.688h13.006M47.29 41.91h7.33v7.688H39.518M32.27 42.139v3.096M34.938 44.595v-2.456M37.611 45.235V42.14M42.951 45.235V42.14M45.625 42.139v2.158M45.625 44.298v.297M48.299 42.139v3.096M40.285 42.139v2.456"/>
        <path d="M48.937 38.54a22.068 22.068 0 0 0 1.504-8.04c0-12.218-9.86-22.118-22.031-22.118-12.17 0-22.031 9.9-22.031 22.118 0 12.22 9.86 22.12 22.03 22.12 4.058 0 7.849-1.107 11.108-3.021"/>
        <path d="M13.43 46.471c1.731 1.48 6.624-2.242 5.104-6.056-1.52-3.813 2.28-5.339 3.799-4.576 1.52.763 3.039-.763 3.798-1.526.76-.762 1.52-3.813-1.52-5.339-3.038-1.525-3.038-3.813-3.038-4.576 0-.762 1.52-1.525 1.52-3.05 0-1.526-.76-5.34-4.559-3.051-3.798 2.288-9.116 1.525-9.116 1.525M38.417 11.05s-2.408 5.721-4.687 6.484c-2.28.763-1.52 4.576.76 4.576 2.278 0 3.798-1.525 5.317.763 1.52 2.288 3.799 3.05 5.318.762 1.52-2.288 3.502-1.57 3.502-1.57M26.89 39.683v-2.288M54.24 38.539v-1.145M54.24 39.683V38.54M48.938 38.54h5.302M48.938 38.54h-22"/>
    </g>
    <defs>
        <clipPath id="8r85o0czqa">
            <path fill="#fff" transform="translate(6 8)" d="M0 0h49v45H0z"/>
        </clipPath>
    </defs>
</svg>
