<svg width="60" height="60" viewBox="0 0 60 60" fill="none" xmlns="http://www.w3.org/2000/svg">
    <g clip-path="url(#hshei3227a)" stroke="#1F2085" stroke-linecap="round" stroke-linejoin="round">
        <path d="M15.043 8.988 5.4 18.538l35.4 35.06 9.642-9.55-35.4-35.06zM37.951 30.898l4.3-4.171c3.465 1.191 7.467.468 10.283-2.233a9.892 9.892 0 0 0 2.43-10.63l-5.534 5.3-5.583-5.729 5.535-5.299a10.165 10.165 0 0 0-4.677-.707 10.043 10.043 0 0 0-6.128 2.75 9.876 9.876 0 0 0-2.607 10.105l-4.613 4.457"/>
        <path d="m21.507 34.473-10.5 9.97a4.449 4.449 0 0 0-.112 6.332c1.733 1.78 4.596 1.827 6.393.111l10.628-10.058M12.934 25.439l3.89-3.853M16.303 28.768l3.08-3.05M19.664 32.105l3.89-3.853M30.275 34.917l-3.882 3.853M29.754 42.099l3.088-3.059M37.005 41.583l-3.882 3.853M23.031 35.434l3.08-3.051"/>
    </g>
    <defs>
        <clipPath id="hshei3227a">
            <path fill="#fff" transform="translate(5 7)" d="M0 0h51v47H0z"/>
        </clipPath>
    </defs>
</svg>
