<svg width="60" height="60" viewBox="0 0 60 60" fill="none" xmlns="http://www.w3.org/2000/svg">
    <g clip-path="url(#3wgbiupx4a)" stroke="#1F2085" stroke-linecap="round" stroke-linejoin="round">
        <path d="M51.619 51.02c-.242.27-.522.556-.842.834M50.777 51.855a9.24 9.24 0 0 1-1.73 1.22l-1.23-1.22M47.817 51.855l-.164-.163c-.117.062-.241.109-.366.163M47.287 51.855a9.728 9.728 0 0 1-1.324.502v1.893s-2.602.82-5.439 0v-1.963a8.879 8.879 0 0 1-1.09-.432M35.973 51.855c.849.71 1.527 1.058 1.527 1.058l1.067-1.058M40.758 33.437v-.78s2.602-.82 5.438 0v1.962a9.651 9.651 0 0 1 1.668.711l1.348-1.337s2.423 1.244 3.848 3.818l-1.402 1.391c.273.534.499 1.09.67 1.67h1.909s.826 2.581 0 5.394h-1.98a9.485 9.485 0 0 1-.716 1.654l1.348 1.337s-.42.804-1.278 1.763M40.757 33.437v1.113a9.636 9.636 0 0 0-1.683.664l-1.403-1.391c-2.594 1.414-3.849 3.818-3.849 3.818l1.348 1.337a9.485 9.485 0 0 0-.717 1.654h-1.979c-.825 2.813 0 5.395 0 5.395h1.91c.17.58.397 1.143.67 1.669l-1.403 1.391c.67 1.214 1.566 2.125 2.322 2.76M39.425 51.854c-.194-.092-.39-.177-.576-.278l-.28.278"/>
        <path d="M49.733 43.121a6.337 6.337 0 0 0-3.499-5.325M46.235 37.803a6.401 6.401 0 0 0-2.875-.68c-3.53 0-6.39 2.837-6.39 6.338 0 3.5 2.86 6.337 6.39 6.337s6.389-2.836 6.389-6.337c0-.109-.008-.224-.016-.333M28.923 28.738c6.222 0 11.266-5.003 11.266-11.176 0-6.172-5.044-11.175-11.266-11.175-6.223 0-11.267 5.003-11.267 11.175 0 6.173 5.044 11.176 11.267 11.176zM47.287 51.855h.53"/>
        <path d="M40.757 33.437a21.292 21.292 0 0 0-10.402-2.698h-2.68c-11.71 0-21.286 9.507-21.286 21.115h29.584"/>
    </g>
    <defs>
        <clipPath id="3wgbiupx4a">
            <path fill="#fff" transform="translate(6 6)" d="M0 0h49v49H0z"/>
        </clipPath>
    </defs>
</svg>
