<svg width="320" height="1053" viewBox="0 0 320 1053" fill="none" xmlns="http://www.w3.org/2000/svg">
<path d="M160 144V251" stroke="#D9D9D9"/>
<path d="M170 189H150" stroke="#D9D9D9"/>
<rect y="1008" width="320" height="45" rx="5" fill="#1F2085"/>
<path d="M135.656 1025.82V1026.77H140.262C139.996 1029.74 138.274 1032.15 135.068 1033.76L135.698 1034.66C139.758 1032.63 141.396 1029.39 141.396 1025.82H135.656ZM146.66 1029.57H144.644V1024.48H143.496V1037.04H144.644V1030.53H146.66V1029.57ZM157.047 1032.22H158.209V1024.49H157.047V1026.72H154.975V1027.66H157.047V1028.97H154.975V1029.91H157.047V1032.22ZM150.593 1026.35H152.483V1030.43C151.853 1030.46 151.209 1030.48 150.593 1030.5V1026.35ZM155.241 1030.2C154.723 1030.27 154.163 1030.32 153.603 1030.36V1026.35H154.849V1025.43H148.241V1026.35H149.487V1030.51C148.927 1030.53 148.381 1030.53 147.905 1030.53L148.031 1031.48C150.061 1031.48 152.889 1031.44 155.311 1031.06L155.241 1030.2ZM154.065 1036.13C152.161 1036.13 151.027 1035.62 151.027 1034.74C151.027 1033.89 152.161 1033.37 154.065 1033.37C155.969 1033.37 157.103 1033.89 157.103 1034.74C157.103 1035.62 155.969 1036.13 154.065 1036.13ZM154.065 1032.49C151.461 1032.49 149.879 1033.3 149.879 1034.74C149.879 1036.2 151.461 1037.02 154.065 1037.02C156.655 1037.02 158.251 1036.2 158.251 1034.74C158.251 1033.3 156.655 1032.49 154.065 1032.49ZM165.222 1026.72H168.176V1025.77H161.162V1026.72H164.074V1028.31C164.074 1030.48 162.548 1032.85 160.742 1033.7L161.414 1034.63C162.842 1033.9 164.074 1032.32 164.648 1030.48C165.25 1032.21 166.482 1033.65 167.938 1034.32L168.582 1033.4C166.734 1032.61 165.222 1030.44 165.222 1028.31V1026.72ZM169.87 1024.49V1037.04H171.018V1024.49H169.87ZM177.835 1025.57H176.701V1027.82C176.701 1030.11 175.273 1032.51 173.467 1033.44L174.153 1034.36C175.567 1033.61 176.729 1032.04 177.275 1030.2C177.849 1031.93 178.983 1033.4 180.313 1034.11L181.027 1033.2C179.263 1032.32 177.835 1030.04 177.835 1027.82V1025.57ZM185.353 1029.57H183.281V1024.49H182.133V1037.04H183.281V1030.53H185.353V1029.57Z" fill="white"/>
<rect y="673" width="320" height="45" rx="5" fill="#1F2085"/>
<path d="M143.776 694.476H137.546V692.628H143.776V694.476ZM144.924 689.982H143.776V691.704H137.546V689.982H136.412V695.414H144.924V689.982ZM146.366 696.926H134.97V697.85H140.066V702.05H141.214V697.85H146.366V696.926ZM155.185 695.792C153.337 695.134 152.091 693.538 152.091 691.816V690.234H150.943V691.788C150.943 693.734 149.725 695.414 147.807 696.1L148.409 697.01C149.907 696.45 151.027 695.302 151.545 693.818C152.105 695.134 153.197 696.184 154.611 696.702L155.185 695.792ZM150.971 697.864H149.823V701.756H158.153V700.818H150.971V697.864ZM157.607 693.328V689.464H156.459V698.746H157.607V694.28H159.455V693.328H157.607ZM165.222 691.718H168.176V690.766H161.162V691.718H164.074V693.314C164.074 695.484 162.548 697.85 160.742 698.704L161.414 699.628C162.842 698.9 164.074 697.318 164.648 695.484C165.25 697.206 166.482 698.648 167.938 699.32L168.582 698.396C166.734 697.612 165.222 695.442 165.222 693.314V691.718ZM169.87 689.492V702.036H171.018V689.492H169.87ZM177.835 690.57H176.701V692.824C176.701 695.106 175.273 697.514 173.467 698.438L174.153 699.362C175.567 698.606 176.729 697.038 177.275 695.204C177.849 696.926 178.983 698.396 180.313 699.11L181.027 698.2C179.263 697.318 177.835 695.036 177.835 692.824V690.57ZM185.353 694.574H183.281V689.492H182.133V702.036H183.281V695.526H185.353V694.574Z" fill="white"/>
<rect x="0.5" y="728.5" width="154" height="44" rx="4.5" fill="#F6F7FA" stroke="#D9D9D9"/>
<path d="M51.7147 745.724C53.6467 745.724 54.9067 746.326 54.9067 747.32C54.9067 748.3 53.6467 748.902 51.7147 748.902C49.7967 748.902 48.5227 748.3 48.5227 747.32C48.5227 746.326 49.7967 745.724 51.7147 745.724ZM51.7147 749.84C54.3747 749.84 56.1107 748.874 56.1107 747.32C56.1107 745.766 54.3747 744.8 51.7147 744.8C49.0547 744.8 47.3187 745.766 47.3187 747.32C47.3187 748.874 49.0547 749.84 51.7147 749.84ZM48.6347 753.088H47.4867V756.756H56.1667V755.804H48.6347V753.088ZM46.0307 750.848V751.786H51.2387V754.32H52.4007V751.786H57.4127V750.848H46.0307ZM60.2116 748.202C60.2116 747.04 61.1356 746.2 62.3536 746.2C63.5856 746.2 64.4816 747.04 64.4816 748.202C64.4816 749.378 63.5856 750.218 62.3536 750.218C61.1356 750.218 60.2116 749.378 60.2116 748.202ZM68.1076 747.222V749.182H65.4056C65.5176 748.874 65.5736 748.552 65.5736 748.202C65.5736 747.838 65.5176 747.516 65.4196 747.222H68.1076ZM68.1076 750.12V751.912H69.2696V744.478H68.1076V746.284H64.8876C64.3136 745.64 63.4176 745.234 62.3536 745.234C60.4916 745.234 59.1196 746.452 59.1196 748.202C59.1196 749.966 60.4916 751.198 62.3536 751.198C63.4176 751.198 64.3136 750.792 64.8876 750.12H68.1076ZM65.1116 756.112C63.2216 756.112 62.0736 755.552 62.0736 754.614C62.0736 753.662 63.2216 753.102 65.1116 753.102C67.0296 753.102 68.1776 753.662 68.1776 754.614C68.1776 755.552 67.0296 756.112 65.1116 756.112ZM65.1116 752.206C62.5356 752.206 60.9396 753.088 60.9396 754.614C60.9396 756.14 62.5356 757.022 65.1116 757.022C67.7016 757.022 69.3116 756.14 69.3116 754.614C69.3116 753.088 67.7016 752.206 65.1116 752.206ZM78.3965 749.84C78.7185 748.188 78.7185 746.942 78.7185 746.116V745.458H72.4745V746.396H77.5985C77.5985 747.194 77.5565 748.272 77.2625 749.714L78.3965 749.84ZM79.5865 750.596C78.3125 750.764 76.8845 750.876 75.5125 750.932V748.258H74.3785V750.974C73.4265 750.988 72.5165 751.002 71.7185 751.002L71.8305 751.94C74.0565 751.94 77.0665 751.87 79.6705 751.436L79.5865 750.596ZM74.7845 753.074H73.6365V756.756H81.9805V755.818H74.7845V753.074ZM81.5745 748.566V744.478H80.4265V753.942H81.5745V749.518H83.3665V748.566H81.5745ZM86.5575 750.12H91.1915V745.64H85.3675V746.578H90.0295V749.196H85.4095V754.012H86.4455C88.6015 754.012 90.5055 753.928 92.7735 753.55L92.6615 752.612C90.4635 752.962 88.6155 753.06 86.5575 753.06V750.12ZM93.8375 744.464V757.05H94.9855V744.464H93.8375ZM105.274 749.938C103.524 750.232 102.04 750.288 99.4224 750.288V748.636H103.916V747.726H99.4224V746.172H104.266V745.248H98.2744V751.212H99.2964C102.04 751.212 103.566 751.156 105.4 750.848L105.274 749.938ZM100.864 753.522H106.744V755.944H100.864V753.522ZM99.7444 756.868H107.864V752.598H99.7444V756.868ZM106.716 744.492V751.982H107.864V744.492H106.716Z" fill="#222222"/>
<rect x="0.5" y="783.5" width="154" height="44" rx="4.5" fill="#F6F7FA" stroke="#D9D9D9"/>
<path d="M54.9207 802.124C54.9207 803.678 54.9207 805.33 54.4867 807.57L55.6207 807.71C56.0687 805.358 56.0687 803.72 56.0687 802.124V800.738H47.2207V801.676H54.9207V802.124ZM53.0727 809.334V805.176H51.9387V809.334H49.9647V805.176H48.8307V809.334H46.0447V810.272H57.3987V809.334H53.0727ZM65.6296 802.74V803.678H68.1076V806.968H69.2696V799.492H68.1076V802.74H65.6296ZM66.3296 805.596C64.5096 804.952 63.2776 803.37 63.2776 801.76V801.326H66.0356V800.402H59.3296V801.326H62.1296V801.76C62.1296 803.566 60.8416 805.26 58.9656 805.946L59.5676 806.856C61.0376 806.296 62.1996 805.12 62.7316 803.664C63.2776 804.952 64.3556 805.988 65.7556 806.492L66.3296 805.596ZM65.1256 811.14C63.2356 811.14 62.0876 810.608 62.0876 809.698C62.0876 808.788 63.2356 808.242 65.1256 808.242C67.0156 808.242 68.1636 808.788 68.1636 809.698C68.1636 810.608 67.0156 811.14 65.1256 811.14ZM65.1256 807.36C62.5496 807.36 60.9396 808.214 60.9396 809.698C60.9396 811.182 62.5496 812.036 65.1256 812.036C67.7016 812.036 69.3116 811.182 69.3116 809.698C69.3116 808.214 67.7016 807.36 65.1256 807.36ZM72.5445 800.836V801.76H77.2625C77.0245 804.742 75.3445 807.15 71.9705 808.76L72.5865 809.698C76.7585 807.654 78.4245 804.462 78.4245 800.836H72.5445ZM80.9585 799.478V812.036H82.1065V799.478H80.9585ZM95.4195 803.02C93.1375 802.768 90.9535 801.536 90.9535 800.01V799.534H89.7775V800.01C89.7775 801.536 87.5655 802.768 85.2835 803.02L85.6755 803.888C87.6775 803.636 89.5675 802.754 90.3655 801.41C91.1495 802.754 93.0395 803.636 95.0275 803.888L95.4195 803.02ZM96.0355 805.638V804.714H84.6675V805.638H89.7775V806.884H86.0395V807.766H93.4455V808.914H86.0815V811.896H94.9575V811H87.2015V809.754H94.5795V806.884H90.9255V805.638H96.0355ZM105.274 804.938C103.524 805.232 102.04 805.288 99.4224 805.288V803.636H103.916V802.726H99.4224V801.172H104.266V800.248H98.2744V806.212H99.2964C102.04 806.212 103.566 806.156 105.4 805.848L105.274 804.938ZM100.864 808.522H106.744V810.944H100.864V808.522ZM99.7444 811.868H107.864V807.598H99.7444V811.868ZM106.716 799.492V806.982H107.864V799.492H106.716Z" fill="#222222"/>
<rect x="165.5" y="728.5" width="154" height="44" rx="4.5" fill="#F6F7FA" stroke="#D9D9D9"/>
<path d="M225.212 748.202C225.212 747.04 226.136 746.2 227.354 746.2C228.586 746.2 229.482 747.04 229.482 748.202C229.482 749.378 228.586 750.218 227.354 750.218C226.136 750.218 225.212 749.378 225.212 748.202ZM233.108 747.222V749.182H230.406C230.518 748.874 230.574 748.552 230.574 748.202C230.574 747.838 230.518 747.516 230.42 747.222H233.108ZM233.108 750.12V751.912H234.27V744.478H233.108V746.284H229.888C229.314 745.64 228.418 745.234 227.354 745.234C225.492 745.234 224.12 746.452 224.12 748.202C224.12 749.966 225.492 751.198 227.354 751.198C228.418 751.198 229.314 750.792 229.888 750.12H233.108ZM230.112 756.112C228.222 756.112 227.074 755.552 227.074 754.614C227.074 753.662 228.222 753.102 230.112 753.102C232.03 753.102 233.178 753.662 233.178 754.614C233.178 755.552 232.03 756.112 230.112 756.112ZM230.112 752.206C227.536 752.206 225.94 753.088 225.94 754.614C225.94 756.14 227.536 757.022 230.112 757.022C232.702 757.022 234.312 756.14 234.312 754.614C234.312 753.088 232.702 752.206 230.112 752.206ZM246.001 755.944H240.247V754.32H246.001V755.944ZM246.001 753.424H240.247V751.828H239.113V756.868H247.149V751.828H246.001V753.424ZM240.233 749.924C238.987 749.924 238.091 749.112 238.091 747.964C238.091 746.816 238.987 746.018 240.233 746.018C241.479 746.018 242.375 746.816 242.375 747.964C242.375 749.112 241.479 749.924 240.233 749.924ZM245.987 744.492V747.474H243.425C243.187 746.018 241.927 745.066 240.233 745.066C238.357 745.066 236.999 746.242 236.999 747.964C236.999 749.7 238.357 750.876 240.233 750.876C241.955 750.876 243.215 749.896 243.439 748.412H245.987V751.226H247.149V744.492H245.987ZM257.395 749.938C255.645 750.232 254.161 750.288 251.543 750.288V748.636H256.037V747.726H251.543V746.172H256.387V745.248H250.395V751.212H251.417C254.161 751.212 255.687 751.156 257.521 750.848L257.395 749.938ZM252.985 753.522H258.865V755.944H252.985V753.522ZM251.865 756.868H259.985V752.598H251.865V756.868ZM258.837 744.492V751.982H259.985V744.492H258.837Z" fill="#222222"/>
<rect y="868" width="320" height="45" rx="5" fill="#1F2085"/>
<path d="M136.566 886.942H140.108V886.004H135.432V893.942H136.258C138.134 893.942 139.408 893.886 140.906 893.564L140.808 892.612C139.436 892.906 138.246 892.976 136.566 892.99V886.942ZM144.546 884.478V889.518H142.768V884.758H141.69V896.406H142.768V890.456H144.546V897.036H145.652V884.478H144.546ZM154.527 887.95V888.888H157.047V893.69H158.209V884.492H157.047V887.95H154.527ZM155.269 890.904C153.449 890.26 152.217 888.692 152.217 887.054V886.438H154.975V885.5H148.269V886.438H151.069V887.068C151.069 888.846 149.767 890.512 147.905 891.184L148.507 892.08C149.977 891.548 151.125 890.386 151.671 888.958C152.217 890.246 153.295 891.296 154.695 891.8L155.269 890.904ZM151.335 895.818V892.878H150.173V896.756H158.559V895.818H151.335ZM165.222 886.718H168.176V885.766H161.162V886.718H164.074V888.314C164.074 890.484 162.548 892.85 160.742 893.704L161.414 894.628C162.842 893.9 164.074 892.318 164.648 890.484C165.25 892.206 166.482 893.648 167.938 894.32L168.582 893.396C166.734 892.612 165.222 890.442 165.222 888.314V886.718ZM169.87 884.492V897.036H171.018V884.492H169.87ZM177.835 885.57H176.701V887.824C176.701 890.106 175.273 892.514 173.467 893.438L174.153 894.362C175.567 893.606 176.729 892.038 177.275 890.204C177.849 891.926 178.983 893.396 180.313 894.11L181.027 893.2C179.263 892.318 177.835 890.036 177.835 887.824V885.57ZM185.353 889.574H183.281V884.492H182.133V897.036H183.281V890.526H185.353V889.574Z" fill="white"/>
<rect x="0.5" y="923.5" width="154" height="44" rx="4.5" fill="#F6F7FA" stroke="#D9D9D9"/>
<path d="M51.7147 940.724C53.6467 940.724 54.9067 941.326 54.9067 942.32C54.9067 943.3 53.6467 943.902 51.7147 943.902C49.7967 943.902 48.5227 943.3 48.5227 942.32C48.5227 941.326 49.7967 940.724 51.7147 940.724ZM51.7147 944.84C54.3747 944.84 56.1107 943.874 56.1107 942.32C56.1107 940.766 54.3747 939.8 51.7147 939.8C49.0547 939.8 47.3187 940.766 47.3187 942.32C47.3187 943.874 49.0547 944.84 51.7147 944.84ZM48.6347 948.088H47.4867V951.756H56.1667V950.804H48.6347V948.088ZM46.0307 945.848V946.786H51.2387V949.32H52.4007V946.786H57.4127V945.848H46.0307ZM60.2116 943.202C60.2116 942.04 61.1356 941.2 62.3536 941.2C63.5856 941.2 64.4816 942.04 64.4816 943.202C64.4816 944.378 63.5856 945.218 62.3536 945.218C61.1356 945.218 60.2116 944.378 60.2116 943.202ZM68.1076 942.222V944.182H65.4056C65.5176 943.874 65.5736 943.552 65.5736 943.202C65.5736 942.838 65.5176 942.516 65.4196 942.222H68.1076ZM68.1076 945.12V946.912H69.2696V939.478H68.1076V941.284H64.8876C64.3136 940.64 63.4176 940.234 62.3536 940.234C60.4916 940.234 59.1196 941.452 59.1196 943.202C59.1196 944.966 60.4916 946.198 62.3536 946.198C63.4176 946.198 64.3136 945.792 64.8876 945.12H68.1076ZM65.1116 951.112C63.2216 951.112 62.0736 950.552 62.0736 949.614C62.0736 948.662 63.2216 948.102 65.1116 948.102C67.0296 948.102 68.1776 948.662 68.1776 949.614C68.1776 950.552 67.0296 951.112 65.1116 951.112ZM65.1116 947.206C62.5356 947.206 60.9396 948.088 60.9396 949.614C60.9396 951.14 62.5356 952.022 65.1116 952.022C67.7016 952.022 69.3116 951.14 69.3116 949.614C69.3116 948.088 67.7016 947.206 65.1116 947.206ZM78.3965 944.84C78.7185 943.188 78.7185 941.942 78.7185 941.116V940.458H72.4745V941.396H77.5985C77.5985 942.194 77.5565 943.272 77.2625 944.714L78.3965 944.84ZM79.5865 945.596C78.3125 945.764 76.8845 945.876 75.5125 945.932V943.258H74.3785V945.974C73.4265 945.988 72.5165 946.002 71.7185 946.002L71.8305 946.94C74.0565 946.94 77.0665 946.87 79.6705 946.436L79.5865 945.596ZM74.7845 948.074H73.6365V951.756H81.9805V950.818H74.7845V948.074ZM81.5745 943.566V939.478H80.4265V948.942H81.5745V944.518H83.3665V943.566H81.5745ZM86.5575 945.12H91.1915V940.64H85.3675V941.578H90.0295V944.196H85.4095V949.012H86.4455C88.6015 949.012 90.5055 948.928 92.7735 948.55L92.6615 947.612C90.4635 947.962 88.6155 948.06 86.5575 948.06V945.12ZM93.8375 939.464V952.05H94.9855V939.464H93.8375ZM105.274 944.938C103.524 945.232 102.04 945.288 99.4224 945.288V943.636H103.916V942.726H99.4224V941.172H104.266V940.248H98.2744V946.212H99.2964C102.04 946.212 103.566 946.156 105.4 945.848L105.274 944.938ZM100.864 948.522H106.744V950.944H100.864V948.522ZM99.7444 951.868H107.864V947.598H99.7444V951.868ZM106.716 939.492V946.982H107.864V939.492H106.716Z" fill="#222222"/>
<rect x="165.5" y="923.5" width="154" height="44" rx="4.5" fill="#F6F7FA" stroke="#D9D9D9"/>
<path d="M219.921 942.124C219.921 943.678 219.921 945.33 219.487 947.57L220.621 947.71C221.069 945.358 221.069 943.72 221.069 942.124V940.738H212.221V941.676H219.921V942.124ZM218.073 949.334V945.176H216.939V949.334H214.965V945.176H213.831V949.334H211.045V950.272H222.399V949.334H218.073ZM230.63 942.74V943.678H233.108V946.968H234.27V939.492H233.108V942.74H230.63ZM231.33 945.596C229.51 944.952 228.278 943.37 228.278 941.76V941.326H231.036V940.402H224.33V941.326H227.13V941.76C227.13 943.566 225.842 945.26 223.966 945.946L224.568 946.856C226.038 946.296 227.2 945.12 227.732 943.664C228.278 944.952 229.356 945.988 230.756 946.492L231.33 945.596ZM230.126 951.14C228.236 951.14 227.088 950.608 227.088 949.698C227.088 948.788 228.236 948.242 230.126 948.242C232.016 948.242 233.164 948.788 233.164 949.698C233.164 950.608 232.016 951.14 230.126 951.14ZM230.126 947.36C227.55 947.36 225.94 948.214 225.94 949.698C225.94 951.182 227.55 952.036 230.126 952.036C232.702 952.036 234.312 951.182 234.312 949.698C234.312 948.214 232.702 947.36 230.126 947.36ZM237.545 940.836V941.76H242.263C242.025 944.742 240.345 947.15 236.971 948.76L237.587 949.698C241.759 947.654 243.425 944.462 243.425 940.836H237.545ZM245.959 939.478V952.036H247.107V939.478H245.959ZM260.419 943.02C258.137 942.768 255.953 941.536 255.953 940.01V939.534H254.777V940.01C254.777 941.536 252.565 942.768 250.283 943.02L250.675 943.888C252.677 943.636 254.567 942.754 255.365 941.41C256.149 942.754 258.039 943.636 260.027 943.888L260.419 943.02ZM261.035 945.638V944.714H249.667V945.638H254.777V946.884H251.039V947.766H258.445V948.914H251.081V951.896H259.957V951H252.201V949.754H259.579V946.884H255.925V945.638H261.035ZM270.274 944.938C268.524 945.232 267.04 945.288 264.422 945.288V943.636H268.916V942.726H264.422V941.172H269.266V940.248H263.274V946.212H264.296C267.04 946.212 268.566 946.156 270.4 945.848L270.274 944.938ZM265.864 948.522H271.744V950.944H265.864V948.522ZM264.744 951.868H272.864V947.598H264.744V951.868ZM271.716 939.492V946.982H272.864V939.492H271.716Z" fill="#222222"/>
<rect y="251" width="320" height="45" rx="5" fill="#1F2085"/>
<path d="M150.467 276.284H149.319V279.756H157.957V278.818H150.467V276.284ZM150.495 270.46H156.599V272.07H150.495V270.46ZM154.121 274.338V272.994H157.733V267.968H156.599V269.564H150.495V267.968H149.361V272.994H152.973V274.338H147.849V275.276H159.217V274.338H154.121ZM164.956 268.57H163.822V270.824C163.822 273.106 162.394 275.514 160.588 276.438L161.274 277.362C162.688 276.606 163.85 275.038 164.396 273.204C164.97 274.926 166.104 276.396 167.434 277.11L168.148 276.2C166.384 275.318 164.956 273.036 164.956 270.824V268.57ZM172.474 272.574H170.402V267.492H169.254V280.036H170.402V273.526H172.474V272.574Z" fill="white"/>
<rect x="165.5" y="478.5" width="154" height="44" rx="4.5" fill="#F6F7FA" stroke="#D9D9D9"/>
<path d="M219.907 496.984C219.907 498.496 219.907 500.26 219.431 502.668L220.579 502.794C221.055 500.26 221.055 498.538 221.055 496.984V495.738H212.249V496.676H219.907V496.984ZM216.617 504.334V499.84H215.469V504.334H211.059V505.272H222.413V504.334H216.617ZM224.484 495.416V496.34H228.208C227.998 498.426 226.556 500.12 223.994 501.17L224.554 502.01C227.732 500.666 229.384 498.412 229.384 495.416H224.484ZM226.08 503.41H233.374V507.036H234.522V502.472H226.08V503.41ZM233.416 494.492V497.642H231.764V494.716H230.672V501.814H231.764V498.58H233.416V501.87H234.522V494.492H233.416ZM241.283 496.718H244.237V495.766H237.223V496.718H240.135V498.314C240.135 500.484 238.609 502.85 236.803 503.704L237.475 504.628C238.903 503.9 240.135 502.318 240.709 500.484C241.311 502.206 242.543 503.648 243.999 504.32L244.643 503.396C242.795 502.612 241.283 500.442 241.283 498.314V496.718ZM245.931 494.492V507.036H247.079V494.492H245.931ZM256.261 501.898V502.752H258.809V504.04H259.957V494.478H258.809V501.898H256.261ZM253.699 495.836C254.889 495.836 255.701 496.368 255.701 497.166C255.701 497.978 254.889 498.51 253.699 498.51C252.509 498.51 251.697 497.978 251.697 497.166C251.697 496.368 252.509 495.836 253.699 495.836ZM253.699 499.364C255.533 499.364 256.793 498.51 256.793 497.166C256.793 495.85 255.533 494.982 253.699 494.982C251.865 494.982 250.605 495.85 250.605 497.166C250.605 498.51 251.865 499.364 253.699 499.364ZM253.251 503.592H254.399V501.114C255.533 501.044 256.695 500.918 257.801 500.75L257.703 499.924C255.043 500.26 251.935 500.288 249.611 500.288L249.765 501.24C250.801 501.24 252.005 501.226 253.251 501.17V503.592ZM252.551 505.818V503.102H251.403V506.756H260.279V505.818H252.551ZM270.274 499.938C268.524 500.232 267.04 500.288 264.422 500.288V498.636H268.916V497.726H264.422V496.172H269.266V495.248H263.274V501.212H264.296C267.04 501.212 268.566 501.156 270.4 500.848L270.274 499.938ZM265.864 503.522H271.744V505.944H265.864V503.522ZM264.744 506.868H272.864V502.598H264.744V506.868ZM271.716 494.492V501.982H272.864V494.492H271.716Z" fill="#222222"/>
<rect x="165.5" y="426.5" width="154" height="44" rx="4.5" fill="#F6F7FA" stroke="#D9D9D9"/>
<path d="M211.787 443.836V444.76H216.505C216.267 447.742 214.587 450.15 211.213 451.76L211.829 452.698C216.001 450.654 217.667 447.462 217.667 443.836H211.787ZM220.201 442.478V455.036H221.349V442.478H220.201ZM234.662 446.02C232.38 445.768 230.196 444.536 230.196 443.01V442.534H229.02V443.01C229.02 444.536 226.808 445.768 224.526 446.02L224.918 446.888C226.92 446.636 228.81 445.754 229.608 444.41C230.392 445.754 232.282 446.636 234.27 446.888L234.662 446.02ZM235.278 448.638V447.714H223.91V448.638H229.02V449.884H225.282V450.766H232.688V451.914H225.324V454.896H234.2V454H226.444V452.754H233.822V449.884H230.168V448.638H235.278ZM238.091 446.202C238.091 445.04 239.015 444.2 240.233 444.2C241.465 444.2 242.361 445.04 242.361 446.202C242.361 447.378 241.465 448.218 240.233 448.218C239.015 448.218 238.091 447.378 238.091 446.202ZM245.987 445.222V447.182H243.285C243.397 446.874 243.453 446.552 243.453 446.202C243.453 445.838 243.397 445.516 243.299 445.222H245.987ZM245.987 448.12V449.912H247.149V442.478H245.987V444.284H242.767C242.193 443.64 241.297 443.234 240.233 443.234C238.371 443.234 236.999 444.452 236.999 446.202C236.999 447.966 238.371 449.198 240.233 449.198C241.297 449.198 242.193 448.792 242.767 448.12H245.987ZM242.991 454.112C241.101 454.112 239.953 453.552 239.953 452.614C239.953 451.662 241.101 451.102 242.991 451.102C244.909 451.102 246.057 451.662 246.057 452.614C246.057 453.552 244.909 454.112 242.991 454.112ZM242.991 450.206C240.415 450.206 238.819 451.088 238.819 452.614C238.819 454.14 240.415 455.022 242.991 455.022C245.581 455.022 247.191 454.14 247.191 452.614C247.191 451.088 245.581 450.206 242.991 450.206ZM258.879 453.944H253.125V452.32H258.879V453.944ZM258.879 451.424H253.125V449.828H251.991V454.868H260.027V449.828H258.879V451.424ZM253.111 447.924C251.865 447.924 250.969 447.112 250.969 445.964C250.969 444.816 251.865 444.018 253.111 444.018C254.357 444.018 255.253 444.816 255.253 445.964C255.253 447.112 254.357 447.924 253.111 447.924ZM258.865 442.492V445.474H256.303C256.065 444.018 254.805 443.066 253.111 443.066C251.235 443.066 249.877 444.242 249.877 445.964C249.877 447.7 251.235 448.876 253.111 448.876C254.833 448.876 256.093 447.896 256.317 446.412H258.865V449.226H260.027V442.492H258.865ZM270.274 447.938C268.524 448.232 267.04 448.288 264.422 448.288V446.636H268.916V445.726H264.422V444.172H269.266V443.248H263.274V449.212H264.296C267.04 449.212 268.566 449.156 270.4 448.848L270.274 447.938ZM265.864 451.522H271.744V453.944H265.864V451.522ZM264.744 454.868H272.864V450.598H264.744V454.868ZM271.716 442.492V449.982H272.864V442.492H271.716Z" fill="#222222"/>
<rect x="165" y="371" width="155" height="45" rx="5" fill="#1141BB"/>
<path d="M213.967 389.984C213.967 391.496 213.967 393.26 213.491 395.668L214.639 395.794C215.115 393.26 215.115 391.538 215.115 389.984V388.738H206.309V389.676H213.967V389.984ZM210.677 397.334V392.84H209.529V397.334H205.119V398.272H216.473V397.334H210.677ZM218.544 388.416V389.34H222.268C222.058 391.426 220.616 393.12 218.054 394.17L218.614 395.01C221.792 393.666 223.444 391.412 223.444 388.416H218.544ZM220.14 396.41H227.434V400.036H228.582V395.472H220.14V396.41ZM227.476 387.492V390.642H225.824V387.716H224.732V394.814H225.824V391.58H227.476V394.87H228.582V387.492H227.476ZM235.343 389.718H238.297V388.766H231.283V389.718H234.195V391.314C234.195 393.484 232.669 395.85 230.863 396.704L231.535 397.628C232.963 396.9 234.195 395.318 234.769 393.484C235.371 395.206 236.603 396.648 238.059 397.32L238.703 396.396C236.855 395.612 235.343 393.442 235.343 391.314V389.718ZM239.991 387.492V400.036H241.139V387.492H239.991ZM250.322 394.898V395.752H252.87V397.04H254.018V387.478H252.87V394.898H250.322ZM247.76 388.836C248.95 388.836 249.762 389.368 249.762 390.166C249.762 390.978 248.95 391.51 247.76 391.51C246.57 391.51 245.758 390.978 245.758 390.166C245.758 389.368 246.57 388.836 247.76 388.836ZM247.76 392.364C249.594 392.364 250.854 391.51 250.854 390.166C250.854 388.85 249.594 387.982 247.76 387.982C245.926 387.982 244.666 388.85 244.666 390.166C244.666 391.51 245.926 392.364 247.76 392.364ZM247.312 396.592H248.46V394.114C249.594 394.044 250.756 393.918 251.862 393.75L251.764 392.924C249.104 393.26 245.996 393.288 243.672 393.288L243.826 394.24C244.862 394.24 246.066 394.226 247.312 394.17V396.592ZM246.612 398.818V396.102H245.464V399.756H254.34V398.818H246.612ZM259.225 396.284H258.077V399.756H266.715V398.818H259.225V396.284ZM259.253 390.46H265.357V392.07H259.253V390.46ZM262.879 394.338V392.994H266.491V387.968H265.357V389.564H259.253V387.968H258.119V392.994H261.731V394.338H256.607V395.276H267.975V394.338H262.879ZM278.292 392.476H272.062V390.628H278.292V392.476ZM279.44 387.982H278.292V389.704H272.062V387.982H270.928V393.414H279.44V387.982ZM280.882 394.926H269.486V395.85H274.582V400.05H275.73V395.85H280.882V394.926Z" fill="white"/>
<rect x="0.5" y="588.5" width="154" height="44" rx="4.5" fill="#F6F7FA" stroke="#D9D9D9"/>
<path d="M48.6487 613.13H47.5007V616.756H56.1387V615.818H48.6487V613.13ZM48.4807 607.362C48.4807 606.368 49.7407 605.78 51.7287 605.78C53.6887 605.78 54.9487 606.368 54.9487 607.362C54.9487 608.356 53.6887 608.93 51.7287 608.93C49.7407 608.93 48.4807 608.356 48.4807 607.362ZM52.3027 611.156V609.84C54.6407 609.714 56.1247 608.804 56.1247 607.362C56.1247 605.794 54.4027 604.856 51.7287 604.856C49.0267 604.856 47.3047 605.794 47.3047 607.362C47.3047 608.818 48.7887 609.714 51.1547 609.84V611.156H46.0447V612.094H57.3847V611.156H52.3027ZM65.1816 614.502V611.282H69.0036V610.358H61.5136V606.424H68.8776V605.486H60.3656V611.282H64.0196V614.502H58.9096V615.454H70.3196V614.502H65.1816ZM76.1005 611.59H78.8305V614.572H76.1005V611.59ZM75.9045 606.564H79.0265V610.666H75.9045V606.564ZM79.9785 614.572V611.59H82.1065V610.666H80.1745V606.564H82.1205V605.64H72.8105V606.564H74.7565V610.666H72.8385V611.59H74.9525V614.572H71.7885V615.51H83.1845V614.572H79.9785ZM85.8015 610.036C87.8315 609.728 89.6795 608.72 90.3655 607.264C91.0375 608.72 92.8855 609.728 94.9295 610.036L95.3495 609.112C93.1375 608.818 91.1075 607.572 91.1075 606.046V606.032H95.0135V605.108H85.7175V606.032H89.6235V606.046C89.6235 607.572 87.5935 608.818 85.3675 609.112L85.8015 610.036ZM87.2575 613.2H86.1095V616.756H94.7895V615.818H87.2575V613.2ZM84.6535 610.946V611.87H89.8755V614.418H91.0235V611.87H96.0495V610.946H84.6535ZM105.274 609.938C103.524 610.232 102.04 610.288 99.4224 610.288V608.636H103.916V607.726H99.4224V606.172H104.266V605.248H98.2744V611.212H99.2964C102.04 611.212 103.566 611.156 105.4 610.848L105.274 609.938ZM100.864 613.522H106.744V615.944H100.864V613.522ZM99.7444 616.868H107.864V612.598H99.7444V616.868ZM106.716 604.492V611.982H107.864V604.492H106.716Z" fill="#222222"/>
<rect x="0.5" y="533.5" width="154" height="44" rx="4.5" fill="#F6F7FA" stroke="#D9D9D9"/>
<path d="M52.7087 552.95V553.888H55.2287V558.69H56.3907V549.492H55.2287V552.95H52.7087ZM53.4507 555.904C51.6307 555.26 50.3987 553.692 50.3987 552.054V551.438H53.1567V550.5H46.4507V551.438H49.2507V552.068C49.2507 553.846 47.9487 555.512 46.0867 556.184L46.6887 557.08C48.1587 556.548 49.3067 555.386 49.8527 553.958C50.3987 555.246 51.4767 556.296 52.8767 556.8L53.4507 555.904ZM49.5167 560.818V557.878H48.3547V561.756H56.7407V560.818H49.5167ZM59.6656 550.836V551.76H64.3836C64.1456 554.742 62.4656 557.15 59.0916 558.76L59.7076 559.698C63.8796 557.654 65.5456 554.462 65.5456 550.836H59.6656ZM68.0796 549.478V562.036H69.2276V549.478H68.0796ZM76.1005 556.59H78.8305V559.572H76.1005V556.59ZM75.9045 551.564H79.0265V555.666H75.9045V551.564ZM79.9785 559.572V556.59H82.1065V555.666H80.1745V551.564H82.1205V550.64H72.8105V551.564H74.7565V555.666H72.8385V556.59H74.9525V559.572H71.7885V560.51H83.1845V559.572H79.9785ZM85.8015 555.036C87.8315 554.728 89.6795 553.72 90.3655 552.264C91.0375 553.72 92.8855 554.728 94.9295 555.036L95.3495 554.112C93.1375 553.818 91.1075 552.572 91.1075 551.046V551.032H95.0135V550.108H85.7175V551.032H89.6235V551.046C89.6235 552.572 87.5935 553.818 85.3675 554.112L85.8015 555.036ZM87.2575 558.2H86.1095V561.756H94.7895V560.818H87.2575V558.2ZM84.6535 555.946V556.87H89.8755V559.418H91.0235V556.87H96.0495V555.946H84.6535ZM105.274 554.938C103.524 555.232 102.04 555.288 99.4224 555.288V553.636H103.916V552.726H99.4224V551.172H104.266V550.248H98.2744V556.212H99.2964C102.04 556.212 103.566 556.156 105.4 555.848L105.274 554.938ZM100.864 558.522H106.744V560.944H100.864V558.522ZM99.7444 561.868H107.864V557.598H99.7444V561.868ZM106.716 549.492V556.982H107.864V549.492H106.716Z" fill="#222222"/>
<rect x="0.5" y="478.5" width="154" height="44" rx="4.5" fill="#F6F7FA" stroke="#D9D9D9"/>
<path d="M56.3487 494.478H55.2007V500.89H56.3487V494.478ZM46.8847 495.094V496.032H51.3507C51.1687 498.034 49.3907 499.532 46.2547 500.218L46.6747 501.142C50.3707 500.302 52.5967 498.286 52.5967 495.094H46.8847ZM49.3907 506V504.544H56.3487V501.492H48.2147V502.402H55.2007V503.69H48.2427V506.91H56.7687V506H49.3907ZM68.0516 494.478V507.064H69.1996V494.478H68.0516ZM62.5776 495.444C60.7156 495.444 59.3856 497.152 59.3856 499.826C59.3856 502.5 60.7156 504.208 62.5776 504.208C64.4396 504.208 65.7696 502.5 65.7696 499.826C65.7696 497.152 64.4396 495.444 62.5776 495.444ZM62.5776 496.48C63.7956 496.48 64.6636 497.796 64.6636 499.826C64.6636 501.87 63.7956 503.186 62.5776 503.186C61.3456 503.186 60.4776 501.87 60.4776 499.826C60.4776 497.796 61.3456 496.48 62.5776 496.48ZM76.1005 501.59H78.8305V504.572H76.1005V501.59ZM75.9045 496.564H79.0265V500.666H75.9045V496.564ZM79.9785 504.572V501.59H82.1065V500.666H80.1745V496.564H82.1205V495.64H72.8105V496.564H74.7565V500.666H72.8385V501.59H74.9525V504.572H71.7885V505.51H83.1845V504.572H79.9785ZM85.8015 500.036C87.8315 499.728 89.6795 498.72 90.3655 497.264C91.0375 498.72 92.8855 499.728 94.9295 500.036L95.3495 499.112C93.1375 498.818 91.1075 497.572 91.1075 496.046V496.032H95.0135V495.108H85.7175V496.032H89.6235V496.046C89.6235 497.572 87.5935 498.818 85.3675 499.112L85.8015 500.036ZM87.2575 503.2H86.1095V506.756H94.7895V505.818H87.2575V503.2ZM84.6535 500.946V501.87H89.8755V504.418H91.0235V501.87H96.0495V500.946H84.6535ZM105.274 499.938C103.524 500.232 102.04 500.288 99.4224 500.288V498.636H103.916V497.726H99.4224V496.172H104.266V495.248H98.2744V501.212H99.2964C102.04 501.212 103.566 501.156 105.4 500.848L105.274 499.938ZM100.864 503.522H106.744V505.944H100.864V503.522ZM99.7444 506.868H107.864V502.598H99.7444V506.868ZM106.716 494.492V501.982H107.864V494.492H106.716Z" fill="#222222"/>
<rect x="0.5" y="426.5" width="154" height="44" rx="4.5" fill="#F6F7FA" stroke="#D9D9D9"/>
<path d="M47.9907 451.508H55.2287V455.05H56.3907V450.57H47.9907V451.508ZM52.5547 447.14C52.6387 446.846 52.6947 446.538 52.6947 446.188C52.6947 445.852 52.6387 445.544 52.5547 445.25H55.2287V447.14H52.5547ZM49.4607 448.246C48.2427 448.246 47.3327 447.392 47.3327 446.188C47.3327 445.012 48.2427 444.158 49.4607 444.158C50.6927 444.158 51.6027 445.012 51.6027 446.188C51.6027 447.392 50.6927 448.246 49.4607 448.246ZM55.2287 442.492V444.326H52.0647C51.4767 443.612 50.5527 443.178 49.4607 443.178C47.6127 443.178 46.2407 444.424 46.2407 446.188C46.2407 447.966 47.6127 449.226 49.4607 449.226C50.5527 449.226 51.4627 448.792 52.0507 448.078H55.2287V449.884H56.3907V442.478L55.2287 442.492ZM66.3716 443.808H63.2356V442.408H62.0876V443.808H58.9656V444.732H66.3716V443.808ZM60.7576 447.644C60.7576 446.818 61.5136 446.272 62.6616 446.272C63.8096 446.272 64.5796 446.818 64.5796 447.644C64.5796 448.484 63.8096 449.03 62.6616 449.03C61.5136 449.03 60.7576 448.484 60.7576 447.644ZM65.6716 447.644C65.6716 446.272 64.4536 445.376 62.6616 445.376C60.8836 445.376 59.6656 446.272 59.6656 447.644C59.6656 449.03 60.8836 449.912 62.6616 449.912C64.4536 449.912 65.6716 449.03 65.6716 447.644ZM60.5196 451.956H67.5196V455.05H68.6676V451.018H60.5196V451.956ZM70.5296 445.95H68.6676V442.492H67.5196V450.332H68.6676V446.902H70.5296V445.95ZM76.1005 449.59H78.8305V452.572H76.1005V449.59ZM75.9045 444.564H79.0265V448.666H75.9045V444.564ZM79.9785 452.572V449.59H82.1065V448.666H80.1745V444.564H82.1205V443.64H72.8105V444.564H74.7565V448.666H72.8385V449.59H74.9525V452.572H71.7885V453.51H83.1845V452.572H79.9785ZM85.8015 448.036C87.8315 447.728 89.6795 446.72 90.3655 445.264C91.0375 446.72 92.8855 447.728 94.9295 448.036L95.3495 447.112C93.1375 446.818 91.1075 445.572 91.1075 444.046V444.032H95.0135V443.108H85.7175V444.032H89.6235V444.046C89.6235 445.572 87.5935 446.818 85.3675 447.112L85.8015 448.036ZM87.2575 451.2H86.1095V454.756H94.7895V453.818H87.2575V451.2ZM84.6535 448.946V449.87H89.8755V452.418H91.0235V449.87H96.0495V448.946H84.6535ZM105.274 447.938C103.524 448.232 102.04 448.288 99.4224 448.288V446.636H103.916V445.726H99.4224V444.172H104.266V443.248H98.2744V449.212H99.2964C102.04 449.212 103.566 449.156 105.4 448.848L105.274 447.938ZM100.864 451.522H106.744V453.944H100.864V451.522ZM99.7444 454.868H107.864V450.598H99.7444V454.868ZM106.716 442.492V449.982H107.864V442.492H106.716Z" fill="#222222"/>
<rect y="371" width="155" height="45" rx="5" fill="#1141BB"/>
<path d="M48.9813 390.124C48.9813 391.678 48.9813 393.33 48.5473 395.57L49.6813 395.71C50.1293 393.358 50.1293 391.72 50.1293 390.124V388.738H41.2813V389.676H48.9813V390.124ZM47.1333 397.334V393.176H45.9993V397.334H44.0253V393.176H42.8913V397.334H40.1053V398.272H51.4593V397.334H47.1333ZM59.6902 390.74V391.678H62.1682V394.968H63.3302V387.492H62.1682V390.74H59.6902ZM60.3902 393.596C58.5702 392.952 57.3382 391.37 57.3382 389.76V389.326H60.0962V388.402H53.3902V389.326H56.1902V389.76C56.1902 391.566 54.9022 393.26 53.0262 393.946L53.6282 394.856C55.0982 394.296 56.2602 393.12 56.7922 391.664C57.3382 392.952 58.4162 393.988 59.8162 394.492L60.3902 393.596ZM59.1862 399.14C57.2962 399.14 56.1482 398.608 56.1482 397.698C56.1482 396.788 57.2962 396.242 59.1862 396.242C61.0762 396.242 62.2242 396.788 62.2242 397.698C62.2242 398.608 61.0762 399.14 59.1862 399.14ZM59.1862 395.36C56.6102 395.36 55.0002 396.214 55.0002 397.698C55.0002 399.182 56.6102 400.036 59.1862 400.036C61.7622 400.036 63.3722 399.182 63.3722 397.698C63.3722 396.214 61.7622 395.36 59.1862 395.36ZM66.6051 388.836V389.76H71.3231C71.0851 392.742 69.4051 395.15 66.0311 396.76L66.6471 397.698C70.8191 395.654 72.4851 392.462 72.4851 388.836H66.6051ZM75.0191 387.478V400.036H76.1671V387.478H75.0191ZM89.48 391.02C87.198 390.768 85.014 389.536 85.014 388.01V387.534H83.838V388.01C83.838 389.536 81.626 390.768 79.344 391.02L79.736 391.888C81.738 391.636 83.628 390.754 84.426 389.41C85.21 390.754 87.1 391.636 89.088 391.888L89.48 391.02ZM90.096 393.638V392.714H78.728V393.638H83.838V394.884H80.1V395.766H87.506V396.914H80.142V399.896H89.018V399H81.262V397.754H88.64V394.884H84.986V393.638H90.096ZM94.2249 396.284H93.0769V399.756H101.715V398.818H94.2249V396.284ZM94.2529 390.46H100.357V392.07H94.2529V390.46ZM97.8789 394.338V392.994H101.491V387.968H100.357V389.564H94.2529V387.968H93.1189V392.994H96.7309V394.338H91.6069V395.276H102.975V394.338H97.8789ZM113.292 392.476H107.062V390.628H113.292V392.476ZM114.44 387.982H113.292V389.704H107.062V387.982H105.928V393.414H114.44V387.982ZM115.882 394.926H104.486V395.85H109.582V400.05H110.73V395.85H115.882V394.926Z" fill="white"/>
<rect x="165" y="311" width="155" height="45" rx="5" fill="#1141BB"/>
<path d="M202.274 339H198.662V338.272L199.838 338.006V330.012L198.662 329.732V329.004H202.274V329.732L201.098 330.012V338.006L202.274 338.272V339ZM207.368 339H206.108V330.11H202.986V329.004H210.476V330.11H207.368V339ZM215.763 328.556H214.615V330.81C214.615 333.134 213.187 335.556 211.367 336.466L212.067 337.376C213.481 336.62 214.643 335.038 215.189 333.176C215.763 334.94 216.911 336.438 218.339 337.152L219.011 336.242C217.191 335.374 215.763 333.092 215.763 330.81V328.556ZM220.565 327.478V331.734H217.653V332.672H220.565V340.05H221.713V327.478H220.565ZM233.374 327.478V340.05H234.522V327.478H233.374ZM224.96 328.542V337.012H230.868V328.542H229.734V331.86H226.094V328.542H224.96ZM226.094 332.77H229.734V336.074H226.094V332.77ZM247.947 333.792C245.749 333.372 243.369 331.468 243.369 329.326V328.36H242.165V329.326C242.165 331.468 239.799 333.358 237.601 333.792L238.119 334.744C240.009 334.296 241.969 332.952 242.767 331.118C243.565 332.966 245.525 334.31 247.429 334.744L247.947 333.792ZM237.125 337.404V338.356H248.507V337.404H237.125ZM250.48 329.102V330.04H254.246C254.078 332.644 252.888 334.912 250.004 336.522L250.676 337.348C254.246 335.332 255.38 332.336 255.38 329.102H250.48ZM259.552 327.478V332.532H257.844V327.814H256.766V339.406H257.844V333.47H259.552V340.036H260.658V327.478H259.552ZM268.091 332.56H264.535V330.684H268.091V332.56ZM269.211 327.996H268.091V329.802H264.535V327.996H263.401V333.484H269.211V327.996ZM265.809 337.614H272.627V334.562H264.647V335.472H271.493V336.76H264.689V339.896H273.089V338.986H265.809V337.614ZM272.627 330.18V327.492H271.479V333.974H272.627V331.132H274.489V330.18H272.627ZM286.052 327.492H284.904V333.988H286.052V327.492ZM283.364 332.728C281.502 332.112 280.186 330.544 280.186 328.808V327.856H279.038V328.808C279.038 330.628 277.736 332.308 275.846 332.966L276.434 333.862C277.918 333.33 279.08 332.182 279.626 330.74C280.2 332.07 281.348 333.12 282.79 333.624L283.364 332.728ZM279.094 338.986V337.642H286.066V334.618H277.932V335.514H284.932V336.774H277.96V339.896H286.486V338.986H279.094Z" fill="white"/>
<rect y="311" width="155" height="45" rx="5" fill="#1141BB"/>
<path d="M55.2287 330.726V332.406H51.9387V333.344H55.2287V334.996H56.3907V327.492H55.2287V329.788H52.3867C52.4707 329.354 52.5267 328.892 52.5267 328.43H46.8567V329.354H51.2807C51.0707 331.524 49.2087 333.19 46.2127 334.086L46.6747 334.996C49.3767 334.212 51.2807 332.742 52.0927 330.726H55.2287ZM52.2887 339.084C50.4407 339.084 49.2647 338.51 49.2647 337.558C49.2647 336.62 50.4407 336.046 52.2887 336.046C54.1367 336.046 55.3127 336.62 55.3127 337.558C55.3127 338.51 54.1367 339.084 52.2887 339.084ZM52.2887 335.136C49.7547 335.136 48.1307 336.046 48.1307 337.558C48.1307 339.07 49.7547 339.98 52.2887 339.98C54.8227 339.98 56.4467 339.07 56.4467 337.558C56.4467 336.046 54.8227 335.136 52.2887 335.136ZM60.2116 331.202C60.2116 330.04 61.1356 329.2 62.3536 329.2C63.5856 329.2 64.4816 330.04 64.4816 331.202C64.4816 332.378 63.5856 333.218 62.3536 333.218C61.1356 333.218 60.2116 332.378 60.2116 331.202ZM68.1076 330.222V332.182H65.4056C65.5176 331.874 65.5736 331.552 65.5736 331.202C65.5736 330.838 65.5176 330.516 65.4196 330.222H68.1076ZM68.1076 333.12V334.912H69.2696V327.478H68.1076V329.284H64.8876C64.3136 328.64 63.4176 328.234 62.3536 328.234C60.4916 328.234 59.1196 329.452 59.1196 331.202C59.1196 332.966 60.4916 334.198 62.3536 334.198C63.4176 334.198 64.3136 333.792 64.8876 333.12H68.1076ZM65.1116 339.112C63.2216 339.112 62.0736 338.552 62.0736 337.614C62.0736 336.662 63.2216 336.102 65.1116 336.102C67.0296 336.102 68.1776 336.662 68.1776 337.614C68.1776 338.552 67.0296 339.112 65.1116 339.112ZM65.1116 335.206C62.5356 335.206 60.9396 336.088 60.9396 337.614C60.9396 339.14 62.5356 340.022 65.1116 340.022C67.7016 340.022 69.3116 339.14 69.3116 337.614C69.3116 336.088 67.7016 335.206 65.1116 335.206ZM78.3965 332.84C78.7185 331.188 78.7185 329.942 78.7185 329.116V328.458H72.4745V329.396H77.5985C77.5985 330.194 77.5565 331.272 77.2625 332.714L78.3965 332.84ZM79.5865 333.596C78.3125 333.764 76.8845 333.876 75.5125 333.932V331.258H74.3785V333.974C73.4265 333.988 72.5165 334.002 71.7185 334.002L71.8305 334.94C74.0565 334.94 77.0665 334.87 79.6705 334.436L79.5865 333.596ZM74.7845 336.074H73.6365V339.756H81.9805V338.818H74.7845V336.074ZM81.5745 331.566V327.478H80.4265V336.942H81.5745V332.518H83.3665V331.566H81.5745ZM86.5575 333.12H91.1915V328.64H85.3675V329.578H90.0295V332.196H85.4095V337.012H86.4455C88.6015 337.012 90.5055 336.928 92.7735 336.55L92.6615 335.612C90.4635 335.962 88.6155 336.06 86.5575 336.06V333.12ZM93.8375 327.464V340.05H94.9855V327.464H93.8375ZM105.274 332.938C103.524 333.232 102.04 333.288 99.4224 333.288V331.636H103.916V330.726H99.4224V329.172H104.266V328.248H98.2744V334.212H99.2964C102.04 334.212 103.566 334.156 105.4 333.848L105.274 332.938ZM100.864 336.522H106.744V338.944H100.864V336.522ZM99.7444 339.868H107.864V335.598H99.7444V339.868ZM106.716 327.492V334.982H107.864V327.492H106.716Z" fill="white"/>
<rect x="170.5" y="166.5" width="149" height="44" rx="22" fill="#ECF2FA" stroke="#1F2085"/>
<path d="M214.778 188.12C216.836 187.91 218.67 187.154 219.426 185.894C220.182 187.154 222.002 187.91 224.06 188.12L224.424 187.252C222.044 187.014 220.14 186.048 220.042 184.648H223.934V183.738H220V182.436H218.852V183.738H214.918V184.648H218.796C218.698 186.048 216.794 187.014 214.428 187.252L214.778 188.12ZM215.002 191.998H222.548V195.036H223.696V191.088H215.002V191.998ZM213.742 188.82V189.744H225.096V188.82H213.742ZM233.117 185.74V186.678H235.595V189.968H236.757V182.492H235.595V185.74H233.117ZM233.817 188.596C231.997 187.952 230.765 186.37 230.765 184.76V184.326H233.523V183.402H226.817V184.326H229.617V184.76C229.617 186.566 228.329 188.26 226.453 188.946L227.055 189.856C228.525 189.296 229.687 188.12 230.219 186.664C230.765 187.952 231.843 188.988 233.243 189.492L233.817 188.596ZM232.613 194.14C230.723 194.14 229.575 193.608 229.575 192.698C229.575 191.788 230.723 191.242 232.613 191.242C234.503 191.242 235.651 191.788 235.651 192.698C235.651 193.608 234.503 194.14 232.613 194.14ZM232.613 190.36C230.037 190.36 228.427 191.214 228.427 192.698C228.427 194.182 230.037 195.036 232.613 195.036C235.189 195.036 236.799 194.182 236.799 192.698C236.799 191.214 235.189 190.36 232.613 190.36ZM243.378 189.59H246.108V192.572H243.378V189.59ZM243.182 184.564H246.304V188.666H243.182V184.564ZM247.256 192.572V189.59H249.384V188.666H247.452V184.564H249.398V183.64H240.088V184.564H242.034V188.666H240.116V189.59H242.23V192.572H239.066V193.51H250.462V192.572H247.256ZM252.869 188.036C254.899 187.728 256.747 186.72 257.433 185.264C258.105 186.72 259.953 187.728 261.997 188.036L262.417 187.112C260.205 186.818 258.175 185.572 258.175 184.046V184.032H262.081V183.108H252.785V184.032H256.691V184.046C256.691 185.572 254.661 186.818 252.435 187.112L252.869 188.036ZM254.325 191.2H253.177V194.756H261.857V193.818H254.325V191.2ZM251.721 188.946V189.87H256.943V192.418H258.091V189.87H263.117V188.946H251.721ZM270.998 189.898V190.752H273.546V192.04H274.694V182.478H273.546V189.898H270.998ZM268.436 183.836C269.626 183.836 270.438 184.368 270.438 185.166C270.438 185.978 269.626 186.51 268.436 186.51C267.246 186.51 266.434 185.978 266.434 185.166C266.434 184.368 267.246 183.836 268.436 183.836ZM268.436 187.364C270.27 187.364 271.53 186.51 271.53 185.166C271.53 183.85 270.27 182.982 268.436 182.982C266.602 182.982 265.342 183.85 265.342 185.166C265.342 186.51 266.602 187.364 268.436 187.364ZM267.988 191.592H269.136V189.114C270.27 189.044 271.432 188.918 272.538 188.75L272.44 187.924C269.78 188.26 266.672 188.288 264.348 188.288L264.502 189.24C265.538 189.24 266.742 189.226 267.988 189.17V191.592ZM267.288 193.818V191.102H266.14V194.756H275.016V193.818H267.288Z" fill="#1F2085"/>
<rect x="0.5" y="166.5" width="149" height="44" rx="22" fill="#ECF2FA" stroke="#1F2085"/>
<path d="M52.5345 187.476H46.3045V185.628H52.5345V187.476ZM53.6825 182.982H52.5345V184.704H46.3045V182.982H45.1705V188.414H53.6825V182.982ZM55.1245 189.926H43.7285V190.85H48.8245V195.05H49.9725V190.85H55.1245V189.926ZM65.5954 188.974H66.7574V182.492H65.5954V184.76H62.8654V185.698H65.5954V188.974ZM63.7474 187.812C61.9414 187.21 60.6674 185.684 60.6674 184.046V182.884H59.5334V184.046C59.5334 185.866 58.2874 187.448 56.3974 188.092L56.9994 189.002C58.4694 188.456 59.6034 187.364 60.1354 185.95C60.6814 187.224 61.7734 188.218 63.1594 188.708L63.7474 187.812ZM59.8274 193.958V192.614H66.7574V189.604H58.6654V190.514H65.6234V191.746H58.6934V194.868H67.2334V193.958H59.8274ZM70.3683 186.426C70.3683 185.18 71.2783 184.284 72.5103 184.284C73.7283 184.284 74.6383 185.18 74.6383 186.426C74.6383 187.672 73.7283 188.568 72.5103 188.568C71.2783 188.568 70.3683 187.672 70.3683 186.426ZM78.2643 185.376V187.462H75.5623C75.6743 187.14 75.7303 186.79 75.7303 186.426C75.7303 186.048 75.6743 185.698 75.5623 185.376H78.2643ZM78.2643 188.386V191.76H79.4263V182.492H78.2643V184.452H75.0723C74.4843 183.724 73.5883 183.276 72.5103 183.276C70.6623 183.276 69.2763 184.592 69.2763 186.426C69.2763 188.26 70.6623 189.576 72.5103 189.576C73.5883 189.576 74.4983 189.128 75.0863 188.386H78.2643ZM72.5523 193.818V190.808H71.3903V194.756H79.7763V193.818H72.5523ZM93.1172 188.694H91.2552C91.6052 186.888 91.6052 185.558 91.6052 184.382V183.29H83.1772V184.214H90.4852V184.382C90.4852 185.558 90.4852 186.888 90.0932 188.694H81.7632V189.632H86.8312V195.05H87.9932V189.632H93.1172V188.694ZM105.254 188.61C103.056 188.218 100.662 186.37 100.662 184.284V183.318H99.4581V184.284C99.4581 186.37 97.0781 188.218 94.8801 188.61L95.3561 189.562C97.2881 189.156 99.2481 187.854 100.06 186.062C100.872 187.854 102.846 189.156 104.764 189.562L105.254 188.61ZM100.634 192.46V189.408H99.4861V192.46H94.4181V193.398H105.814V192.46H100.634Z" fill="#1F2085"/>
<circle cx="160" cy="72" r="68.5" fill="#1F2085" stroke="#E5E5FC" stroke-width="7"/>
<path d="M117.722 82.534C119.22 82.058 120.382 81.064 120.928 79.748C121.502 80.994 122.65 81.946 124.134 82.394L124.666 81.512C122.832 80.966 121.516 79.636 121.488 78.04H124.386V77.116H121.488V75.562H120.34V77.116H117.484V78.04H120.34C120.312 79.692 119.038 81.078 117.19 81.638L117.722 82.534ZM121.488 82.114H120.34V84.452C119.066 84.494 117.848 84.494 116.812 84.494L116.966 85.46C119.206 85.446 122.286 85.432 125.1 84.914L125.002 84.06C123.882 84.242 122.664 84.326 121.488 84.396V82.114ZM125.828 75.478V88.05H126.976V75.478H125.828ZM138.273 77.984C138.273 79.496 138.273 81.26 137.797 83.668L138.945 83.794C139.421 81.26 139.421 79.538 139.421 77.984V76.738H130.615V77.676H138.273V77.984ZM134.983 85.334V80.84H133.835V85.334H129.425V86.272H140.779V85.334H134.983ZM151.264 78.726V80.406H147.974V81.344H151.264V82.996H152.426V75.492H151.264V77.788H148.422C148.506 77.354 148.562 76.892 148.562 76.43H142.892V77.354H147.316C147.106 79.524 145.244 81.19 142.248 82.086L142.71 82.996C145.412 82.212 147.316 80.742 148.128 78.726H151.264ZM148.324 87.084C146.476 87.084 145.3 86.51 145.3 85.558C145.3 84.62 146.476 84.046 148.324 84.046C150.172 84.046 151.348 84.62 151.348 85.558C151.348 86.51 150.172 87.084 148.324 87.084ZM148.324 83.136C145.79 83.136 144.166 84.046 144.166 85.558C144.166 87.07 145.79 87.98 148.324 87.98C150.858 87.98 152.482 87.07 152.482 85.558C152.482 84.046 150.858 83.136 148.324 83.136ZM156.037 79.202C156.037 78.04 156.961 77.2 158.179 77.2C159.411 77.2 160.307 78.04 160.307 79.202C160.307 80.378 159.411 81.218 158.179 81.218C156.961 81.218 156.037 80.378 156.037 79.202ZM163.933 78.222V80.182H161.231C161.343 79.874 161.399 79.552 161.399 79.202C161.399 78.838 161.343 78.516 161.245 78.222H163.933ZM163.933 81.12V82.912H165.095V75.478H163.933V77.284H160.713C160.139 76.64 159.243 76.234 158.179 76.234C156.317 76.234 154.945 77.452 154.945 79.202C154.945 80.966 156.317 82.198 158.179 82.198C159.243 82.198 160.139 81.792 160.713 81.12H163.933ZM160.937 87.112C159.047 87.112 157.899 86.552 157.899 85.614C157.899 84.662 159.047 84.102 160.937 84.102C162.855 84.102 164.003 84.662 164.003 85.614C164.003 86.552 162.855 87.112 160.937 87.112ZM160.937 83.206C158.361 83.206 156.765 84.088 156.765 85.614C156.765 87.14 158.361 88.022 160.937 88.022C163.527 88.022 165.137 87.14 165.137 85.614C165.137 84.088 163.527 83.206 160.937 83.206ZM173.676 81.708C172.08 81.106 171.128 79.678 171.128 78.194V78.054H173.368V77.13H171.128V75.618H170.036V77.13H167.768V78.054H170.036V78.194C170.036 79.776 169.112 81.302 167.516 81.96L168.076 82.8C169.322 82.282 170.19 81.274 170.596 80.042C171.044 81.176 171.912 82.1 173.13 82.59L173.676 81.708ZM169.574 84.788H176.868V88.036H178.016V83.85H169.574V84.788ZM176.91 75.492V78.838H175.328V75.702H174.25V83.108H175.328V79.776H176.91V83.192H178.016V75.492H176.91ZM189.243 75.492V82.674H190.391V75.492H189.243ZM182.271 83.346V87.868H190.391V83.346H182.271ZM189.271 84.256V86.944H183.391V84.256H189.271ZM183.643 76.15C181.753 76.15 180.381 77.34 180.381 79.076C180.381 80.812 181.753 82.002 183.643 82.002C185.547 82.002 186.933 80.812 186.933 79.076C186.933 77.34 185.547 76.15 183.643 76.15ZM183.643 77.102C184.903 77.102 185.813 77.928 185.813 79.076C185.813 80.238 184.903 81.05 183.643 81.05C182.397 81.05 181.501 80.238 181.501 79.076C181.501 77.928 182.397 77.102 183.643 77.102ZM196.983 77.718H199.769V76.766H192.979V77.718H195.849V79.314C195.849 81.442 194.337 83.822 192.545 84.718L193.217 85.628C194.631 84.9 195.849 83.304 196.423 81.47C196.997 83.15 198.173 84.62 199.573 85.32L200.231 84.396C198.411 83.542 196.983 81.316 196.983 79.314V77.718ZM204.487 80.546H202.415V75.492H201.267V88.036H202.415V81.512H204.487V80.546Z" fill="white"/>
<path d="M137.786 56.292H140.74V54.794H135.966V63.306H136.862C138.514 63.306 139.886 63.25 141.454 62.956L141.314 61.458C140.082 61.682 138.99 61.752 137.786 61.78V56.292ZM144.912 53.296V58.266H143.75V53.548H142.028V65.602H143.75V59.75H144.912V66.204H146.662V53.296H144.912ZM152.975 60.884H155.201V63.306H152.975V60.884ZM152.765 55.802H155.397V59.428H152.765V55.802ZM157.035 63.306V60.884H158.953V59.428H157.231V55.802H158.981V54.332H149.181V55.802H150.931V59.428H149.251V60.884H151.141V63.306H148.257V64.79H159.947V63.306H157.035ZM169.774 53.296V66.232H171.622V53.296H169.774ZM164.692 54.206C162.746 54.206 161.304 55.97 161.304 58.798C161.304 61.64 162.746 63.418 164.692 63.418C166.638 63.418 168.08 61.64 168.08 58.798C168.08 55.97 166.638 54.206 164.692 54.206ZM164.692 55.872C165.644 55.872 166.302 56.894 166.302 58.798C166.302 60.716 165.644 61.738 164.692 61.738C163.74 61.738 163.082 60.716 163.082 58.798C163.082 56.894 163.74 55.872 164.692 55.872ZM178.355 54.304H176.493V56.18C176.493 58.574 175.513 61.038 173.343 62.06L174.449 63.558C175.905 62.844 176.871 61.486 177.431 59.848C177.963 61.388 178.873 62.634 180.217 63.32L181.337 61.864C179.265 60.842 178.355 58.504 178.355 56.18V54.304ZM185.579 58.266H183.703V53.31H181.855V66.204H183.703V59.806H185.579V58.266Z" fill="white"/>
</svg>
