<svg width="320" height="1156" viewBox="0 0 320 1156" fill="none" xmlns="http://www.w3.org/2000/svg">
<path d="M160 144V251" stroke="#D9D9D9"/>
<path d="M170 189H150" stroke="#D9D9D9"/>
<rect y="1111" width="320" height="45" rx="5" fill="#1F2085"/>
<path d="M135.656 1128.82V1129.77H140.262C139.996 1132.74 138.274 1135.15 135.068 1136.76L135.698 1137.66C139.758 1135.63 141.396 1132.39 141.396 1128.82H135.656ZM146.66 1132.57H144.644V1127.48H143.496V1140.04H144.644V1133.53H146.66V1132.57ZM157.047 1135.22H158.209V1127.49H157.047V1129.72H154.975V1130.66H157.047V1131.97H154.975V1132.91H157.047V1135.22ZM150.593 1129.35H152.483V1133.43C151.853 1133.46 151.209 1133.48 150.593 1133.5V1129.35ZM155.241 1133.2C154.723 1133.27 154.163 1133.32 153.603 1133.36V1129.35H154.849V1128.43H148.241V1129.35H149.487V1133.51C148.927 1133.53 148.381 1133.53 147.905 1133.53L148.031 1134.48C150.061 1134.48 152.889 1134.44 155.311 1134.06L155.241 1133.2ZM154.065 1139.13C152.161 1139.13 151.027 1138.62 151.027 1137.74C151.027 1136.89 152.161 1136.37 154.065 1136.37C155.969 1136.37 157.103 1136.89 157.103 1137.74C157.103 1138.62 155.969 1139.13 154.065 1139.13ZM154.065 1135.49C151.461 1135.49 149.879 1136.3 149.879 1137.74C149.879 1139.2 151.461 1140.02 154.065 1140.02C156.655 1140.02 158.251 1139.2 158.251 1137.74C158.251 1136.3 156.655 1135.49 154.065 1135.49ZM165.222 1129.72H168.176V1128.77H161.162V1129.72H164.074V1131.31C164.074 1133.48 162.548 1135.85 160.742 1136.7L161.414 1137.63C162.842 1136.9 164.074 1135.32 164.648 1133.48C165.25 1135.21 166.482 1136.65 167.938 1137.32L168.582 1136.4C166.734 1135.61 165.222 1133.44 165.222 1131.31V1129.72ZM169.87 1127.49V1140.04H171.018V1127.49H169.87ZM177.835 1128.57H176.701V1130.82C176.701 1133.11 175.273 1135.51 173.467 1136.44L174.153 1137.36C175.567 1136.61 176.729 1135.04 177.275 1133.2C177.849 1134.93 178.983 1136.4 180.313 1137.11L181.027 1136.2C179.263 1135.32 177.835 1133.04 177.835 1130.82V1128.57ZM185.353 1132.57H183.281V1127.49H182.133V1140.04H183.281V1133.53H185.353V1132.57Z" fill="white"/>
<rect y="776" width="320" height="45" rx="5" fill="#1F2085"/>
<path d="M143.776 797.476H137.546V795.628H143.776V797.476ZM144.924 792.982H143.776V794.704H137.546V792.982H136.412V798.414H144.924V792.982ZM146.366 799.926H134.97V800.85H140.066V805.05H141.214V800.85H146.366V799.926ZM155.185 798.792C153.337 798.134 152.091 796.538 152.091 794.816V793.234H150.943V794.788C150.943 796.734 149.725 798.414 147.807 799.1L148.409 800.01C149.907 799.45 151.027 798.302 151.545 796.818C152.105 798.134 153.197 799.184 154.611 799.702L155.185 798.792ZM150.971 800.864H149.823V804.756H158.153V803.818H150.971V800.864ZM157.607 796.328V792.464H156.459V801.746H157.607V797.28H159.455V796.328H157.607ZM165.222 794.718H168.176V793.766H161.162V794.718H164.074V796.314C164.074 798.484 162.548 800.85 160.742 801.704L161.414 802.628C162.842 801.9 164.074 800.318 164.648 798.484C165.25 800.206 166.482 801.648 167.938 802.32L168.582 801.396C166.734 800.612 165.222 798.442 165.222 796.314V794.718ZM169.87 792.492V805.036H171.018V792.492H169.87ZM177.835 793.57H176.701V795.824C176.701 798.106 175.273 800.514 173.467 801.438L174.153 802.362C175.567 801.606 176.729 800.038 177.275 798.204C177.849 799.926 178.983 801.396 180.313 802.11L181.027 801.2C179.263 800.318 177.835 798.036 177.835 795.824V793.57ZM185.353 797.574H183.281V792.492H182.133V805.036H183.281V798.526H185.353V797.574Z" fill="white"/>
<rect x="0.5" y="831.5" width="154" height="44" rx="4.5" fill="#F6F7FA" stroke="#D9D9D9"/>
<path d="M51.7147 848.724C53.6467 848.724 54.9067 849.326 54.9067 850.32C54.9067 851.3 53.6467 851.902 51.7147 851.902C49.7967 851.902 48.5227 851.3 48.5227 850.32C48.5227 849.326 49.7967 848.724 51.7147 848.724ZM51.7147 852.84C54.3747 852.84 56.1107 851.874 56.1107 850.32C56.1107 848.766 54.3747 847.8 51.7147 847.8C49.0547 847.8 47.3187 848.766 47.3187 850.32C47.3187 851.874 49.0547 852.84 51.7147 852.84ZM48.6347 856.088H47.4867V859.756H56.1667V858.804H48.6347V856.088ZM46.0307 853.848V854.786H51.2387V857.32H52.4007V854.786H57.4127V853.848H46.0307ZM60.2116 851.202C60.2116 850.04 61.1356 849.2 62.3536 849.2C63.5856 849.2 64.4816 850.04 64.4816 851.202C64.4816 852.378 63.5856 853.218 62.3536 853.218C61.1356 853.218 60.2116 852.378 60.2116 851.202ZM68.1076 850.222V852.182H65.4056C65.5176 851.874 65.5736 851.552 65.5736 851.202C65.5736 850.838 65.5176 850.516 65.4196 850.222H68.1076ZM68.1076 853.12V854.912H69.2696V847.478H68.1076V849.284H64.8876C64.3136 848.64 63.4176 848.234 62.3536 848.234C60.4916 848.234 59.1196 849.452 59.1196 851.202C59.1196 852.966 60.4916 854.198 62.3536 854.198C63.4176 854.198 64.3136 853.792 64.8876 853.12H68.1076ZM65.1116 859.112C63.2216 859.112 62.0736 858.552 62.0736 857.614C62.0736 856.662 63.2216 856.102 65.1116 856.102C67.0296 856.102 68.1776 856.662 68.1776 857.614C68.1776 858.552 67.0296 859.112 65.1116 859.112ZM65.1116 855.206C62.5356 855.206 60.9396 856.088 60.9396 857.614C60.9396 859.14 62.5356 860.022 65.1116 860.022C67.7016 860.022 69.3116 859.14 69.3116 857.614C69.3116 856.088 67.7016 855.206 65.1116 855.206ZM78.3965 852.84C78.7185 851.188 78.7185 849.942 78.7185 849.116V848.458H72.4745V849.396H77.5985C77.5985 850.194 77.5565 851.272 77.2625 852.714L78.3965 852.84ZM79.5865 853.596C78.3125 853.764 76.8845 853.876 75.5125 853.932V851.258H74.3785V853.974C73.4265 853.988 72.5165 854.002 71.7185 854.002L71.8305 854.94C74.0565 854.94 77.0665 854.87 79.6705 854.436L79.5865 853.596ZM74.7845 856.074H73.6365V859.756H81.9805V858.818H74.7845V856.074ZM81.5745 851.566V847.478H80.4265V856.942H81.5745V852.518H83.3665V851.566H81.5745ZM86.5575 853.12H91.1915V848.64H85.3675V849.578H90.0295V852.196H85.4095V857.012H86.4455C88.6015 857.012 90.5055 856.928 92.7735 856.55L92.6615 855.612C90.4635 855.962 88.6155 856.06 86.5575 856.06V853.12ZM93.8375 847.464V860.05H94.9855V847.464H93.8375ZM105.274 852.938C103.524 853.232 102.04 853.288 99.4224 853.288V851.636H103.916V850.726H99.4224V849.172H104.266V848.248H98.2744V854.212H99.2964C102.04 854.212 103.566 854.156 105.4 853.848L105.274 852.938ZM100.864 856.522H106.744V858.944H100.864V856.522ZM99.7444 859.868H107.864V855.598H99.7444V859.868ZM106.716 847.492V854.982H107.864V847.492H106.716Z" fill="#222222"/>
<rect x="0.5" y="886.5" width="154" height="44" rx="4.5" fill="#F6F7FA" stroke="#D9D9D9"/>
<path d="M54.9207 905.124C54.9207 906.678 54.9207 908.33 54.4867 910.57L55.6207 910.71C56.0687 908.358 56.0687 906.72 56.0687 905.124V903.738H47.2207V904.676H54.9207V905.124ZM53.0727 912.334V908.176H51.9387V912.334H49.9647V908.176H48.8307V912.334H46.0447V913.272H57.3987V912.334H53.0727ZM65.6296 905.74V906.678H68.1076V909.968H69.2696V902.492H68.1076V905.74H65.6296ZM66.3296 908.596C64.5096 907.952 63.2776 906.37 63.2776 904.76V904.326H66.0356V903.402H59.3296V904.326H62.1296V904.76C62.1296 906.566 60.8416 908.26 58.9656 908.946L59.5676 909.856C61.0376 909.296 62.1996 908.12 62.7316 906.664C63.2776 907.952 64.3556 908.988 65.7556 909.492L66.3296 908.596ZM65.1256 914.14C63.2356 914.14 62.0876 913.608 62.0876 912.698C62.0876 911.788 63.2356 911.242 65.1256 911.242C67.0156 911.242 68.1636 911.788 68.1636 912.698C68.1636 913.608 67.0156 914.14 65.1256 914.14ZM65.1256 910.36C62.5496 910.36 60.9396 911.214 60.9396 912.698C60.9396 914.182 62.5496 915.036 65.1256 915.036C67.7016 915.036 69.3116 914.182 69.3116 912.698C69.3116 911.214 67.7016 910.36 65.1256 910.36ZM72.5445 903.836V904.76H77.2625C77.0245 907.742 75.3445 910.15 71.9705 911.76L72.5865 912.698C76.7585 910.654 78.4245 907.462 78.4245 903.836H72.5445ZM80.9585 902.478V915.036H82.1065V902.478H80.9585ZM95.4195 906.02C93.1375 905.768 90.9535 904.536 90.9535 903.01V902.534H89.7775V903.01C89.7775 904.536 87.5655 905.768 85.2835 906.02L85.6755 906.888C87.6775 906.636 89.5675 905.754 90.3655 904.41C91.1495 905.754 93.0395 906.636 95.0275 906.888L95.4195 906.02ZM96.0355 908.638V907.714H84.6675V908.638H89.7775V909.884H86.0395V910.766H93.4455V911.914H86.0815V914.896H94.9575V914H87.2015V912.754H94.5795V909.884H90.9255V908.638H96.0355ZM105.274 907.938C103.524 908.232 102.04 908.288 99.4224 908.288V906.636H103.916V905.726H99.4224V904.172H104.266V903.248H98.2744V909.212H99.2964C102.04 909.212 103.566 909.156 105.4 908.848L105.274 907.938ZM100.864 911.522H106.744V913.944H100.864V911.522ZM99.7444 914.868H107.864V910.598H99.7444V914.868ZM106.716 902.492V909.982H107.864V902.492H106.716Z" fill="#222222"/>
<rect x="165.5" y="831.5" width="154" height="44" rx="4.5" fill="#F6F7FA" stroke="#D9D9D9"/>
<path d="M225.212 851.202C225.212 850.04 226.136 849.2 227.354 849.2C228.586 849.2 229.482 850.04 229.482 851.202C229.482 852.378 228.586 853.218 227.354 853.218C226.136 853.218 225.212 852.378 225.212 851.202ZM233.108 850.222V852.182H230.406C230.518 851.874 230.574 851.552 230.574 851.202C230.574 850.838 230.518 850.516 230.42 850.222H233.108ZM233.108 853.12V854.912H234.27V847.478H233.108V849.284H229.888C229.314 848.64 228.418 848.234 227.354 848.234C225.492 848.234 224.12 849.452 224.12 851.202C224.12 852.966 225.492 854.198 227.354 854.198C228.418 854.198 229.314 853.792 229.888 853.12H233.108ZM230.112 859.112C228.222 859.112 227.074 858.552 227.074 857.614C227.074 856.662 228.222 856.102 230.112 856.102C232.03 856.102 233.178 856.662 233.178 857.614C233.178 858.552 232.03 859.112 230.112 859.112ZM230.112 855.206C227.536 855.206 225.94 856.088 225.94 857.614C225.94 859.14 227.536 860.022 230.112 860.022C232.702 860.022 234.312 859.14 234.312 857.614C234.312 856.088 232.702 855.206 230.112 855.206ZM246.001 858.944H240.247V857.32H246.001V858.944ZM246.001 856.424H240.247V854.828H239.113V859.868H247.149V854.828H246.001V856.424ZM240.233 852.924C238.987 852.924 238.091 852.112 238.091 850.964C238.091 849.816 238.987 849.018 240.233 849.018C241.479 849.018 242.375 849.816 242.375 850.964C242.375 852.112 241.479 852.924 240.233 852.924ZM245.987 847.492V850.474H243.425C243.187 849.018 241.927 848.066 240.233 848.066C238.357 848.066 236.999 849.242 236.999 850.964C236.999 852.7 238.357 853.876 240.233 853.876C241.955 853.876 243.215 852.896 243.439 851.412H245.987V854.226H247.149V847.492H245.987ZM257.395 852.938C255.645 853.232 254.161 853.288 251.543 853.288V851.636H256.037V850.726H251.543V849.172H256.387V848.248H250.395V854.212H251.417C254.161 854.212 255.687 854.156 257.521 853.848L257.395 852.938ZM252.985 856.522H258.865V858.944H252.985V856.522ZM251.865 859.868H259.985V855.598H251.865V859.868ZM258.837 847.492V854.982H259.985V847.492H258.837Z" fill="#222222"/>
<rect y="971" width="320" height="45" rx="5" fill="#1F2085"/>
<path d="M136.566 989.942H140.108V989.004H135.432V996.942H136.258C138.134 996.942 139.408 996.886 140.906 996.564L140.808 995.612C139.436 995.906 138.246 995.976 136.566 995.99V989.942ZM144.546 987.478V992.518H142.768V987.758H141.69V999.406H142.768V993.456H144.546V1000.04H145.652V987.478H144.546ZM154.527 990.95V991.888H157.047V996.69H158.209V987.492H157.047V990.95H154.527ZM155.269 993.904C153.449 993.26 152.217 991.692 152.217 990.054V989.438H154.975V988.5H148.269V989.438H151.069V990.068C151.069 991.846 149.767 993.512 147.905 994.184L148.507 995.08C149.977 994.548 151.125 993.386 151.671 991.958C152.217 993.246 153.295 994.296 154.695 994.8L155.269 993.904ZM151.335 998.818V995.878H150.173V999.756H158.559V998.818H151.335ZM165.222 989.718H168.176V988.766H161.162V989.718H164.074V991.314C164.074 993.484 162.548 995.85 160.742 996.704L161.414 997.628C162.842 996.9 164.074 995.318 164.648 993.484C165.25 995.206 166.482 996.648 167.938 997.32L168.582 996.396C166.734 995.612 165.222 993.442 165.222 991.314V989.718ZM169.87 987.492V1000.04H171.018V987.492H169.87ZM177.835 988.57H176.701V990.824C176.701 993.106 175.273 995.514 173.467 996.438L174.153 997.362C175.567 996.606 176.729 995.038 177.275 993.204C177.849 994.926 178.983 996.396 180.313 997.11L181.027 996.2C179.263 995.318 177.835 993.036 177.835 990.824V988.57ZM185.353 992.574H183.281V987.492H182.133V1000.04H183.281V993.526H185.353V992.574Z" fill="white"/>
<rect x="0.5" y="1026.5" width="154" height="44" rx="4.5" fill="#F6F7FA" stroke="#D9D9D9"/>
<path d="M51.7147 1043.72C53.6467 1043.72 54.9067 1044.33 54.9067 1045.32C54.9067 1046.3 53.6467 1046.9 51.7147 1046.9C49.7967 1046.9 48.5227 1046.3 48.5227 1045.32C48.5227 1044.33 49.7967 1043.72 51.7147 1043.72ZM51.7147 1047.84C54.3747 1047.84 56.1107 1046.87 56.1107 1045.32C56.1107 1043.77 54.3747 1042.8 51.7147 1042.8C49.0547 1042.8 47.3187 1043.77 47.3187 1045.32C47.3187 1046.87 49.0547 1047.84 51.7147 1047.84ZM48.6347 1051.09H47.4867V1054.76H56.1667V1053.8H48.6347V1051.09ZM46.0307 1048.85V1049.79H51.2387V1052.32H52.4007V1049.79H57.4127V1048.85H46.0307ZM60.2116 1046.2C60.2116 1045.04 61.1356 1044.2 62.3536 1044.2C63.5856 1044.2 64.4816 1045.04 64.4816 1046.2C64.4816 1047.38 63.5856 1048.22 62.3536 1048.22C61.1356 1048.22 60.2116 1047.38 60.2116 1046.2ZM68.1076 1045.22V1047.18H65.4056C65.5176 1046.87 65.5736 1046.55 65.5736 1046.2C65.5736 1045.84 65.5176 1045.52 65.4196 1045.22H68.1076ZM68.1076 1048.12V1049.91H69.2696V1042.48H68.1076V1044.28H64.8876C64.3136 1043.64 63.4176 1043.23 62.3536 1043.23C60.4916 1043.23 59.1196 1044.45 59.1196 1046.2C59.1196 1047.97 60.4916 1049.2 62.3536 1049.2C63.4176 1049.2 64.3136 1048.79 64.8876 1048.12H68.1076ZM65.1116 1054.11C63.2216 1054.11 62.0736 1053.55 62.0736 1052.61C62.0736 1051.66 63.2216 1051.1 65.1116 1051.1C67.0296 1051.1 68.1776 1051.66 68.1776 1052.61C68.1776 1053.55 67.0296 1054.11 65.1116 1054.11ZM65.1116 1050.21C62.5356 1050.21 60.9396 1051.09 60.9396 1052.61C60.9396 1054.14 62.5356 1055.02 65.1116 1055.02C67.7016 1055.02 69.3116 1054.14 69.3116 1052.61C69.3116 1051.09 67.7016 1050.21 65.1116 1050.21ZM78.3965 1047.84C78.7185 1046.19 78.7185 1044.94 78.7185 1044.12V1043.46H72.4745V1044.4H77.5985C77.5985 1045.19 77.5565 1046.27 77.2625 1047.71L78.3965 1047.84ZM79.5865 1048.6C78.3125 1048.76 76.8845 1048.88 75.5125 1048.93V1046.26H74.3785V1048.97C73.4265 1048.99 72.5165 1049 71.7185 1049L71.8305 1049.94C74.0565 1049.94 77.0665 1049.87 79.6705 1049.44L79.5865 1048.6ZM74.7845 1051.07H73.6365V1054.76H81.9805V1053.82H74.7845V1051.07ZM81.5745 1046.57V1042.48H80.4265V1051.94H81.5745V1047.52H83.3665V1046.57H81.5745ZM86.5575 1048.12H91.1915V1043.64H85.3675V1044.58H90.0295V1047.2H85.4095V1052.01H86.4455C88.6015 1052.01 90.5055 1051.93 92.7735 1051.55L92.6615 1050.61C90.4635 1050.96 88.6155 1051.06 86.5575 1051.06V1048.12ZM93.8375 1042.46V1055.05H94.9855V1042.46H93.8375ZM105.274 1047.94C103.524 1048.23 102.04 1048.29 99.4224 1048.29V1046.64H103.916V1045.73H99.4224V1044.17H104.266V1043.25H98.2744V1049.21H99.2964C102.04 1049.21 103.566 1049.16 105.4 1048.85L105.274 1047.94ZM100.864 1051.52H106.744V1053.94H100.864V1051.52ZM99.7444 1054.87H107.864V1050.6H99.7444V1054.87ZM106.716 1042.49V1049.98H107.864V1042.49H106.716Z" fill="#222222"/>
<rect x="165.5" y="1026.5" width="154" height="44" rx="4.5" fill="#F6F7FA" stroke="#D9D9D9"/>
<path d="M219.921 1045.12C219.921 1046.68 219.921 1048.33 219.487 1050.57L220.621 1050.71C221.069 1048.36 221.069 1046.72 221.069 1045.12V1043.74H212.221V1044.68H219.921V1045.12ZM218.073 1052.33V1048.18H216.939V1052.33H214.965V1048.18H213.831V1052.33H211.045V1053.27H222.399V1052.33H218.073ZM230.63 1045.74V1046.68H233.108V1049.97H234.27V1042.49H233.108V1045.74H230.63ZM231.33 1048.6C229.51 1047.95 228.278 1046.37 228.278 1044.76V1044.33H231.036V1043.4H224.33V1044.33H227.13V1044.76C227.13 1046.57 225.842 1048.26 223.966 1048.95L224.568 1049.86C226.038 1049.3 227.2 1048.12 227.732 1046.66C228.278 1047.95 229.356 1048.99 230.756 1049.49L231.33 1048.6ZM230.126 1054.14C228.236 1054.14 227.088 1053.61 227.088 1052.7C227.088 1051.79 228.236 1051.24 230.126 1051.24C232.016 1051.24 233.164 1051.79 233.164 1052.7C233.164 1053.61 232.016 1054.14 230.126 1054.14ZM230.126 1050.36C227.55 1050.36 225.94 1051.21 225.94 1052.7C225.94 1054.18 227.55 1055.04 230.126 1055.04C232.702 1055.04 234.312 1054.18 234.312 1052.7C234.312 1051.21 232.702 1050.36 230.126 1050.36ZM237.545 1043.84V1044.76H242.263C242.025 1047.74 240.345 1050.15 236.971 1051.76L237.587 1052.7C241.759 1050.65 243.425 1047.46 243.425 1043.84H237.545ZM245.959 1042.48V1055.04H247.107V1042.48H245.959ZM260.419 1046.02C258.137 1045.77 255.953 1044.54 255.953 1043.01V1042.53H254.777V1043.01C254.777 1044.54 252.565 1045.77 250.283 1046.02L250.675 1046.89C252.677 1046.64 254.567 1045.75 255.365 1044.41C256.149 1045.75 258.039 1046.64 260.027 1046.89L260.419 1046.02ZM261.035 1048.64V1047.71H249.667V1048.64H254.777V1049.88H251.039V1050.77H258.445V1051.91H251.081V1054.9H259.957V1054H252.201V1052.75H259.579V1049.88H255.925V1048.64H261.035ZM270.274 1047.94C268.524 1048.23 267.04 1048.29 264.422 1048.29V1046.64H268.916V1045.73H264.422V1044.17H269.266V1043.25H263.274V1049.21H264.296C267.04 1049.21 268.566 1049.16 270.4 1048.85L270.274 1047.94ZM265.864 1051.52H271.744V1053.94H265.864V1051.52ZM264.744 1054.87H272.864V1050.6H264.744V1054.87ZM271.716 1042.49V1049.98H272.864V1042.49H271.716Z" fill="#222222"/>
<rect y="251" width="320" height="45" rx="5" fill="#1F2085"/>
<path d="M150.467 276.284H149.319V279.756H157.957V278.818H150.467V276.284ZM150.495 270.46H156.599V272.07H150.495V270.46ZM154.121 274.338V272.994H157.733V267.968H156.599V269.564H150.495V267.968H149.361V272.994H152.973V274.338H147.849V275.276H159.217V274.338H154.121ZM164.956 268.57H163.822V270.824C163.822 273.106 162.394 275.514 160.588 276.438L161.274 277.362C162.688 276.606 163.85 275.038 164.396 273.204C164.97 274.926 166.104 276.396 167.434 277.11L168.148 276.2C166.384 275.318 164.956 273.036 164.956 270.824V268.57ZM172.474 272.574H170.402V267.492H169.254V280.036H170.402V273.526H172.474V272.574Z" fill="white"/>
<rect x="165.5" y="691.5" width="154" height="44" rx="4.5" fill="#F6F7FA" stroke="#D9D9D9"/>
<path d="M219.907 709.984C219.907 711.496 219.907 713.26 219.431 715.668L220.579 715.794C221.055 713.26 221.055 711.538 221.055 709.984V708.738H212.249V709.676H219.907V709.984ZM216.617 717.334V712.84H215.469V717.334H211.059V718.272H222.413V717.334H216.617ZM224.484 708.416V709.34H228.208C227.998 711.426 226.556 713.12 223.994 714.17L224.554 715.01C227.732 713.666 229.384 711.412 229.384 708.416H224.484ZM226.08 716.41H233.374V720.036H234.522V715.472H226.08V716.41ZM233.416 707.492V710.642H231.764V707.716H230.672V714.814H231.764V711.58H233.416V714.87H234.522V707.492H233.416ZM241.283 709.718H244.237V708.766H237.223V709.718H240.135V711.314C240.135 713.484 238.609 715.85 236.803 716.704L237.475 717.628C238.903 716.9 240.135 715.318 240.709 713.484C241.311 715.206 242.543 716.648 243.999 717.32L244.643 716.396C242.795 715.612 241.283 713.442 241.283 711.314V709.718ZM245.931 707.492V720.036H247.079V707.492H245.931ZM256.261 714.898V715.752H258.809V717.04H259.957V707.478H258.809V714.898H256.261ZM253.699 708.836C254.889 708.836 255.701 709.368 255.701 710.166C255.701 710.978 254.889 711.51 253.699 711.51C252.509 711.51 251.697 710.978 251.697 710.166C251.697 709.368 252.509 708.836 253.699 708.836ZM253.699 712.364C255.533 712.364 256.793 711.51 256.793 710.166C256.793 708.85 255.533 707.982 253.699 707.982C251.865 707.982 250.605 708.85 250.605 710.166C250.605 711.51 251.865 712.364 253.699 712.364ZM253.251 716.592H254.399V714.114C255.533 714.044 256.695 713.918 257.801 713.75L257.703 712.924C255.043 713.26 251.935 713.288 249.611 713.288L249.765 714.24C250.801 714.24 252.005 714.226 253.251 714.17V716.592ZM252.551 718.818V716.102H251.403V719.756H260.279V718.818H252.551ZM270.274 712.938C268.524 713.232 267.04 713.288 264.422 713.288V711.636H268.916V710.726H264.422V709.172H269.266V708.248H263.274V714.212H264.296C267.04 714.212 268.566 714.156 270.4 713.848L270.274 712.938ZM265.864 716.522H271.744V718.944H265.864V716.522ZM264.744 719.868H272.864V715.598H264.744V719.868ZM271.716 707.492V714.982H272.864V707.492H271.716Z" fill="#222222"/>
<rect x="0.5" y="691.5" width="154" height="44" rx="4.5" fill="#F6F7FA" stroke="#D9D9D9"/>
<path d="M46.7867 708.836V709.76H51.5047C51.2667 712.742 49.5867 715.15 46.2127 716.76L46.8287 717.698C51.0007 715.654 52.6667 712.462 52.6667 708.836H46.7867ZM55.2007 707.478V720.036H56.3487V707.478H55.2007ZM69.6616 711.02C67.3796 710.768 65.1956 709.536 65.1956 708.01V707.534H64.0196V708.01C64.0196 709.536 61.8076 710.768 59.5256 711.02L59.9176 711.888C61.9196 711.636 63.8096 710.754 64.6076 709.41C65.3916 710.754 67.2816 711.636 69.2696 711.888L69.6616 711.02ZM70.2776 713.638V712.714H58.9096V713.638H64.0196V714.884H60.2816V715.766H67.6876V716.914H60.3236V719.896H69.1996V719H61.4436V717.754H68.8216V714.884H65.1676V713.638H70.2776ZM73.0905 711.202C73.0905 710.04 74.0145 709.2 75.2325 709.2C76.4645 709.2 77.3605 710.04 77.3605 711.202C77.3605 712.378 76.4645 713.218 75.2325 713.218C74.0145 713.218 73.0905 712.378 73.0905 711.202ZM80.9865 710.222V712.182H78.2845C78.3965 711.874 78.4525 711.552 78.4525 711.202C78.4525 710.838 78.3965 710.516 78.2985 710.222H80.9865ZM80.9865 713.12V714.912H82.1485V707.478H80.9865V709.284H77.7665C77.1925 708.64 76.2965 708.234 75.2325 708.234C73.3705 708.234 71.9985 709.452 71.9985 711.202C71.9985 712.966 73.3705 714.198 75.2325 714.198C76.2965 714.198 77.1925 713.792 77.7665 713.12H80.9865ZM77.9905 719.112C76.1005 719.112 74.9525 718.552 74.9525 717.614C74.9525 716.662 76.1005 716.102 77.9905 716.102C79.9085 716.102 81.0565 716.662 81.0565 717.614C81.0565 718.552 79.9085 719.112 77.9905 719.112ZM77.9905 715.206C75.4145 715.206 73.8185 716.088 73.8185 717.614C73.8185 719.14 75.4145 720.022 77.9905 720.022C80.5805 720.022 82.1905 719.14 82.1905 717.614C82.1905 716.088 80.5805 715.206 77.9905 715.206ZM93.8795 718.944H88.1255V717.32H93.8795V718.944ZM93.8795 716.424H88.1255V714.828H86.9915V719.868H95.0275V714.828H93.8795V716.424ZM88.1115 712.924C86.8655 712.924 85.9695 712.112 85.9695 710.964C85.9695 709.816 86.8655 709.018 88.1115 709.018C89.3575 709.018 90.2535 709.816 90.2535 710.964C90.2535 712.112 89.3575 712.924 88.1115 712.924ZM93.8655 707.492V710.474H91.3035C91.0655 709.018 89.8055 708.066 88.1115 708.066C86.2355 708.066 84.8775 709.242 84.8775 710.964C84.8775 712.7 86.2355 713.876 88.1115 713.876C89.8335 713.876 91.0935 712.896 91.3175 711.412H93.8655V714.226H95.0275V707.492H93.8655ZM105.274 712.938C103.524 713.232 102.04 713.288 99.4224 713.288V711.636H103.916V710.726H99.4224V709.172H104.266V708.248H98.2744V714.212H99.2964C102.04 714.212 103.566 714.156 105.4 713.848L105.274 712.938ZM100.864 716.522H106.744V718.944H100.864V716.522ZM99.7444 719.868H107.864V715.598H99.7444V719.868ZM106.716 707.492V714.982H107.864V707.492H106.716Z" fill="#222222"/>
<rect y="636" width="320" height="45" rx="5" fill="#1141BB"/>
<path d="M132 654.984C132 656.496 132 658.26 131.524 660.668L132.672 660.794C133.148 658.26 133.148 656.538 133.148 654.984V653.738H124.342V654.676H132V654.984ZM128.71 662.334V657.84H127.562V662.334H123.152V663.272H134.506V662.334H128.71ZM136.576 653.416V654.34H140.3C140.09 656.426 138.648 658.12 136.086 659.17L136.646 660.01C139.824 658.666 141.476 656.412 141.476 653.416H136.576ZM138.172 661.41H145.466V665.036H146.614V660.472H138.172V661.41ZM145.508 652.492V655.642H143.856V652.716H142.764V659.814H143.856V656.58H145.508V659.87H146.614V652.492H145.508ZM153.375 654.718H156.329V653.766H149.315V654.718H152.227V656.314C152.227 658.484 150.701 660.85 148.895 661.704L149.567 662.628C150.995 661.9 152.227 660.318 152.801 658.484C153.403 660.206 154.635 661.648 156.091 662.32L156.735 661.396C154.887 660.612 153.375 658.442 153.375 656.314V654.718ZM158.023 652.492V665.036H159.171V652.492H158.023ZM168.354 659.898V660.752H170.902V662.04H172.05V652.478H170.902V659.898H168.354ZM165.792 653.836C166.982 653.836 167.794 654.368 167.794 655.166C167.794 655.978 166.982 656.51 165.792 656.51C164.602 656.51 163.79 655.978 163.79 655.166C163.79 654.368 164.602 653.836 165.792 653.836ZM165.792 657.364C167.626 657.364 168.886 656.51 168.886 655.166C168.886 653.85 167.626 652.982 165.792 652.982C163.958 652.982 162.698 653.85 162.698 655.166C162.698 656.51 163.958 657.364 165.792 657.364ZM165.344 661.592H166.492V659.114C167.626 659.044 168.788 658.918 169.894 658.75L169.796 657.924C167.136 658.26 164.028 658.288 161.704 658.288L161.858 659.24C162.894 659.24 164.098 659.226 165.344 659.17V661.592ZM164.644 663.818V661.102H163.496V664.756H172.372V663.818H164.644ZM177.257 661.284H176.109V664.756H184.747V663.818H177.257V661.284ZM177.285 655.46H183.389V657.07H177.285V655.46ZM180.911 659.338V657.994H184.523V652.968H183.389V654.564H177.285V652.968H176.151V657.994H179.763V659.338H174.639V660.276H186.007V659.338H180.911ZM196.324 657.476H190.094V655.628H196.324V657.476ZM197.472 652.982H196.324V654.704H190.094V652.982H188.96V658.414H197.472V652.982ZM198.914 659.926H187.518V660.85H192.614V665.05H193.762V660.85H198.914V659.926Z" fill="white"/>
<rect x="165.5" y="581.5" width="154" height="44" rx="4.5" fill="#F6F7FA" stroke="#D9D9D9"/>
<path d="M213.649 606.13H212.501V609.756H221.139V608.818H213.649V606.13ZM213.481 600.362C213.481 599.368 214.741 598.78 216.729 598.78C218.689 598.78 219.949 599.368 219.949 600.362C219.949 601.356 218.689 601.93 216.729 601.93C214.741 601.93 213.481 601.356 213.481 600.362ZM217.303 604.156V602.84C219.641 602.714 221.125 601.804 221.125 600.362C221.125 598.794 219.403 597.856 216.729 597.856C214.027 597.856 212.305 598.794 212.305 600.362C212.305 601.818 213.789 602.714 216.155 602.84V604.156H211.045V605.094H222.385V604.156H217.303ZM230.182 607.502V604.282H234.004V603.358H226.514V599.424H233.878V598.486H225.366V604.282H229.02V607.502H223.91V608.454H235.32V607.502H230.182ZM241.101 604.59H243.831V607.572H241.101V604.59ZM240.905 599.564H244.027V603.666H240.905V599.564ZM244.979 607.572V604.59H247.107V603.666H245.175V599.564H247.121V598.64H237.811V599.564H239.757V603.666H237.839V604.59H239.953V607.572H236.789V608.51H248.185V607.572H244.979ZM250.801 603.036C252.831 602.728 254.679 601.72 255.365 600.264C256.037 601.72 257.885 602.728 259.929 603.036L260.349 602.112C258.137 601.818 256.107 600.572 256.107 599.046V599.032H260.013V598.108H250.717V599.032H254.623V599.046C254.623 600.572 252.593 601.818 250.367 602.112L250.801 603.036ZM252.257 606.2H251.109V609.756H259.789V608.818H252.257V606.2ZM249.653 603.946V604.87H254.875V607.418H256.023V604.87H261.049V603.946H249.653ZM270.274 602.938C268.524 603.232 267.04 603.288 264.422 603.288V601.636H268.916V600.726H264.422V599.172H269.266V598.248H263.274V604.212H264.296C267.04 604.212 268.566 604.156 270.4 603.848L270.274 602.938ZM265.864 606.522H271.744V608.944H265.864V606.522ZM264.744 609.868H272.864V605.598H264.744V609.868ZM271.716 597.492V604.982H272.864V597.492H271.716Z" fill="#222222"/>
<rect x="165.5" y="526.5" width="154" height="44" rx="4.5" fill="#F6F7FA" stroke="#D9D9D9"/>
<path d="M217.709 545.95V546.888H220.229V551.69H221.391V542.492H220.229V545.95H217.709ZM218.451 548.904C216.631 548.26 215.399 546.692 215.399 545.054V544.438H218.157V543.5H211.451V544.438H214.251V545.068C214.251 546.846 212.949 548.512 211.087 549.184L211.689 550.08C213.159 549.548 214.307 548.386 214.853 546.958C215.399 548.246 216.477 549.296 217.877 549.8L218.451 548.904ZM214.517 553.818V550.878H213.355V554.756H221.741V553.818H214.517ZM224.666 543.836V544.76H229.384C229.146 547.742 227.466 550.15 224.092 551.76L224.708 552.698C228.88 550.654 230.546 547.462 230.546 543.836H224.666ZM233.08 542.478V555.036H234.228V542.478H233.08ZM241.101 549.59H243.831V552.572H241.101V549.59ZM240.905 544.564H244.027V548.666H240.905V544.564ZM244.979 552.572V549.59H247.107V548.666H245.175V544.564H247.121V543.64H237.811V544.564H239.757V548.666H237.839V549.59H239.953V552.572H236.789V553.51H248.185V552.572H244.979ZM250.801 548.036C252.831 547.728 254.679 546.72 255.365 545.264C256.037 546.72 257.885 547.728 259.929 548.036L260.349 547.112C258.137 546.818 256.107 545.572 256.107 544.046V544.032H260.013V543.108H250.717V544.032H254.623V544.046C254.623 545.572 252.593 546.818 250.367 547.112L250.801 548.036ZM252.257 551.2H251.109V554.756H259.789V553.818H252.257V551.2ZM249.653 548.946V549.87H254.875V552.418H256.023V549.87H261.049V548.946H249.653ZM270.274 547.938C268.524 548.232 267.04 548.288 264.422 548.288V546.636H268.916V545.726H264.422V544.172H269.266V543.248H263.274V549.212H264.296C267.04 549.212 268.566 549.156 270.4 548.848L270.274 547.938ZM265.864 551.522H271.744V553.944H265.864V551.522ZM264.744 554.868H272.864V550.598H264.744V554.868ZM271.716 542.492V549.982H272.864V542.492H271.716Z" fill="#222222"/>
<rect x="0.5" y="581.5" width="154" height="44" rx="4.5" fill="#F6F7FA" stroke="#D9D9D9"/>
<path d="M56.3487 597.478H55.2007V603.89H56.3487V597.478ZM46.8847 598.094V599.032H51.3507C51.1687 601.034 49.3907 602.532 46.2547 603.218L46.6747 604.142C50.3707 603.302 52.5967 601.286 52.5967 598.094H46.8847ZM49.3907 609V607.544H56.3487V604.492H48.2147V605.402H55.2007V606.69H48.2427V609.91H56.7687V609H49.3907ZM68.0516 597.478V610.064H69.1996V597.478H68.0516ZM62.5776 598.444C60.7156 598.444 59.3856 600.152 59.3856 602.826C59.3856 605.5 60.7156 607.208 62.5776 607.208C64.4396 607.208 65.7696 605.5 65.7696 602.826C65.7696 600.152 64.4396 598.444 62.5776 598.444ZM62.5776 599.48C63.7956 599.48 64.6636 600.796 64.6636 602.826C64.6636 604.87 63.7956 606.186 62.5776 606.186C61.3456 606.186 60.4776 604.87 60.4776 602.826C60.4776 600.796 61.3456 599.48 62.5776 599.48ZM76.1005 604.59H78.8305V607.572H76.1005V604.59ZM75.9045 599.564H79.0265V603.666H75.9045V599.564ZM79.9785 607.572V604.59H82.1065V603.666H80.1745V599.564H82.1205V598.64H72.8105V599.564H74.7565V603.666H72.8385V604.59H74.9525V607.572H71.7885V608.51H83.1845V607.572H79.9785ZM85.8015 603.036C87.8315 602.728 89.6795 601.72 90.3655 600.264C91.0375 601.72 92.8855 602.728 94.9295 603.036L95.3495 602.112C93.1375 601.818 91.1075 600.572 91.1075 599.046V599.032H95.0135V598.108H85.7175V599.032H89.6235V599.046C89.6235 600.572 87.5935 601.818 85.3675 602.112L85.8015 603.036ZM87.2575 606.2H86.1095V609.756H94.7895V608.818H87.2575V606.2ZM84.6535 603.946V604.87H89.8755V607.418H91.0235V604.87H96.0495V603.946H84.6535ZM105.274 602.938C103.524 603.232 102.04 603.288 99.4224 603.288V601.636H103.916V600.726H99.4224V599.172H104.266V598.248H98.2744V604.212H99.2964C102.04 604.212 103.566 604.156 105.4 603.848L105.274 602.938ZM100.864 606.522H106.744V608.944H100.864V606.522ZM99.7444 609.868H107.864V605.598H99.7444V609.868ZM106.716 597.492V604.982H107.864V597.492H106.716Z" fill="#222222"/>
<rect x="0.5" y="526.5" width="154" height="44" rx="4.5" fill="#F6F7FA" stroke="#D9D9D9"/>
<path d="M47.9907 551.508H55.2287V555.05H56.3907V550.57H47.9907V551.508ZM52.5547 547.14C52.6387 546.846 52.6947 546.538 52.6947 546.188C52.6947 545.852 52.6387 545.544 52.5547 545.25H55.2287V547.14H52.5547ZM49.4607 548.246C48.2427 548.246 47.3327 547.392 47.3327 546.188C47.3327 545.012 48.2427 544.158 49.4607 544.158C50.6927 544.158 51.6027 545.012 51.6027 546.188C51.6027 547.392 50.6927 548.246 49.4607 548.246ZM55.2287 542.492V544.326H52.0647C51.4767 543.612 50.5527 543.178 49.4607 543.178C47.6127 543.178 46.2407 544.424 46.2407 546.188C46.2407 547.966 47.6127 549.226 49.4607 549.226C50.5527 549.226 51.4627 548.792 52.0507 548.078H55.2287V549.884H56.3907V542.478L55.2287 542.492ZM66.3716 543.808H63.2356V542.408H62.0876V543.808H58.9656V544.732H66.3716V543.808ZM60.7576 547.644C60.7576 546.818 61.5136 546.272 62.6616 546.272C63.8096 546.272 64.5796 546.818 64.5796 547.644C64.5796 548.484 63.8096 549.03 62.6616 549.03C61.5136 549.03 60.7576 548.484 60.7576 547.644ZM65.6716 547.644C65.6716 546.272 64.4536 545.376 62.6616 545.376C60.8836 545.376 59.6656 546.272 59.6656 547.644C59.6656 549.03 60.8836 549.912 62.6616 549.912C64.4536 549.912 65.6716 549.03 65.6716 547.644ZM60.5196 551.956H67.5196V555.05H68.6676V551.018H60.5196V551.956ZM70.5296 545.95H68.6676V542.492H67.5196V550.332H68.6676V546.902H70.5296V545.95ZM76.1005 549.59H78.8305V552.572H76.1005V549.59ZM75.9045 544.564H79.0265V548.666H75.9045V544.564ZM79.9785 552.572V549.59H82.1065V548.666H80.1745V544.564H82.1205V543.64H72.8105V544.564H74.7565V548.666H72.8385V549.59H74.9525V552.572H71.7885V553.51H83.1845V552.572H79.9785ZM85.8015 548.036C87.8315 547.728 89.6795 546.72 90.3655 545.264C91.0375 546.72 92.8855 547.728 94.9295 548.036L95.3495 547.112C93.1375 546.818 91.1075 545.572 91.1075 544.046V544.032H95.0135V543.108H85.7175V544.032H89.6235V544.046C89.6235 545.572 87.5935 546.818 85.3675 547.112L85.8015 548.036ZM87.2575 551.2H86.1095V554.756H94.7895V553.818H87.2575V551.2ZM84.6535 548.946V549.87H89.8755V552.418H91.0235V549.87H96.0495V548.946H84.6535ZM105.274 547.938C103.524 548.232 102.04 548.288 99.4224 548.288V546.636H103.916V545.726H99.4224V544.172H104.266V543.248H98.2744V549.212H99.2964C102.04 549.212 103.566 549.156 105.4 548.848L105.274 547.938ZM100.864 551.522H106.744V553.944H100.864V551.522ZM99.7444 554.868H107.864V550.598H99.7444V554.868ZM106.716 542.492V549.982H107.864V542.492H106.716Z" fill="#222222"/>
<rect y="471" width="320" height="45" rx="5" fill="#1141BB"/>
<path d="M132.014 490.124C132.014 491.678 132.014 493.33 131.58 495.57L132.714 495.71C133.162 493.358 133.162 491.72 133.162 490.124V488.738H124.314V489.676H132.014V490.124ZM130.166 497.334V493.176H129.032V497.334H127.058V493.176H125.924V497.334H123.138V498.272H134.492V497.334H130.166ZM142.722 490.74V491.678H145.2V494.968H146.362V487.492H145.2V490.74H142.722ZM143.422 493.596C141.602 492.952 140.37 491.37 140.37 489.76V489.326H143.128V488.402H136.422V489.326H139.222V489.76C139.222 491.566 137.934 493.26 136.058 493.946L136.66 494.856C138.13 494.296 139.292 493.12 139.824 491.664C140.37 492.952 141.448 493.988 142.848 494.492L143.422 493.596ZM142.218 499.14C140.328 499.14 139.18 498.608 139.18 497.698C139.18 496.788 140.328 496.242 142.218 496.242C144.108 496.242 145.256 496.788 145.256 497.698C145.256 498.608 144.108 499.14 142.218 499.14ZM142.218 495.36C139.642 495.36 138.032 496.214 138.032 497.698C138.032 499.182 139.642 500.036 142.218 500.036C144.794 500.036 146.404 499.182 146.404 497.698C146.404 496.214 144.794 495.36 142.218 495.36ZM149.637 488.836V489.76H154.355C154.117 492.742 152.437 495.15 149.063 496.76L149.679 497.698C153.851 495.654 155.517 492.462 155.517 488.836H149.637ZM158.051 487.478V500.036H159.199V487.478H158.051ZM172.512 491.02C170.23 490.768 168.046 489.536 168.046 488.01V487.534H166.87V488.01C166.87 489.536 164.658 490.768 162.376 491.02L162.768 491.888C164.77 491.636 166.66 490.754 167.458 489.41C168.242 490.754 170.132 491.636 172.12 491.888L172.512 491.02ZM173.128 493.638V492.714H161.76V493.638H166.87V494.884H163.132V495.766H170.538V496.914H163.174V499.896H172.05V499H164.294V497.754H171.672V494.884H168.018V493.638H173.128ZM177.257 496.284H176.109V499.756H184.747V498.818H177.257V496.284ZM177.285 490.46H183.389V492.07H177.285V490.46ZM180.911 494.338V492.994H184.523V487.968H183.389V489.564H177.285V487.968H176.151V492.994H179.763V494.338H174.639V495.276H186.007V494.338H180.911ZM196.324 492.476H190.094V490.628H196.324V492.476ZM197.472 487.982H196.324V489.704H190.094V487.982H188.96V493.414H197.472V487.982ZM198.914 494.926H187.518V495.85H192.614V500.05H193.762V495.85H198.914V494.926Z" fill="white"/>
<rect y="361" width="320" height="45" rx="5" fill="#1141BB"/>
<path d="M120.306 389H116.694V388.272L117.87 388.006V380.012L116.694 379.732V379.004H120.306V379.732L119.13 380.012V388.006L120.306 388.272V389ZM125.4 389H124.14V380.11H121.018V379.004H128.508V380.11H125.4V389ZM133.795 378.556H132.647V380.81C132.647 383.134 131.219 385.556 129.399 386.466L130.099 387.376C131.513 386.62 132.675 385.038 133.221 383.176C133.795 384.94 134.943 386.438 136.371 387.152L137.043 386.242C135.223 385.374 133.795 383.092 133.795 380.81V378.556ZM138.597 377.478V381.734H135.685V382.672H138.597V390.05H139.745V377.478H138.597ZM151.406 377.478V390.05H152.554V377.478H151.406ZM142.992 378.542V387.012H148.9V378.542H147.766V381.86H144.126V378.542H142.992ZM144.126 382.77H147.766V386.074H144.126V382.77ZM165.979 383.792C163.781 383.372 161.401 381.468 161.401 379.326V378.36H160.197V379.326C160.197 381.468 157.831 383.358 155.633 383.792L156.151 384.744C158.041 384.296 160.001 382.952 160.799 381.118C161.597 382.966 163.557 384.31 165.461 384.744L165.979 383.792ZM155.157 387.404V388.356H166.539V387.404H155.157ZM168.512 379.102V380.04H172.278C172.11 382.644 170.92 384.912 168.036 386.522L168.708 387.348C172.278 385.332 173.412 382.336 173.412 379.102H168.512ZM177.584 377.478V382.532H175.876V377.814H174.798V389.406H175.876V383.47H177.584V390.036H178.69V377.478H177.584ZM186.123 382.56H182.567V380.684H186.123V382.56ZM187.243 377.996H186.123V379.802H182.567V377.996H181.433V383.484H187.243V377.996ZM183.841 387.614H190.659V384.562H182.679V385.472H189.525V386.76H182.721V389.896H191.121V388.986H183.841V387.614ZM190.659 380.18V377.492H189.511V383.974H190.659V381.132H192.521V380.18H190.659ZM204.084 377.492H202.936V383.988H204.084V377.492ZM201.396 382.728C199.534 382.112 198.218 380.544 198.218 378.808V377.856H197.07V378.808C197.07 380.628 195.768 382.308 193.878 382.966L194.466 383.862C195.95 383.33 197.112 382.182 197.658 380.74C198.232 382.07 199.38 383.12 200.822 383.624L201.396 382.728ZM197.126 388.986V387.642H204.098V384.618H195.964V385.514H202.964V386.774H195.992V389.896H204.518V388.986H197.126Z" fill="white"/>
<rect y="306" width="320" height="45" rx="5" fill="#1141BB"/>
<path d="M138.229 325.726V327.406H134.939V328.344H138.229V329.996H139.391V322.492H138.229V324.788H135.387C135.471 324.354 135.527 323.892 135.527 323.43H129.857V324.354H134.281C134.071 326.524 132.209 328.19 129.213 329.086L129.675 329.996C132.377 329.212 134.281 327.742 135.093 325.726H138.229ZM135.289 334.084C133.441 334.084 132.265 333.51 132.265 332.558C132.265 331.62 133.441 331.046 135.289 331.046C137.137 331.046 138.313 331.62 138.313 332.558C138.313 333.51 137.137 334.084 135.289 334.084ZM135.289 330.136C132.755 330.136 131.131 331.046 131.131 332.558C131.131 334.07 132.755 334.98 135.289 334.98C137.823 334.98 139.447 334.07 139.447 332.558C139.447 331.046 137.823 330.136 135.289 330.136ZM143.212 326.202C143.212 325.04 144.136 324.2 145.354 324.2C146.586 324.2 147.482 325.04 147.482 326.202C147.482 327.378 146.586 328.218 145.354 328.218C144.136 328.218 143.212 327.378 143.212 326.202ZM151.108 325.222V327.182H148.406C148.518 326.874 148.574 326.552 148.574 326.202C148.574 325.838 148.518 325.516 148.42 325.222H151.108ZM151.108 328.12V329.912H152.27V322.478H151.108V324.284H147.888C147.314 323.64 146.418 323.234 145.354 323.234C143.492 323.234 142.12 324.452 142.12 326.202C142.12 327.966 143.492 329.198 145.354 329.198C146.418 329.198 147.314 328.792 147.888 328.12H151.108ZM148.112 334.112C146.222 334.112 145.074 333.552 145.074 332.614C145.074 331.662 146.222 331.102 148.112 331.102C150.03 331.102 151.178 331.662 151.178 332.614C151.178 333.552 150.03 334.112 148.112 334.112ZM148.112 330.206C145.536 330.206 143.94 331.088 143.94 332.614C143.94 334.14 145.536 335.022 148.112 335.022C150.702 335.022 152.312 334.14 152.312 332.614C152.312 331.088 150.702 330.206 148.112 330.206ZM161.397 327.84C161.719 326.188 161.719 324.942 161.719 324.116V323.458H155.475V324.396H160.599C160.599 325.194 160.557 326.272 160.263 327.714L161.397 327.84ZM162.587 328.596C161.313 328.764 159.885 328.876 158.513 328.932V326.258H157.379V328.974C156.427 328.988 155.517 329.002 154.719 329.002L154.831 329.94C157.057 329.94 160.067 329.87 162.671 329.436L162.587 328.596ZM157.785 331.074H156.637V334.756H164.981V333.818H157.785V331.074ZM164.575 326.566V322.478H163.427V331.942H164.575V327.518H166.367V326.566H164.575ZM169.557 328.12H174.191V323.64H168.367V324.578H173.029V327.196H168.409V332.012H169.445C171.601 332.012 173.505 331.928 175.773 331.55L175.661 330.612C173.463 330.962 171.615 331.06 169.557 331.06V328.12ZM176.837 322.464V335.05H177.985V322.464H176.837ZM188.274 327.938C186.524 328.232 185.04 328.288 182.422 328.288V326.636H186.916V325.726H182.422V324.172H187.266V323.248H181.274V329.212H182.296C185.04 329.212 186.566 329.156 188.4 328.848L188.274 327.938ZM183.864 331.522H189.744V333.944H183.864V331.522ZM182.744 334.868H190.864V330.598H182.744V334.868ZM189.716 322.492V329.982H190.864V322.492H189.716Z" fill="white"/>
<rect y="416" width="320" height="45" rx="5" fill="#1141BB"/>
<path d="M122.33 435.95V436.888H124.85V441.69H126.012V432.492H124.85V435.95H122.33ZM123.072 438.904C121.252 438.26 120.02 436.692 120.02 435.054V434.438H122.778V433.5H116.072V434.438H118.872V435.068C118.872 436.846 117.57 438.512 115.708 439.184L116.31 440.08C117.78 439.548 118.928 438.386 119.474 436.958C120.02 438.246 121.098 439.296 122.498 439.8L123.072 438.904ZM119.138 443.818V440.878H117.976V444.756H126.362V443.818H119.138ZM135.937 438.092C134.033 438.428 132.423 438.512 130.225 438.512V436.706H134.719V433.22H129.063V434.158H133.585V435.824H129.091V439.45H130.085C132.409 439.45 134.061 439.366 136.049 439.03L135.937 438.092ZM130.127 441.704H137.141V445.022H138.289V440.78H130.127V441.704ZM140.137 435.432V434.48H138.289V432.492H137.141V440.122H138.289V438.064H140.137V437.112H138.289V435.432H140.137ZM142.166 433.836V434.76H146.884C146.646 437.742 144.966 440.15 141.592 441.76L142.208 442.698C146.38 440.654 148.046 437.462 148.046 433.836H142.166ZM150.58 432.478V445.036H151.728V432.478H150.58ZM162.128 433.626H159.02V432.408H157.872V433.626H154.778V434.494H162.128V433.626ZM156.556 436.832C156.556 436.174 157.312 435.768 158.446 435.768C159.608 435.768 160.35 436.174 160.35 436.832C160.35 437.476 159.608 437.896 158.446 437.896C157.312 437.896 156.556 437.476 156.556 436.832ZM162.436 439.198C161.344 439.352 160.182 439.436 159.02 439.492V438.68C160.504 438.54 161.442 437.854 161.442 436.832C161.442 435.684 160.252 434.956 158.446 434.956C156.668 434.956 155.478 435.684 155.478 436.832C155.478 437.84 156.402 438.526 157.872 438.68V439.548C156.626 439.59 155.408 439.59 154.358 439.59L154.526 440.5C156.78 440.5 159.776 440.458 162.506 440.01L162.436 439.198ZM156.164 442.39H163.43V445.036H164.578V441.48H156.164V442.39ZM163.43 432.506V440.892H164.578V432.506H163.43ZM171.395 433.57H170.261V435.824C170.261 438.106 168.833 440.514 167.027 441.438L167.713 442.362C169.127 441.606 170.289 440.038 170.835 438.204C171.409 439.926 172.543 441.396 173.873 442.11L174.587 441.2C172.823 440.318 171.395 438.036 171.395 435.824V433.57ZM178.913 437.574H176.841V432.492H175.693V445.036H176.841V438.526H178.913V437.574ZM189.258 443.944H183.504V442.32H189.258V443.944ZM189.258 441.424H183.504V439.828H182.37V444.868H190.406V439.828H189.258V441.424ZM183.49 437.924C182.244 437.924 181.348 437.112 181.348 435.964C181.348 434.816 182.244 434.018 183.49 434.018C184.736 434.018 185.632 434.816 185.632 435.964C185.632 437.112 184.736 437.924 183.49 437.924ZM189.244 432.492V435.474H186.682C186.444 434.018 185.184 433.066 183.49 433.066C181.614 433.066 180.256 434.242 180.256 435.964C180.256 437.7 181.614 438.876 183.49 438.876C185.212 438.876 186.472 437.896 186.696 436.412H189.244V439.226H190.406V432.492H189.244ZM201.731 437.476H195.501V435.628H201.731V437.476ZM202.879 432.982H201.731V434.704H195.501V432.982H194.367V438.414H202.879V432.982ZM204.321 439.926H192.925V440.85H198.021V445.05H199.169V440.85H204.321V439.926Z" fill="white"/>
<rect x="170.5" y="166.5" width="149" height="44" rx="22" fill="#ECF2FA" stroke="#1F2085"/>
<path d="M214.778 188.12C216.836 187.91 218.67 187.154 219.426 185.894C220.182 187.154 222.002 187.91 224.06 188.12L224.424 187.252C222.044 187.014 220.14 186.048 220.042 184.648H223.934V183.738H220V182.436H218.852V183.738H214.918V184.648H218.796C218.698 186.048 216.794 187.014 214.428 187.252L214.778 188.12ZM215.002 191.998H222.548V195.036H223.696V191.088H215.002V191.998ZM213.742 188.82V189.744H225.096V188.82H213.742ZM233.117 185.74V186.678H235.595V189.968H236.757V182.492H235.595V185.74H233.117ZM233.817 188.596C231.997 187.952 230.765 186.37 230.765 184.76V184.326H233.523V183.402H226.817V184.326H229.617V184.76C229.617 186.566 228.329 188.26 226.453 188.946L227.055 189.856C228.525 189.296 229.687 188.12 230.219 186.664C230.765 187.952 231.843 188.988 233.243 189.492L233.817 188.596ZM232.613 194.14C230.723 194.14 229.575 193.608 229.575 192.698C229.575 191.788 230.723 191.242 232.613 191.242C234.503 191.242 235.651 191.788 235.651 192.698C235.651 193.608 234.503 194.14 232.613 194.14ZM232.613 190.36C230.037 190.36 228.427 191.214 228.427 192.698C228.427 194.182 230.037 195.036 232.613 195.036C235.189 195.036 236.799 194.182 236.799 192.698C236.799 191.214 235.189 190.36 232.613 190.36ZM243.378 189.59H246.108V192.572H243.378V189.59ZM243.182 184.564H246.304V188.666H243.182V184.564ZM247.256 192.572V189.59H249.384V188.666H247.452V184.564H249.398V183.64H240.088V184.564H242.034V188.666H240.116V189.59H242.23V192.572H239.066V193.51H250.462V192.572H247.256ZM252.869 188.036C254.899 187.728 256.747 186.72 257.433 185.264C258.105 186.72 259.953 187.728 261.997 188.036L262.417 187.112C260.205 186.818 258.175 185.572 258.175 184.046V184.032H262.081V183.108H252.785V184.032H256.691V184.046C256.691 185.572 254.661 186.818 252.435 187.112L252.869 188.036ZM254.325 191.2H253.177V194.756H261.857V193.818H254.325V191.2ZM251.721 188.946V189.87H256.943V192.418H258.091V189.87H263.117V188.946H251.721ZM270.998 189.898V190.752H273.546V192.04H274.694V182.478H273.546V189.898H270.998ZM268.436 183.836C269.626 183.836 270.438 184.368 270.438 185.166C270.438 185.978 269.626 186.51 268.436 186.51C267.246 186.51 266.434 185.978 266.434 185.166C266.434 184.368 267.246 183.836 268.436 183.836ZM268.436 187.364C270.27 187.364 271.53 186.51 271.53 185.166C271.53 183.85 270.27 182.982 268.436 182.982C266.602 182.982 265.342 183.85 265.342 185.166C265.342 186.51 266.602 187.364 268.436 187.364ZM267.988 191.592H269.136V189.114C270.27 189.044 271.432 188.918 272.538 188.75L272.44 187.924C269.78 188.26 266.672 188.288 264.348 188.288L264.502 189.24C265.538 189.24 266.742 189.226 267.988 189.17V191.592ZM267.288 193.818V191.102H266.14V194.756H275.016V193.818H267.288Z" fill="#1F2085"/>
<rect x="0.5" y="166.5" width="149" height="44" rx="22" fill="#ECF2FA" stroke="#1F2085"/>
<path d="M52.5345 187.476H46.3045V185.628H52.5345V187.476ZM53.6825 182.982H52.5345V184.704H46.3045V182.982H45.1705V188.414H53.6825V182.982ZM55.1245 189.926H43.7285V190.85H48.8245V195.05H49.9725V190.85H55.1245V189.926ZM65.5954 188.974H66.7574V182.492H65.5954V184.76H62.8654V185.698H65.5954V188.974ZM63.7474 187.812C61.9414 187.21 60.6674 185.684 60.6674 184.046V182.884H59.5334V184.046C59.5334 185.866 58.2874 187.448 56.3974 188.092L56.9994 189.002C58.4694 188.456 59.6034 187.364 60.1354 185.95C60.6814 187.224 61.7734 188.218 63.1594 188.708L63.7474 187.812ZM59.8274 193.958V192.614H66.7574V189.604H58.6654V190.514H65.6234V191.746H58.6934V194.868H67.2334V193.958H59.8274ZM70.3683 186.426C70.3683 185.18 71.2783 184.284 72.5103 184.284C73.7283 184.284 74.6383 185.18 74.6383 186.426C74.6383 187.672 73.7283 188.568 72.5103 188.568C71.2783 188.568 70.3683 187.672 70.3683 186.426ZM78.2643 185.376V187.462H75.5623C75.6743 187.14 75.7303 186.79 75.7303 186.426C75.7303 186.048 75.6743 185.698 75.5623 185.376H78.2643ZM78.2643 188.386V191.76H79.4263V182.492H78.2643V184.452H75.0723C74.4843 183.724 73.5883 183.276 72.5103 183.276C70.6623 183.276 69.2763 184.592 69.2763 186.426C69.2763 188.26 70.6623 189.576 72.5103 189.576C73.5883 189.576 74.4983 189.128 75.0863 188.386H78.2643ZM72.5523 193.818V190.808H71.3903V194.756H79.7763V193.818H72.5523ZM93.1172 188.694H91.2552C91.6052 186.888 91.6052 185.558 91.6052 184.382V183.29H83.1772V184.214H90.4852V184.382C90.4852 185.558 90.4852 186.888 90.0932 188.694H81.7632V189.632H86.8312V195.05H87.9932V189.632H93.1172V188.694ZM105.254 188.61C103.056 188.218 100.662 186.37 100.662 184.284V183.318H99.4581V184.284C99.4581 186.37 97.0781 188.218 94.8801 188.61L95.3561 189.562C97.2881 189.156 99.2481 187.854 100.06 186.062C100.872 187.854 102.846 189.156 104.764 189.562L105.254 188.61ZM100.634 192.46V189.408H99.4861V192.46H94.4181V193.398H105.814V192.46H100.634Z" fill="#1F2085"/>
<circle cx="160" cy="72" r="68.5" fill="#1F2085" stroke="#E5E5FC" stroke-width="7"/>
<path d="M117.722 82.534C119.22 82.058 120.382 81.064 120.928 79.748C121.502 80.994 122.65 81.946 124.134 82.394L124.666 81.512C122.832 80.966 121.516 79.636 121.488 78.04H124.386V77.116H121.488V75.562H120.34V77.116H117.484V78.04H120.34C120.312 79.692 119.038 81.078 117.19 81.638L117.722 82.534ZM121.488 82.114H120.34V84.452C119.066 84.494 117.848 84.494 116.812 84.494L116.966 85.46C119.206 85.446 122.286 85.432 125.1 84.914L125.002 84.06C123.882 84.242 122.664 84.326 121.488 84.396V82.114ZM125.828 75.478V88.05H126.976V75.478H125.828ZM138.273 77.984C138.273 79.496 138.273 81.26 137.797 83.668L138.945 83.794C139.421 81.26 139.421 79.538 139.421 77.984V76.738H130.615V77.676H138.273V77.984ZM134.983 85.334V80.84H133.835V85.334H129.425V86.272H140.779V85.334H134.983ZM151.264 78.726V80.406H147.974V81.344H151.264V82.996H152.426V75.492H151.264V77.788H148.422C148.506 77.354 148.562 76.892 148.562 76.43H142.892V77.354H147.316C147.106 79.524 145.244 81.19 142.248 82.086L142.71 82.996C145.412 82.212 147.316 80.742 148.128 78.726H151.264ZM148.324 87.084C146.476 87.084 145.3 86.51 145.3 85.558C145.3 84.62 146.476 84.046 148.324 84.046C150.172 84.046 151.348 84.62 151.348 85.558C151.348 86.51 150.172 87.084 148.324 87.084ZM148.324 83.136C145.79 83.136 144.166 84.046 144.166 85.558C144.166 87.07 145.79 87.98 148.324 87.98C150.858 87.98 152.482 87.07 152.482 85.558C152.482 84.046 150.858 83.136 148.324 83.136ZM156.037 79.202C156.037 78.04 156.961 77.2 158.179 77.2C159.411 77.2 160.307 78.04 160.307 79.202C160.307 80.378 159.411 81.218 158.179 81.218C156.961 81.218 156.037 80.378 156.037 79.202ZM163.933 78.222V80.182H161.231C161.343 79.874 161.399 79.552 161.399 79.202C161.399 78.838 161.343 78.516 161.245 78.222H163.933ZM163.933 81.12V82.912H165.095V75.478H163.933V77.284H160.713C160.139 76.64 159.243 76.234 158.179 76.234C156.317 76.234 154.945 77.452 154.945 79.202C154.945 80.966 156.317 82.198 158.179 82.198C159.243 82.198 160.139 81.792 160.713 81.12H163.933ZM160.937 87.112C159.047 87.112 157.899 86.552 157.899 85.614C157.899 84.662 159.047 84.102 160.937 84.102C162.855 84.102 164.003 84.662 164.003 85.614C164.003 86.552 162.855 87.112 160.937 87.112ZM160.937 83.206C158.361 83.206 156.765 84.088 156.765 85.614C156.765 87.14 158.361 88.022 160.937 88.022C163.527 88.022 165.137 87.14 165.137 85.614C165.137 84.088 163.527 83.206 160.937 83.206ZM173.676 81.708C172.08 81.106 171.128 79.678 171.128 78.194V78.054H173.368V77.13H171.128V75.618H170.036V77.13H167.768V78.054H170.036V78.194C170.036 79.776 169.112 81.302 167.516 81.96L168.076 82.8C169.322 82.282 170.19 81.274 170.596 80.042C171.044 81.176 171.912 82.1 173.13 82.59L173.676 81.708ZM169.574 84.788H176.868V88.036H178.016V83.85H169.574V84.788ZM176.91 75.492V78.838H175.328V75.702H174.25V83.108H175.328V79.776H176.91V83.192H178.016V75.492H176.91ZM189.243 75.492V82.674H190.391V75.492H189.243ZM182.271 83.346V87.868H190.391V83.346H182.271ZM189.271 84.256V86.944H183.391V84.256H189.271ZM183.643 76.15C181.753 76.15 180.381 77.34 180.381 79.076C180.381 80.812 181.753 82.002 183.643 82.002C185.547 82.002 186.933 80.812 186.933 79.076C186.933 77.34 185.547 76.15 183.643 76.15ZM183.643 77.102C184.903 77.102 185.813 77.928 185.813 79.076C185.813 80.238 184.903 81.05 183.643 81.05C182.397 81.05 181.501 80.238 181.501 79.076C181.501 77.928 182.397 77.102 183.643 77.102ZM196.983 77.718H199.769V76.766H192.979V77.718H195.849V79.314C195.849 81.442 194.337 83.822 192.545 84.718L193.217 85.628C194.631 84.9 195.849 83.304 196.423 81.47C196.997 83.15 198.173 84.62 199.573 85.32L200.231 84.396C198.411 83.542 196.983 81.316 196.983 79.314V77.718ZM204.487 80.546H202.415V75.492H201.267V88.036H202.415V81.512H204.487V80.546Z" fill="white"/>
<path d="M137.786 56.292H140.74V54.794H135.966V63.306H136.862C138.514 63.306 139.886 63.25 141.454 62.956L141.314 61.458C140.082 61.682 138.99 61.752 137.786 61.78V56.292ZM144.912 53.296V58.266H143.75V53.548H142.028V65.602H143.75V59.75H144.912V66.204H146.662V53.296H144.912ZM152.975 60.884H155.201V63.306H152.975V60.884ZM152.765 55.802H155.397V59.428H152.765V55.802ZM157.035 63.306V60.884H158.953V59.428H157.231V55.802H158.981V54.332H149.181V55.802H150.931V59.428H149.251V60.884H151.141V63.306H148.257V64.79H159.947V63.306H157.035ZM169.774 53.296V66.232H171.622V53.296H169.774ZM164.692 54.206C162.746 54.206 161.304 55.97 161.304 58.798C161.304 61.64 162.746 63.418 164.692 63.418C166.638 63.418 168.08 61.64 168.08 58.798C168.08 55.97 166.638 54.206 164.692 54.206ZM164.692 55.872C165.644 55.872 166.302 56.894 166.302 58.798C166.302 60.716 165.644 61.738 164.692 61.738C163.74 61.738 163.082 60.716 163.082 58.798C163.082 56.894 163.74 55.872 164.692 55.872ZM178.355 54.304H176.493V56.18C176.493 58.574 175.513 61.038 173.343 62.06L174.449 63.558C175.905 62.844 176.871 61.486 177.431 59.848C177.963 61.388 178.873 62.634 180.217 63.32L181.337 61.864C179.265 60.842 178.355 58.504 178.355 56.18V54.304ZM185.579 58.266H183.703V53.31H181.855V66.204H183.703V59.806H185.579V58.266Z" fill="white"/>
</svg>
