<svg width="1276" height="864" viewBox="0 0 1276 864" fill="none" xmlns="http://www.w3.org/2000/svg">
    <path d="M467 302h341.5M395.5 434v-40h813v170M638 229.5V394M1043 394v170M882 394v170M395 484v80M233 524v40M557 524v40M557 614v20M719 614v20M882 614v20M1043 614v20M72 564v-40.5h651V564" stroke="#D9D9D9"/>
    <rect x="1134" y="564" width="142" height="50" rx="5" fill="#1F2085"/>
    <path d="M1178.04 583.368v1.088h5.26c-.3 3.392-2.27 6.144-5.93 7.984l.72 1.024c4.64-2.32 6.51-6.016 6.51-10.096h-6.56zm12.57 4.288h-2.3v-5.824H1187v14.352h1.31v-7.44h2.3v-1.088zm11.64 3.024h1.32v-8.832h-1.32v2.544h-2.37v1.072h2.37v1.504h-2.37v1.072h2.37v2.64zm-7.38-6.704h2.16v4.656c-.72.032-1.46.064-2.16.08v-4.736zm5.31 4.4c-.59.08-1.23.128-1.87.176v-4.576h1.42v-1.056h-7.55v1.056h1.43v4.752c-.64.016-1.27.016-1.81.016l.14 1.088c2.32 0 5.55-.048 8.32-.48l-.08-.976zm-1.34 6.768c-2.18 0-3.47-.576-3.47-1.584 0-.976 1.29-1.568 3.47-1.568 2.17 0 3.47.592 3.47 1.568 0 1.008-1.3 1.584-3.47 1.584zm0-4.16c-2.98 0-4.79.928-4.79 2.576 0 1.664 1.81 2.608 4.79 2.608 2.96 0 4.78-.944 4.78-2.608 0-1.648-1.82-2.576-4.78-2.576zm12.51-6.592h3.37v-1.088h-8.01v1.088h3.33v1.824c0 2.48-1.75 5.184-3.81 6.16l.77 1.056c1.63-.832 3.04-2.64 3.69-4.736.69 1.968 2.1 3.616 3.76 4.384l.74-1.056c-2.11-.896-3.84-3.376-3.84-5.808v-1.824zm5.31-2.544v14.336h1.31v-14.336h-1.31zm8.86 1.232h-1.29v2.576c0 2.608-1.64 5.36-3.7 6.416l.78 1.056c1.62-.864 2.95-2.656 3.57-4.752.66 1.968 1.95 3.648 3.47 4.464l.82-1.04c-2.02-1.008-3.65-3.616-3.65-6.144v-2.576zm8.59 4.576h-2.36v-5.808h-1.32v14.336h1.32v-7.44h2.36v-1.088z" fill="#fff"/>
    <rect x="972.5" y="634.5" width="141" height="49" rx="4.5" fill="#F6F7FA" stroke="#D9D9D9"/>
    <rect x="972.5" y="694.5" width="141" height="49" rx="4.5" fill="#F6F7FA" stroke="#D9D9D9"/>
    <path d="M1014.51 653.256c2.21 0 3.65.688 3.65 1.824 0 1.12-1.44 1.808-3.65 1.808-2.19 0-3.65-.688-3.65-1.808 0-1.136 1.46-1.824 3.65-1.824zm0 4.704c3.04 0 5.03-1.104 5.03-2.88 0-1.776-1.99-2.88-5.03-2.88s-5.02 1.104-5.02 2.88c0 1.776 1.98 2.88 5.02 2.88zm-3.52 3.712h-1.31v4.192h9.92v-1.088h-8.61v-3.104zm-2.97-2.56v1.072h5.95v2.896h1.33v-2.896h5.72v-1.072h-13zm15.96-3.024c0-1.328 1.06-2.288 2.45-2.288 1.41 0 2.43.96 2.43 2.288 0 1.344-1.02 2.304-2.43 2.304-1.39 0-2.45-.96-2.45-2.304zm9.03-1.12v2.24h-3.09c.13-.352.19-.72.19-1.12 0-.416-.06-.784-.18-1.12h3.08zm0 3.312v2.048h1.32v-8.496h-1.32v2.064h-3.68c-.66-.736-1.68-1.2-2.9-1.2-2.13 0-3.7 1.392-3.7 3.392 0 2.016 1.57 3.424 3.7 3.424 1.22 0 2.24-.464 2.9-1.232h3.68zm-3.43 6.848c-2.16 0-3.47-.64-3.47-1.712 0-1.088 1.31-1.728 3.47-1.728 2.19 0 3.51.64 3.51 1.728 0 1.072-1.32 1.712-3.51 1.712zm0-4.464c-2.94 0-4.77 1.008-4.77 2.752 0 1.744 1.83 2.752 4.77 2.752 2.96 0 4.8-1.008 4.8-2.752 0-1.744-1.84-2.752-4.8-2.752zm14.94-2.704c.37-1.888.37-3.312.37-4.256v-.752h-7.13v1.072h5.85c0 .912-.05 2.144-.38 3.792l1.29.144zm1.36.864c-1.45.192-3.08.32-4.65.384v-3.056h-1.3v3.104c-1.09.016-2.13.032-3.04.032l.13 1.072c2.54 0 5.98-.08 8.96-.576l-.1-.96zm-5.48 2.832h-1.32v4.208h9.54v-1.072h-8.22v-3.136zm7.76-5.152v-4.672h-1.32v10.816h1.32v-5.056h2.04v-1.088h-2.04zm5.45 1.776h5.3v-5.12h-6.66v1.072h5.33v2.992h-5.28v5.504h1.18c2.47 0 4.64-.096 7.24-.528l-.13-1.072c-2.51.4-4.63.512-6.98.512v-3.36zm8.32-6.464V666.2h1.31v-14.384h-1.31zm12.83 6.256c-2 .336-3.69.4-6.69.4v-1.888h5.14v-1.04h-5.14v-1.776h5.54v-1.056h-6.85v6.816h1.17c3.14 0 4.88-.064 6.98-.416l-.15-1.04zm-5.04 4.096h6.72v2.768h-6.72v-2.768zm-1.28 3.824h9.28v-4.88h-9.28v4.88zm7.97-14.144v8.56h1.31v-8.56h-1.31zM1018.18 714.856c0 1.776 0 3.664-.5 6.224l1.3.16c.51-2.688.51-4.56.51-6.384v-1.584h-10.11v1.072h8.8v.512zm-2.12 8.24v-4.752h-1.29v4.752h-2.26v-4.752h-1.29v4.752h-3.19v1.072h12.98v-1.072h-4.95zm14.11-7.536v1.072h2.84v3.76h1.32v-8.544h-1.32v3.712h-2.84zm.8 3.264c-2.08-.736-3.48-2.544-3.48-4.384v-.496h3.15v-1.056h-7.67v1.056h3.2v.496c0 2.064-1.47 4-3.61 4.784l.69 1.04c1.68-.64 3-1.984 3.61-3.648a5.92 5.92 0 0 0 3.46 3.232l.65-1.024zm-1.37 6.336c-2.16 0-3.47-.608-3.47-1.648s1.31-1.664 3.47-1.664 3.47.624 3.47 1.664-1.31 1.648-3.47 1.648zm0-4.32c-2.95 0-4.79.976-4.79 2.672 0 1.696 1.84 2.672 4.79 2.672 2.94 0 4.78-.976 4.78-2.672 0-1.696-1.84-2.672-4.78-2.672zm8.24-7.456v1.056h5.39c-.27 3.408-2.19 6.16-6.05 8l.7 1.072c4.77-2.336 6.68-5.984 6.68-10.128h-6.72zm9.61-1.552v14.352h1.31v-14.352h-1.31zm16.29 4.048c-2.61-.288-5.1-1.696-5.1-3.44v-.544h-1.35v.544c0 1.744-2.53 3.152-5.13 3.44l.44.992c2.29-.288 4.45-1.296 5.36-2.832.9 1.536 3.06 2.544 5.33 2.832l.45-.992zm.7 2.992v-1.056h-12.99v1.056h5.84v1.424h-4.27v1.008h8.46v1.312h-8.41v3.408h10.14V725h-8.86v-1.424h8.43v-3.28h-4.18v-1.424h5.84zm10.32-.8c-2 .336-3.69.4-6.69.4v-1.888h5.14v-1.04h-5.14v-1.776h5.54v-1.056h-6.85v6.816h1.17c3.14 0 4.88-.064 6.98-.416l-.15-1.04zm-5.04 4.096h6.72v2.768h-6.72v-2.768zm-1.28 3.824h9.28v-4.88h-9.28v4.88zm7.97-14.144v8.56h1.31v-8.56h-1.31z" fill="#222"/>
    <rect x="972" y="564" width="142" height="50" rx="5" fill="#1F2085"/>
    <path d="M1017.08 584.648h4.05v-1.072h-5.35v9.072h.95c2.14 0 3.6-.064 5.31-.432l-.11-1.088c-1.57.336-2.93.416-4.85.432v-6.912zm9.12-2.816v5.76h-2.03v-5.44h-1.24v13.312h1.24v-6.8h2.03v7.52h1.26v-14.352h-1.26zm11.17 3.968v1.072h2.88v5.488h1.32v-10.512h-1.32v3.952h-2.88zm.84 3.376c-2.08-.736-3.48-2.528-3.48-4.4v-.704h3.15V583h-7.67v1.072h3.2v.72c0 2.032-1.48 3.936-3.61 4.704l.69 1.024a6.104 6.104 0 0 0 3.61-3.568 5.945 5.945 0 0 0 3.46 3.248l.65-1.024zm-4.49 5.616v-3.36h-1.33v4.432h9.58v-1.072h-8.25zm15.63-10.4h3.37v-1.088h-8.01v1.088h3.33v1.824c0 2.48-1.75 5.184-3.81 6.16l.77 1.056c1.63-.832 3.04-2.64 3.69-4.736.69 1.968 2.1 3.616 3.76 4.384l.74-1.056c-2.11-.896-3.84-3.376-3.84-5.808v-1.824zm5.31-2.544v14.336h1.31v-14.336h-1.31zm8.86 1.232h-1.29v2.576c0 2.608-1.64 5.36-3.7 6.416l.78 1.056c1.62-.864 2.95-2.656 3.57-4.752.66 1.968 1.95 3.648 3.47 4.464l.82-1.04c-2.02-1.008-3.65-3.616-3.65-6.144v-2.576zm8.59 4.576h-2.36v-5.808h-1.32v14.336h1.32v-7.44h2.36v-1.088z" fill="#fff"/>
    <rect x="810.5" y="634.5" width="141" height="49" rx="4.5" fill="#F6F7FA" stroke="#D9D9D9"/>
    <rect x="810.5" y="694.5" width="141" height="49" rx="4.5" fill="#F6F7FA" stroke="#D9D9D9"/>
    <rect x="810.5" y="754.5" width="141" height="49" rx="4.5" fill="#F6F7FA" stroke="#D9D9D9"/>
    <path d="M852.511 653.256c2.208 0 3.648.688 3.648 1.824 0 1.12-1.44 1.808-3.648 1.808-2.192 0-3.648-.688-3.648-1.808 0-1.136 1.456-1.824 3.648-1.824zm0 4.704c3.04 0 5.024-1.104 5.024-2.88 0-1.776-1.984-2.88-5.024-2.88s-5.024 1.104-5.024 2.88c0 1.776 1.984 2.88 5.024 2.88zm-3.52 3.712h-1.312v4.192h9.92v-1.088h-8.608v-3.104zm-2.976-2.56v1.072h5.952v2.896h1.328v-2.896h5.728v-1.072h-13.008zm15.967-3.024c0-1.328 1.056-2.288 2.448-2.288 1.408 0 2.432.96 2.432 2.288 0 1.344-1.024 2.304-2.432 2.304-1.392 0-2.448-.96-2.448-2.304zm9.024-1.12v2.24h-3.088a3.23 3.23 0 0 0 .192-1.12c0-.416-.064-.784-.176-1.12h3.072zm0 3.312v2.048h1.328v-8.496h-1.328v2.064h-3.68c-.656-.736-1.68-1.2-2.896-1.2-2.128 0-3.696 1.392-3.696 3.392 0 2.016 1.568 3.424 3.696 3.424 1.216 0 2.24-.464 2.896-1.232h3.68zm-3.424 6.848c-2.16 0-3.472-.64-3.472-1.712 0-1.088 1.312-1.728 3.472-1.728 2.192 0 3.504.64 3.504 1.728 0 1.072-1.312 1.712-3.504 1.712zm0-4.464c-2.944 0-4.768 1.008-4.768 2.752 0 1.744 1.824 2.752 4.768 2.752 2.96 0 4.8-1.008 4.8-2.752 0-1.744-1.84-2.752-4.8-2.752zm14.943-2.704c.368-1.888.368-3.312.368-4.256v-.752h-7.136v1.072h5.856c0 .912-.048 2.144-.384 3.792l1.296.144zm1.36.864c-1.456.192-3.088.32-4.656.384v-3.056h-1.296v3.104c-1.088.016-2.128.032-3.04.032l.128 1.072c2.544 0 5.984-.08 8.96-.576l-.096-.96zm-5.488 2.832h-1.312v4.208h9.536v-1.072h-8.224v-3.136zm7.76-5.152v-4.672h-1.312v10.816h1.312v-5.056h2.048v-1.088h-2.048zm5.454 1.776h5.296v-5.12h-6.656v1.072h5.328v2.992h-5.28v5.504h1.184c2.464 0 4.64-.096 7.232-.528l-.128-1.072c-2.512.4-4.624.512-6.976.512v-3.36zm8.32-6.464V666.2h1.312v-14.384h-1.312zm12.831 6.256c-2 .336-3.696.4-6.688.4v-1.888h5.136v-1.04h-5.136v-1.776h5.536v-1.056h-6.848v6.816h1.168c3.136 0 4.88-.064 6.976-.416l-.144-1.04zm-5.04 4.096h6.72v2.768h-6.72v-2.768zm-1.28 3.824h9.28v-4.88h-9.28v4.88zm7.968-14.144v8.56h1.312v-8.56h-1.312zM861.482 716.088c0-1.328 1.056-2.288 2.448-2.288 1.408 0 2.432.96 2.432 2.288 0 1.344-1.024 2.304-2.432 2.304-1.392 0-2.448-.96-2.448-2.304zm9.024-1.12v2.24h-3.088a3.23 3.23 0 0 0 .192-1.12c0-.416-.064-.784-.176-1.12h3.072zm0 3.312v2.048h1.328v-8.496h-1.328v2.064h-3.68c-.656-.736-1.68-1.2-2.896-1.2-2.128 0-3.696 1.392-3.696 3.392 0 2.016 1.568 3.424 3.696 3.424 1.216 0 2.24-.464 2.896-1.232h3.68zm-3.424 6.848c-2.16 0-3.472-.64-3.472-1.712 0-1.088 1.312-1.728 3.472-1.728 2.192 0 3.504.64 3.504 1.728 0 1.072-1.312 1.712-3.504 1.712zm0-4.464c-2.944 0-4.768 1.008-4.768 2.752 0 1.744 1.824 2.752 4.768 2.752 2.96 0 4.8-1.008 4.8-2.752 0-1.744-1.84-2.752-4.8-2.752zm17.919 4.272h-6.576v-1.856h6.576v1.856zm0-2.88h-6.576v-1.824h-1.296v5.76h9.184v-5.76h-1.312v1.824zm-6.592-4c-1.424 0-2.448-.928-2.448-2.24 0-1.312 1.024-2.224 2.448-2.224s2.448.912 2.448 2.224c0 1.312-1.024 2.24-2.448 2.24zm6.576-6.208v3.408h-2.928c-.272-1.664-1.712-2.752-3.648-2.752-2.144 0-3.696 1.344-3.696 3.312 0 1.984 1.552 3.328 3.696 3.328 1.968 0 3.408-1.12 3.664-2.816h2.912v3.216h1.328v-7.696h-1.328zm12.798 6.224c-2 .336-3.696.4-6.688.4v-1.888h5.136v-1.04h-5.136v-1.776h5.536v-1.056h-6.848v6.816h1.168c3.136 0 4.88-.064 6.976-.416l-.144-1.04zm-5.04 4.096h6.72v2.768h-6.72v-2.768zm-1.28 3.824h9.28v-4.88h-9.28v4.88zm7.968-14.144v8.56h1.312v-8.56h-1.312zM856.175 774.856c0 1.776 0 3.664-.496 6.224l1.296.16c.512-2.688.512-4.56.512-6.384v-1.584h-10.112v1.072h8.8v.512zm-2.112 8.24v-4.752h-1.296v4.752h-2.256v-4.752h-1.296v4.752h-3.184v1.072h12.976v-1.072h-4.944zm14.111-7.536v1.072h2.832v3.76h1.328v-8.544h-1.328v3.712h-2.832zm.8 3.264c-2.08-.736-3.488-2.544-3.488-4.384v-.496h3.152v-1.056h-7.664v1.056h3.2v.496c0 2.064-1.472 4-3.616 4.784l.688 1.04a6.211 6.211 0 0 0 3.616-3.648c.624 1.472 1.856 2.656 3.456 3.232l.656-1.024zm-1.376 6.336c-2.16 0-3.472-.608-3.472-1.648s1.312-1.664 3.472-1.664 3.472.624 3.472 1.664-1.312 1.648-3.472 1.648zm0-4.32c-2.944 0-4.784.976-4.784 2.672 0 1.696 1.84 2.672 4.784 2.672s4.784-.976 4.784-2.672c0-1.696-1.84-2.672-4.784-2.672zm8.239-7.456v1.056h5.392c-.272 3.408-2.192 6.16-6.048 8l.704 1.072c4.768-2.336 6.672-5.984 6.672-10.128h-6.72zm9.616-1.552v14.352h1.312v-14.352h-1.312zm16.286 4.048c-2.608-.288-5.104-1.696-5.104-3.44v-.544h-1.344v.544c0 1.744-2.528 3.152-5.136 3.44l.448.992c2.288-.288 4.448-1.296 5.36-2.832.896 1.536 3.056 2.544 5.328 2.832l.448-.992zm.704 2.992v-1.056h-12.992v1.056h5.84v1.424h-4.272v1.008h8.464v1.312h-8.416v3.408h10.144V785h-8.864v-1.424h8.432v-3.28h-4.176v-1.424h5.84zm10.319-.8c-2 .336-3.696.4-6.688.4v-1.888h5.136v-1.04h-5.136v-1.776h5.536v-1.056h-6.848v6.816h1.168c3.136 0 4.88-.064 6.976-.416l-.144-1.04zm-5.04 4.096h6.72v2.768h-6.72v-2.768zm-1.28 3.824h9.28v-4.88h-9.28v4.88zm7.968-14.144v8.56h1.312v-8.56h-1.312z" fill="#222"/>
    <rect x="810" y="564" width="142" height="50" rx="5" fill="#1F2085"/>
    <path d="M863.319 587.544h-7.12v-2.112h7.12v2.112zm1.312-5.136h-1.312v1.968h-7.12v-1.968h-1.296v6.208h9.728v-6.208zm1.648 7.936h-13.024v1.056h5.824v4.8h1.312v-4.8h5.888v-1.056zm9.838-1.296c-2.112-.752-3.536-2.576-3.536-4.544v-1.808h-1.312v1.776c0 2.224-1.392 4.144-3.584 4.928l.688 1.04a5.953 5.953 0 0 0 3.584-3.648c.64 1.504 1.888 2.704 3.504 3.296l.656-1.04zm-4.816 2.368h-1.312v4.448h9.52v-1.072h-8.208v-3.376zm7.584-5.184v-4.416h-1.312v10.608h1.312v-5.104h2.112v-1.088h-2.112zm8.463-1.84h3.376v-1.088h-8.016v1.088h3.328v1.824c0 2.48-1.744 5.184-3.808 6.16l.768 1.056c1.632-.832 3.04-2.64 3.696-4.736.688 1.968 2.096 3.616 3.76 4.384l.736-1.056c-2.112-.896-3.84-3.376-3.84-5.808v-1.824zm5.312-2.544v14.336h1.312v-14.336h-1.312zm8.863 1.232h-1.296v2.576c0 2.608-1.632 5.36-3.696 6.416l.784 1.056c1.616-.864 2.944-2.656 3.568-4.752.656 1.968 1.952 3.648 3.472 4.464l.816-1.04c-2.016-1.008-3.648-3.616-3.648-6.144v-2.576zm8.592 4.576h-2.368v-5.808h-1.312v14.336h1.312v-7.44h2.368v-1.088z" fill="#fff"/>
    <rect x="648.5" y="634.5" width="141" height="49" rx="4.5" fill="#F6F7FA" stroke="#D9D9D9"/>
    <rect x="648.5" y="694.5" width="141" height="49" rx="4.5" fill="#F6F7FA" stroke="#D9D9D9"/>
    <path d="M684.879 653.384v1.056h5.392c-.272 3.408-2.192 6.16-6.048 8l.704 1.072c4.768-2.336 6.672-5.984 6.672-10.128h-6.72zm9.616-1.552v14.352h1.312v-14.352h-1.312zm16.287 4.048c-2.608-.288-5.104-1.696-5.104-3.44v-.544h-1.344v.544c0 1.744-2.528 3.152-5.136 3.44l.448.992c2.288-.288 4.448-1.296 5.36-2.832.896 1.536 3.056 2.544 5.328 2.832l.448-.992zm.704 2.992v-1.056h-12.992v1.056h5.84v1.424h-4.272v1.008h8.464v1.312h-8.416v3.408h10.144V665h-8.864v-1.424h8.432v-3.28h-4.176v-1.424h5.84zm2.975-2.784c0-1.328 1.056-2.288 2.448-2.288 1.408 0 2.432.96 2.432 2.288 0 1.344-1.024 2.304-2.432 2.304-1.392 0-2.448-.96-2.448-2.304zm9.024-1.12v2.24h-3.088a3.23 3.23 0 0 0 .192-1.12c0-.416-.064-.784-.176-1.12h3.072zm0 3.312v2.048h1.328v-8.496h-1.328v2.064h-3.68c-.656-.736-1.68-1.2-2.896-1.2-2.128 0-3.696 1.392-3.696 3.392 0 2.016 1.568 3.424 3.696 3.424 1.216 0 2.24-.464 2.896-1.232h3.68zm-3.424 6.848c-2.16 0-3.472-.64-3.472-1.712 0-1.088 1.312-1.728 3.472-1.728 2.192 0 3.504.64 3.504 1.728 0 1.072-1.312 1.712-3.504 1.712zm0-4.464c-2.944 0-4.768 1.008-4.768 2.752 0 1.744 1.824 2.752 4.768 2.752 2.96 0 4.8-1.008 4.8-2.752 0-1.744-1.84-2.752-4.8-2.752zm17.918 4.272h-6.576v-1.856h6.576v1.856zm0-2.88h-6.576v-1.824h-1.296v5.76h9.184v-5.76h-1.312v1.824zm-6.592-4c-1.424 0-2.448-.928-2.448-2.24 0-1.312 1.024-2.224 2.448-2.224s2.448.912 2.448 2.224c0 1.312-1.024 2.24-2.448 2.24zm6.576-6.208v3.408h-2.928c-.272-1.664-1.712-2.752-3.648-2.752-2.144 0-3.696 1.344-3.696 3.312 0 1.984 1.552 3.328 3.696 3.328 1.968 0 3.408-1.12 3.664-2.816h2.912v3.216h1.328v-7.696h-1.328zm12.799 6.224c-2 .336-3.696.4-6.688.4v-1.888h5.136v-1.04h-5.136v-1.776h5.536v-1.056h-6.848v6.816h1.168c3.136 0 4.88-.064 6.976-.416l-.144-1.04zm-5.04 4.096h6.72v2.768h-6.72v-2.768zm-1.28 3.824h9.28v-4.88h-9.28v4.88zm7.968-14.144v8.56h1.312v-8.56h-1.312zM694.159 714.696c0 1.728 0 3.744-.544 6.496l1.312.144c.544-2.896.544-4.864.544-6.64v-1.424h-10.064v1.072h8.752v.352zm-3.76 8.4v-5.136h-1.312v5.136h-5.04v1.072h12.976v-1.072h-6.624zm8.751-10.192v1.056h4.256c-.24 2.384-1.888 4.32-4.816 5.52l.64.96c3.632-1.536 5.52-4.112 5.52-7.536h-5.6zm1.824 9.136h8.336v4.144h1.312v-5.216h-9.648v1.072zm8.384-10.192v3.6h-1.888v-3.344h-1.248v8.112h1.248v-3.696h1.888v3.76h1.264v-8.432h-1.264zm8.751 2.544h3.376v-1.088h-8.016v1.088h3.328v1.824c0 2.48-1.744 5.184-3.808 6.16l.768 1.056c1.632-.832 3.04-2.64 3.696-4.736.688 1.968 2.096 3.616 3.76 4.384l.736-1.056c-2.112-.896-3.84-3.376-3.84-5.808v-1.824zm5.312-2.544v14.336h1.312v-14.336h-1.312zm11.566 8.464v.976h2.912v1.472h1.312v-10.928h-1.312v8.48h-2.912zm-2.928-6.928c1.36 0 2.288.608 2.288 1.52 0 .928-.928 1.536-2.288 1.536-1.36 0-2.288-.608-2.288-1.536 0-.912.928-1.52 2.288-1.52zm0 4.032c2.096 0 3.536-.976 3.536-2.512 0-1.504-1.44-2.496-3.536-2.496s-3.536.992-3.536 2.496c0 1.536 1.44 2.512 3.536 2.512zm-.512 4.832h1.312v-2.832a44.428 44.428 0 0 0 3.888-.416l-.112-.944c-3.04.384-6.592.416-9.248.416l.176 1.088c1.184 0 2.56-.016 3.984-.08v2.768zm-.8 2.544v-3.104h-1.312v4.176h10.144v-1.072h-8.832zm20.015-6.72c-2 .336-3.696.4-6.688.4v-1.888h5.136v-1.04h-5.136v-1.776h5.536v-1.056h-6.848v6.816h1.168c3.136 0 4.88-.064 6.976-.416l-.144-1.04zm-5.04 4.096h6.72v2.768h-6.72v-2.768zm-1.28 3.824h9.28v-4.88h-9.28v4.88zm7.968-14.144v8.56h1.312v-8.56h-1.312z" fill="#222"/>
    <rect x="648" y="564" width="142" height="50" rx="5" fill="#1141BB"/>
    <path d="M686.42 584.696c0 1.728 0 3.744-.544 6.496l1.312.144c.544-2.896.544-4.864.544-6.64v-1.424h-10.064v1.072h8.752v.352zm-3.76 8.4v-5.136h-1.312v5.136h-5.04v1.072h12.976v-1.072h-6.624zm8.75-10.192v1.056h4.256c-.24 2.384-1.888 4.32-4.816 5.52l.64.96c3.632-1.536 5.52-4.112 5.52-7.536h-5.6zm1.824 9.136h8.336v4.144h1.312v-5.216h-9.648v1.072zm8.384-10.192v3.6h-1.888v-3.344h-1.248v8.112h1.248v-3.696h1.888v3.76h1.264v-8.432h-1.264zm8.751 2.544h3.376v-1.088h-8.016v1.088h3.328v1.824c0 2.48-1.744 5.184-3.808 6.16l.768 1.056c1.632-.832 3.04-2.64 3.696-4.736.688 1.968 2.096 3.616 3.76 4.384l.736-1.056c-2.112-.896-3.84-3.376-3.84-5.808v-1.824zm5.312-2.544v14.336h1.312v-14.336h-1.312zm11.567 8.464v.976h2.912v1.472h1.312v-10.928h-1.312v8.48h-2.912zm-2.928-6.928c1.36 0 2.288.608 2.288 1.52 0 .928-.928 1.536-2.288 1.536-1.36 0-2.288-.608-2.288-1.536 0-.912.928-1.52 2.288-1.52zm0 4.032c2.096 0 3.536-.976 3.536-2.512 0-1.504-1.44-2.496-3.536-2.496s-3.536.992-3.536 2.496c0 1.536 1.44 2.512 3.536 2.512zm-.512 4.832h1.312v-2.832a44.428 44.428 0 0 0 3.888-.416l-.112-.944c-3.04.384-6.592.416-9.248.416l.176 1.088c1.184 0 2.56-.016 3.984-.08v2.768zm-.8 2.544v-3.104h-1.312v4.176h10.144v-1.072h-8.832zm14.175-2.896h-1.312v3.968h9.872v-1.072h-8.56v-2.896zm.032-6.656h6.976v1.84h-6.976v-1.84zm4.144 4.432v-1.536h4.128v-5.744h-1.296v1.824h-6.976v-1.824h-1.296v5.744h4.128v1.536h-5.856v1.072h12.992v-1.072h-5.824zm17.375-2.128h-7.12v-2.112h7.12v2.112zm1.312-5.136h-1.312v1.968h-7.12v-1.968h-1.296v6.208h9.728v-6.208zm1.648 7.936H748.67v1.056h5.824v4.8h1.312v-4.8h5.888v-1.056z" fill="#fff"/>
    <rect x="486" y="564" width="142" height="50" rx="5" fill="#1141BB"/>
    <rect x="486.5" y="634.5" width="141" height="49" rx="4.5" fill="#F6F7FA" stroke="#D9D9D9"/>
    <rect x="486.5" y="694.5" width="141" height="49" rx="4.5" fill="#F6F7FA" stroke="#D9D9D9"/>
    <rect x="486.5" y="754.5" width="141" height="49" rx="4.5" fill="#F6F7FA" stroke="#D9D9D9"/>
    <rect x="486.5" y="814.5" width="141" height="49" rx="4.5" fill="#F6F7FA" stroke="#D9D9D9"/>
    <path d="M524.436 584.856c0 1.776 0 3.664-.496 6.224l1.296.16c.512-2.688.512-4.56.512-6.384v-1.584h-10.112v1.072h8.8v.512zm-2.112 8.24v-4.752h-1.296v4.752h-2.256v-4.752h-1.296v4.752h-3.184v1.072h12.976v-1.072h-4.944zm14.11-7.536v1.072h2.832v3.76h1.328v-8.544h-1.328v3.712h-2.832zm.8 3.264c-2.08-.736-3.488-2.544-3.488-4.384v-.496h3.152v-1.056h-7.664v1.056h3.2v.496c0 2.064-1.472 4-3.616 4.784l.688 1.04a6.211 6.211 0 0 0 3.616-3.648c.624 1.472 1.856 2.656 3.456 3.232l.656-1.024zm-1.376 6.336c-2.16 0-3.472-.608-3.472-1.648s1.312-1.664 3.472-1.664 3.472.624 3.472 1.664-1.312 1.648-3.472 1.648zm0-4.32c-2.944 0-4.784.976-4.784 2.672 0 1.696 1.84 2.672 4.784 2.672s4.784-.976 4.784-2.672c0-1.696-1.84-2.672-4.784-2.672zm8.239-7.456v1.056h5.392c-.272 3.408-2.192 6.16-6.048 8l.704 1.072c4.768-2.336 6.672-5.984 6.672-10.128h-6.72zm9.616-1.552v14.352h1.312v-14.352h-1.312zM570 585.88c-2.608-.288-5.104-1.696-5.104-3.44v-.544h-1.344v.544c0 1.744-2.528 3.152-5.136 3.44l.448.992c2.288-.288 4.448-1.296 5.36-2.832.896 1.536 3.056 2.544 5.328 2.832l.448-.992zm.704 2.992v-1.056h-12.992v1.056h5.84v1.424h-4.272v1.008h8.464v1.312h-8.416v3.408h10.144V595h-8.864v-1.424h8.432v-3.28h-4.176v-1.424h5.84zm4.479 3.024h-1.312v3.968h9.872v-1.072h-8.56v-2.896zm.032-6.656h6.976v1.84h-6.976v-1.84zm4.144 4.432v-1.536h4.128v-5.744h-1.296v1.824h-6.976v-1.824h-1.296v5.744h4.128v1.536h-5.856v1.072h12.992v-1.072h-5.824zm17.375-2.128h-7.12v-2.112h7.12v2.112zm1.312-5.136h-1.312v1.968h-7.12v-1.968h-1.296v6.208h9.728v-6.208zm1.648 7.936H586.67v1.056h5.824v4.8h1.312v-4.8h5.888v-1.056z" fill="#fff"/>
    <path d="M533.807 651.832h-1.312v7.328h1.312v-7.328zm-10.816.704v1.072h5.104c-.208 2.288-2.24 4-5.824 4.784l.48 1.056c4.224-.96 6.768-3.264 6.768-6.912h-6.528zM525.855 665v-1.664h7.952v-3.488h-9.296v1.04h7.984v1.472h-7.952v3.68h9.744V665h-8.432zm21.087-13.168v14.384h1.312v-14.384h-1.312zm-6.256 1.104c-2.128 0-3.648 1.952-3.648 5.008s1.52 5.008 3.648 5.008 3.648-1.952 3.648-5.008-1.52-5.008-3.648-5.008zm0 1.184c1.392 0 2.384 1.504 2.384 3.824 0 2.336-.992 3.84-2.384 3.84-1.408 0-2.4-1.504-2.4-3.84 0-2.32.992-3.824 2.4-3.824zm15.215 5.84h3.12v3.408h-3.12v-3.408zm-.224-5.744h3.568v4.688h-3.568v-4.688zm4.656 9.152v-3.408h2.432v-1.056h-2.208v-4.688h2.224v-1.056h-10.64v1.056h2.224v4.688h-2.192v1.056h2.416v3.408h-3.616v1.072h13.024v-1.072h-3.664zm6.414-5.184c2.32-.352 4.432-1.504 5.216-3.168.768 1.664 2.88 2.816 5.216 3.168l.48-1.056c-2.528-.336-4.848-1.76-4.848-3.504v-.016h4.464v-1.056h-10.624v1.056h4.464v.016c0 1.744-2.32 3.168-4.864 3.504l.496 1.056zm1.664 3.616h-1.312v4.064h9.92v-1.072h-8.608V661.8zm-2.976-2.576v1.056h5.968v2.912h1.312v-2.912h5.744v-1.056h-13.024zm23.327-1.152c-2 .336-3.696.4-6.688.4v-1.888h5.136v-1.04h-5.136v-1.776h5.536v-1.056h-6.848v6.816h1.168c3.136 0 4.88-.064 6.976-.416l-.144-1.04zm-5.04 4.096h6.72v2.768h-6.72v-2.768zm-1.28 3.824h9.28v-4.88h-9.28v4.88zm7.968-14.144v8.56h1.312v-8.56h-1.312zM524.255 722.152h8.272v4.048h1.328v-5.12h-9.6v1.072zm5.216-4.992a3.88 3.88 0 0 0 .16-1.088c0-.384-.064-.736-.16-1.072h3.056v2.16h-3.056zm-3.536 1.264c-1.392 0-2.432-.976-2.432-2.352 0-1.344 1.04-2.32 2.432-2.32 1.408 0 2.448.976 2.448 2.32 0 1.376-1.04 2.352-2.448 2.352zm6.592-6.576v2.096h-3.616c-.672-.816-1.728-1.312-2.976-1.312-2.112 0-3.68 1.424-3.68 3.44 0 2.032 1.568 3.472 3.68 3.472 1.248 0 2.288-.496 2.96-1.312h3.632v2.064h1.328v-8.464l-1.328.016zm12.495 1.504h-3.584v-1.6h-1.312v1.6h-3.568v1.056h8.464v-1.056zm-6.416 4.384c0-.944.864-1.568 2.176-1.568 1.312 0 2.192.624 2.192 1.568 0 .96-.88 1.584-2.192 1.584-1.312 0-2.176-.624-2.176-1.584zm5.616 0c0-1.568-1.392-2.592-3.44-2.592-2.032 0-3.424 1.024-3.424 2.592 0 1.584 1.392 2.592 3.424 2.592 2.048 0 3.44-1.008 3.44-2.592zm-5.888 4.928h8v3.536h1.312v-4.608h-9.312v1.072zm11.44-6.864h-2.128v-3.952h-1.312v8.96h1.312v-3.92h2.128V715.8zm6.127 4.16h3.12v3.408h-3.12v-3.408zm-.224-5.744h3.568v4.688h-3.568v-4.688zm4.656 9.152v-3.408h2.432v-1.056h-2.208v-4.688h2.224v-1.056h-10.64v1.056h2.224v4.688h-2.192v1.056h2.416v3.408h-3.616v1.072h13.024v-1.072h-3.664zm6.414-5.184c2.32-.352 4.432-1.504 5.216-3.168.768 1.664 2.88 2.816 5.216 3.168l.48-1.056c-2.528-.336-4.848-1.76-4.848-3.504v-.016h4.464v-1.056h-10.624v1.056h4.464v.016c0 1.744-2.32 3.168-4.864 3.504l.496 1.056zm1.664 3.616h-1.312v4.064h9.92v-1.072h-8.608V721.8zm-2.976-2.576v1.056h5.968v2.912h1.312v-2.912h5.744v-1.056h-13.024zm23.327-1.152c-2 .336-3.696.4-6.688.4v-1.888h5.136v-1.04h-5.136v-1.776h5.536v-1.056h-6.848v6.816h1.168c3.136 0 4.88-.064 6.976-.416l-.144-1.04zm-5.04 4.096h6.72v2.768h-6.72v-2.768zm-1.28 3.824h9.28v-4.88h-9.28v4.88zm7.968-14.144v8.56h1.312v-8.56h-1.312zM529.647 775.8v1.072h2.88v5.488h1.328v-10.512h-1.328v3.952h-2.88zm.848 3.376c-2.08-.736-3.488-2.528-3.488-4.4v-.704h3.152V773h-7.664v1.072h3.2v.72c0 2.032-1.488 3.936-3.616 4.704l.688 1.024a6.125 6.125 0 0 0 3.616-3.568 5.921 5.921 0 0 0 3.456 3.248l.656-1.024zm-4.496 5.616v-3.36h-1.328v4.432h9.584v-1.072h-8.256zm11.359-11.408v1.056h5.392c-.272 3.408-2.192 6.16-6.048 8l.704 1.072c4.768-2.336 6.672-5.984 6.672-10.128h-6.72zm9.616-1.552v14.352h1.312v-14.352h-1.312zm8.927 8.128h3.12v3.408h-3.12v-3.408zm-.224-5.744h3.568v4.688h-3.568v-4.688zm4.656 9.152v-3.408h2.432v-1.056h-2.208v-4.688h2.224v-1.056h-10.64v1.056h2.224v4.688h-2.192v1.056h2.416v3.408h-3.616v1.072h13.024v-1.072h-3.664zm6.414-5.184c2.32-.352 4.432-1.504 5.216-3.168.768 1.664 2.88 2.816 5.216 3.168l.48-1.056c-2.528-.336-4.848-1.76-4.848-3.504v-.016h4.464v-1.056h-10.624v1.056h4.464v.016c0 1.744-2.32 3.168-4.864 3.504l.496 1.056zm1.664 3.616h-1.312v4.064h9.92v-1.072h-8.608V781.8zm-2.976-2.576v1.056h5.968v2.912h1.312v-2.912h5.744v-1.056h-13.024zm23.327-1.152c-2 .336-3.696.4-6.688.4v-1.888h5.136v-1.04h-5.136v-1.776h5.536v-1.056h-6.848v6.816h1.168c3.136 0 4.88-.064 6.976-.416l-.144-1.04zm-5.04 4.096h6.72v2.768h-6.72v-2.768zm-1.28 3.824h9.28v-4.88h-9.28v4.88zm7.968-14.144v8.56h1.312v-8.56h-1.312zM525.007 841.72h-1.312v4.144h9.872v-1.072h-8.56v-3.072zm-.192-6.592c0-1.136 1.44-1.808 3.712-1.808 2.24 0 3.68.672 3.68 1.808 0 1.136-1.44 1.792-3.68 1.792-2.272 0-3.712-.656-3.712-1.792zm4.368 4.336v-1.504c2.672-.144 4.368-1.184 4.368-2.832 0-1.792-1.968-2.864-5.024-2.864-3.088 0-5.056 1.072-5.056 2.864 0 1.664 1.696 2.688 4.4 2.832v1.504h-5.84v1.072h12.96v-1.072h-5.808zm14.479 3.824v-3.68h4.368v-1.056h-8.56v-4.496h8.416v-1.072h-9.728v6.624h4.176v3.68h-5.84v1.088h13.04v-1.088h-5.872zm12.239-3.328h3.12v3.408h-3.12v-3.408zm-.224-5.744h3.568v4.688h-3.568v-4.688zm4.656 9.152v-3.408h2.432v-1.056h-2.208v-4.688h2.224v-1.056h-10.64v1.056h2.224v4.688h-2.192v1.056h2.416v3.408h-3.616v1.072h13.024v-1.072h-3.664zm6.414-5.184c2.32-.352 4.432-1.504 5.216-3.168.768 1.664 2.88 2.816 5.216 3.168l.48-1.056c-2.528-.336-4.848-1.76-4.848-3.504v-.016h4.464v-1.056h-10.624v1.056h4.464v.016c0 1.744-2.32 3.168-4.864 3.504l.496 1.056zm1.664 3.616h-1.312v4.064h9.92v-1.072h-8.608V841.8zm-2.976-2.576v1.056h5.968v2.912h1.312v-2.912h5.744v-1.056h-13.024zm23.327-1.152c-2 .336-3.696.4-6.688.4v-1.888h5.136v-1.04h-5.136v-1.776h5.536v-1.056h-6.848v6.816h1.168c3.136 0 4.88-.064 6.976-.416l-.144-1.04zm-5.04 4.096h6.72v2.768h-6.72v-2.768zm-1.28 3.824h9.28v-4.88h-9.28v4.88zm7.968-14.144v8.56h1.312v-8.56h-1.312z" fill="#222"/>
    <rect x="324" y="564" width="142" height="50" rx="5" fill="#1141BB"/>
    <path d="M350.71 585.8v1.072h2.88v5.488h1.328v-10.512h-1.328v3.952h-2.88zm.848 3.376c-2.08-.736-3.488-2.528-3.488-4.4v-.704h3.152V583h-7.664v1.072h3.2v.72c0 2.032-1.488 3.936-3.616 4.704l.688 1.024a6.125 6.125 0 0 0 3.616-3.568 5.921 5.921 0 0 0 3.456 3.248l.656-1.024zm-4.496 5.616v-3.36h-1.328v4.432h9.584v-1.072h-8.256zm18.959-6.544c-2.176.384-4.016.48-6.528.48v-2.064h5.136v-3.984h-6.464v1.072h5.168v1.904h-5.136v4.144h1.136c2.656 0 4.544-.096 6.816-.48l-.128-1.072zm-6.64 4.128h8.016v3.792h1.312v-4.848h-9.328v1.056zm11.44-7.168v-1.088h-2.112v-2.272h-1.312v8.72h1.312v-2.352h2.112v-1.088h-2.112v-1.92h2.112zm2.079-1.824v1.056h5.392c-.272 3.408-2.192 6.16-6.048 8l.704 1.072c4.768-2.336 6.672-5.984 6.672-10.128h-6.72zm9.616-1.552v14.352h1.312v-14.352h-1.312zm12.958 1.312h-3.552v-1.392h-1.312v1.392h-3.536v.992h8.4v-.992zm-6.368 3.664c0-.752.864-1.216 2.16-1.216 1.328 0 2.176.464 2.176 1.216 0 .736-.848 1.216-2.176 1.216-1.296 0-2.16-.48-2.16-1.216zm6.72 2.704c-1.248.176-2.576.272-3.904.336v-.928c1.696-.16 2.768-.944 2.768-2.112 0-1.312-1.36-2.144-3.424-2.144-2.032 0-3.392.832-3.392 2.144 0 1.152 1.056 1.936 2.736 2.112v.992c-1.424.048-2.816.048-4.016.048l.192 1.04c2.576 0 6-.048 9.12-.56l-.08-.928zm-7.168 3.648h8.304v3.024h1.312v-4.064h-9.616v1.04zm8.304-11.296v9.584h1.312v-9.584h-1.312zm12.779 1.216h-1.296v2.576c0 2.608-1.632 5.36-3.696 6.416l.784 1.056c1.616-.864 2.944-2.656 3.568-4.752.656 1.968 1.952 3.648 3.472 4.464l.816-1.04c-2.016-1.008-3.648-3.616-3.648-6.144v-2.576zm8.592 4.576h-2.368v-5.808h-1.312v14.336h1.312v-7.44h2.368v-1.088zm11.583 7.28h-6.576v-1.856h6.576v1.856zm0-2.88h-6.576v-1.824h-1.296v5.76h9.184v-5.76h-1.312v1.824zm-6.592-4c-1.424 0-2.448-.928-2.448-2.24 0-1.312 1.024-2.224 2.448-2.224s2.448.912 2.448 2.224c0 1.312-1.024 2.24-2.448 2.24zm6.576-6.208v3.408h-2.928c-.272-1.664-1.712-2.752-3.648-2.752-2.144 0-3.696 1.344-3.696 3.312 0 1.984 1.552 3.328 3.696 3.328 1.968 0 3.408-1.12 3.664-2.816h2.912v3.216h1.328v-7.696H429.9zm14.031 5.696h-7.12v-2.112h7.12v2.112zm1.312-5.136h-1.312v1.968h-7.12v-1.968h-1.296v6.208h9.728v-6.208zm1.648 7.936h-13.024v1.056h5.824v4.8h1.312v-4.8h5.888v-1.056z" fill="#fff"/>
    <rect x="162" y="564" width="142" height="50" rx="5" fill="#1141BB"/>
    <path d="M187.796 595h-4.128v-.832l1.344-.304v-9.136l-1.344-.32v-.832h4.128v.832l-1.344.32v9.136l1.344.304V595zm5.581 0h-1.44v-10.16h-3.568v-1.264h8.56v1.264h-3.552V595zm9.355-11.936h-1.312v2.576c0 2.656-1.632 5.424-3.712 6.464l.8 1.04c1.616-.864 2.944-2.672 3.568-4.8.656 2.016 1.968 3.728 3.6 4.544l.768-1.04c-2.08-.992-3.712-3.6-3.712-6.208v-2.576zm5.488-1.232v4.864h-3.328v1.072h3.328v8.432h1.312v-14.368h-1.312zm14.399 0V596.2h1.312v-14.368h-1.312zm-9.616 1.216v9.68h6.752v-9.68h-1.296v3.792h-4.16v-3.792h-1.296zm1.296 4.832h4.16v3.776h-4.16v-3.776zm24.735 1.168c-2.512-.48-5.232-2.656-5.232-5.104v-1.104h-1.376v1.104c0 2.448-2.704 4.608-5.216 5.104l.592 1.088c2.16-.512 4.4-2.048 5.312-4.144.912 2.112 3.152 3.648 5.328 4.144l.592-1.088zm-12.368 4.128v1.088h13.008v-1.088h-13.008zm15.022-9.488v1.072h4.304c-.192 2.976-1.552 5.568-4.848 7.408l.768.944c4.08-2.304 5.376-5.728 5.376-9.424h-5.6zm10.368-1.856v5.776h-1.952v-5.392h-1.232v13.248h1.232v-6.784h1.952v7.504h1.264v-14.352h-1.264zm9.519 5.808h-4.064v-2.144h4.064v2.144zm1.28-5.216h-1.28v2.064h-4.064v-2.064h-1.296v6.272h6.64v-6.272zm-3.888 10.992h7.792v-3.488h-9.12v1.04h7.824v1.472h-7.776v3.584h9.6v-1.04h-8.32v-1.568zm7.792-8.496v-3.072h-1.312v7.408h1.312v-3.248h2.128v-1.088h-2.128zm15.103-3.072h-1.312v7.424h1.312v-7.424zm-3.072 5.984c-2.128-.704-3.632-2.496-3.632-4.48v-1.088h-1.312v1.088c0 2.08-1.488 4-3.648 4.752l.672 1.024a6.093 6.093 0 0 0 3.648-3.568c.656 1.52 1.968 2.72 3.616 3.296l.656-1.024zm-4.88 7.152v-1.536h7.968v-3.456h-9.296v1.024h8v1.44h-7.968v3.568h9.744v-1.04h-8.448z" fill="#fff"/>
    <rect y="564" width="142" height="50" rx="5" fill="#1141BB"/>
    <path d="M46.527 585.544v1.92h-3.76v1.072h3.76v1.888h1.328v-8.576h-1.328v2.624H43.28c.096-.496.16-1.024.16-1.552h-6.48v1.056h5.056c-.24 2.48-2.368 4.384-5.792 5.408l.528 1.04c3.088-.896 5.264-2.576 6.192-4.88h3.584zm-3.36 9.552c-2.112 0-3.456-.656-3.456-1.744 0-1.072 1.344-1.728 3.456-1.728s3.456.656 3.456 1.728c0 1.088-1.344 1.744-3.456 1.744zm0-4.512c-2.896 0-4.752 1.04-4.752 2.768 0 1.728 1.856 2.768 4.752 2.768s4.752-1.04 4.752-2.768c0-1.728-1.856-2.768-4.752-2.768zm8.815-4.496c0-1.328 1.056-2.288 2.448-2.288 1.408 0 2.432.96 2.432 2.288 0 1.344-1.024 2.304-2.432 2.304-1.392 0-2.448-.96-2.448-2.304zm9.024-1.12v2.24h-3.088a3.23 3.23 0 0 0 .192-1.12c0-.416-.064-.784-.176-1.12h3.072zm0 3.312v2.048h1.328v-8.496h-1.328v2.064h-3.68c-.656-.736-1.68-1.2-2.896-1.2-2.128 0-3.696 1.392-3.696 3.392 0 2.016 1.568 3.424 3.696 3.424 1.216 0 2.24-.464 2.896-1.232h3.68zm-3.424 6.848c-2.16 0-3.472-.64-3.472-1.712 0-1.088 1.312-1.728 3.472-1.728 2.192 0 3.504.64 3.504 1.728 0 1.072-1.312 1.712-3.504 1.712zm0-4.464c-2.944 0-4.768 1.008-4.768 2.752 0 1.744 1.824 2.752 4.768 2.752 2.96 0 4.8-1.008 4.8-2.752 0-1.744-1.84-2.752-4.8-2.752zm14.943-2.704c.368-1.888.368-3.312.368-4.256v-.752h-7.136v1.072h5.856c0 .912-.048 2.144-.384 3.792l1.296.144zm1.36.864c-1.456.192-3.088.32-4.656.384v-3.056h-1.296v3.104c-1.088.016-2.128.032-3.04.032l.128 1.072c2.544 0 5.984-.08 8.96-.576l-.096-.96zm-5.488 2.832h-1.312v4.208h9.536v-1.072h-8.224v-3.136zm7.76-5.152v-4.672h-1.312v10.816h1.312v-5.056h2.048v-1.088h-2.048zm5.454 1.776h5.296v-5.12h-6.656v1.072h5.328v2.992H80.3v5.504h1.184c2.464 0 4.64-.096 7.232-.528l-.128-1.072c-2.512.4-4.624.512-6.976.512v-3.36zm8.32-6.464V596.2h1.312v-14.384h-1.312zm12.831 6.256c-2 .336-3.696.4-6.688.4v-1.888h5.136v-1.04h-5.136v-1.776h5.536v-1.056h-6.848v6.816h1.168c3.136 0 4.88-.064 6.976-.416l-.144-1.04zm-5.04 4.096h6.72v2.768h-6.72v-2.768zm-1.28 3.824h9.28v-4.88h-9.28v4.88zm7.968-14.144v8.56h1.312v-8.56h-1.312z" fill="#fff"/>
    <rect x="325" y="434" width="142" height="50" rx="5" fill="#1F2085"/>
    <path d="M385.225 461.896h-1.312v3.968h9.872v-1.072h-8.56v-2.896zm.032-6.656h6.976v1.84h-6.976v-1.84zm4.144 4.432v-1.536h4.128v-5.744h-1.296v1.824h-6.976v-1.824h-1.296v5.744h4.128v1.536h-5.856v1.072h12.992v-1.072h-5.824zm12.143-6.592h-1.296v2.576c0 2.608-1.632 5.36-3.696 6.416l.784 1.056c1.616-.864 2.944-2.656 3.568-4.752.656 1.968 1.952 3.648 3.472 4.464l.816-1.04c-2.016-1.008-3.648-3.616-3.648-6.144v-2.576zm8.592 4.576h-2.368v-5.808h-1.312v14.336h1.312v-7.44h2.368v-1.088z" fill="#fff"/>
    <rect x="809.5" y="262.5" width="249" height="79" rx="39.5" fill="#ECF2FA" stroke="#1F2085"/>
    <path d="M895.286 301.44c2.646-.27 5.004-1.242 5.976-2.862.972 1.62 3.312 2.592 5.958 2.862l.468-1.116c-3.06-.306-5.508-1.548-5.634-3.348h5.004v-1.17H902v-1.674h-1.476v1.674h-5.058v1.17h4.986c-.126 1.8-2.574 3.042-5.616 3.348l.45 1.116zm.288 4.986h9.702v3.906h1.476v-5.076h-11.178v1.17zm-1.62-4.086v1.188h14.598v-1.188h-14.598zm24.911-3.96v1.206h3.186v4.23h1.494v-9.612h-1.494v4.176h-3.186zm.9 3.672c-2.34-.828-3.924-2.862-3.924-4.932v-.558h3.546v-1.188h-8.622v1.188h3.6v.558c0 2.322-1.656 4.5-4.068 5.382l.774 1.17a6.987 6.987 0 0 0 4.068-4.104c.702 1.656 2.088 2.988 3.888 3.636l.738-1.152zm-1.548 7.128c-2.43 0-3.906-.684-3.906-1.854s1.476-1.872 3.906-1.872 3.906.702 3.906 1.872c0 1.17-1.476 1.854-3.906 1.854zm0-4.86c-3.312 0-5.382 1.098-5.382 3.006 0 1.908 2.07 3.006 5.382 3.006s5.382-1.098 5.382-3.006c0-1.908-2.07-3.006-5.382-3.006zm13.84-.99h3.51v3.834h-3.51v-3.834zm-.252-6.462h4.014v5.274h-4.014v-5.274zm5.238 10.296v-3.834h2.736v-1.188h-2.484v-5.274h2.502v-1.188h-11.97v1.188h2.502v5.274h-2.466v1.188h2.718v3.834h-4.068v1.206h14.652v-1.206h-4.122zm7.217-5.832c2.61-.396 4.986-1.692 5.868-3.564.864 1.872 3.24 3.168 5.868 3.564l.54-1.188c-2.844-.378-5.454-1.98-5.454-3.942v-.018h5.022v-1.188h-11.952v1.188h5.022v.018c0 1.962-2.61 3.564-5.472 3.942l.558 1.188zm1.872 4.068h-1.476v4.572h11.16v-1.206h-9.684V305.4zm-3.348-2.898v1.188h6.714v3.276h1.476v-3.276h6.462v-1.188h-14.652zm24.784 1.224v1.098h3.276v1.656h1.476v-12.294h-1.476v9.54h-3.276zm-3.294-7.794c1.53 0 2.574.684 2.574 1.71 0 1.044-1.044 1.728-2.574 1.728-1.53 0-2.574-.684-2.574-1.728 0-1.026 1.044-1.71 2.574-1.71zm0 4.536c2.358 0 3.978-1.098 3.978-2.826 0-1.692-1.62-2.808-3.978-2.808s-3.978 1.116-3.978 2.808c0 1.728 1.62 2.826 3.978 2.826zm-.576 5.436h1.476v-3.186a49.981 49.981 0 0 0 4.374-.468l-.126-1.062c-3.42.432-7.416.468-10.404.468l.198 1.224c1.332 0 2.88-.018 4.482-.09v3.114zm-.9 2.862v-3.492h-1.476v4.698h11.412v-1.206h-9.936z" fill="#1F2085"/>
    <rect x="217.5" y="262.5" width="249" height="79" rx="39.5" fill="#ECF2FA" stroke="#1F2085"/>
    <path d="M313.258 300.612h-8.01v-2.376h8.01v2.376zm1.476-5.778h-1.476v2.214h-8.01v-2.214h-1.458v6.984h10.944v-6.984zm1.854 8.928h-14.652v1.188h6.552v5.4h1.476v-5.4h6.624v-1.188zm13.463-1.224h1.494v-8.334h-1.494v2.916h-3.51v1.206h3.51v4.212zm-2.376-1.494c-2.322-.774-3.96-2.736-3.96-4.842v-1.494h-1.458v1.494c0 2.34-1.602 4.374-4.032 5.202l.774 1.17c1.89-.702 3.348-2.106 4.032-3.924.702 1.638 2.106 2.916 3.888 3.546l.756-1.152zm-5.04 7.902v-1.728h8.91v-3.87h-10.404v1.17h8.946v1.584h-8.91v4.014h10.98v-1.17h-9.522zm13.552-9.684c0-1.602 1.17-2.754 2.754-2.754 1.566 0 2.736 1.152 2.736 2.754s-1.17 2.754-2.736 2.754c-1.584 0-2.754-1.152-2.754-2.754zm10.152-1.35v2.682h-3.474c.144-.414.216-.864.216-1.332 0-.486-.072-.936-.216-1.35h3.474zm0 3.87v4.338h1.494v-11.916h-1.494v2.52h-4.104c-.756-.936-1.908-1.512-3.294-1.512-2.376 0-4.158 1.692-4.158 4.05 0 2.358 1.782 4.05 4.158 4.05 1.386 0 2.556-.576 3.312-1.53h4.086zm-7.344 6.984v-3.87h-1.494v5.076h10.782v-1.206h-9.288zm26.441-6.588h-2.394c.45-2.322.45-4.032.45-5.544v-1.404h-10.836v1.188h9.396v.216c0 1.512 0 3.222-.504 5.544h-10.71v1.206h6.516v6.966h1.494v-6.966h6.588v-1.206zm15.604-.108c-2.826-.504-5.904-2.88-5.904-5.562v-1.242h-1.548v1.242c0 2.682-3.06 5.058-5.886 5.562l.612 1.224c2.484-.522 5.004-2.196 6.048-4.5 1.044 2.304 3.582 3.978 6.048 4.5l.63-1.224zm-5.94 4.95v-3.924h-1.476v3.924h-6.516v1.206h14.652v-1.206h-6.66z" fill="#1F2085"/>
    <circle cx="638" cy="115" r="107.5" fill="#1F2085" stroke="#E5E5FC" stroke-width="15"/>
    <path d="M588.968 134.896c1.712-.544 3.04-1.68 3.664-3.184.656 1.424 1.968 2.512 3.664 3.024l.608-1.008c-2.096-.624-3.6-2.144-3.632-3.968h3.312v-1.056h-3.312v-1.776h-1.312v1.776h-3.264v1.056h3.264c-.032 1.888-1.488 3.472-3.6 4.112l.608 1.024zm4.304-.48h-1.312v2.672c-1.456.048-2.848.048-4.032.048l.176 1.104c2.56-.016 6.08-.032 9.296-.624l-.112-.976c-1.28.208-2.672.304-4.016.384v-2.608zm4.96-7.584V141.2h1.312v-14.368h-1.312zm14.223 2.864c0 1.728 0 3.744-.544 6.496l1.312.144c.544-2.896.544-4.864.544-6.64v-1.424h-10.064v1.072h8.752v.352zm-3.76 8.4v-5.136h-1.312v5.136h-5.04v1.072h12.976v-1.072h-6.624zm18.607-7.552v1.92h-3.76v1.072h3.76v1.888h1.328v-8.576h-1.328v2.624h-3.248c.096-.496.16-1.024.16-1.552h-6.48v1.056h5.056c-.24 2.48-2.368 4.384-5.792 5.408l.528 1.04c3.088-.896 5.264-2.576 6.192-4.88h3.584zm-3.36 9.552c-2.112 0-3.456-.656-3.456-1.744 0-1.072 1.344-1.728 3.456-1.728s3.456.656 3.456 1.728c0 1.088-1.344 1.744-3.456 1.744zm0-4.512c-2.896 0-4.752 1.04-4.752 2.768 0 1.728 1.856 2.768 4.752 2.768s4.752-1.04 4.752-2.768c0-1.728-1.856-2.768-4.752-2.768zm8.814-4.496c0-1.328 1.056-2.288 2.448-2.288 1.408 0 2.432.96 2.432 2.288 0 1.344-1.024 2.304-2.432 2.304-1.392 0-2.448-.96-2.448-2.304zm9.024-1.12v2.24h-3.088a3.23 3.23 0 0 0 .192-1.12c0-.416-.064-.784-.176-1.12h3.072zm0 3.312v2.048h1.328v-8.496h-1.328v2.064h-3.68c-.656-.736-1.68-1.2-2.896-1.2-2.128 0-3.696 1.392-3.696 3.392 0 2.016 1.568 3.424 3.696 3.424 1.216 0 2.24-.464 2.896-1.232h3.68zm-3.424 6.848c-2.16 0-3.472-.64-3.472-1.712 0-1.088 1.312-1.728 3.472-1.728 2.192 0 3.504.64 3.504 1.728 0 1.072-1.312 1.712-3.504 1.712zm0-4.464c-2.944 0-4.768 1.008-4.768 2.752 0 1.744 1.824 2.752 4.768 2.752 2.96 0 4.8-1.008 4.8-2.752 0-1.744-1.84-2.752-4.8-2.752zm14.559-1.712c-1.824-.688-2.912-2.32-2.912-4.016v-.16h2.56v-1.056h-2.56v-1.728h-1.248v1.728h-2.592v1.056h2.592v.16a4.643 4.643 0 0 1-2.88 4.304l.64.96c1.424-.592 2.416-1.744 2.88-3.152a5.132 5.132 0 0 0 2.896 2.912l.624-1.008zm-4.688 3.52h8.336v3.712h1.312V136.4h-9.648v1.072zm8.384-10.624v3.824h-1.808v-3.584h-1.232v8.464h1.232v-3.808h1.808v3.904h1.264v-8.8h-1.264zm14.095 0v8.208h1.312v-8.208h-1.312zm-7.968 8.976v5.168h9.28v-5.168h-9.28zm8 1.04v3.072h-6.72v-3.072h6.72zm-6.432-9.264c-2.16 0-3.728 1.36-3.728 3.344 0 1.984 1.568 3.344 3.728 3.344 2.176 0 3.76-1.36 3.76-3.344 0-1.984-1.584-3.344-3.76-3.344zm0 1.088c1.44 0 2.48.944 2.48 2.256 0 1.328-1.04 2.256-2.48 2.256-1.424 0-2.448-.928-2.448-2.256 0-1.312 1.024-2.256 2.448-2.256zm15.246.704h3.184v-1.088h-7.76v1.088h3.28v1.824c0 2.432-1.728 5.152-3.776 6.176l.768 1.04c1.616-.832 3.008-2.656 3.664-4.752.656 1.92 2 3.6 3.6 4.4l.752-1.056c-2.08-.976-3.712-3.52-3.712-5.808v-1.824zm8.576 3.232h-2.368v-5.776h-1.312v14.336h1.312v-7.456h2.368v-1.104zM598.776 96.072h5.064v-2.568h-8.184v14.592h1.536c2.832 0 5.184-.096 7.872-.6l-.24-2.568c-2.112.384-3.984.504-6.048.552v-9.408zm12.216-5.136v8.52H609v-8.088h-2.952v20.664H609V102h1.992v11.064h3V90.936h-3zm13.822 13.008h3.816v4.152h-3.816v-4.152zm-.36-8.712h4.512v6.216h-4.512v-6.216zm7.32 12.864v-4.152h3.288v-2.496h-2.952v-6.216h3v-2.52h-16.8v2.52h3v6.216h-2.88v2.496h3.24v4.152h-4.944v2.544h20.04v-2.544h-4.992zm21.838-17.16v22.176h3.168V90.936h-3.168zm-8.712 1.56c-3.336 0-5.808 3.024-5.808 7.872 0 4.872 2.472 7.92 5.808 7.92s5.808-3.048 5.808-7.92c0-4.848-2.472-7.872-5.808-7.872zm0 2.856c1.632 0 2.76 1.752 2.76 5.016 0 3.288-1.128 5.04-2.76 5.04s-2.76-1.752-2.76-5.04c0-3.264 1.128-5.016 2.76-5.016zm23.422-2.688h-3.192v3.216c0 4.104-1.68 8.328-5.4 10.08l1.896 2.568c2.496-1.224 4.152-3.552 5.112-6.36.912 2.64 2.472 4.776 4.776 5.952l1.92-2.496c-3.552-1.752-5.112-5.76-5.112-9.744v-3.216zm12.384 6.792h-3.216V90.96h-3.168v22.104h3.168v-10.968h3.216v-2.64z" fill="#fff"/>
</svg>
