<svg width="90" height="90" viewBox="0 0 90 90" fill="none" xmlns="http://www.w3.org/2000/svg">
    <path d="M23.584 21.98h37.64M23.584 31.338h37.64M23.584 40.688h21.515M72.034 53.319V5.467a.751.751 0 0 0-.75-.75h-48.44M22.843 4.717h-.531c-3.037 2.847-8.03 7.84-10.877 10.876M72.034 74.958v9.567c0 .417-.342.75-.75.75H12.185a.745.745 0 0 1-.75-.75V15.594" stroke="#fff" stroke-width="2" stroke-linecap="round" stroke-linejoin="round"/>
    <path d="M68.578 52.588c5.647.864 9.984 5.723 9.984 11.616 0 5.894-4.327 10.753-9.984 11.617M68.578 52.587a12.23 12.23 0 0 0-1.784-.152c-6.501 0-11.759 5.268-11.759 11.76 0 6.491 5.268 11.758 11.76 11.758.606 0 1.195-.056 1.783-.151" stroke="#fff" stroke-width="2" stroke-linecap="round" stroke-linejoin="round"/>
    <path d="M60.805 63.227 65.16 67.8l3.416-3.217M72.782 60.607l-4.204 3.977M22.843 4.717v10.876H11.435" stroke="#fff" stroke-width="2" stroke-linecap="round" stroke-linejoin="round"/>
</svg>
