<svg width="90" height="90" viewBox="0 0 90 90" fill="none" xmlns="http://www.w3.org/2000/svg">
    <g clip-path="url(#kr2c6kbeua)">
        <path d="M47.46 50.463c8.456 0 15.31-6.854 15.31-15.309 0-8.454-6.854-15.308-15.31-15.308-8.454 0-15.308 6.854-15.308 15.308 0 8.455 6.854 15.309 15.309 15.309zM45.763 53.197h3.635c15.961 0 28.91 12.959 28.91 28.91H16.844c0-15.96 12.958-28.91 28.91-28.91h.01zM33.283 14.014c0-6.944-7.232-12.565-16.162-12.565S.96 7.07.96 14.015c0 6.042 5.477 11.078 12.776 12.287.403 1.793 2.513 4.383 6.005 4.383 0 0-1.746-2.618-.288-4.25 7.817-.882 13.831-6.1 13.831-12.42z" stroke="#fff" stroke-width="2" stroke-linecap="round" stroke-linejoin="round"/>
        <path d="M17.12 15.845a1.746 1.746 0 1 0 0-3.491 1.746 1.746 0 0 0 0 3.49zM24.105 15.845a1.746 1.746 0 1 0 0-3.491 1.746 1.746 0 0 0 0 3.49zM10.138 15.845a1.746 1.746 0 1 0 0-3.491 1.746 1.746 0 0 0 0 3.49z" fill="#fff"/>
    </g>
    <defs>
        <clipPath id="kr2c6kbeua">
            <path fill="#fff" d="M0 0h90v90H0z"/>
        </clipPath>
    </defs>
</svg>
