<svg width="90" height="90" viewBox="0 0 90 90" fill="none" xmlns="http://www.w3.org/2000/svg">
    <path d="m72.072 38.598-.076-29.174a4.601 4.601 0 0 0-4.612-4.594l-52.949.152a4.601 4.601 0 0 0-4.593 4.612l.209 70.962a4.601 4.601 0 0 0 4.612 4.594l52.949-.152a4.601 4.601 0 0 0 4.593-4.613l-.066-26.27" stroke="#fff" stroke-width="2" stroke-linecap="round" stroke-linejoin="round"/>
    <path d="m80.51 27.494-7.422 9.68-17.805 23.177 1.452 6.169 5.932-.778 10.42-13.572 14.664-19.114-7.242-5.562zM20.746 17.158h31.177M20.746 26.516h31.177M20.746 35.865H38.57" stroke="#fff" stroke-width="2" stroke-linecap="round" stroke-linejoin="round"/>
</svg>
