<svg width="80" height="80" viewBox="0 0 80 80" fill="none" xmlns="http://www.w3.org/2000/svg">
    <g clip-path="url(#14f0qm7yna)">
        <path d="m.945 38.423-.213-.837.864-.131 6.18-3.561-.029 7.231 31.81 12.52 32.762-12.95.11-6.474 6.729 4.1V72.85s.27 6.474-7.374 6.474H7.015s-6.4 1.617-6.4-8.091c0 0 0-32.801.322-32.801l.008-.008z" fill="#CFD5EA"/>
        <path d="M19.376 13.014h30.88M19.376 22.227h30.88M19.376 31.446h17.647M29.078 49.872 8.788 71.371M50.255 49.872l20.299 21.499M.732 37.586v36.217c0 3.022 2.46 5.469 5.5 5.469h67.324c3.156 0 5.712-2.542 5.712-5.68V37.585" stroke="#222" stroke-width="2" stroke-linecap="round" stroke-linejoin="round"/>
        <path d="M.732 37.586c1.794.736 3.823 1.923 7.279 3.328M71.989 40.929c3.464-1.42 5.492-2.615 7.279-3.343M71.989 40.929c-12.295 5.032-31.531 12.89-31.876 12.89-.344 0-19.727-7.865-32.095-12.905M71.989 40.928V33.93M8.011 33.297V4.195A3.475 3.475 0 0 1 11.497.73h57.006a3.475 3.475 0 0 1 3.486 3.466V33.93M8.011 33.297v7.625M79.268 37.586l-7.279-3.656M8.011 33.297l-7.279 4.29" stroke="#222" stroke-width="2" stroke-linecap="round" stroke-linejoin="round"/>
    </g>
    <defs>
        <clipPath id="14f0qm7yna">
            <path fill="#fff" d="M0 0h80v80H0z"/>
        </clipPath>
    </defs>
</svg>
