<svg width="80" height="80" viewBox="0 0 80 80" fill="none" xmlns="http://www.w3.org/2000/svg">
    <path d="m50.25 41 6.031-6.033c4.861 1.724 10.476.678 14.426-3.23 4.152-4.102 5.3-10.181 3.41-15.375l-7.765 7.665-7.832-8.286 7.765-7.665a13.87 13.87 0 0 0-6.56-1.023c-3.117.264-6.167 1.586-8.598 3.976-3.96 3.908-5.176 9.596-3.657 14.618L41 32.094M26.959 45 11.955 59.852c-2.545 2.485-2.613 6.591-.16 9.168a6.347 6.347 0 0 0 9.053.161l15.152-15M27 45l9 9" stroke="#222" stroke-width="2" stroke-linecap="round" stroke-linejoin="round"/>
    <path d="M41 31.587 17.51 8 4 21.572 27.333 45" fill="#D0D5EA"/>
    <path d="M41 31.587 17.51 8 4 21.572 27.333 45" stroke="#222" stroke-width="2" stroke-linecap="round" stroke-linejoin="round"/>
    <path d="M40.843 32 70 60.494 56.169 74 25 42.944" fill="#D0D5EA"/>
    <path d="M40.843 32 70 60.494 56.169 74 25 42.944M15 33l6-6M20 38l4-5M25 42l5-5M40 46l-6 6M39 57l4-5M49 56l-5 5M29 47l5-4" stroke="#222" stroke-width="2" stroke-linecap="round" stroke-linejoin="round"/>
</svg>
