<svg width="60" height="80" viewBox="0 0 60 80" fill="none" xmlns="http://www.w3.org/2000/svg">
    <g clip-path="url(#k7swe7aa7a)" stroke="#222" stroke-width="2" stroke-miterlimit="10">
        <path d="M7.562.833h44.326c3.723 0 6.74 3.067 6.74 6.833V78.75H.821V7.666C.822 3.9 3.847.833 7.562.833z"/>
        <path d="M27.526 14.208h-10.25v10.108h10.25V14.208zM27.526 28.533h-10.25v10.108h10.25V28.534zM27.526 42.858h-10.25v10.109h10.25V42.858zM41.926 14.208h-10.25v10.108h10.25V14.208zM41.926 28.533h-10.25v10.108h10.25V28.534zM41.926 42.858h-10.25v10.109h10.25V42.858zM20.507 64.275h18.18c1.743 0 3.149 1.434 3.149 3.192V78.75H17.35V67.467c0-1.767 1.413-3.192 3.148-3.192h.008z" fill="#CFD5EA"/>
    </g>
    <defs>
        <clipPath id="k7swe7aa7a">
            <path fill="#fff" d="M0 0h60v80H0z"/>
        </clipPath>
    </defs>
</svg>
