<svg width="80" height="80" viewBox="0 0 80 80" fill="none" xmlns="http://www.w3.org/2000/svg">
    <g clip-path="url(#zn7zwz3cga)" stroke="#222" stroke-width="2">
        <path d="M78.006 50.017c2.881-9.874 0-18.936 0-18.936h-6.633a31.803 31.803 0 0 0-2.343-5.864l4.873-4.873c-4.95-9.019-13.388-13.387-13.388-13.387l-4.693 4.693a32.734 32.734 0 0 0-5.805-2.496V2.28c-9.873-2.88-18.935 0-18.935 0v6.634a31.798 31.798 0 0 0-5.865 2.343l-4.872-4.873C11.325 11.334 6.957 19.77 6.957 19.77l4.693 4.694a32.734 32.734 0 0 0-2.496 5.804H2.281c-2.881 9.874 0 18.936 0 18.936h6.634a31.801 31.801 0 0 0 2.342 5.864l-4.873 4.873c4.95 9.02 13.388 13.388 13.388 13.388l4.693-4.694a32.737 32.737 0 0 0 5.805 2.497v6.882c9.874 2.88 18.935 0 18.935 0V71.38a31.8 31.8 0 0 0 5.865-2.343l4.873 4.873c9.019-4.95 13.387-13.387 13.387-13.387l-4.693-4.694a32.736 32.736 0 0 0 2.496-5.804h6.882l-.009-.009z" stroke-linecap="round" stroke-linejoin="round"/>
        <path d="M40.227 62.454c12.275 0 22.227-9.951 22.227-22.227S52.502 18 40.227 18C27.95 18 18 27.951 18 40.227s9.95 22.227 22.227 22.227z" fill="#CFD5EA" stroke-miterlimit="10"/>
        <path d="m30 38.273 7.183 7.47L49.749 34" stroke-linecap="round" stroke-linejoin="round"/>
    </g>
    <defs>
        <clipPath id="zn7zwz3cga">
            <path fill="#fff" d="M0 0h80v80H0z"/>
        </clipPath>
    </defs>
</svg>
