<svg width="80" height="80" viewBox="0 0 80 80" fill="none" xmlns="http://www.w3.org/2000/svg">
    <path d="M63.813 14.142H16.185c-5.905 0-10.692 4.796-10.692 10.713v37.937c0 5.917 4.787 10.714 10.692 10.714h47.628c5.905 0 10.692-4.797 10.692-10.714V24.855c0-5.917-4.787-10.713-10.692-10.713z" stroke="#222" stroke-width="2" stroke-linecap="round" stroke-linejoin="round"/>
    <path d="M57.168 48.685v-9.22h-8.955v9.22h8.955zM44.481 48.685v-9.22h-8.954v9.22h8.954zM31.794 48.685v-9.22H22.84v9.22h8.954zM57.158 61.645v-9.22h-8.954v9.22h8.954zM44.471 61.645v-9.22h-8.954v9.22h8.954zM31.785 61.645v-9.22H22.83v9.22h8.955z" fill="#CFD5EA" stroke="#222" stroke-width="2" stroke-linecap="round" stroke-linejoin="round"/>
    <path d="M5.493 30.059h69.012M23.037 6.494v15.304M57.237 6.494v15.304" stroke="#222" stroke-width="2" stroke-linecap="round" stroke-linejoin="round"/>
</svg>
