<svg width="80" height="80" viewBox="0 0 80 80" fill="none" xmlns="http://www.w3.org/2000/svg">
    <g clip-path="url(#wu1ebkfxba)" stroke="#222" stroke-width="2">
        <path d="M77.863 49.874c2.88-9.874 0-18.936 0-18.936h-6.634a31.787 31.787 0 0 0-2.343-5.865l4.873-4.872C68.81 11.18 60.372 6.813 60.372 6.813l-4.693 4.693a32.732 32.732 0 0 0-5.805-2.496V2.137c-9.874-2.881-18.936 0-18.936 0V8.77a31.798 31.798 0 0 0-5.864 2.342L20.2 6.24C11.18 11.19 6.813 19.628 6.813 19.628l4.694 4.693a32.728 32.728 0 0 0-2.496 5.805H2.137c-2.88 9.874 0 18.935 0 18.935h6.634a31.798 31.798 0 0 0 2.342 5.865l-4.872 4.873c4.95 9.019 13.387 13.387 13.387 13.387l4.694-4.693a32.726 32.726 0 0 0 5.804 2.496v6.882c9.874 2.881 18.936 0 18.936 0v-6.634a31.8 31.8 0 0 0 5.864-2.342l4.873 4.873c9.02-4.95 13.388-13.388 13.388-13.388l-4.694-4.693a32.738 32.738 0 0 0 2.497-5.805h6.881l-.008-.008z" stroke-linecap="round" stroke-linejoin="round"/>
        <path d="M40 62.227c12.276 0 22.227-9.951 22.227-22.227 0-12.275-9.951-22.227-22.227-22.227S17.773 27.725 17.773 40c0 12.276 9.951 22.227 22.227 22.227z" fill="#CFD5EA" stroke-miterlimit="10"/>
        <path d="m28.049 29.913 6.72 20.91L40 29.17M51.951 29.913l-6.728 20.91L40 29.17M27.305 40.368h25.39" stroke-linecap="round" stroke-linejoin="round"/>
    </g>
    <defs>
        <clipPath id="wu1ebkfxba">
            <path fill="#fff" d="M0 0h80v80H0z"/>
        </clipPath>
    </defs>
</svg>
