<svg width="80" height="80" viewBox="0 0 80 80" fill="none" xmlns="http://www.w3.org/2000/svg">
    <path d="M17.125 7.381 2.889 21.64 55.15 73.985l14.236-14.258L17.125 7.38z" fill="#D0D5EA" stroke="#222" stroke-width="2" stroke-linecap="round" stroke-linejoin="round"/>
    <path d="m50.722 40 6.377-6.21c5.14 1.774 11.075.697 15.251-3.325a14.771 14.771 0 0 0 3.605-15.828l-8.209 7.89-8.28-8.529 8.209-7.89a15.022 15.022 0 0 0-6.936-1.053 14.868 14.868 0 0 0-9.09 4.093c-4.187 4.022-5.472 9.878-3.866 15.047l-6.84 6.637M26.503 45 11.025 60.236c-2.648 2.622-2.72 6.956-.165 9.675a6.544 6.544 0 0 0 9.424.17L35.95 54.71M13.983 32l5.991-6M18.976 37l4.992-5M23.968 42l5.991-6M39.944 46l-5.99 6M38.946 57l3.994-5M49.93 56l-5.992 6M28.96 47l4.993-5" stroke="#222" stroke-width="2" stroke-linecap="round" stroke-linejoin="round"/>
</svg>
