<svg width="22" height="28" viewBox="0 0 22 28" fill="none" xmlns="http://www.w3.org/2000/svg">
    <path d="M7.024 19.517h4.496M7.024 21.292h4.496M5.04 14.799h11.92v7.894c0 .64-.526 1.156-1.17 1.156H6.143c-.609 0-1.104-.489-1.104-1.09V14.8zM5.905 4.15h10.22c.46 0 .832.37.832.822v3.439H5.04V5.005c0-.47.388-.854.865-.854z" stroke="#fff" stroke-linecap="round" stroke-linejoin="round"/>
    <path d="M5.3 8.41H1.942a.784.784 0 0 0-.789.78v9.62c0 .432.355.78.79.78H5.04M16.7 8.41h3.462c.376 0 .685.303.685.677v9.826c0 .375-.309.68-.688.68H17.22" stroke="#fff" stroke-linecap="round" stroke-linejoin="round"/>
</svg>
