<svg width="80" height="62" viewBox="0 0 80 62" fill="none" xmlns="http://www.w3.org/2000/svg">
<path d="M61.7091 30.2499V4.67154C61.7091 2.78918 60.1905 1.26798 58.3314 1.27345L19.6256 1.38289C17.7665 1.38836 16.2641 2.91504 16.2695 4.79739L16.4209 57.3227C16.4209 59.205 17.9395 60.7263 19.7986 60.7208L58.5043 60.6113" stroke="#999999" stroke-width="2" stroke-linecap="round" stroke-linejoin="round"/>
<path d="M24.25 10.3955H47.04" stroke="#999999" stroke-width="2" stroke-linecap="round" stroke-linejoin="round"/>
<path d="M24.25 17.3174H47.04" stroke="#999999" stroke-width="2" stroke-linecap="round" stroke-linejoin="round"/>
<path d="M24.25 24.2393H37.2744" stroke="#999999" stroke-width="2" stroke-linecap="round" stroke-linejoin="round"/>
<path d="M62.5 61C70.7843 61 77.5 54.2843 77.5 46C77.5 37.7157 70.7843 31 62.5 31C54.2157 31 47.5 37.7157 47.5 46C47.5 54.2843 54.2157 61 62.5 61Z" stroke="#999999" stroke-width="2" stroke-linecap="round" stroke-linejoin="round"/>
<path d="M54.9883 39.7974L59.362 53.5866L62.7652 39.2998" stroke="#999999" stroke-width="2" stroke-linecap="round" stroke-linejoin="round"/>
<path d="M70.5408 39.7974L66.1671 53.5866L62.7578 39.2998" stroke="#999999" stroke-width="2" stroke-linecap="round" stroke-linejoin="round"/>
<path d="M54.4961 46.6885H71.0389" stroke="#999999" stroke-width="2" stroke-linecap="round" stroke-linejoin="round"/>
</svg>
