<svg width="22" height="28" viewBox="0 0 22 28" fill="none" xmlns="http://www.w3.org/2000/svg">
    <path d="m6.638 11.92 2.268-1.715a.742.742 0 0 0 .22-.91L6.824 4.454a.521.521 0 0 0-.603-.284L1.616 5.333a.609.609 0 0 0-.46.626c.147 2.62 1.66 14.635 16.913 17.877a.583.583 0 0 0 .664-.37l1.683-4.523a.67.67 0 0 0-.312-.824l-4.744-2.487a.641.641 0 0 0-.799.167l-1.729 2.132s-3.207-1.154-6.188-6.008l-.006-.003zM12.366 8.085s4.585-.463 4.585 4.622M12.366 4.392s8.48-.855 8.48 8.55" stroke="#fff" stroke-linecap="round" stroke-linejoin="round"/>
</svg>
