<svg width="54" height="60" viewBox="0 0 54 60" fill="none" xmlns="http://www.w3.org/2000/svg">
<path d="M19.4364 45.518C17.754 45.1197 16.9482 44.8131 15.4531 44.0269L12.8017 46.6966L4.94518 38.7857L7.35089 36.363C6.4553 34.8712 5.74578 33.2549 5.24524 31.5483H1.62292V20.361H5.08735C5.53351 18.6661 6.18866 17.0577 7.02201 15.5626L4.35555 12.8778L12.2121 4.96693L14.8694 7.64255C16.2838 6.83869 17.8025 6.19992 19.3997 5.74917V1.62305H31.6215V5.75048C33.2188 6.20123 34.7374 6.84 36.1519 7.64386L38.8092 4.96824L46.6657 12.8792L43.9993 15.564C44.8326 17.059 45.4884 18.6674 45.9339 20.3623H49.399V29.7335H46.0571" stroke="#999999" stroke-width="2" stroke-linecap="round" stroke-linejoin="round"/>
<path d="M45.6423 29.7944C45.1412 31.5011 44.2259 33.7384 43.3303 35.2302" stroke="#999999" stroke-width="2" stroke-linecap="round" stroke-linejoin="round"/>
<path d="M51.5387 55.0339L50.3673 39.22C50.2199 37.2303 48.5624 35.6913 46.5674 35.6913H33.6289L33.5057 34.9517" stroke="#999999" stroke-width="2" stroke-linecap="round" stroke-linejoin="round"/>
<path d="M26.4799 31.8794L28.8529 47.1529L24.2649 44.094C22.8255 43.1342 20.8856 43.4814 19.8675 44.8808C18.7662 46.3955 19.1102 48.5182 20.6347 49.6071L32.9122 58.3769" stroke="#999999" stroke-width="2" stroke-linecap="round" stroke-linejoin="round"/>
<path d="M26.4799 31.8797L25.4906 25.5103C25.2345 23.862 26.3292 22.3073 27.9671 21.9922L28.0411 21.9778C29.795 21.6404 31.4826 22.8144 31.7761 24.5761L32.2786 27.5898" stroke="#999999" stroke-width="2" stroke-linecap="round" stroke-linejoin="round"/>
<path d="M32.278 27.5898L33.505 34.9511" stroke="#999999" stroke-width="2" stroke-linecap="round" stroke-linejoin="round"/>
<path d="M35.1168 35.7104C37.0475 33.7961 38.4259 31.2888 38.9075 28.4022C40.1286 21.0862 35.1875 14.1652 27.8715 12.9433C20.5554 11.7215 13.6344 16.6633 12.4126 23.9793C11.1907 31.2954 16.1325 38.2164 23.4486 39.4382C24.9305 39.6859 25.8923 39.8483 27.2976 39.6217" stroke="#999999" stroke-width="2" stroke-linecap="round" stroke-linejoin="round"/>
</svg>
