<svg width="72" height="68" viewBox="0 0 72 68" fill="none" xmlns="http://www.w3.org/2000/svg">
    <path d="M64.435 38.246V25.83h-4.602a27.182 27.182 0 0 0-2.572-6.36l3.542-3.557L50.37 5.43l-3.53 3.546a27.052 27.052 0 0 0-6.017-2.507V1H24.598v5.47a27.053 27.053 0 0 0-6.017 2.506l-3.53-3.546L4.627 15.912l3.541 3.558a27.44 27.44 0 0 0-2.571 6.359H1V40.65h4.812c.663 2.26 1.609 4.4 2.795 6.377l-3.192 3.209 10.432 10.482 3.523-3.54a27.206 27.206 0 0 0 6.349 2.374v4.814h14.015v-4.814a26.305 26.305 0 0 0 3.56-1.112" stroke="#222" stroke-width="2" stroke-linecap="round" stroke-linejoin="round"/>
    <path d="M49.763 38.703a18.157 18.157 0 0 0 1.012-6.551c-.271-9.424-7.842-17.172-17.214-17.605-10.637-.486-19.364 8.27-18.9 18.951.403 9.328 7.962 16.913 17.243 17.328a17.821 17.821 0 0 0 6.409-.877M64.652 38.246c3.728.872 6.348 4.256 6.348 8.3 0 2.555-.62 6.215-3.415 9.66C62.748 62.167 56.268 66.518 54.491 67c-1.548-.42-6.644-3.763-11.13-8.553" stroke="#222" stroke-width="2" stroke-linecap="round" stroke-linejoin="round"/>
    <path d="M49.883 38.703c2.289.914 4.024 2.723 4.644 5.23 1.006-3.65 4.306-5.91 8.221-5.91.663 0 1.301.079 1.91.223M38.355 49.948a15.063 15.063 0 0 0 3.042 6.257 44.358 44.358 0 0 0 1.957 2.242" stroke="#222" stroke-width="2" stroke-linecap="round" stroke-linejoin="round"/>
    <path d="M49.883 38.703a9.783 9.783 0 0 0-3.65-.68c-4.716 0-8.251 3.817-8.251 8.524 0 .991.096 2.151.373 3.402" stroke="#222" stroke-width="2" stroke-linecap="round" stroke-linejoin="round"/>
</svg>
