<svg width="72" height="72" viewBox="0 0 72 72" fill="none" xmlns="http://www.w3.org/2000/svg">
    <path d="m35.31 28.469 7.792-7.978c-1.539-5.217-.3-11.13 3.708-15.18 2.462-2.49 5.547-3.858 8.707-4.128 2.253-.2 4.532.157 6.652 1.062l-7.866 7.96 7.933 8.605 7.866-7.96c1.921 5.4.757 11.714-3.46 15.973-4.007 4.058-9.687 5.147-14.618 3.353l-5.064 5.182M27.285 36.69 7.644 56.791c-2.553 2.578-2.62 6.846-.158 9.51 2.461 2.674 6.536 2.744 9.08.166l17.08-17.488M30.03 39.564a5.88 5.88 0 0 1 .965-1.376l5.513-5.774c.399-.418.84-.75 1.314-1.01" stroke="#fff" stroke-width="2" stroke-linecap="round" stroke-linejoin="round"/>
    <path d="M33.655 48.979 53.097 69.34c2.112 2.212 5.53 2.212 7.642 0l5.513-5.774c2.112-2.212 2.112-5.792 0-8.004L46.96 35.358M46.96 35.358l-2.81-2.944c-1.713-1.794-4.29-2.134-6.336-1.01M30.03 39.564c-1.074 2.134-.75 4.834.964 6.637l2.653 2.778M30.03 39.564l-2.744-2.874M35.31 28.469 23.86 16.476 22.17 9.622 8.06 1 1 8.394l8.232 14.78 6.686 1.61L27.285 36.69" stroke="#fff" stroke-width="2" stroke-linecap="round" stroke-linejoin="round"/>
    <path d="m35.31 28.469 2.66 2.787-.149.148" stroke="#fff" stroke-width="2" stroke-linecap="round" stroke-linejoin="round"/>
</svg>
