<svg width="71" height="67" viewBox="0 0 71 67" fill="none" xmlns="http://www.w3.org/2000/svg">
    <path d="M31.847 50.18c9.665 0 17.5-7.987 17.5-17.839 0-9.851-7.835-17.838-17.5-17.838s-17.5 7.987-17.5 17.838c0 9.852 7.835 17.838 17.5 17.838z" stroke="#fff" stroke-width="2" stroke-linecap="round" stroke-linejoin="round"/>
    <path d="M57.204 23.095a27.343 27.343 0 0 0-1.709-3.823l3.43-3.52-10.103-10.37-3.419 3.508a25.901 25.901 0 0 0-5.827-2.48V1H23.86v5.41a25.9 25.9 0 0 0-5.828 2.48l-3.418-3.508-10.103 10.37 3.43 3.52a27.483 27.483 0 0 0-2.491 6.29H1v14.663h4.66a27.353 27.353 0 0 0 2.708 6.31l-3.092 3.174 10.103 10.37 3.413-3.502a26.006 26.006 0 0 0 6.148 2.348v4.763h13.574v-4.763a25.079 25.079 0 0 0 3.448-1.1M59.117 25.563l-1.936 3.924 5.25 2.694M59.117 25.563l1.418-2.878a9.525 9.525 0 0 0-3.33.416" stroke="#fff" stroke-width="2" stroke-linecap="round" stroke-linejoin="round"/>
    <path d="M57.204 23.095c-.402.125-.799.274-1.184.446a9.78 9.78 0 0 0-4.725 4.596 10.086 10.086 0 0 0 .887 10.382l-10.11 20.496c-1.09 2.206-.215 4.893 1.949 6.005s4.8.22 5.892-1.986l10.109-20.496c3.564-.006 6.994-2.003 8.703-5.47 1.797-3.639 1.184-7.866-1.213-10.816l-3.355 6.808-1.714-.88" stroke="#fff" stroke-width="2" stroke-linecap="round" stroke-linejoin="round"/>
</svg>
